<svg width="1525" height="143" viewBox="0 0 1525 143" fill="none" xmlns="http://www.w3.org/2000/svg">
<path d="M110.633 3.57422H128.797V140H109.168V33.8477L67.1758 86.582H63.5625L21.1797 33.8477V140H1.64844V3.57422H20.0078L65.418 59.6289L110.633 3.57422ZM201.844 2.79297H215.613L276.648 140H256.629L238.465 99.5703H180.457L163.27 140H143.25L201.844 2.79297ZM230.457 82.1875L208.484 32.7734L188.074 82.1875H230.457ZM368.836 3.57422H393.25L334.07 68.2227L407.801 140H381.043L311.414 72.6172V140H291.883V3.57422H311.414V65.9766L368.836 3.57422ZM422.938 3.57422H500.281V20.957H442.469V62.5586H498.328V80.0391H442.469V122.422H502.137V139.805H422.938V3.57422ZM515.906 86.1914H564.539V105.234H515.906V86.1914ZM682.508 3.57422H702.137V81.0156C702.137 91.4974 701.355 99.4076 699.793 104.746C698.296 110.085 696.408 114.544 694.129 118.125C691.915 121.641 689.181 124.798 685.926 127.598C675.118 136.908 660.991 141.562 643.543 141.562C625.77 141.562 611.512 136.94 600.77 127.695C597.514 124.831 594.747 121.641 592.469 118.125C590.255 114.544 588.4 110.182 586.902 105.039C585.47 99.8958 584.754 91.8229 584.754 80.8203V3.57422H604.383V81.0156C604.383 93.8411 605.848 102.76 608.777 107.773C611.707 112.786 616.167 116.823 622.156 119.883C628.146 122.878 635.21 124.375 643.348 124.375C654.936 124.375 664.376 121.348 671.668 115.293C675.509 112.038 678.276 108.197 679.969 103.77C681.661 99.3424 682.508 91.7578 682.508 81.0156V3.57422ZM728.113 140V3.37891H771.375C784.396 3.37891 794.78 6.89453 802.527 13.9258C810.275 20.957 814.148 30.3971 814.148 42.2461C814.148 50.1888 812.163 57.2201 808.191 63.3398C804.22 69.4596 798.784 73.9193 791.883 76.7188C784.982 79.4531 775.086 80.8203 762.195 80.8203H747.742V140H728.113ZM767.957 20.7617H747.742V63.4375H769.129C777.072 63.4375 783.191 61.582 787.488 57.8711C791.785 54.0951 793.934 48.724 793.934 41.7578C793.934 27.7604 785.275 20.7617 767.957 20.7617ZM965.906 2.79297H979.676L1040.71 140H1020.69L1002.53 99.5703H944.52L927.332 140H907.312L965.906 2.79297ZM994.52 82.1875L972.547 32.7734L952.137 82.1875H994.52ZM1056.34 140V3.57422H1090.52C1104.32 3.57422 1115.26 6.99219 1123.33 13.8281C1131.47 20.6641 1135.54 29.9089 1135.54 41.5625C1135.54 49.5052 1133.55 56.3737 1129.58 62.168C1125.61 67.9622 1119.91 72.2917 1112.49 75.1562C1116.85 78.0208 1121.11 81.9271 1125.28 86.875C1129.45 91.8229 1135.31 100.449 1142.86 112.754C1147.61 120.501 1151.42 126.328 1154.29 130.234L1161.51 140H1138.27L1132.31 131.016C1132.12 130.69 1131.73 130.137 1131.14 129.355L1127.33 123.984L1121.28 114.023L1114.73 103.379C1110.7 97.7799 1106.99 93.3203 1103.6 90C1100.28 86.6797 1097.25 84.3034 1094.52 82.8711C1091.85 81.3737 1087.33 80.625 1080.95 80.625H1075.87V140H1056.34ZM1081.73 20.1758H1075.87V63.2422H1083.29C1093.18 63.2422 1099.96 62.3958 1103.6 60.7031C1107.31 59.0104 1110.18 56.4714 1112.2 53.0859C1114.28 49.6354 1115.32 45.7292 1115.32 41.3672C1115.32 37.0703 1114.18 33.1966 1111.9 29.7461C1109.62 26.2305 1106.4 23.7565 1102.23 22.3242C1098.13 20.8919 1091.3 20.1758 1081.73 20.1758ZM1147.06 3.37891H1261.02V20.7617H1213.46V140H1193.84V20.7617H1147.06V3.37891ZM1279.77 3.57422H1299.3V140H1279.77V3.57422ZM1363.37 82.7734L1348.52 73.7891C1339.21 68.125 1332.57 62.5586 1328.6 57.0898C1324.7 51.556 1322.74 45.2083 1322.74 38.0469C1322.74 27.3047 1326.45 18.5807 1333.88 11.875C1341.36 5.16927 1351.06 1.81641 1362.98 1.81641C1374.37 1.81641 1384.82 5.00651 1394.32 11.3867V33.5547C1384.49 24.1146 1373.91 19.3945 1362.59 19.3945C1356.21 19.3945 1350.96 20.8919 1346.86 23.8867C1342.76 26.8164 1340.71 30.5924 1340.71 35.2148C1340.71 39.3164 1342.21 43.1576 1345.2 46.7383C1348.2 50.319 1353.05 54.0625 1359.75 57.9688L1374.7 66.7578C1391.36 76.6536 1399.7 89.2839 1399.7 104.648C1399.7 115.586 1396.02 124.473 1388.66 131.309C1381.37 138.145 1371.86 141.562 1360.14 141.562C1346.67 141.562 1334.4 137.428 1323.33 129.16V104.355C1333.88 117.702 1346.08 124.375 1359.95 124.375C1366.07 124.375 1371.15 122.682 1375.18 119.297C1379.29 115.846 1381.34 111.549 1381.34 106.406C1381.34 98.0729 1375.35 90.1953 1363.37 82.7734ZM1409.56 3.37891H1523.52V20.7617H1475.96V140H1456.34V20.7617H1409.56V3.37891Z" fill="white"/>
<path d="M110.633 3.57422V2.57422H110.155L109.854 2.94639L110.633 3.57422ZM128.797 3.57422H129.797V2.57422H128.797V3.57422ZM128.797 140V141H129.797V140H128.797ZM109.168 140H108.168V141H109.168V140ZM109.168 33.8477H110.168V30.9865L108.386 33.2247L109.168 33.8477ZM67.1758 86.582V87.582H67.6578L67.9581 87.205L67.1758 86.582ZM63.5625 86.582L62.783 87.2085L63.0833 87.582H63.5625V86.582ZM21.1797 33.8477L21.9591 33.2212L20.1797 31.0071V33.8477H21.1797ZM21.1797 140V141H22.1797V140H21.1797ZM1.64844 140H0.648438V141H1.64844V140ZM1.64844 3.57422V2.57422H0.648438V3.57422H1.64844ZM20.0078 3.57422L20.7848 2.94475L20.4847 2.57422H20.0078V3.57422ZM65.418 59.6289L64.6409 60.2584L65.4196 61.2196L66.1963 60.2567L65.418 59.6289ZM110.633 4.57422H128.797V2.57422H110.633V4.57422ZM127.797 3.57422V140H129.797V3.57422H127.797ZM128.797 139H109.168V141H128.797V139ZM110.168 140V33.8477H108.168V140H110.168ZM108.386 33.2247L66.3935 85.9591L67.9581 87.205L109.95 34.4706L108.386 33.2247ZM67.1758 85.582H63.5625V87.582H67.1758V85.582ZM64.342 85.9556L21.9591 33.2212L20.4002 34.4741L62.783 87.2085L64.342 85.9556ZM20.1797 33.8477V140H22.1797V33.8477H20.1797ZM21.1797 139H1.64844V141H21.1797V139ZM2.64844 140V3.57422H0.648438V140H2.64844ZM1.64844 4.57422H20.0078V2.57422H1.64844V4.57422ZM19.2308 4.20369L64.6409 60.2584L66.195 58.9994L20.7848 2.94475L19.2308 4.20369ZM66.1963 60.2567L111.411 4.20205L109.854 2.94639L64.6396 59.0011L66.1963 60.2567ZM201.844 2.79297V1.79297H201.183L200.924 2.40023L201.844 2.79297ZM215.613 2.79297L216.527 2.38653L216.263 1.79297H215.613V2.79297ZM276.648 140V141H278.188L277.562 139.594L276.648 140ZM256.629 140L255.717 140.41L255.982 141H256.629V140ZM238.465 99.5703L239.377 99.1605L239.112 98.5703H238.465V99.5703ZM180.457 99.5703V98.5703H179.796L179.537 99.1791L180.457 99.5703ZM163.27 140V141H163.931L164.19 140.391L163.27 140ZM143.25 140L142.33 139.607L141.736 141H143.25V140ZM230.457 82.1875V83.1875H231.996L231.371 81.7812L230.457 82.1875ZM208.484 32.7734L209.398 32.3671L208.45 30.236L207.56 32.3917L208.484 32.7734ZM188.074 82.1875L187.15 81.8057L186.579 83.1875H188.074V82.1875ZM201.844 3.79297H215.613V1.79297H201.844V3.79297ZM214.7 3.19941L275.735 140.406L277.562 139.594L216.527 2.38653L214.7 3.19941ZM276.648 139H256.629V141H276.648V139ZM257.541 139.59L239.377 99.1605L237.553 99.9801L255.717 140.41L257.541 139.59ZM238.465 98.5703H180.457V100.57H238.465V98.5703ZM179.537 99.1791L162.349 139.609L164.19 140.391L181.377 99.9615L179.537 99.1791ZM163.27 139H143.25V141H163.27V139ZM144.17 140.393L202.763 3.1857L200.924 2.40023L142.33 139.607L144.17 140.393ZM231.371 81.7812L209.398 32.3671L207.571 33.1797L229.543 82.5938L231.371 81.7812ZM207.56 32.3917L187.15 81.8057L188.998 82.5693L209.409 33.1552L207.56 32.3917ZM188.074 83.1875H230.457V81.1875H188.074V83.1875ZM368.836 3.57422V2.57422H368.397L368.1 2.89709L368.836 3.57422ZM393.25 3.57422L393.988 4.24944L395.521 2.57422H393.25V3.57422ZM334.07 68.2227L333.333 67.5474L332.678 68.2627L333.373 68.9392L334.07 68.2227ZM407.801 140V141H410.262L408.498 139.283L407.801 140ZM381.043 140L380.348 140.719L380.638 141H381.043V140ZM311.414 72.6172L312.109 71.8986L310.414 70.2579V72.6172H311.414ZM311.414 140V141H312.414V140H311.414ZM291.883 140H290.883V141H291.883V140ZM291.883 3.57422V2.57422H290.883V3.57422H291.883ZM311.414 3.57422H312.414V2.57422H311.414V3.57422ZM311.414 65.9766H310.414V68.5401L312.15 66.6537L311.414 65.9766ZM368.836 4.57422H393.25V2.57422H368.836V4.57422ZM392.512 2.899L333.333 67.5474L334.808 68.8979L393.988 4.24944L392.512 2.899ZM333.373 68.9392L407.103 140.717L408.498 139.283L334.768 67.5061L333.373 68.9392ZM407.801 139H381.043V141H407.801V139ZM381.738 139.281L312.109 71.8986L310.719 73.3358L380.348 140.719L381.738 139.281ZM310.414 72.6172V140H312.414V72.6172H310.414ZM311.414 139H291.883V141H311.414V139ZM292.883 140V3.57422H290.883V140H292.883ZM291.883 4.57422H311.414V2.57422H291.883V4.57422ZM310.414 3.57422V65.9766H312.414V3.57422H310.414ZM312.15 66.6537L369.572 4.25135L368.1 2.89709L310.678 65.2994L312.15 66.6537ZM422.938 3.57422V2.57422H421.938V3.57422H422.938ZM500.281 3.57422H501.281V2.57422H500.281V3.57422ZM500.281 20.957V21.957H501.281V20.957H500.281ZM442.469 20.957V19.957H441.469V20.957H442.469ZM442.469 62.5586H441.469V63.5586H442.469V62.5586ZM498.328 62.5586H499.328V61.5586H498.328V62.5586ZM498.328 80.0391V81.0391H499.328V80.0391H498.328ZM442.469 80.0391V79.0391H441.469V80.0391H442.469ZM442.469 122.422H441.469V123.422H442.469V122.422ZM502.137 122.422H503.137V121.422H502.137V122.422ZM502.137 139.805V140.805H503.137V139.805H502.137ZM422.938 139.805H421.938V140.805H422.938V139.805ZM422.938 4.57422H500.281V2.57422H422.938V4.57422ZM499.281 3.57422V20.957H501.281V3.57422H499.281ZM500.281 19.957H442.469V21.957H500.281V19.957ZM441.469 20.957V62.5586H443.469V20.957H441.469ZM442.469 63.5586H498.328V61.5586H442.469V63.5586ZM497.328 62.5586V80.0391H499.328V62.5586H497.328ZM498.328 79.0391H442.469V81.0391H498.328V79.0391ZM441.469 80.0391V122.422H443.469V80.0391H441.469ZM442.469 123.422H502.137V121.422H442.469V123.422ZM501.137 122.422V139.805H503.137V122.422H501.137ZM502.137 138.805H422.938V140.805H502.137V138.805ZM423.938 139.805V3.57422H421.938V139.805H423.938ZM515.906 86.1914V85.1914H514.906V86.1914H515.906ZM564.539 86.1914H565.539V85.1914H564.539V86.1914ZM564.539 105.234V106.234H565.539V105.234H564.539ZM515.906 105.234H514.906V106.234H515.906V105.234ZM515.906 87.1914H564.539V85.1914H515.906V87.1914ZM563.539 86.1914V105.234H565.539V86.1914H563.539ZM564.539 104.234H515.906V106.234H564.539V104.234ZM516.906 105.234V86.1914H514.906V105.234H516.906ZM682.508 3.57422V2.57422H681.508V3.57422H682.508ZM702.137 3.57422H703.137V2.57422H702.137V3.57422ZM699.793 104.746L698.833 104.465L698.83 104.476L699.793 104.746ZM694.129 118.125L693.285 117.588L693.283 117.592L694.129 118.125ZM685.926 127.598L685.274 126.839L685.273 126.84L685.926 127.598ZM600.77 127.695L600.109 128.446L600.117 128.453L600.77 127.695ZM592.469 118.125L591.618 118.651L591.624 118.66L591.63 118.669L592.469 118.125ZM586.902 105.039L585.939 105.307L585.942 105.319L586.902 105.039ZM584.754 3.57422V2.57422H583.754V3.57422H584.754ZM604.383 3.57422H605.383V2.57422H604.383V3.57422ZM622.156 119.883L621.701 120.773L621.709 120.777L622.156 119.883ZM671.668 115.293L672.307 116.062L672.314 116.056L671.668 115.293ZM679.969 103.77L679.035 103.412L679.969 103.77ZM682.508 4.57422H702.137V2.57422H682.508V4.57422ZM701.137 3.57422V81.0156H703.137V3.57422H701.137ZM701.137 81.0156C701.137 91.4705 700.355 99.266 698.833 104.465L700.753 105.027C702.356 99.5491 703.137 91.5243 703.137 81.0156H701.137ZM698.83 104.476C697.352 109.747 695.498 114.111 693.285 117.588L694.973 118.662C697.317 114.978 699.24 110.422 700.756 105.016L698.83 104.476ZM693.283 117.592C691.124 121.021 688.456 124.103 685.274 126.839L686.578 128.356C689.906 125.494 692.707 122.261 694.975 118.658L693.283 117.592ZM685.273 126.84C674.685 135.961 660.807 140.562 643.543 140.562V142.562C661.175 142.562 675.552 137.854 686.578 128.355L685.273 126.84ZM643.543 140.562C625.946 140.562 611.94 135.989 601.422 126.937L600.117 128.453C611.083 137.891 625.593 142.562 643.543 142.562V140.562ZM601.43 126.945C598.241 124.138 595.535 121.017 593.308 117.581L591.63 118.669C593.96 122.264 596.787 125.523 600.109 128.446L601.43 126.945ZM593.319 117.599C591.164 114.113 589.341 109.838 587.862 104.76L585.942 105.319C587.458 110.526 589.346 114.976 591.618 118.651L593.319 117.599ZM587.866 104.771C586.472 99.7656 585.754 91.8069 585.754 80.8203H583.754C583.754 91.8389 584.468 100.026 585.939 105.307L587.866 104.771ZM585.754 80.8203V3.57422H583.754V80.8203H585.754ZM584.754 4.57422H604.383V2.57422H584.754V4.57422ZM603.383 3.57422V81.0156H605.383V3.57422H603.383ZM603.383 81.0156C603.383 93.8519 604.837 103.014 607.914 108.278L609.641 107.269C606.858 102.507 605.383 93.8303 605.383 81.0156H603.383ZM607.914 108.278C610.955 113.481 615.569 117.641 621.701 120.773L622.611 118.992C616.764 116.005 612.459 112.092 609.641 107.269L607.914 108.278ZM621.709 120.777C627.864 123.855 635.087 125.375 643.348 125.375V123.375C635.332 123.375 628.427 121.9 622.603 118.988L621.709 120.777ZM643.348 125.375C655.116 125.375 664.798 122.297 672.307 116.062L671.029 114.524C663.954 120.398 654.757 123.375 643.348 123.375V125.375ZM672.314 116.056C676.276 112.699 679.146 108.721 680.903 104.127L679.035 103.412C677.406 107.672 674.742 111.377 671.021 114.53L672.314 116.056ZM680.903 104.127C682.667 99.5126 683.508 91.7643 683.508 81.0156H681.508C681.508 91.7513 680.656 99.1723 679.035 103.412L680.903 104.127ZM683.508 81.0156V3.57422H681.508V81.0156H683.508ZM728.113 140H727.113V141H728.113V140ZM728.113 3.37891V2.37891H727.113V3.37891H728.113ZM791.883 76.7188L792.251 77.6485L792.259 77.6454L791.883 76.7188ZM747.742 80.8203V79.8203H746.742V80.8203H747.742ZM747.742 140V141H748.742V140H747.742ZM747.742 20.7617V19.7617H746.742V20.7617H747.742ZM747.742 63.4375H746.742V64.4375H747.742V63.4375ZM787.488 57.8711L788.142 58.6279L788.148 58.6223L787.488 57.8711ZM729.113 140V3.37891H727.113V140H729.113ZM728.113 4.37891H771.375V2.37891H728.113V4.37891ZM771.375 4.37891C784.211 4.37891 794.334 7.8402 801.855 14.6663L803.199 13.1853C795.226 5.94886 784.581 2.37891 771.375 2.37891V4.37891ZM801.855 14.6663C809.365 21.4819 813.148 30.6378 813.148 42.2461H815.148C815.148 30.1565 811.184 20.4322 803.199 13.1853L801.855 14.6663ZM813.148 42.2461C813.148 50.0134 811.209 56.8521 807.353 62.7955L809.03 63.8842C813.116 57.588 815.148 50.3642 815.148 42.2461H813.148ZM807.353 62.7955C803.495 68.7397 798.222 73.0679 791.507 75.7921L792.259 77.6454C799.345 74.7706 804.945 70.1796 809.03 63.8842L807.353 62.7955ZM791.514 75.7891C784.787 78.4548 775.039 79.8203 762.195 79.8203V81.8203C775.133 81.8203 785.177 80.4515 792.251 77.6484L791.514 75.7891ZM762.195 79.8203H747.742V81.8203H762.195V79.8203ZM746.742 80.8203V140H748.742V80.8203H746.742ZM747.742 139H728.113V141H747.742V139ZM767.957 19.7617H747.742V21.7617H767.957V19.7617ZM746.742 20.7617V63.4375H748.742V20.7617H746.742ZM747.742 64.4375H769.129V62.4375H747.742V64.4375ZM769.129 64.4375C777.216 64.4375 783.602 62.5484 788.142 58.6279L786.835 57.1143C782.78 60.6157 776.927 62.4375 769.129 62.4375V64.4375ZM788.148 58.6223C792.708 54.6156 794.934 48.9434 794.934 41.7578H792.934C792.934 48.5045 790.863 53.5745 786.828 57.1199L788.148 58.6223ZM794.934 41.7578C794.934 34.5419 792.691 28.9698 788.068 25.233C783.486 21.5291 776.725 19.7617 767.957 19.7617V21.7617C776.507 21.7617 782.734 23.4937 786.811 26.7885C790.846 30.0504 792.934 34.9763 792.934 41.7578H794.934ZM965.906 2.79297V1.79297H965.246L964.987 2.40023L965.906 2.79297ZM979.676 2.79297L980.589 2.38653L980.325 1.79297H979.676V2.79297ZM1040.71 140V141H1042.25L1041.62 139.594L1040.71 140ZM1020.69 140L1019.78 140.41L1020.04 141H1020.69V140ZM1002.53 99.5703L1003.44 99.1605L1003.17 98.5703H1002.53V99.5703ZM944.52 99.5703V98.5703H943.858L943.599 99.1791L944.52 99.5703ZM927.332 140V141H927.994L928.252 140.391L927.332 140ZM907.312 140L906.393 139.607L905.798 141H907.312V140ZM994.52 82.1875V83.1875H996.059L995.433 81.7812L994.52 82.1875ZM972.547 32.7734L973.461 32.3671L972.513 30.236L971.623 32.3917L972.547 32.7734ZM952.137 82.1875L951.212 81.8057L950.642 83.1875H952.137V82.1875ZM965.906 3.79297H979.676V1.79297H965.906V3.79297ZM978.762 3.19941L1039.8 140.406L1041.62 139.594L980.589 2.38653L978.762 3.19941ZM1040.71 139H1020.69V141H1040.71V139ZM1021.6 139.59L1003.44 99.1605L1001.62 99.9801L1019.78 140.41L1021.6 139.59ZM1002.53 98.5703H944.52V100.57H1002.53V98.5703ZM943.599 99.1791L926.412 139.609L928.252 140.391L945.44 99.9615L943.599 99.1791ZM927.332 139H907.312V141H927.332V139ZM908.232 140.393L966.826 3.1857L964.987 2.40023L906.393 139.607L908.232 140.393ZM995.433 81.7812L973.461 32.3671L971.633 33.1797L993.606 82.5938L995.433 81.7812ZM971.623 32.3917L951.212 81.8057L953.061 82.5693L973.471 33.1552L971.623 32.3917ZM952.137 83.1875H994.52V81.1875H952.137V83.1875ZM1056.34 140H1055.34V141H1056.34V140ZM1056.34 3.57422V2.57422H1055.34V3.57422H1056.34ZM1123.33 13.8281L1122.68 14.5913L1122.68 14.5938L1123.33 13.8281ZM1112.49 75.1562L1112.13 74.2233L1110.31 74.924L1111.94 75.9921L1112.49 75.1562ZM1142.86 112.754L1143.71 112.231L1143.71 112.231L1142.86 112.754ZM1154.29 130.234L1153.48 130.826L1153.48 130.829L1154.29 130.234ZM1161.51 140V141H1163.5L1162.32 139.405L1161.51 140ZM1138.27 140L1137.44 140.553L1137.73 141H1138.27V140ZM1132.31 131.016L1131.46 131.53L1131.47 131.549L1131.48 131.568L1132.31 131.016ZM1131.14 129.355L1130.32 129.934L1130.33 129.945L1130.34 129.955L1131.14 129.355ZM1127.33 123.984L1126.48 124.504L1126.5 124.534L1126.52 124.563L1127.33 123.984ZM1121.28 114.023L1122.13 113.504L1122.13 113.5L1121.28 114.023ZM1114.73 103.379L1115.59 102.855L1115.57 102.824L1115.55 102.794L1114.73 103.379ZM1103.6 90L1102.89 90.7071L1102.9 90.7139L1103.6 90ZM1094.52 82.8711L1094.03 83.7432L1094.04 83.7503L1094.06 83.7569L1094.52 82.8711ZM1075.87 80.625V79.625H1074.87V80.625H1075.87ZM1075.87 140V141H1076.87V140H1075.87ZM1075.87 20.1758V19.1758H1074.87V20.1758H1075.87ZM1075.87 63.2422H1074.87V64.2422H1075.87V63.2422ZM1103.6 60.7031L1103.19 59.7933L1103.18 59.7961L1103.6 60.7031ZM1112.2 53.0859L1111.34 52.5691L1111.34 52.5739L1112.2 53.0859ZM1111.9 29.7461L1111.06 30.29L1111.07 30.2972L1111.9 29.7461ZM1102.23 22.3242L1101.9 23.2683L1101.91 23.2699L1102.23 22.3242ZM1057.34 140V3.57422H1055.34V140H1057.34ZM1056.34 4.57422H1090.52V2.57422H1056.34V4.57422ZM1090.52 4.57422C1104.15 4.57422 1114.84 7.94975 1122.68 14.5913L1123.97 13.065C1115.67 6.03463 1104.48 2.57422 1090.52 2.57422V4.57422ZM1122.68 14.5938C1130.57 21.2199 1134.54 30.172 1134.54 41.5625H1136.54C1136.54 29.6457 1132.36 20.1082 1123.97 13.0624L1122.68 14.5938ZM1134.54 41.5625C1134.54 49.3307 1132.6 55.996 1128.75 61.6026L1130.4 62.7333C1134.5 56.7514 1136.54 49.6797 1136.54 41.5625H1134.54ZM1128.75 61.6026C1124.91 67.2087 1119.39 71.4215 1112.13 74.2233L1112.85 76.0892C1120.43 73.1618 1126.3 68.7158 1130.4 62.7333L1128.75 61.6026ZM1111.94 75.9921C1116.2 78.7927 1120.4 82.6283 1124.52 87.5191L1126.05 86.2309C1121.83 81.2259 1117.5 77.249 1113.04 74.3204L1111.94 75.9921ZM1124.52 87.5191C1128.63 92.4053 1134.46 100.976 1142.01 113.277L1143.71 112.231C1136.16 99.9224 1130.26 91.2405 1126.05 86.2309L1124.52 87.5191ZM1142.01 113.277C1146.76 121.031 1150.59 126.886 1153.48 130.826L1155.09 129.643C1152.25 125.77 1148.46 119.971 1143.71 112.231L1142.01 113.277ZM1153.48 130.829L1160.71 140.595L1162.32 139.405L1155.09 129.64L1153.48 130.829ZM1161.51 139H1138.27V141H1161.51V139ZM1139.1 139.447L1133.15 130.463L1131.48 131.568L1137.44 140.553L1139.1 139.447ZM1133.17 130.501C1132.94 130.126 1132.52 129.535 1131.94 128.755L1130.34 129.955C1130.93 130.739 1131.29 131.254 1131.46 131.53L1133.17 130.501ZM1131.96 128.777L1128.15 123.406L1126.52 124.563L1130.32 129.934L1131.96 128.777ZM1128.19 123.465L1122.13 113.504L1120.42 114.543L1126.48 124.504L1128.19 123.465ZM1122.13 113.5L1115.59 102.855L1113.88 103.903L1120.43 114.547L1122.13 113.5ZM1115.55 102.794C1111.49 97.1678 1107.74 92.6597 1104.3 89.2861L1102.9 90.7139C1106.23 93.981 1109.91 98.3921 1113.92 103.964L1115.55 102.794ZM1104.31 89.2929C1100.95 85.9342 1097.84 83.4822 1094.98 81.9853L1094.06 83.7569C1096.67 85.1246 1099.61 87.4251 1102.89 90.7071L1104.31 89.2929ZM1095.01 81.999C1092.1 80.3669 1087.35 79.625 1080.95 79.625V81.625C1087.3 81.625 1091.6 82.3805 1094.03 83.7432L1095.01 81.999ZM1080.95 79.625H1075.87V81.625H1080.95V79.625ZM1074.87 80.625V140H1076.87V80.625H1074.87ZM1075.87 139H1056.34V141H1075.87V139ZM1081.73 19.1758H1075.87V21.1758H1081.73V19.1758ZM1074.87 20.1758V63.2422H1076.87V20.1758H1074.87ZM1075.87 64.2422H1083.29V62.2422H1075.87V64.2422ZM1083.29 64.2422C1093.18 64.2422 1100.15 63.4062 1104.02 61.6101L1103.18 59.7961C1099.76 61.3854 1093.19 62.2422 1083.29 62.2422V64.2422ZM1104.02 61.6129C1107.91 59.839 1110.93 57.1644 1113.05 53.598L1111.34 52.5739C1109.43 55.7783 1106.72 58.1818 1103.19 59.7933L1104.02 61.6129ZM1113.05 53.6028C1115.24 49.9836 1116.32 45.8958 1116.32 41.3672H1114.32C1114.32 45.5625 1113.32 49.2873 1111.34 52.5691L1113.05 53.6028ZM1116.32 41.3672C1116.32 36.8825 1115.13 32.8157 1112.74 29.195L1111.07 30.2972C1113.23 33.5775 1114.32 37.2581 1114.32 41.3672H1116.32ZM1112.74 29.2022C1110.33 25.4888 1106.93 22.8795 1102.56 21.3785L1101.91 23.2699C1105.88 24.6335 1108.91 26.9722 1111.06 30.29L1112.74 29.2022ZM1102.56 21.3801C1098.29 19.8878 1091.31 19.1758 1081.73 19.1758V21.1758C1091.29 21.1758 1097.98 21.896 1101.9 23.2683L1102.56 21.3801ZM1147.06 3.37891V2.37891H1146.06V3.37891H1147.06ZM1261.02 3.37891H1262.02V2.37891H1261.02V3.37891ZM1261.02 20.7617V21.7617H1262.02V20.7617H1261.02ZM1213.46 20.7617V19.7617H1212.46V20.7617H1213.46ZM1213.46 140V141H1214.46V140H1213.46ZM1193.84 140H1192.84V141H1193.84V140ZM1193.84 20.7617H1194.84V19.7617H1193.84V20.7617ZM1147.06 20.7617H1146.06V21.7617H1147.06V20.7617ZM1147.06 4.37891H1261.02V2.37891H1147.06V4.37891ZM1260.02 3.37891V20.7617H1262.02V3.37891H1260.02ZM1261.02 19.7617H1213.46V21.7617H1261.02V19.7617ZM1212.46 20.7617V140H1214.46V20.7617H1212.46ZM1213.46 139H1193.84V141H1213.46V139ZM1194.84 140V20.7617H1192.84V140H1194.84ZM1193.84 19.7617H1147.06V21.7617H1193.84V19.7617ZM1148.06 20.7617V3.37891H1146.06V20.7617H1148.06ZM1279.77 3.57422V2.57422H1278.77V3.57422H1279.77ZM1299.3 3.57422H1300.3V2.57422H1299.3V3.57422ZM1299.3 140V141H1300.3V140H1299.3ZM1279.77 140H1278.77V141H1279.77V140ZM1279.77 4.57422H1299.3V2.57422H1279.77V4.57422ZM1298.3 3.57422V140H1300.3V3.57422H1298.3ZM1299.3 139H1279.77V141H1299.3V139ZM1280.77 140V3.57422H1278.77V140H1280.77ZM1363.37 82.7734L1363.89 81.9233L1363.88 81.9179L1363.37 82.7734ZM1348.52 73.7891L1348 74.6434L1348.01 74.6446L1348.52 73.7891ZM1328.6 57.0898L1327.78 57.6666L1327.79 57.6774L1328.6 57.0898ZM1333.88 11.875L1333.21 11.1301L1333.2 11.133L1333.88 11.875ZM1394.32 11.3867H1395.32V10.8536L1394.88 10.5564L1394.32 11.3867ZM1394.32 33.5547L1393.63 34.276L1395.32 35.9014V33.5547H1394.32ZM1346.86 23.8867L1347.44 24.7005L1347.45 24.6943L1346.86 23.8867ZM1345.2 46.7383L1344.44 47.3798L1345.2 46.7383ZM1359.75 57.9688L1360.26 57.1068L1360.26 57.1047L1359.75 57.9688ZM1374.7 66.7578L1375.21 65.898L1375.2 65.8959L1374.7 66.7578ZM1388.66 131.309L1387.98 130.576L1387.98 130.579L1388.66 131.309ZM1323.33 129.16H1322.33V129.661L1322.73 129.961L1323.33 129.16ZM1323.33 104.355L1324.11 103.735L1322.33 101.477V104.355H1323.33ZM1375.18 119.297L1375.83 120.063L1375.83 120.062L1375.18 119.297ZM1363.88 81.9179L1349.04 72.9336L1348.01 74.6446L1362.85 83.6289L1363.88 81.9179ZM1349.04 72.9347C1339.79 67.3024 1333.27 61.8181 1329.41 56.5022L1327.79 57.6774C1331.87 63.299 1338.64 68.9476 1348 74.6434L1349.04 72.9347ZM1329.42 56.5132C1325.64 51.158 1323.74 45.0143 1323.74 38.0469H1321.74C1321.74 45.4023 1323.75 51.954 1327.78 57.6665L1329.42 56.5132ZM1323.74 38.0469C1323.74 27.564 1327.35 19.1179 1334.55 12.617L1333.2 11.133C1325.56 18.0435 1321.74 27.0454 1321.74 38.0469H1323.74ZM1334.54 12.6199C1341.81 6.108 1351.26 2.81641 1362.98 2.81641V0.816406C1350.86 0.816406 1340.91 4.23054 1333.21 11.1301L1334.54 12.6199ZM1362.98 2.81641C1374.17 2.81641 1384.43 5.94687 1393.77 12.217L1394.88 10.5564C1385.21 4.06615 1374.57 0.816406 1362.98 0.816406V2.81641ZM1393.32 11.3867V33.5547H1395.32V11.3867H1393.32ZM1395.02 32.8334C1385.04 23.2531 1374.22 18.3945 1362.59 18.3945V20.3945C1373.61 20.3945 1383.95 24.9761 1393.63 34.276L1395.02 32.8334ZM1362.59 18.3945C1356.05 18.3945 1350.59 19.9304 1346.27 23.0791L1347.45 24.6943C1351.34 21.8534 1356.36 20.3945 1362.59 20.3945V18.3945ZM1346.28 23.073C1341.95 26.1706 1339.71 30.2368 1339.71 35.2148H1341.71C1341.71 30.9481 1343.58 27.4622 1347.44 24.7005L1346.28 23.073ZM1339.71 35.2148C1339.71 39.5831 1341.31 43.6455 1344.44 47.3798L1345.97 46.0967C1343.1 42.6696 1341.71 39.0497 1341.71 35.2148H1339.71ZM1344.44 47.3798C1347.54 51.0891 1352.5 54.9016 1359.25 58.8328L1360.26 57.1047C1353.59 53.2234 1348.86 49.549 1345.97 46.0967L1344.44 47.3798ZM1359.25 58.8307L1374.19 67.6197L1375.2 65.8959L1360.26 57.1068L1359.25 58.8307ZM1374.18 67.6177C1390.64 77.3878 1398.7 89.7317 1398.7 104.648H1400.7C1400.7 88.836 1392.08 75.9195 1375.21 65.898L1374.18 67.6177ZM1398.7 104.648C1398.7 115.336 1395.11 123.947 1387.98 130.576L1389.34 132.041C1396.92 124.998 1400.7 115.836 1400.7 104.648H1398.7ZM1387.98 130.579C1380.9 137.212 1371.66 140.562 1360.14 140.562V142.562C1372.07 142.562 1381.84 139.077 1389.34 132.038L1387.98 130.579ZM1360.14 140.562C1346.89 140.562 1334.83 136.502 1323.93 128.359L1322.73 129.961C1333.97 138.355 1346.45 142.562 1360.14 142.562V140.562ZM1324.33 129.16V104.355H1322.33V129.16H1324.33ZM1322.54 104.975C1333.23 118.502 1345.71 125.375 1359.95 125.375V123.375C1346.46 123.375 1334.52 116.902 1324.11 103.735L1322.54 104.975ZM1359.95 125.375C1366.26 125.375 1371.58 123.623 1375.83 120.063L1374.54 118.531C1370.71 121.741 1365.87 123.375 1359.95 123.375V125.375ZM1375.83 120.062C1380.14 116.431 1382.34 111.859 1382.34 106.406H1380.34C1380.34 111.24 1378.43 115.262 1374.54 118.532L1375.83 120.062ZM1382.34 106.406C1382.34 97.5383 1375.96 89.3993 1363.89 81.9234L1362.84 83.6235C1374.73 90.9914 1380.34 98.6075 1380.34 106.406H1382.34ZM1409.56 3.37891V2.37891H1408.56V3.37891H1409.56ZM1523.52 3.37891H1524.52V2.37891H1523.52V3.37891ZM1523.52 20.7617V21.7617H1524.52V20.7617H1523.52ZM1475.96 20.7617V19.7617H1474.96V20.7617H1475.96ZM1475.96 140V141H1476.96V140H1475.96ZM1456.34 140H1455.34V141H1456.34V140ZM1456.34 20.7617H1457.34V19.7617H1456.34V20.7617ZM1409.56 20.7617H1408.56V21.7617H1409.56V20.7617ZM1409.56 4.37891H1523.52V2.37891H1409.56V4.37891ZM1522.52 3.37891V20.7617H1524.52V3.37891H1522.52ZM1523.52 19.7617H1475.96V21.7617H1523.52V19.7617ZM1474.96 20.7617V140H1476.96V20.7617H1474.96ZM1475.96 139H1456.34V141H1475.96V139ZM1457.34 140V20.7617H1455.34V140H1457.34ZM1456.34 19.7617H1409.56V21.7617H1456.34V19.7617ZM1410.56 20.7617V3.37891H1408.56V20.7617H1410.56Z" fill="black"/>
</svg>
