<svg width="350" height="84" viewBox="0 0 350 84" fill="none" xmlns="http://www.w3.org/2000/svg">
<g filter="url(#filter0_d)">
<path d="M62.0038 2.08863H72.3305V78.1291H62.9821L12.218 19.6155V78.1291H2V2.08863H10.8049L62.0038 61.0921V2.08863Z" fill="white"/>
<path d="M112.877 1.65318H120.54L154.51 78.1291H143.368L133.258 55.5946H100.974L91.4078 78.1291H80.2658L112.877 1.65318ZM128.801 45.9058L116.572 18.3636L105.213 45.9058H128.801Z" fill="white"/>
<path d="M195.708 1C207.448 1 217.213 4.71947 225.003 12.1584C232.83 19.5973 236.743 28.9232 236.743 40.1361C236.743 51.3489 232.793 60.6385 224.894 68.0049C217.032 75.335 207.103 79 195.11 79C183.66 79 174.112 75.335 166.467 68.0049C158.858 60.6385 155.053 51.4215 155.053 40.3538C155.053 28.9958 158.894 19.5973 166.576 12.1584C174.257 4.71947 183.968 1 195.708 1ZM196.143 11.3419C187.446 11.3419 180.29 14.0635 174.674 19.5066C169.094 24.9498 166.304 31.8988 166.304 40.3538C166.304 48.5548 169.112 55.3768 174.728 60.82C180.345 66.2631 187.374 68.9846 195.817 68.9846C204.295 68.9846 211.361 66.2087 217.014 60.6567C222.702 55.1047 225.547 48.1919 225.547 39.9184C225.547 31.8625 222.702 25.0949 217.014 19.6155C211.361 14.0998 204.404 11.3419 196.143 11.3419Z" fill="white"/>
<path d="M310.498 2.08863H320.607V78.1291H309.682V18.9623L286.311 48.3552H284.3L260.712 18.9623V78.1291H249.842V2.08863H260.06L285.333 33.3322L310.498 2.08863Z" fill="white"/>
<path d="M337.13 2.08863H348V78.1291H337.13V2.08863Z" fill="white"/>
<path d="M62.0038 1.58863H61.5038V2.08863V59.753L11.1825 1.76093L11.033 1.58863H10.8049H2H1.5V2.08863V78.1291V78.6291H2H12.218H12.718V78.1291V20.9548L62.6044 78.4568L62.7539 78.6291H62.9821H72.3305H72.8305V78.1291V2.08863V1.58863H72.3305H62.0038ZM112.877 1.15318H112.546L112.417 1.45705L79.8059 77.933L79.509 78.6291H80.2658H91.4078H91.7387L91.868 78.3245L101.305 56.0946H132.935L142.911 78.3338L143.044 78.6291H143.368H154.51H155.279L154.967 77.9261L120.997 1.4502L120.865 1.15318H120.54H112.877ZM225.235 68.3706L224.894 68.0049L225.235 68.3706C233.24 60.9056 237.243 51.4816 237.243 40.1361C237.243 28.7924 233.278 19.3337 225.348 11.7964C217.456 4.26053 207.563 0.5 195.708 0.5C183.852 0.5 174.012 4.26074 166.228 11.7992C158.442 19.3387 154.553 28.8698 154.553 40.3538C154.553 51.5501 158.408 60.8989 166.119 68.3641L166.121 68.3658C173.867 75.7928 183.542 79.5 195.11 79.5C207.214 79.5 217.269 75.7972 225.235 68.3706ZM216.664 60.2988L216.663 60.3C211.111 65.7532 204.174 68.4846 195.817 68.4846C187.493 68.4846 180.591 65.806 175.076 60.4609C169.562 55.117 166.804 48.4268 166.804 40.3538C166.804 32.0212 169.548 25.2055 175.022 19.8651C180.535 14.5232 187.561 11.8419 196.143 11.8419C204.28 11.8419 211.11 14.5533 216.664 19.9734L216.667 19.9756C222.255 25.3587 225.047 31.9953 225.047 39.9184C225.047 48.0633 222.252 54.8452 216.664 60.2988ZM310.498 1.58863H310.258L310.108 1.77499L285.332 32.5361L260.448 1.77417L260.298 1.58863H260.06H249.842H249.342V2.08863V78.1291V78.6291H249.842H260.712H261.212V78.1291V20.3842L283.91 48.6681L284.061 48.8552H284.3H286.311H286.553L286.703 48.6664L309.182 20.3945V78.1291V78.6291H309.682H320.607H321.107V78.1291V2.08863V1.58863H320.607H310.498ZM337.13 1.58863H336.63V2.08863V78.1291V78.6291H337.13H348H348.5V78.1291V2.08863V1.58863H348H337.13ZM105.96 45.4058L116.589 19.6338L128.032 45.4058H105.96Z" stroke="black" stroke-opacity="0.22"/>
</g>
<defs>
<filter id="filter0_d" x="0" y="0" width="350" height="84" filterUnits="userSpaceOnUse" color-interpolation-filters="sRGB">
<feFlood flood-opacity="0" result="BackgroundImageFix"/>
<feColorMatrix in="SourceAlpha" type="matrix" values="0 0 0 0 0 0 0 0 0 0 0 0 0 0 0 0 0 0 127 0"/>
<feOffset dy="3"/>
<feGaussianBlur stdDeviation="0.5"/>
<feColorMatrix type="matrix" values="0 0 0 0 0 0 0 0 0 0 0 0 0 0 0 0 0 0 0.35 0"/>
<feBlend mode="normal" in2="BackgroundImageFix" result="effect1_dropShadow"/>
<feBlend mode="normal" in="SourceGraphic" in2="effect1_dropShadow" result="shape"/>
</filter>
</defs>
</svg>
