<svg width="285" height="61" viewBox="0 0 285 61" fill="none" xmlns="http://www.w3.org/2000/svg">
<g filter="url(#filter0_d)">
<mask id="path-1-outside-1" maskUnits="userSpaceOnUse" x="1" y="0" width="283" height="57" fill="black">
<rect fill="white" x="1" width="283" height="57"/>
<path d="M2 1H33.2924V8.00787H9.90212V24.7795H32.5022V31.8268H9.90212V48.9134H34.0431V55.9213H2V1Z"/>
<path d="M42.4589 1H50.3611V48.8346H75.2133V56H42.4589V1Z"/>
<path d="M82.2067 55.9213V1H100.816C108.323 1 114.263 2.1286 118.636 4.38582C123.008 6.61679 126.485 9.91077 129.066 14.2677C131.648 18.6247 132.938 23.3753 132.938 28.5197C132.938 32.1942 132.227 35.7113 130.805 39.0709C129.382 42.4304 127.354 45.3832 124.72 47.9291C122.033 50.5538 118.912 52.5354 115.356 53.874C113.275 54.6877 111.366 55.2388 109.627 55.5275C107.889 55.79 104.57 55.9213 99.6704 55.9213H82.2067ZM99.9865 8.00787H90.1088V48.9134H100.224C104.175 48.9134 107.243 48.6509 109.43 48.126C111.616 47.5748 113.433 46.8924 114.882 46.0787C116.357 45.2388 117.7 44.2152 118.912 43.0079C122.81 39.0709 124.76 34.0971 124.76 28.0866C124.76 22.1811 122.758 17.3648 118.754 13.6378C117.279 12.2467 115.58 11.105 113.657 10.2126C111.761 9.32021 109.956 8.72966 108.244 8.44095C106.532 8.15223 103.78 8.00787 99.9865 8.00787Z"/>
<path d="M143.053 56V1H156.882C162.466 1 166.891 2.37796 170.157 5.13386C173.45 7.88977 175.096 11.6168 175.096 16.315C175.096 19.5171 174.293 22.2861 172.686 24.622C171.079 26.958 168.775 28.7034 165.772 29.8583C167.537 31.0131 169.262 32.5879 170.948 34.5827C172.633 36.5774 175.004 40.0551 178.06 45.0157C179.982 48.1391 181.523 50.4882 182.682 52.063L185.606 56H176.203L173.792 52.3779C173.713 52.2467 173.555 52.0236 173.318 51.7087L171.777 49.5433L169.328 45.5275L166.681 41.2362C165.047 38.979 163.546 37.1811 162.176 35.8425C160.833 34.5039 159.608 33.5459 158.502 32.9685C157.422 32.3648 155.591 32.063 153.01 32.063H150.955V56H143.053ZM153.326 7.69292H150.955V25.0551H153.958C157.962 25.0551 160.701 24.7139 162.176 24.0315C163.678 23.3491 164.837 22.3255 165.653 20.9606C166.496 19.5695 166.918 17.9947 166.918 16.2362C166.918 14.5039 166.457 12.9423 165.535 11.5512C164.613 10.1339 163.309 9.13648 161.623 8.55905C159.964 7.98162 157.198 7.69292 153.326 7.69292Z"/>
<path d="M191.73 1H223.023V8.00787H199.632V24.7795H222.233V31.8268H199.632V48.9134H223.773V55.9213H191.73V1Z"/>
<path d="M232.268 55.9213V1H250.878C258.385 1 264.325 2.1286 268.697 4.38582C273.07 6.61679 276.547 9.91077 279.128 14.2677C281.709 18.6247 283 23.3753 283 28.5197C283 32.1942 282.289 35.7113 280.866 39.0709C279.444 42.4304 277.416 45.3832 274.782 47.9291C272.095 50.5538 268.974 52.5354 265.418 53.874C263.337 54.6877 261.427 55.2388 259.689 55.5275C257.95 55.79 254.631 55.9213 249.732 55.9213H232.268ZM250.048 8.00787H240.17V48.9134H250.285C254.236 48.9134 257.305 48.6509 259.491 48.126C261.677 47.5748 263.495 46.8924 264.944 46.0787C266.419 45.2388 267.762 44.2152 268.974 43.0079C272.872 39.0709 274.821 34.0971 274.821 28.0866C274.821 22.1811 272.819 17.3648 268.816 13.6378C267.341 12.2467 265.642 11.105 263.719 10.2126C261.822 9.32021 260.018 8.72966 258.306 8.44095C256.594 8.15223 253.841 8.00787 250.048 8.00787Z"/>
</mask>
<path d="M2 1H33.2924V8.00787H9.90212V24.7795H32.5022V31.8268H9.90212V48.9134H34.0431V55.9213H2V1Z" fill="white"/>
<path d="M42.4589 1H50.3611V48.8346H75.2133V56H42.4589V1Z" fill="white"/>
<path d="M82.2067 55.9213V1H100.816C108.323 1 114.263 2.1286 118.636 4.38582C123.008 6.61679 126.485 9.91077 129.066 14.2677C131.648 18.6247 132.938 23.3753 132.938 28.5197C132.938 32.1942 132.227 35.7113 130.805 39.0709C129.382 42.4304 127.354 45.3832 124.72 47.9291C122.033 50.5538 118.912 52.5354 115.356 53.874C113.275 54.6877 111.366 55.2388 109.627 55.5275C107.889 55.79 104.57 55.9213 99.6704 55.9213H82.2067ZM99.9865 8.00787H90.1088V48.9134H100.224C104.175 48.9134 107.243 48.6509 109.43 48.126C111.616 47.5748 113.433 46.8924 114.882 46.0787C116.357 45.2388 117.7 44.2152 118.912 43.0079C122.81 39.0709 124.76 34.0971 124.76 28.0866C124.76 22.1811 122.758 17.3648 118.754 13.6378C117.279 12.2467 115.58 11.105 113.657 10.2126C111.761 9.32021 109.956 8.72966 108.244 8.44095C106.532 8.15223 103.78 8.00787 99.9865 8.00787Z" fill="white"/>
<path d="M143.053 56V1H156.882C162.466 1 166.891 2.37796 170.157 5.13386C173.45 7.88977 175.096 11.6168 175.096 16.315C175.096 19.5171 174.293 22.2861 172.686 24.622C171.079 26.958 168.775 28.7034 165.772 29.8583C167.537 31.0131 169.262 32.5879 170.948 34.5827C172.633 36.5774 175.004 40.0551 178.06 45.0157C179.982 48.1391 181.523 50.4882 182.682 52.063L185.606 56H176.203L173.792 52.3779C173.713 52.2467 173.555 52.0236 173.318 51.7087L171.777 49.5433L169.328 45.5275L166.681 41.2362C165.047 38.979 163.546 37.1811 162.176 35.8425C160.833 34.5039 159.608 33.5459 158.502 32.9685C157.422 32.3648 155.591 32.063 153.01 32.063H150.955V56H143.053ZM153.326 7.69292H150.955V25.0551H153.958C157.962 25.0551 160.701 24.7139 162.176 24.0315C163.678 23.3491 164.837 22.3255 165.653 20.9606C166.496 19.5695 166.918 17.9947 166.918 16.2362C166.918 14.5039 166.457 12.9423 165.535 11.5512C164.613 10.1339 163.309 9.13648 161.623 8.55905C159.964 7.98162 157.198 7.69292 153.326 7.69292Z" fill="white"/>
<path d="M191.73 1H223.023V8.00787H199.632V24.7795H222.233V31.8268H199.632V48.9134H223.773V55.9213H191.73V1Z" fill="white"/>
<path d="M232.268 55.9213V1H250.878C258.385 1 264.325 2.1286 268.697 4.38582C273.07 6.61679 276.547 9.91077 279.128 14.2677C281.709 18.6247 283 23.3753 283 28.5197C283 32.1942 282.289 35.7113 280.866 39.0709C279.444 42.4304 277.416 45.3832 274.782 47.9291C272.095 50.5538 268.974 52.5354 265.418 53.874C263.337 54.6877 261.427 55.2388 259.689 55.5275C257.95 55.79 254.631 55.9213 249.732 55.9213H232.268ZM250.048 8.00787H240.17V48.9134H250.285C254.236 48.9134 257.305 48.6509 259.491 48.126C261.677 47.5748 263.495 46.8924 264.944 46.0787C266.419 45.2388 267.762 44.2152 268.974 43.0079C272.872 39.0709 274.821 34.0971 274.821 28.0866C274.821 22.1811 272.819 17.3648 268.816 13.6378C267.341 12.2467 265.642 11.105 263.719 10.2126C261.822 9.32021 260.018 8.72966 258.306 8.44095C256.594 8.15223 253.841 8.00787 250.048 8.00787Z" fill="white"/>
<path d="M2 1H33.2924V8.00787H9.90212V24.7795H32.5022V31.8268H9.90212V48.9134H34.0431V55.9213H2V1Z" stroke="black" stroke-opacity="0.17" stroke-width="2" mask="url(#path-1-outside-1)"/>
<path d="M42.4589 1H50.3611V48.8346H75.2133V56H42.4589V1Z" stroke="black" stroke-opacity="0.17" stroke-width="2" mask="url(#path-1-outside-1)"/>
<path d="M82.2067 55.9213V1H100.816C108.323 1 114.263 2.1286 118.636 4.38582C123.008 6.61679 126.485 9.91077 129.066 14.2677C131.648 18.6247 132.938 23.3753 132.938 28.5197C132.938 32.1942 132.227 35.7113 130.805 39.0709C129.382 42.4304 127.354 45.3832 124.72 47.9291C122.033 50.5538 118.912 52.5354 115.356 53.874C113.275 54.6877 111.366 55.2388 109.627 55.5275C107.889 55.79 104.57 55.9213 99.6704 55.9213H82.2067ZM99.9865 8.00787H90.1088V48.9134H100.224C104.175 48.9134 107.243 48.6509 109.43 48.126C111.616 47.5748 113.433 46.8924 114.882 46.0787C116.357 45.2388 117.7 44.2152 118.912 43.0079C122.81 39.0709 124.76 34.0971 124.76 28.0866C124.76 22.1811 122.758 17.3648 118.754 13.6378C117.279 12.2467 115.58 11.105 113.657 10.2126C111.761 9.32021 109.956 8.72966 108.244 8.44095C106.532 8.15223 103.78 8.00787 99.9865 8.00787Z" stroke="black" stroke-opacity="0.17" stroke-width="2" mask="url(#path-1-outside-1)"/>
<path d="M143.053 56V1H156.882C162.466 1 166.891 2.37796 170.157 5.13386C173.45 7.88977 175.096 11.6168 175.096 16.315C175.096 19.5171 174.293 22.2861 172.686 24.622C171.079 26.958 168.775 28.7034 165.772 29.8583C167.537 31.0131 169.262 32.5879 170.948 34.5827C172.633 36.5774 175.004 40.0551 178.06 45.0157C179.982 48.1391 181.523 50.4882 182.682 52.063L185.606 56H176.203L173.792 52.3779C173.713 52.2467 173.555 52.0236 173.318 51.7087L171.777 49.5433L169.328 45.5275L166.681 41.2362C165.047 38.979 163.546 37.1811 162.176 35.8425C160.833 34.5039 159.608 33.5459 158.502 32.9685C157.422 32.3648 155.591 32.063 153.01 32.063H150.955V56H143.053ZM153.326 7.69292H150.955V25.0551H153.958C157.962 25.0551 160.701 24.7139 162.176 24.0315C163.678 23.3491 164.837 22.3255 165.653 20.9606C166.496 19.5695 166.918 17.9947 166.918 16.2362C166.918 14.5039 166.457 12.9423 165.535 11.5512C164.613 10.1339 163.309 9.13648 161.623 8.55905C159.964 7.98162 157.198 7.69292 153.326 7.69292Z" stroke="black" stroke-opacity="0.17" stroke-width="2" mask="url(#path-1-outside-1)"/>
<path d="M191.73 1H223.023V8.00787H199.632V24.7795H222.233V31.8268H199.632V48.9134H223.773V55.9213H191.73V1Z" stroke="black" stroke-opacity="0.17" stroke-width="2" mask="url(#path-1-outside-1)"/>
<path d="M232.268 55.9213V1H250.878C258.385 1 264.325 2.1286 268.697 4.38582C273.07 6.61679 276.547 9.91077 279.128 14.2677C281.709 18.6247 283 23.3753 283 28.5197C283 32.1942 282.289 35.7113 280.866 39.0709C279.444 42.4304 277.416 45.3832 274.782 47.9291C272.095 50.5538 268.974 52.5354 265.418 53.874C263.337 54.6877 261.427 55.2388 259.689 55.5275C257.95 55.79 254.631 55.9213 249.732 55.9213H232.268ZM250.048 8.00787H240.17V48.9134H250.285C254.236 48.9134 257.305 48.6509 259.491 48.126C261.677 47.5748 263.495 46.8924 264.944 46.0787C266.419 45.2388 267.762 44.2152 268.974 43.0079C272.872 39.0709 274.821 34.0971 274.821 28.0866C274.821 22.1811 272.819 17.3648 268.816 13.6378C267.341 12.2467 265.642 11.105 263.719 10.2126C261.822 9.32021 260.018 8.72966 258.306 8.44095C256.594 8.15223 253.841 8.00787 250.048 8.00787Z" stroke="black" stroke-opacity="0.17" stroke-width="2" mask="url(#path-1-outside-1)"/>
</g>
<defs>
<filter id="filter0_d" x="0" y="0" width="285" height="61" filterUnits="userSpaceOnUse" color-interpolation-filters="sRGB">
<feFlood flood-opacity="0" result="BackgroundImageFix"/>
<feColorMatrix in="SourceAlpha" type="matrix" values="0 0 0 0 0 0 0 0 0 0 0 0 0 0 0 0 0 0 127 0"/>
<feOffset dy="3"/>
<feGaussianBlur stdDeviation="0.5"/>
<feColorMatrix type="matrix" values="0 0 0 0 0 0 0 0 0 0 0 0 0 0 0 0 0 0 0.35 0"/>
<feBlend mode="normal" in2="BackgroundImageFix" result="effect1_dropShadow"/>
<feBlend mode="normal" in="SourceGraphic" in2="effect1_dropShadow" result="shape"/>
</filter>
</defs>
</svg>
