<svg width="1723" height="202" viewBox="0 0 1723 202" fill="none" xmlns="http://www.w3.org/2000/svg">
<g filter="url(#filter0_d)">
<path d="M312.008 180.28C312.008 180.28 315.608 176.824 309.416 176.824C302.072 182.584 294.008 185.896 281.192 185.896C260.456 185.896 243.464 172.36 229.928 152.776C258.728 89.704 312.44 6.75999 355.784 7.624C371.048 7.912 376.808 16.84 378.968 25.768C384.008 29.08 383.288 24.904 383.288 24.904C380.696 14.536 373.352 3.88 355.784 3.30399C310.424 3.30399 256.424 85.528 227.192 148.456C202.856 110.44 190.04 53.128 186.44 23.896C186.152 23.32 186.008 20.44 182.408 22.168C144.824 104.968 93.272 163.72 48.488 163.72C19.256 163.72 11.624 147.88 11.624 132.76C11.624 125.416 13.352 118.216 15.368 113.032C15.368 113.032 16.52 108.424 11.336 111.592C9.176 117.208 7.304 124.984 7.304 132.76C7.304 149.896 15.8 168.04 48.488 168.04C93.56 168.04 144.824 111.592 182.984 31.24C190.616 82.072 220.28 190.216 281.192 190.216C295.304 190.216 304.088 186.616 312.008 180.28ZM318.515 116.056C314.051 127.432 303.827 139.096 296.771 139.096C294.899 139.096 293.891 137.8 293.891 135.64C293.891 125.992 311.891 108.856 322.979 108.856C324.563 108.856 325.427 109.288 325.571 110.008C326.003 112.888 329.459 110.152 329.891 109.144C329.171 106.12 327.011 104.536 322.979 104.536C311.891 104.536 289.571 124.264 289.571 135.64C289.571 140.824 292.019 143.416 296.771 143.416C303.539 143.416 312.467 135.496 318.371 125.992C319.379 135.928 324.131 149.464 343.427 149.464C355.811 149.464 379.859 146.152 406.211 128.584C406.211 128.584 406.211 123.256 403.763 124.984C379.571 142.12 355.235 145.144 343.427 145.144C318.227 145.144 322.835 116.632 322.835 116.632C323.123 113.032 318.515 116.056 318.515 116.056ZM504.228 128.728C504.228 128.728 504.66 123.4 501.924 124.984C481.332 139.672 459.012 144.28 439.716 144.28C435.684 144.28 432.084 143.848 429.06 142.984C437.844 138.088 444.468 129.448 444.468 116.776C444.468 112.024 440.724 105.112 433.38 105.112C420.42 105.112 413.364 119.656 413.364 129.736C413.22 134.92 415.092 139.24 418.548 142.408C415.956 142.984 413.364 143.272 410.772 143.272C406.02 143.272 404.148 140.392 404.148 136.936C404.148 133.912 405.3 130.6 407.028 127.72C407.028 127.72 406.02 121.96 403.284 125.416C401.268 128.872 399.828 133.048 399.828 136.936C399.828 142.696 402.852 147.592 410.772 147.592C414.948 147.592 419.268 146.872 423.3 145.576C427.62 147.592 433.092 148.6 439.716 148.6C459.732 148.6 482.052 143.128 504.228 128.728ZM440.148 116.776C440.148 129.016 432.948 136.936 423.876 140.68C419.7 138.232 417.54 134.344 417.684 129.736C417.684 121.384 423.3 109.432 433.38 109.432C437.844 109.432 440.148 113.752 440.148 116.776ZM724.928 124.984C699.296 142.984 668.912 148.888 648.608 148.888C623.264 148.888 623.408 136.216 623.552 126.136C623.552 118.072 623.696 111.448 614.768 111.448C598.064 111.448 577.616 130.456 563.936 130.456C561.488 130.456 560.912 128.584 560.912 126.28C561.488 119.656 564.368 107.128 554.144 107.128C542.768 107.128 514.544 124.984 502.448 135.208C503.024 132.472 503.888 130.168 505.328 127.72C505.328 127.72 504.176 121.672 501.44 125.704C498.704 131.032 497.696 135.208 497.12 141.688C499.28 145.576 501.44 141.976 501.44 141.976C508.64 133.768 542.048 111.448 554.144 111.448C559.616 111.448 556.592 123.544 556.592 126.28C556.592 131.176 558.032 134.776 563.936 134.776C578.768 134.776 598.928 115.768 614.768 115.768C619.376 115.768 619.232 120.376 619.232 126.136C619.088 138.232 618.944 153.208 648.608 153.208C669.344 153.208 701.744 145.576 727.232 128.728C727.52 122.968 724.928 124.984 724.928 124.984ZM813.895 128.728C813.895 128.728 814.471 123.4 811.591 124.984C792.007 138.52 767.527 143.704 748.231 143.704C734.119 143.704 727.207 139.528 727.495 130.744C727.495 129.016 727.783 127.432 728.215 125.848C729.367 123.544 726.343 123.256 723.895 125.704C723.463 127.576 723.175 128.872 723.175 130.744C722.887 142.408 731.239 148.024 748.231 148.024C768.247 148.024 793.591 141.688 813.895 128.728ZM726.343 102.376C733.543 102.376 737.143 95.752 728.935 95.752C728.359 98.056 722.167 102.088 726.343 102.376ZM1157.51 124.84C1113.45 155.368 1034.82 164.008 993.926 164.008C951.878 164.008 931.862 152.92 931.862 129.592C931.862 99.352 983.414 79.192 1019.27 74.008C1022.44 78.76 1028.05 81.64 1036.84 81.64C1044.04 81.64 1046.49 78.472 1046.49 75.016C1046.49 71.704 1043.75 68.248 1036.12 68.248C1031.8 68.248 1027.05 68.68 1021.72 69.256C1020.42 65.944 1020.13 62.2 1020.42 58.6C1059.59 54.568 1084.79 42.904 1084.79 30.808C1084.79 24.328 1081.77 17.416 1067.37 17.416C1048.79 17.416 1021.72 34.552 1016.68 54.712C1008.47 55.432 999.542 55.72 990.182 55.72C949.862 55.72 912.854 39.736 911.99 10.36C911.99 10.36 911.702 5.46399 907.67 10.36C908.534 42.616 947.702 60.04 990.182 60.04C999.254 60.04 1007.89 59.752 1015.96 59.032C1015.96 64.36 1016.39 67.384 1017.25 69.976C979.958 75.88 927.542 97.48 927.542 129.592C927.542 155.8 948.998 168.328 993.926 168.328C1035.25 168.328 1115.03 158.248 1159.67 128.584C1159.67 123.544 1157.51 124.84 1157.51 124.84ZM1067.37 21.736C1078.31 21.736 1080.47 26.344 1080.47 30.808C1080.47 40.888 1057.29 50.536 1021.29 54.28C1026.47 36.568 1050.66 21.736 1067.37 21.736ZM1036.12 72.568C1040.58 72.568 1042.17 73.864 1042.17 75.016C1042.17 76.168 1040.87 77.32 1036.84 77.32C1031.37 77.32 1027.33 75.88 1024.6 73.288C1028.77 72.856 1032.66 72.568 1036.12 72.568ZM1255.54 124.984C1233.5 140.536 1204.13 148.6 1181.38 148.456C1170.29 148.456 1159.63 145.432 1159.34 131.896C1159.34 130.888 1159.34 129.88 1159.49 128.728C1159.49 128.728 1159.49 128.584 1159.63 128.584C1177.92 118.504 1204.7 97.192 1204.7 76.312C1204.7 70.552 1201.68 66.952 1195.63 66.952C1181.23 66.952 1155.02 110.44 1155.02 131.896C1155.46 148.888 1168.13 152.776 1181.38 152.776C1204.85 152.92 1234.37 143.848 1257.84 128.728C1258.13 123.112 1255.54 124.984 1255.54 124.984ZM1195.63 71.272C1198.8 71.272 1200.38 73.144 1200.38 76.312C1200.38 94.456 1177.63 113.176 1160.35 123.256C1165.1 102.088 1184.26 71.272 1195.63 71.272ZM1380.47 128.728C1381.19 123.256 1378.17 124.984 1378.17 124.984C1357.72 137.944 1338.28 141.256 1326.47 141.256C1314.23 141.256 1309.05 134.632 1309.05 122.824C1309.05 108.424 1317.83 79.336 1323.74 67.528C1323.74 67.528 1324.46 64.072 1319.71 66.088C1301.99 105.4 1278.38 139.096 1258.94 139.096C1257.07 139.096 1256.06 137.8 1256.06 135.64C1256.06 125.992 1269.31 113.032 1279.53 113.032C1281.11 113.032 1281.98 113.464 1282.12 114.184C1282.41 116.92 1285.58 115.48 1286.44 113.32C1285.72 110.296 1283.56 108.712 1279.53 108.712C1267.58 108.712 1251.74 124.264 1251.74 135.64C1251.74 140.392 1254.19 143.416 1258.94 143.416C1276.22 143.416 1293.21 124.408 1309.19 96.472C1306.31 106.696 1304.73 115.624 1304.73 122.824C1304.73 137.512 1311.07 145.576 1326.47 145.576C1338.86 145.576 1359.45 142.264 1380.47 128.728ZM1494.6 124.984C1471.56 140.968 1453.85 142.696 1441.32 142.696C1425.19 142.696 1420.3 138.232 1420.01 132.616C1420.01 126.28 1423.75 121.24 1427.64 115.912C1427.78 112.456 1427.21 111.448 1424.76 112.024C1420.01 113.176 1416.55 113.752 1414.54 113.752C1411.66 113.752 1407.77 113.464 1405.18 112.456C1407.48 110.584 1409.06 108.856 1409.06 105.688C1409.06 103.24 1407.77 101.512 1404.46 101.512C1400.71 101.512 1397.98 105.544 1397.98 109.432C1397.98 110.44 1398.12 111.304 1398.55 112.024C1393.51 115.624 1384.58 121.672 1378.54 124.84C1377.38 130.744 1380.7 128.584 1380.7 128.584C1387.18 124.984 1396.39 118.936 1401.58 115.336C1405.03 117.496 1410.5 118.072 1414.54 118.072C1416.12 118.072 1418.42 117.928 1420.58 117.64C1417.7 122.104 1415.69 127.288 1415.69 132.76C1415.98 140.824 1421.88 147.016 1441.32 147.016C1454.71 147.016 1472.14 144.712 1496.9 128.728C1497.19 123.112 1494.6 124.984 1494.6 124.984ZM1404.46 105.832C1404.6 105.832 1404.74 105.976 1404.74 106.12C1404.74 107.128 1403.16 108.424 1402.3 109.144C1402.3 107.416 1403.02 105.832 1404.46 105.832ZM1590.45 124.84C1572.59 135.208 1541.06 148.168 1508.51 148.168C1497.57 148.168 1493.68 144.712 1493.54 139.672C1493.54 135.784 1494.83 132.04 1496.85 128.728C1501.17 130.168 1505.78 130.888 1510.1 130.888C1516.14 130.888 1527.09 127.288 1527.09 118.504C1527.09 114.76 1524.35 111.448 1518.45 111.448C1504.77 111.448 1489.22 124.984 1489.22 139.672C1489.36 147.304 1494.54 152.488 1508.51 152.488C1542.06 152.488 1574.32 139.24 1592.46 128.728C1592.9 123.688 1590.45 124.84 1590.45 124.84ZM1518.45 115.768C1521.47 115.768 1522.77 117.064 1522.77 118.504C1522.77 124.12 1514.7 126.568 1510.1 126.568C1506.64 126.568 1503.18 125.992 1499.73 124.984C1504.62 119.512 1511.82 115.768 1518.45 115.768ZM1715.16 128.728C1715.88 123.256 1712.86 124.984 1712.86 124.984C1692.41 137.944 1672.97 141.256 1661.16 141.256C1648.92 141.256 1643.74 134.632 1643.74 122.824C1643.74 108.424 1652.52 79.336 1658.42 67.528C1658.42 67.528 1659.14 64.072 1654.39 66.088C1636.68 105.4 1613.06 139.096 1593.62 139.096C1591.75 139.096 1590.74 137.8 1590.74 135.64C1590.74 125.992 1603.99 113.032 1614.22 113.032C1615.8 113.032 1616.66 113.464 1616.81 114.184C1617.1 116.92 1620.26 115.48 1621.13 113.32C1620.41 110.296 1618.25 108.712 1614.22 108.712C1602.26 108.712 1586.42 124.264 1586.42 135.64C1586.42 140.392 1588.87 143.416 1593.62 143.416C1610.9 143.416 1627.9 124.408 1643.88 96.472C1641 106.696 1639.42 115.624 1639.42 122.824C1639.42 137.512 1645.75 145.576 1661.16 145.576C1673.54 145.576 1694.14 142.264 1715.16 128.728Z" fill="white"/>
<path d="M312.008 180.28L313.882 182.623L313.988 182.538L314.086 182.444L312.008 180.28ZM309.416 176.824V173.824H308.38L307.565 174.463L309.416 176.824ZM229.928 152.776L227.199 151.53L226.491 153.08L227.46 154.482L229.928 152.776ZM355.784 7.624L355.724 10.6234L355.727 10.6235L355.784 7.624ZM378.968 25.768L376.052 26.4734L376.331 27.6247L377.32 28.2751L378.968 25.768ZM383.288 24.904L386.244 24.3943L386.225 24.2845L386.198 24.1764L383.288 24.904ZM355.784 3.30399L355.882 0.305599L355.833 0.303988H355.784V3.30399ZM227.192 148.456L224.665 150.073L227.611 154.675L229.913 149.72L227.192 148.456ZM186.44 23.896L189.418 23.5293L189.354 23.0165L189.123 22.5543L186.44 23.896ZM182.408 22.168L181.11 19.4634L180.127 19.9352L179.676 20.928L182.408 22.168ZM15.368 113.032L18.164 114.119L18.2326 113.943L18.2784 113.76L15.368 113.032ZM11.336 111.592L9.77165 109.032L8.90188 109.564L8.53596 110.515L11.336 111.592ZM182.984 31.24L185.951 30.7946L184.491 21.0732L180.274 29.953L182.984 31.24ZM312.008 180.28C314.086 182.444 314.087 182.443 314.087 182.442C314.088 182.442 314.089 182.441 314.089 182.44C314.091 182.439 314.092 182.438 314.094 182.436C314.097 182.434 314.1 182.431 314.103 182.427C314.11 182.421 314.117 182.413 314.126 182.405C314.143 182.388 314.164 182.367 314.188 182.343C314.235 182.295 314.296 182.232 314.365 182.155C314.503 182.005 314.688 181.791 314.882 181.529C315.207 181.092 315.83 180.169 316.003 178.985C316.098 178.332 316.067 177.516 315.692 176.683C315.311 175.84 314.685 175.222 313.991 174.8C312.735 174.037 311.112 173.824 309.416 173.824V179.824C310.061 179.824 310.484 179.87 310.742 179.919C311.009 179.97 311.007 180.008 310.875 179.928C310.715 179.83 310.421 179.59 310.223 179.152C310.03 178.724 310.033 178.34 310.065 178.119C310.081 178.012 310.104 177.937 310.118 177.896C310.125 177.875 310.131 177.859 310.135 177.85C310.139 177.841 310.142 177.836 310.142 177.836C310.142 177.836 310.14 177.839 310.137 177.845C310.133 177.852 310.128 177.86 310.121 177.871C310.107 177.894 310.088 177.92 310.066 177.951C310.019 178.013 309.971 178.069 309.936 178.108C309.919 178.126 309.909 178.137 309.906 178.139C309.905 178.14 309.907 178.139 309.91 178.135C309.912 178.133 309.915 178.131 309.918 178.128C309.92 178.126 309.922 178.124 309.924 178.122C309.925 178.121 309.926 178.12 309.927 178.119C309.927 178.119 309.928 178.118 309.929 178.118C309.93 178.117 309.93 178.116 312.008 180.28ZM307.565 174.463C300.761 179.8 293.352 182.896 281.192 182.896V188.896C294.664 188.896 303.383 185.368 311.267 179.185L307.565 174.463ZM281.192 182.896C261.908 182.896 245.704 170.324 232.396 151.07L227.46 154.482C241.224 174.396 259.004 188.896 281.192 188.896V182.896ZM232.657 154.022C246.988 122.637 267.5 86.3545 289.759 58.0797C300.892 43.9387 312.384 31.8998 323.677 23.4745C335.009 15.0203 345.84 10.4264 355.724 10.6234L355.844 4.6246C344.056 4.38962 331.919 9.83969 320.089 18.6655C308.221 27.5202 296.358 39.9973 285.045 54.3683C262.412 83.1175 241.668 119.843 227.199 151.53L232.657 154.022ZM355.727 10.6235C362.741 10.7558 367.248 12.8475 370.241 15.647C373.287 18.4965 375.055 22.351 376.052 26.4734L381.884 25.0625C380.721 20.257 378.529 15.1835 374.339 11.265C370.096 7.29651 364.091 4.7802 355.841 4.62453L355.727 10.6235ZM377.32 28.2751C378.719 29.1942 380.09 29.8558 381.424 30.0103C383.002 30.1931 384.518 29.6399 385.459 28.3217C386.201 27.2829 386.302 26.1423 386.32 25.604C386.331 25.2818 386.315 25.0038 386.297 24.8039C386.287 24.702 386.277 24.615 386.268 24.5465C386.263 24.5121 386.258 24.482 386.255 24.4566C386.253 24.4438 386.251 24.4323 386.249 24.4219C386.248 24.4167 386.247 24.4118 386.247 24.4072C386.246 24.4049 386.246 24.4026 386.245 24.4005C386.245 24.3994 386.245 24.3979 386.245 24.3973C386.245 24.3958 386.244 24.3943 383.288 24.904C380.332 25.4137 380.331 25.4122 380.331 25.4108C380.331 25.4103 380.331 25.4088 380.331 25.4079C380.33 25.406 380.33 25.4041 380.33 25.4023C380.329 25.3987 380.329 25.3953 380.328 25.3921C380.327 25.3857 380.326 25.3801 380.325 25.3752C380.324 25.3654 380.323 25.3583 380.322 25.3537C380.321 25.3448 380.321 25.3442 380.322 25.35C380.323 25.3655 380.324 25.3879 380.323 25.4055C380.319 25.5467 380.285 25.2431 380.577 24.8343C380.761 24.5771 381.045 24.3233 381.419 24.1713C381.775 24.0264 382.044 24.042 382.114 24.0502C382.166 24.0562 381.737 23.9978 380.616 23.2609L377.32 28.2751ZM386.198 24.1764C384.805 18.6025 382.09 12.7659 377.19 8.23038C372.245 3.65306 365.302 0.614454 355.882 0.305599L355.686 6.30238C363.834 6.56953 369.347 9.14693 373.114 12.6336C376.926 16.1621 379.179 20.8375 380.378 25.6316L386.198 24.1764ZM355.784 0.303988C343.551 0.303988 331.052 5.83198 318.896 14.7123C306.71 23.6144 294.607 36.0748 283.101 50.4036C260.084 79.0657 239.157 115.578 224.471 147.192L229.913 149.72C244.459 118.406 265.148 82.3423 287.779 54.1604C299.097 40.0671 310.826 28.0386 322.436 19.5572C334.076 11.054 345.337 6.30399 355.784 6.30399V0.303988ZM229.719 146.839C205.739 109.379 192.996 52.5899 189.418 23.5293L183.463 24.2627C187.084 53.6661 199.973 111.501 224.665 150.073L229.719 146.839ZM189.123 22.5543C189.229 22.7662 189.267 22.9331 189.209 22.736C189.182 22.6447 189.115 22.4102 189.035 22.1736C188.877 21.7093 188.559 20.8924 187.889 20.1534C187.141 19.3281 186.068 18.7275 184.722 18.635C183.491 18.5505 182.27 18.9064 181.11 19.4634L183.706 24.8726C184.011 24.7263 184.21 24.6625 184.317 24.6363C184.422 24.6106 184.411 24.6278 184.311 24.6209C184.201 24.6134 184.035 24.5799 183.85 24.4876C183.668 24.3966 183.532 24.2811 183.443 24.1826C183.359 24.0903 183.324 24.0221 183.32 24.0145C183.316 24.0075 183.329 24.031 183.355 24.1064C183.367 24.1425 183.38 24.185 183.397 24.2398C183.417 24.3059 183.428 24.3454 183.455 24.435C183.475 24.5045 183.507 24.6135 183.546 24.7268C183.566 24.7863 183.592 24.8595 183.624 24.9403C183.656 25.0196 183.699 25.1227 183.757 25.2377L189.123 22.5543ZM179.676 20.928C160.974 62.1296 138.852 97.2193 115.947 121.956C92.9491 146.793 69.6126 160.72 48.488 160.72V166.72C72.1474 166.72 96.9789 151.271 120.349 126.032C143.813 100.693 166.258 65.0064 185.14 23.408L179.676 20.928ZM48.488 160.72C34.4011 160.72 26.0896 156.914 21.2682 151.843C16.4164 146.74 14.624 139.859 14.624 132.76H8.624C8.624 140.781 10.6476 149.38 16.9198 155.977C23.2224 162.606 33.3429 166.72 48.488 166.72V160.72ZM14.624 132.76C14.624 125.847 16.2598 119.016 18.164 114.119L12.572 111.945C10.4442 117.416 8.624 124.985 8.624 132.76H14.624ZM15.368 113.032C18.2784 113.76 18.2788 113.758 18.2791 113.757C18.2792 113.757 18.2795 113.755 18.2798 113.754C18.2802 113.752 18.2807 113.75 18.2812 113.748C18.2822 113.744 18.2833 113.74 18.2844 113.735C18.2866 113.726 18.2892 113.715 18.2919 113.704C18.2975 113.68 18.304 113.652 18.3111 113.619C18.3255 113.553 18.3428 113.468 18.3607 113.367C18.3961 113.169 18.4369 112.894 18.4596 112.573C18.4973 112.039 18.5242 110.925 18.0046 109.834C17.7169 109.23 17.2355 108.581 16.4729 108.107C15.7081 107.632 14.8708 107.464 14.0878 107.481C12.6575 107.512 11.1991 108.16 9.77165 109.032L12.9003 114.152C13.4399 113.822 13.8205 113.641 14.0666 113.547C14.3214 113.45 14.3526 113.477 14.2182 113.48C14.0562 113.483 13.7004 113.448 13.3068 113.204C12.9155 112.961 12.6951 112.64 12.5874 112.414C12.4905 112.21 12.4776 112.073 12.4772 112.07C12.4758 112.057 12.4792 112.083 12.4744 112.15C12.4701 112.212 12.4614 112.272 12.454 112.313C12.4523 112.323 12.4509 112.33 12.4498 112.336C12.4488 112.341 12.4482 112.344 12.4482 112.343C12.4482 112.343 12.4489 112.34 12.4503 112.334C12.4511 112.331 12.4521 112.327 12.4532 112.322C12.4538 112.319 12.4545 112.317 12.4552 112.314C12.4556 112.312 12.456 112.311 12.4563 112.309C12.4565 112.309 12.4568 112.307 12.4569 112.307C12.4573 112.306 12.4576 112.304 15.368 113.032ZM8.53596 110.515C6.27076 116.405 4.304 124.547 4.304 132.76H10.304C10.304 125.421 12.0812 118.011 14.136 112.669L8.53596 110.515ZM4.304 132.76C4.304 141.775 6.53651 151.444 13.4411 158.869C20.3867 166.338 31.5944 171.04 48.488 171.04V165.04C32.6936 165.04 23.3093 160.67 17.8349 154.783C12.3195 148.852 10.304 140.881 10.304 132.76H4.304ZM48.488 171.04C72.2434 171.04 97.0642 156.222 120.491 131.851C143.998 107.397 166.521 72.8993 185.694 32.527L180.274 29.953C161.287 69.9326 139.098 103.835 116.165 127.693C93.1518 151.634 69.8046 165.04 48.488 165.04V171.04ZM180.017 31.6854C183.86 57.2804 193.247 97.3382 209.402 131.085C217.479 147.958 227.325 163.418 239.153 174.695C251.012 186.003 264.992 193.216 281.192 193.216V187.216C266.936 187.216 254.366 180.911 243.293 170.353C232.189 159.765 222.721 145.012 214.814 128.495C199.001 95.4618 189.74 56.0316 185.951 30.7946L180.017 31.6854ZM281.192 193.216C295.951 193.216 305.404 189.405 313.882 182.623L310.134 177.937C302.772 183.827 294.657 187.216 281.192 187.216V193.216ZM318.515 116.056L316.869 113.548L316.071 114.072L315.722 114.96L318.515 116.056ZM325.571 110.008L328.538 109.563L328.527 109.491L328.513 109.42L325.571 110.008ZM329.891 109.144L332.648 110.326L333.039 109.414L332.809 108.449L329.891 109.144ZM318.371 125.992L321.356 125.689L320.467 116.932L315.823 124.409L318.371 125.992ZM406.211 128.584L407.875 131.08L409.211 130.19V128.584H406.211ZM403.763 124.984L402.033 122.533L402.029 122.536L403.763 124.984ZM322.835 116.632L325.797 117.111L325.816 116.992L325.825 116.871L322.835 116.632ZM315.722 114.96C313.63 120.291 310.161 125.736 306.408 129.809C304.535 131.843 302.656 133.464 300.92 134.557C299.147 135.672 297.748 136.096 296.771 136.096V142.096C299.322 142.096 301.847 141.062 304.115 139.635C306.42 138.185 308.699 136.179 310.822 133.875C315.061 129.272 318.936 123.197 321.308 117.152L315.722 114.96ZM296.771 136.096C296.65 136.096 296.652 136.076 296.726 136.108C296.809 136.144 296.893 136.208 296.951 136.278C297.002 136.34 296.987 136.352 296.958 136.253C296.928 136.15 296.891 135.953 296.891 135.64H290.891C290.891 137.138 291.236 138.768 292.307 140.078C293.452 141.478 295.087 142.096 296.771 142.096V136.096ZM296.891 135.64C296.891 134.058 297.674 131.756 299.417 128.98C301.115 126.277 303.532 123.427 306.323 120.824C309.113 118.222 312.198 115.939 315.184 114.323C318.218 112.681 320.911 111.856 322.979 111.856V105.856C319.503 105.856 315.788 107.173 312.328 109.046C308.821 110.944 305.327 113.548 302.231 116.436C299.136 119.323 296.36 122.566 294.336 125.789C292.358 128.94 290.891 132.398 290.891 135.64H296.891ZM322.979 111.856C323.244 111.856 323.423 111.874 323.532 111.893C323.644 111.912 323.641 111.924 323.565 111.889C323.487 111.853 323.291 111.748 323.086 111.517C322.866 111.271 322.7 110.951 322.629 110.596L328.513 109.42C328.204 107.878 327.124 106.92 326.065 106.435C325.084 105.985 323.988 105.856 322.979 105.856V111.856ZM322.604 110.453C322.808 111.815 323.564 113.447 325.404 114.071C326.902 114.579 328.281 114.085 328.991 113.756C329.814 113.376 330.548 112.839 331.104 112.337C331.575 111.912 332.276 111.195 332.648 110.326L327.134 107.962C327.24 107.713 327.34 107.613 327.285 107.679C327.256 107.714 327.19 107.787 327.085 107.882C326.858 108.086 326.62 108.242 326.471 108.312C326.401 108.344 326.425 108.322 326.535 108.305C326.644 108.287 326.943 108.257 327.331 108.389C327.763 108.535 328.114 108.818 328.335 109.14C328.528 109.42 328.546 109.617 328.538 109.563L322.604 110.453ZM332.809 108.449C332.312 106.359 331.234 104.502 329.368 103.228C327.566 101.998 325.354 101.536 322.979 101.536V107.536C324.636 107.536 325.52 107.866 325.986 108.184C326.388 108.458 326.75 108.905 326.973 109.839L332.809 108.449ZM322.979 101.536C319.445 101.536 315.432 103.06 311.625 105.173C307.737 107.332 303.721 110.299 300.095 113.606C296.472 116.91 293.157 120.63 290.724 124.334C288.344 127.957 286.571 131.923 286.571 135.64H292.571C292.571 133.669 293.588 130.902 295.739 127.628C297.838 124.433 300.796 121.088 304.139 118.038C307.479 114.991 311.122 112.315 314.537 110.419C318.034 108.478 320.969 107.536 322.979 107.536V101.536ZM286.571 135.64C286.571 138.654 287.279 141.459 289.193 143.516C291.143 145.612 293.863 146.416 296.771 146.416V140.416C294.927 140.416 294.047 139.924 293.585 139.428C293.087 138.893 292.571 137.81 292.571 135.64H286.571ZM296.771 146.416C301.208 146.416 305.812 143.896 309.811 140.576C313.908 137.175 317.821 132.563 320.919 127.575L315.823 124.409C313.017 128.925 309.514 133.025 305.979 135.96C302.346 138.976 299.102 140.416 296.771 140.416V146.416ZM315.386 126.295C315.917 131.527 317.457 138.062 321.705 143.336C326.067 148.752 332.983 152.464 343.427 152.464V146.464C334.575 146.464 329.467 143.408 326.377 139.572C323.173 135.594 321.833 130.393 321.356 125.689L315.386 126.295ZM343.427 152.464C356.307 152.464 380.956 149.026 407.875 131.08L404.547 126.088C378.762 143.278 355.315 146.464 343.427 146.464V152.464ZM406.211 128.584C409.211 128.584 409.211 128.583 409.211 128.583C409.211 128.582 409.211 128.582 409.211 128.581C409.211 128.58 409.211 128.579 409.211 128.578C409.211 128.575 409.211 128.572 409.211 128.569C409.211 128.563 409.211 128.555 409.211 128.546C409.211 128.529 409.21 128.506 409.21 128.478C409.209 128.423 409.208 128.348 409.205 128.258C409.198 128.077 409.187 127.828 409.163 127.536C409.118 126.979 409.022 126.158 408.798 125.343C408.619 124.69 408.177 123.311 406.971 122.412C406.253 121.877 405.334 121.568 404.32 121.653C403.384 121.732 402.611 122.125 402.033 122.533L405.493 127.435C405.527 127.411 405.289 127.593 404.822 127.632C404.579 127.652 404.311 127.63 404.039 127.549C403.771 127.469 403.552 127.347 403.386 127.223C403.076 126.992 402.961 126.766 402.957 126.758C402.945 126.735 402.971 126.782 403.012 126.929C403.094 127.23 403.151 127.633 403.183 128.021C403.197 128.202 403.204 128.355 403.208 128.459C403.21 128.511 403.21 128.549 403.211 128.571C403.211 128.582 403.211 128.589 403.211 128.591C403.211 128.592 403.211 128.592 403.211 128.591C403.211 128.591 403.211 128.59 403.211 128.588C403.211 128.588 403.211 128.587 403.211 128.586C403.211 128.586 403.211 128.585 403.211 128.585C403.211 128.585 403.211 128.584 406.211 128.584ZM402.029 122.536C378.475 139.22 354.796 142.144 343.427 142.144V148.144C355.674 148.144 380.667 145.02 405.497 127.432L402.029 122.536ZM343.427 142.144C337.729 142.144 334.019 140.549 331.533 138.413C329.004 136.24 327.464 133.269 326.57 130.078C325.675 126.885 325.473 123.631 325.508 121.13C325.526 119.89 325.602 118.861 325.672 118.151C325.707 117.797 325.74 117.524 325.764 117.345C325.775 117.256 325.785 117.191 325.79 117.151C325.793 117.131 325.795 117.118 325.797 117.111C325.797 117.108 325.797 117.106 325.797 117.106C325.797 117.106 325.797 117.106 325.797 117.107C325.797 117.107 325.797 117.108 325.797 117.108C325.797 117.109 325.797 117.111 322.835 116.632C319.873 116.153 319.873 116.155 319.873 116.156C319.873 116.157 319.873 116.158 319.872 116.16C319.872 116.162 319.872 116.165 319.871 116.169C319.87 116.175 319.869 116.184 319.867 116.194C319.864 116.215 319.86 116.242 319.855 116.276C319.845 116.345 319.831 116.439 319.815 116.559C319.784 116.798 319.743 117.138 319.701 117.563C319.617 118.412 319.53 119.611 319.509 121.044C319.468 123.889 319.689 127.763 320.792 131.698C321.896 135.635 323.929 139.792 327.623 142.965C331.361 146.175 336.525 148.144 343.427 148.144V142.144ZM325.825 116.871C325.938 115.47 325.639 113.482 323.765 112.416C322.271 111.565 320.686 111.91 319.99 112.101C319.124 112.338 318.333 112.719 317.822 112.991C317.552 113.134 317.326 113.266 317.163 113.364C317.081 113.413 317.014 113.455 316.965 113.486C316.94 113.502 316.919 113.515 316.903 113.526C316.895 113.531 316.888 113.535 316.883 113.539C316.88 113.541 316.877 113.542 316.875 113.544C316.874 113.545 316.873 113.545 316.872 113.546C316.871 113.546 316.871 113.547 316.87 113.547C316.87 113.547 316.869 113.548 318.515 116.056C320.161 118.564 320.16 118.565 320.16 118.565C320.16 118.565 320.159 118.565 320.159 118.566C320.158 118.566 320.157 118.567 320.157 118.567C320.156 118.568 320.155 118.568 320.154 118.569C320.153 118.57 320.152 118.57 320.153 118.569C320.154 118.568 320.16 118.565 320.169 118.559C320.186 118.548 320.218 118.528 320.262 118.502C320.35 118.449 320.481 118.372 320.639 118.289C320.983 118.106 321.326 117.956 321.576 117.887C321.697 117.854 321.701 117.867 321.611 117.868C321.525 117.868 321.196 117.857 320.798 117.631C320.593 117.514 320.401 117.357 320.24 117.164C320.08 116.973 319.982 116.783 319.924 116.629C319.817 116.344 319.859 116.214 319.845 116.393L325.825 116.871ZM504.228 128.728L505.862 131.244L507.099 130.441L507.218 128.97L504.228 128.728ZM501.924 124.984L500.421 122.388L500.298 122.459L500.182 122.542L501.924 124.984ZM429.06 142.984L427.599 140.364L421.285 143.883L428.236 145.869L429.06 142.984ZM413.364 129.736L416.363 129.819L416.364 129.778V129.736H413.364ZM418.548 142.408L419.199 145.337L424.82 144.087L420.575 140.197L418.548 142.408ZM407.028 127.72L409.6 129.263L410.176 128.304L409.983 127.203L407.028 127.72ZM403.284 125.416L400.932 123.554L400.8 123.721L400.692 123.904L403.284 125.416ZM423.3 145.576L424.568 142.857L423.502 142.36L422.382 142.72L423.3 145.576ZM423.876 140.68L422.359 143.268L423.643 144.021L425.02 143.453L423.876 140.68ZM417.684 129.736L420.682 129.83L420.684 129.783V129.736H417.684ZM504.228 128.728C507.218 128.97 507.218 128.97 507.218 128.969C507.218 128.969 507.218 128.968 507.218 128.967C507.218 128.966 507.218 128.965 507.218 128.964C507.219 128.961 507.219 128.958 507.219 128.955C507.22 128.949 507.22 128.941 507.221 128.932C507.222 128.913 507.224 128.89 507.226 128.862C507.229 128.806 507.234 128.73 507.238 128.638C507.246 128.455 507.254 128.202 507.252 127.906C507.25 127.341 507.214 126.501 507.04 125.656C506.898 124.969 506.528 123.536 505.318 122.563C504.612 121.995 503.718 121.668 502.737 121.691C501.828 121.712 501.04 122.029 500.421 122.388L503.427 127.58C503.491 127.543 503.289 127.68 502.879 127.689C502.665 127.694 502.423 127.663 502.174 127.577C501.926 127.492 501.72 127.369 501.558 127.239C501.253 126.993 501.143 126.755 501.131 126.729C501.114 126.692 501.135 126.727 501.164 126.868C501.223 127.157 501.251 127.55 501.253 127.934C501.253 128.113 501.249 128.264 501.244 128.366C501.242 128.417 501.24 128.454 501.238 128.475C501.237 128.486 501.237 128.492 501.237 128.494C501.237 128.495 501.237 128.495 501.237 128.493C501.237 128.493 501.237 128.492 501.237 128.49C501.237 128.49 501.237 128.489 501.237 128.488C501.237 128.488 501.237 128.487 501.237 128.487C501.238 128.486 501.238 128.486 504.228 128.728ZM500.182 122.542C480.209 136.788 458.538 141.28 439.716 141.28V147.28C459.485 147.28 482.455 142.556 503.666 127.426L500.182 122.542ZM439.716 141.28C435.883 141.28 432.573 140.868 429.884 140.099L428.236 145.869C431.595 146.828 435.485 147.28 439.716 147.28V141.28ZM430.52 145.604C440.119 140.254 447.468 130.683 447.468 116.776H441.468C441.468 128.213 435.569 135.922 427.599 140.364L430.52 145.604ZM447.468 116.776C447.468 113.706 446.292 110.133 444.022 107.29C441.692 104.372 438.104 102.112 433.38 102.112V108.112C436 108.112 437.955 109.308 439.333 111.034C440.771 112.835 441.468 115.094 441.468 116.776H447.468ZM433.38 102.112C425.634 102.112 419.807 106.494 416.044 111.938C412.311 117.34 410.364 124.091 410.364 129.736H416.364C416.364 125.301 417.945 119.74 420.98 115.35C423.985 111.002 428.166 108.112 433.38 108.112V102.112ZM410.365 129.653C410.198 135.676 412.401 140.843 416.521 144.619L420.575 140.197C417.783 137.637 416.242 134.164 416.363 129.819L410.365 129.653ZM417.897 139.479C415.513 140.009 413.14 140.272 410.772 140.272V146.272C413.588 146.272 416.398 145.959 419.199 145.337L417.897 139.479ZM410.772 140.272C409.021 140.272 408.248 139.761 407.883 139.367C407.477 138.925 407.148 138.155 407.148 136.936H401.148C401.148 139.173 401.755 141.571 403.472 143.433C405.232 145.342 407.771 146.272 410.772 146.272V140.272ZM407.148 136.936C407.148 134.614 408.058 131.835 409.6 129.263L404.455 126.177C402.542 129.365 401.148 133.21 401.148 136.936H407.148ZM407.028 127.72C409.983 127.203 409.983 127.202 409.983 127.201C409.982 127.201 409.982 127.2 409.982 127.199C409.982 127.198 409.982 127.197 409.982 127.195C409.981 127.192 409.98 127.189 409.98 127.185C409.978 127.178 409.977 127.169 409.975 127.159C409.971 127.139 409.966 127.114 409.96 127.083C409.948 127.021 409.932 126.939 409.91 126.839C409.867 126.642 409.803 126.371 409.715 126.059C409.55 125.476 409.255 124.579 408.766 123.749C408.364 123.066 407.321 121.558 405.359 121.337C403.28 121.103 401.795 122.464 400.932 123.554L405.636 127.278C405.841 127.018 405.896 127.022 405.771 127.097C405.612 127.192 405.223 127.36 404.687 127.299C404.171 127.241 403.835 127.007 403.694 126.883C403.568 126.772 403.548 126.711 403.597 126.795C403.702 126.973 403.83 127.3 403.94 127.689C403.99 127.863 404.025 128.015 404.048 128.119C404.059 128.17 404.067 128.208 404.071 128.23C404.073 128.24 404.074 128.246 404.075 128.248C404.075 128.248 404.075 128.248 404.074 128.246C404.074 128.245 404.074 128.244 404.074 128.243C404.073 128.242 404.073 128.241 404.073 128.24C404.073 128.24 404.073 128.239 404.073 128.239C404.073 128.238 404.073 128.237 407.028 127.72ZM400.692 123.904C398.494 127.672 396.828 132.369 396.828 136.936H402.828C402.828 133.727 404.041 130.072 405.875 126.928L400.692 123.904ZM396.828 136.936C396.828 140.302 397.71 143.77 400.098 146.429C402.538 149.146 406.168 150.592 410.772 150.592V144.592C407.456 144.592 405.613 143.59 404.562 142.419C403.457 141.19 402.828 139.33 402.828 136.936H396.828ZM410.772 150.592C415.281 150.592 419.911 149.817 424.218 148.432L422.382 142.72C418.625 143.927 414.614 144.592 410.772 144.592V150.592ZM422.031 148.295C426.872 150.553 432.814 151.6 439.716 151.6V145.6C433.37 145.6 428.368 144.631 424.568 142.857L422.031 148.295ZM439.716 151.6C460.295 151.6 483.185 145.969 505.862 131.244L502.594 126.212C480.918 140.287 459.169 145.6 439.716 145.6V151.6ZM437.148 116.776C437.148 127.588 430.891 134.539 422.731 137.907L425.02 143.453C435.005 139.333 443.148 130.444 443.148 116.776H437.148ZM425.393 138.092C422.131 136.18 420.574 133.302 420.682 129.83L414.685 129.642C414.506 135.386 417.268 140.284 422.359 143.268L425.393 138.092ZM420.684 129.736C420.684 126.139 421.92 121.639 424.255 118.106C426.574 114.596 429.677 112.432 433.38 112.432V106.432C427.003 106.432 422.258 110.244 419.249 114.798C416.255 119.329 414.684 124.981 414.684 129.736H420.684ZM433.38 112.432C434.527 112.432 435.399 112.949 436.07 113.812C436.797 114.746 437.148 115.935 437.148 116.776H443.148C443.148 114.593 442.347 112.11 440.806 110.128C439.209 108.075 436.697 106.432 433.38 106.432V112.432ZM724.928 124.984L726.652 127.439L726.712 127.397L726.77 127.352L724.928 124.984ZM623.552 126.136L626.552 126.179L626.552 126.157V126.136H623.552ZM560.912 126.28L557.923 126.02L557.912 126.15V126.28H560.912ZM502.448 135.208L499.512 134.59L497.713 143.139L504.385 137.499L502.448 135.208ZM505.328 127.72L507.914 129.241L508.486 128.268L508.275 127.159L505.328 127.72ZM501.44 125.704L498.958 124.019L498.855 124.171L498.771 124.334L501.44 125.704ZM497.12 141.688L494.132 141.422L494.05 142.34L494.498 143.145L497.12 141.688ZM501.44 141.976L499.185 139.998L499.007 140.201L498.868 140.433L501.44 141.976ZM619.232 126.136L622.232 126.172L622.232 126.154V126.136H619.232ZM727.232 128.728L728.886 131.231L730.152 130.394L730.228 128.878L727.232 128.728ZM723.204 122.529C698.186 140.097 668.444 145.888 648.608 145.888V151.888C669.38 151.888 700.406 145.871 726.652 127.439L723.204 122.529ZM648.608 145.888C636.33 145.888 631.261 142.815 628.976 139.566C626.517 136.07 626.477 131.429 626.552 126.179L620.552 126.093C620.483 130.923 620.299 137.658 624.068 143.018C628.011 148.625 635.542 151.888 648.608 151.888V145.888ZM626.552 126.136C626.552 124.161 626.563 122.111 626.427 120.224C626.292 118.341 626 116.397 625.288 114.641C624.551 112.822 623.35 111.179 621.453 110.038C619.602 108.925 617.351 108.448 614.768 108.448V114.448C616.649 114.448 617.728 114.799 618.361 115.18C618.948 115.533 619.385 116.05 619.728 116.895C620.096 117.803 620.326 119.027 620.443 120.654C620.559 122.277 620.552 124.079 620.552 126.136H626.552ZM614.768 108.448C610.053 108.448 605.239 109.782 600.593 111.63C595.939 113.482 591.253 115.933 586.806 118.305C582.299 120.709 578.069 123.013 574.105 124.734C570.114 126.468 566.729 127.456 563.936 127.456V133.456C567.983 133.456 572.284 132.068 576.496 130.238C580.736 128.395 585.227 125.947 589.63 123.599C594.093 121.219 598.506 118.918 602.811 117.206C607.125 115.49 611.131 114.448 614.768 114.448V108.448ZM563.936 127.456C563.707 127.456 563.716 127.414 563.838 127.478C563.975 127.551 564.059 127.656 564.084 127.698C564.093 127.712 564.04 127.626 563.99 127.36C563.942 127.097 563.912 126.743 563.912 126.28H557.912C557.912 127.561 558.048 129.288 558.928 130.766C559.985 132.542 561.79 133.456 563.936 133.456V127.456ZM563.901 126.54C563.968 125.765 564.07 124.893 564.186 123.903C564.299 122.93 564.423 121.861 564.523 120.764C564.72 118.594 564.838 116.154 564.556 113.855C564.276 111.579 563.566 109.102 561.818 107.174C559.977 105.144 557.362 104.128 554.144 104.128V110.128C556.038 110.128 556.897 110.678 557.373 111.204C557.943 111.832 558.394 112.901 558.6 114.585C558.804 116.246 558.733 118.18 558.548 120.222C558.456 121.231 558.34 122.228 558.226 123.208C558.114 124.171 558 125.139 557.923 126.02L563.901 126.54ZM554.144 104.128C550.679 104.128 546.323 105.444 541.822 107.305C537.228 109.205 532.134 111.823 527.071 114.733C516.959 120.545 506.724 127.666 500.511 132.917L504.385 137.499C510.268 132.526 520.193 125.607 530.061 119.935C534.988 117.103 539.839 114.618 544.115 112.85C548.483 111.044 551.921 110.128 554.144 110.128V104.128ZM505.384 135.826C505.896 133.39 506.647 131.394 507.914 129.241L502.742 126.199C501.129 128.942 500.152 131.554 499.512 134.59L505.384 135.826ZM505.328 127.72C508.275 127.159 508.275 127.158 508.275 127.157C508.275 127.157 508.274 127.156 508.274 127.155C508.274 127.154 508.274 127.153 508.274 127.151C508.273 127.148 508.272 127.145 508.272 127.141C508.27 127.134 508.268 127.125 508.266 127.115C508.262 127.094 508.257 127.068 508.25 127.036C508.237 126.972 508.218 126.887 508.194 126.785C508.147 126.581 508.076 126.3 507.979 125.978C507.801 125.382 507.48 124.452 506.954 123.61C506.528 122.928 505.347 121.318 503.202 121.318C501.111 121.318 499.743 122.863 498.958 124.019L503.922 127.389C504.155 127.046 504.257 126.985 504.195 127.031C504.114 127.092 503.766 127.318 503.202 127.318C502.627 127.318 502.218 127.085 502.023 126.932C501.855 126.8 501.817 126.711 501.866 126.79C501.906 126.854 501.968 126.973 502.041 127.152C502.112 127.325 502.176 127.513 502.231 127.698C502.286 127.88 502.326 128.04 502.352 128.151C502.365 128.206 502.374 128.247 502.379 128.27C502.381 128.282 502.382 128.289 502.383 128.291C502.383 128.292 502.383 128.292 502.383 128.29C502.383 128.289 502.382 128.288 502.382 128.287C502.382 128.286 502.382 128.285 502.382 128.284C502.381 128.284 502.381 128.283 502.381 128.283C502.381 128.282 502.381 128.281 505.328 127.72ZM498.771 124.334C495.818 130.085 494.733 134.656 494.132 141.422L500.108 141.954C500.659 135.76 501.59 131.979 504.109 127.074L498.771 124.334ZM494.498 143.145C495.203 144.415 496.174 145.573 497.56 146.146C499.072 146.771 500.477 146.461 501.455 145.961C502.357 145.5 502.994 144.843 503.35 144.426C503.544 144.199 503.697 143.993 503.805 143.838C503.859 143.76 503.904 143.692 503.938 143.638C503.956 143.611 503.971 143.588 503.983 143.568C503.989 143.558 503.995 143.549 504 143.541C504.002 143.537 504.004 143.533 504.006 143.529C504.008 143.528 504.009 143.526 504.01 143.524C504.01 143.523 504.011 143.522 504.011 143.522C504.012 143.521 504.012 143.519 501.44 141.976C498.868 140.433 498.868 140.431 498.869 140.43C498.869 140.43 498.87 140.429 498.87 140.428C498.871 140.427 498.872 140.425 498.873 140.424C498.874 140.421 498.876 140.419 498.877 140.416C498.88 140.412 498.883 140.408 498.885 140.404C498.889 140.398 498.891 140.394 498.892 140.393C498.894 140.39 498.89 140.396 498.881 140.408C498.863 140.435 498.83 140.48 498.787 140.53C498.671 140.666 498.633 140.666 498.725 140.619C498.893 140.533 499.353 140.394 499.852 140.601C500.226 140.755 500.117 140.905 499.742 140.231L494.498 143.145ZM503.695 143.954C505.277 142.152 508.501 139.373 512.81 136.144C517.066 132.956 522.218 129.448 527.525 126.191C532.839 122.93 538.256 119.952 543.047 117.8C547.964 115.593 551.811 114.448 554.144 114.448V108.448C550.429 108.448 545.564 110.093 540.59 112.327C535.49 114.617 529.837 117.732 524.387 121.077C518.93 124.426 513.624 128.037 509.213 131.342C504.855 134.607 501.203 137.696 499.185 139.998L503.695 143.954ZM554.144 114.448C554.237 114.448 554.134 114.46 554.002 114.359C553.906 114.286 553.959 114.276 554.062 114.526C554.302 115.108 554.455 116.189 554.421 117.774C554.388 119.282 554.201 120.913 554.004 122.42C553.831 123.749 553.592 125.339 553.592 126.28H559.592C559.592 125.853 559.731 124.905 559.954 123.196C560.153 121.666 560.38 119.76 560.419 117.902C560.457 116.121 560.34 114.007 559.608 112.236C559.225 111.308 558.616 110.332 557.639 109.587C556.625 108.814 555.419 108.448 554.144 108.448V114.448ZM553.592 126.28C553.592 128.898 553.95 131.824 555.623 134.127C557.448 136.641 560.34 137.776 563.936 137.776V131.776C561.628 131.776 560.848 131.111 560.477 130.601C559.954 129.88 559.592 128.558 559.592 126.28H553.592ZM563.936 137.776C568.237 137.776 572.714 136.41 577.075 134.57C581.452 132.723 585.99 130.273 590.39 127.917C594.849 125.529 599.183 123.228 603.366 121.514C607.56 119.796 611.372 118.768 614.768 118.768V112.768C610.244 112.768 605.596 114.116 601.091 115.962C596.576 117.812 591.973 120.263 587.558 122.627C583.084 125.023 578.811 127.325 574.742 129.042C570.656 130.766 567.051 131.776 563.936 131.776V137.776ZM614.768 118.768C615.096 118.768 615.288 118.809 615.384 118.839C615.471 118.867 615.498 118.89 615.504 118.895C615.512 118.902 615.676 119.036 615.846 119.623C616.238 120.983 616.232 123.036 616.232 126.136H622.232C622.232 123.476 622.298 120.345 621.61 117.961C621.24 116.676 620.576 115.298 619.315 114.261C618.02 113.196 616.436 112.768 614.768 112.768V118.768ZM616.232 126.1C616.163 131.934 615.982 139.74 620.279 145.92C624.758 152.363 633.372 156.208 648.608 156.208V150.208C634.18 150.208 628.034 146.565 625.205 142.496C622.194 138.164 622.157 132.434 622.232 126.172L616.232 126.1ZM648.608 156.208C669.888 156.208 702.872 148.427 728.886 131.231L725.578 126.225C700.616 142.725 668.8 150.208 648.608 150.208V156.208ZM730.228 128.878C730.308 127.28 730.212 125.906 729.846 124.783C729.461 123.602 728.652 122.384 727.186 121.867C725.869 121.402 724.717 121.765 724.178 121.988C723.872 122.116 723.624 122.256 723.451 122.363C723.362 122.419 723.286 122.47 723.226 122.512C723.196 122.534 723.169 122.553 723.146 122.571C723.134 122.579 723.123 122.587 723.113 122.595C723.108 122.599 723.104 122.602 723.099 122.606C723.097 122.608 723.095 122.609 723.092 122.611C723.091 122.612 723.09 122.613 723.089 122.614C723.088 122.615 723.086 122.616 724.928 124.984C726.77 127.352 726.768 127.353 726.767 127.354C726.766 127.355 726.765 127.356 726.764 127.357C726.762 127.358 726.76 127.36 726.758 127.361C726.754 127.364 726.75 127.367 726.746 127.37C726.739 127.376 726.732 127.381 726.725 127.386C726.712 127.396 726.699 127.405 726.688 127.413C726.665 127.429 726.645 127.442 726.627 127.454C726.595 127.474 726.547 127.501 726.479 127.53C726.417 127.555 725.895 127.774 725.19 127.525C724.336 127.224 724.121 126.582 724.141 126.643C724.18 126.762 724.3 127.296 724.236 128.578L730.228 128.878ZM813.895 128.728L815.509 131.257L816.723 130.482L816.878 129.05L813.895 128.728ZM811.591 124.984L810.145 122.355L810.011 122.429L809.886 122.516L811.591 124.984ZM727.495 130.744L730.494 130.842L730.495 130.793V130.744H727.495ZM728.215 125.848L725.532 124.506L725.399 124.772L725.321 125.059L728.215 125.848ZM723.895 125.704L721.774 123.583L721.166 124.191L720.972 125.029L723.895 125.704ZM723.175 130.744L726.174 130.818L726.175 130.781V130.744H723.175ZM726.343 102.376L726.137 105.369L726.24 105.376H726.343V102.376ZM728.935 95.752V92.752H726.593L726.025 95.0244L728.935 95.752ZM813.895 128.728C816.878 129.05 816.878 129.05 816.878 129.049C816.878 129.049 816.878 129.048 816.878 129.047C816.878 129.046 816.878 129.045 816.879 129.044C816.879 129.041 816.879 129.038 816.88 129.035C816.88 129.028 816.881 129.02 816.882 129.011C816.884 128.992 816.886 128.969 816.889 128.94C816.894 128.884 816.9 128.807 816.907 128.715C816.92 128.53 816.934 128.276 816.94 127.977C816.95 127.409 816.934 126.559 816.77 125.701C816.637 124.999 816.276 123.532 815.024 122.545C813.362 121.235 811.445 121.641 810.145 122.355L813.037 127.613C813.128 127.563 812.957 127.681 812.585 127.689C812.39 127.694 812.161 127.667 811.921 127.586C811.681 127.506 811.475 127.387 811.309 127.257C810.992 127.007 810.874 126.757 810.855 126.715C810.833 126.665 810.851 126.689 810.876 126.823C810.929 127.099 810.948 127.482 810.941 127.863C810.937 128.04 810.929 128.189 810.922 128.29C810.918 128.34 810.915 128.376 810.913 128.397C810.912 128.407 810.912 128.413 810.912 128.415C810.912 128.415 810.912 128.415 810.912 128.414C810.912 128.413 810.912 128.412 810.912 128.41C810.912 128.41 810.912 128.409 810.912 128.408C810.912 128.408 810.912 128.407 810.912 128.407C810.913 128.406 810.913 128.406 813.895 128.728ZM809.886 122.516C790.922 135.623 767.081 140.704 748.231 140.704V146.704C767.974 146.704 793.093 141.417 813.297 127.452L809.886 122.516ZM748.231 140.704C741.361 140.704 736.785 139.667 734.044 137.968C731.58 136.441 730.382 134.259 730.494 130.842L724.497 130.646C724.321 136.013 726.434 140.311 730.883 143.068C735.053 145.653 740.99 146.704 748.231 146.704V140.704ZM730.495 130.744C730.495 129.361 730.723 128.053 731.11 126.637L725.321 125.059C724.843 126.811 724.495 128.671 724.495 130.744H730.495ZM730.899 127.19C731.379 126.229 731.828 124.684 731.042 123.145C730.218 121.531 728.635 121.061 727.581 120.999C725.53 120.878 723.374 121.982 721.774 123.583L726.017 127.825C726.394 127.448 726.753 127.218 727.022 127.094C727.321 126.956 727.395 126.999 727.229 126.989C727.093 126.981 726.204 126.862 725.699 125.874C725.232 124.96 725.628 124.315 725.532 124.506L730.899 127.19ZM720.972 125.029C720.537 126.915 720.175 128.501 720.175 130.744H726.175C726.175 129.243 726.39 128.237 726.818 126.379L720.972 125.029ZM720.176 130.67C720.011 137.342 722.379 142.704 727.527 146.233C732.444 149.602 739.509 151.024 748.231 151.024V145.024C739.961 145.024 734.355 143.638 730.919 141.283C727.716 139.088 726.051 135.81 726.174 130.818L720.176 130.67ZM748.231 151.024C768.779 151.024 794.69 144.545 815.509 131.257L812.281 126.199C792.492 138.831 767.716 145.024 748.231 145.024V151.024ZM726.343 105.376C728.597 105.376 730.64 104.859 732.299 104.015C733.899 103.202 735.376 101.959 736.135 100.334C736.528 99.4938 736.761 98.4674 736.581 97.3651C736.397 96.2307 735.813 95.2626 734.99 94.5369C733.463 93.1909 731.243 92.752 728.935 92.752V98.752C729.772 98.752 730.34 98.8377 730.696 98.9336C731.06 99.0315 731.108 99.1137 731.021 99.0371C730.903 98.9324 730.718 98.6888 730.66 98.3306C730.607 98.0046 730.694 97.8062 730.699 97.7937C730.703 97.7869 730.649 97.8974 730.451 98.0812C730.259 98.2591 729.972 98.4675 729.581 98.6666C728.796 99.0652 727.69 99.376 726.343 99.376V105.376ZM726.025 95.0244C726.073 94.8323 726.05 95.0221 725.407 95.7836C725.145 96.0944 724.856 96.4153 724.528 96.7807C724.216 97.1286 723.863 97.5227 723.542 97.9118C723.229 98.2914 722.873 98.7545 722.583 99.2535C722.329 99.6905 721.911 100.509 721.906 101.529C721.899 102.846 722.576 103.985 723.65 104.652C724.499 105.179 725.442 105.321 726.137 105.369L726.55 99.3831C726.2 99.359 726.424 99.3119 726.814 99.5545C727.43 99.9366 727.91 100.695 727.905 101.558C727.903 102.123 727.686 102.413 727.77 102.269C727.818 102.186 727.936 102.015 728.172 101.728C728.4 101.451 728.671 101.148 728.994 100.788C729.301 100.446 729.659 100.049 729.993 99.6534C730.542 99.0019 731.51 97.8237 731.846 96.4796L726.025 95.0244ZM1157.51 124.84L1155.97 122.268L1155.88 122.318L1155.8 122.374L1157.51 124.84ZM1019.27 74.008L1021.77 72.3439L1020.72 70.7678L1018.84 71.0389L1019.27 74.008ZM1021.72 69.256L1018.92 70.3492L1019.76 72.4851L1022.04 72.2386L1021.72 69.256ZM1020.42 58.6L1020.11 55.6158L1017.63 55.8715L1017.43 58.3608L1020.42 58.6ZM1016.68 54.712L1016.94 57.7005L1019.07 57.5137L1019.59 55.4396L1016.68 54.712ZM911.99 10.36L914.988 10.2718L914.987 10.2278L914.984 10.1838L911.99 10.36ZM907.67 10.36L905.354 8.45287L904.641 9.31887L904.671 10.4403L907.67 10.36ZM1015.96 59.032H1018.96V55.7522L1015.69 56.0439L1015.96 59.032ZM1017.25 69.976L1017.72 72.9391L1021.22 72.3856L1020.1 69.0273L1017.25 69.976ZM1159.67 128.584L1161.33 131.083L1162.67 130.192V128.584H1159.67ZM1021.29 54.28L1018.41 53.4373L1017.15 57.7262L1021.6 57.2639L1021.29 54.28ZM1024.6 73.288L1024.29 70.3039L1017.79 70.9757L1022.53 75.4659L1024.6 73.288ZM1155.8 122.374C1134.27 137.291 1104.07 146.983 1073.95 152.929C1043.88 158.864 1014.2 161.008 993.926 161.008V167.008C1014.55 167.008 1044.63 164.832 1075.11 158.815C1105.54 152.809 1136.69 142.917 1159.22 127.306L1155.8 122.374ZM993.926 161.008C973.057 161.008 958.164 158.237 948.58 152.924C943.84 150.297 940.453 147.077 938.234 143.293C936.014 139.509 934.862 134.985 934.862 129.592H928.862C928.862 135.863 930.211 141.473 933.058 146.329C935.906 151.185 940.151 155.111 945.671 158.172C956.607 164.235 972.746 167.008 993.926 167.008V161.008ZM934.862 129.592C934.862 116.271 946.317 104.435 963.555 95.0381C980.552 85.7738 1002.05 79.5291 1019.7 76.9771L1018.84 71.0389C1000.64 73.6709 978.428 80.0982 960.684 89.7699C943.182 99.3095 928.862 112.673 928.862 129.592H934.862ZM1016.77 75.6721C1020.65 81.4913 1027.37 84.64 1036.84 84.64V78.64C1028.74 78.64 1024.22 76.0287 1021.77 72.3439L1016.77 75.6721ZM1036.84 84.64C1040.82 84.64 1044.01 83.7692 1046.25 81.9557C1048.58 80.0725 1049.49 77.4964 1049.49 75.016H1043.49C1043.49 75.9916 1043.17 76.7275 1042.47 77.2923C1041.69 77.9268 1040.05 78.64 1036.84 78.64V84.64ZM1049.49 75.016C1049.49 72.4809 1048.41 69.8984 1046.01 68.0247C1043.67 66.2019 1040.35 65.248 1036.12 65.248V71.248C1039.52 71.248 1041.38 72.0221 1042.32 72.7552C1043.19 73.4376 1043.49 74.2391 1043.49 75.016H1049.49ZM1036.12 65.248C1031.62 65.248 1026.73 65.6967 1021.4 66.2734L1022.04 72.2386C1027.36 71.6633 1031.97 71.248 1036.12 71.248V65.248ZM1024.51 68.1628C1023.43 65.4044 1023.15 62.1495 1023.41 58.8392L1017.43 58.3608C1017.12 62.2505 1017.41 66.4836 1018.92 70.3492L1024.51 68.1628ZM1020.73 61.5842C1040.5 59.5488 1056.93 55.5732 1068.5 50.4734C1074.28 47.9274 1079 45.0379 1082.32 41.8499C1085.63 38.6668 1087.79 34.94 1087.79 30.808H1081.79C1081.79 32.724 1080.8 34.9912 1078.16 37.5231C1075.53 40.0501 1071.5 42.5966 1066.08 44.9826C1055.27 49.7468 1039.51 53.6192 1020.11 55.6158L1020.73 61.5842ZM1087.79 30.808C1087.79 27.1442 1086.93 22.873 1083.59 19.5532C1080.26 16.2443 1074.99 14.416 1067.37 14.416V20.416C1074.14 20.416 1077.58 22.0436 1079.36 23.8108C1081.13 25.567 1081.79 27.9918 1081.79 30.808H1087.79ZM1067.37 14.416C1057.28 14.416 1045.28 19.0102 1035.23 26.0463C1025.18 33.0775 1016.53 42.9406 1013.77 53.9844L1019.59 55.4396C1021.87 46.3234 1029.27 37.5385 1038.67 30.9617C1048.05 24.3898 1058.87 20.416 1067.37 20.416V14.416ZM1016.42 51.7235C1008.32 52.4335 999.485 52.72 990.182 52.72V58.72C999.598 58.72 1008.62 58.4305 1016.94 57.7005L1016.42 51.7235ZM990.182 52.72C970.364 52.72 951.55 48.7836 937.7 41.408C923.865 34.0409 915.378 23.508 914.988 10.2718L908.991 10.4482C909.466 26.588 919.915 38.7351 934.88 46.704C949.829 54.6644 969.679 58.72 990.182 58.72V52.72ZM911.99 10.36C914.984 10.1838 914.984 10.1825 914.984 10.1812C914.984 10.1807 914.984 10.1794 914.984 10.1784C914.984 10.1765 914.984 10.1746 914.984 10.1725C914.984 10.1684 914.983 10.164 914.983 10.1592C914.982 10.1497 914.982 10.1389 914.981 10.1268C914.979 10.1027 914.977 10.0734 914.974 10.0395C914.967 9.97196 914.959 9.88474 914.946 9.7821C914.92 9.58037 914.876 9.30124 914.802 8.98437C914.68 8.46498 914.371 7.36509 913.526 6.4679C913.054 5.96638 912.371 5.4838 911.463 5.28077C910.558 5.07834 909.696 5.21333 908.964 5.49609C907.63 6.01168 906.45 7.12129 905.354 8.45287L909.985 12.2671C910.412 11.7489 910.734 11.4285 910.956 11.2401C911.186 11.0446 911.24 11.0491 911.127 11.0929C910.989 11.1461 910.631 11.2429 910.154 11.1361C909.673 11.0287 909.341 10.7756 909.157 10.5801C908.993 10.4058 908.937 10.2708 908.937 10.2703C908.932 10.2598 908.945 10.2876 908.961 10.3586C908.977 10.4242 908.987 10.4894 908.993 10.5363C908.996 10.5579 908.997 10.5711 908.997 10.5729C908.997 10.5737 908.997 10.5713 908.997 10.5654C908.996 10.5624 908.996 10.5585 908.996 10.5537C908.996 10.5513 908.996 10.5486 908.995 10.5457C908.995 10.5442 908.995 10.5427 908.995 10.5411C908.995 10.5403 908.995 10.5391 908.995 10.5387C908.995 10.5374 908.995 10.5362 911.99 10.36ZM904.671 10.4403C905.14 27.97 916.069 41.2085 931.871 49.923C947.64 58.6194 968.586 63.04 990.182 63.04V57.04C969.298 57.04 949.419 52.7486 934.768 44.669C920.15 36.6075 911.063 25.006 910.669 10.2797L904.671 10.4403ZM990.182 63.04C999.313 63.04 1008.05 62.7503 1016.22 62.0201L1015.69 56.0439C1007.74 56.7537 999.194 57.04 990.182 57.04V63.04ZM1012.96 59.032C1012.96 64.5115 1013.4 67.8985 1014.41 70.9247L1020.1 69.0273C1019.38 66.8695 1018.96 64.2085 1018.96 59.032H1012.96ZM1016.78 67.0129C997.858 70.009 975.068 76.9829 956.923 87.3513C938.982 97.6034 924.542 111.804 924.542 129.592H930.542C930.542 115.268 942.309 102.613 959.9 92.5607C977.287 82.6251 999.353 75.847 1017.72 72.9391L1016.78 67.0129ZM924.542 129.592C924.542 136.56 925.971 142.779 928.977 148.163C931.986 153.554 936.486 157.943 942.373 161.379C954.047 168.191 971.29 171.328 993.926 171.328V165.328C971.633 165.328 955.685 162.201 945.398 156.197C940.306 153.225 936.633 149.568 934.216 145.239C931.795 140.903 930.542 135.728 930.542 129.592H924.542ZM993.926 171.328C1014.79 171.328 1045.27 168.788 1076.15 162.52C1106.99 156.263 1138.53 146.231 1161.33 131.083L1158.01 126.085C1136.17 140.601 1105.5 150.441 1074.96 156.64C1044.46 162.828 1014.39 165.328 993.926 165.328V171.328ZM1162.67 128.584C1162.67 127.146 1162.52 125.916 1162.17 124.895C1161.81 123.851 1161.16 122.831 1160.07 122.212C1158.98 121.592 1157.9 121.638 1157.23 121.781C1156.89 121.852 1156.61 121.954 1156.41 122.041C1156.31 122.086 1156.22 122.129 1156.15 122.167C1156.11 122.187 1156.08 122.205 1156.05 122.222C1156.03 122.23 1156.02 122.238 1156 122.246C1156 122.249 1155.99 122.253 1155.98 122.257C1155.98 122.259 1155.98 122.26 1155.97 122.262C1155.97 122.263 1155.97 122.264 1155.97 122.265C1155.97 122.266 1155.97 122.268 1157.51 124.84C1159.05 127.412 1159.05 127.414 1159.05 127.415C1159.05 127.415 1159.05 127.417 1159.04 127.418C1159.04 127.419 1159.04 127.421 1159.04 127.423C1159.03 127.426 1159.02 127.429 1159.02 127.433C1159.01 127.439 1159 127.445 1158.99 127.451C1158.96 127.463 1158.94 127.475 1158.92 127.486C1158.88 127.508 1158.84 127.528 1158.8 127.547C1158.71 127.583 1158.6 127.623 1158.47 127.652C1158.2 127.709 1157.66 127.746 1157.11 127.432C1156.56 127.119 1156.45 126.72 1156.5 126.851C1156.55 127.004 1156.67 127.502 1156.67 128.584H1162.67ZM1067.37 24.736C1072.5 24.736 1074.9 25.8306 1076.02 26.8321C1077.05 27.7574 1077.47 29.0411 1077.47 30.808H1083.47C1083.47 28.1109 1082.81 24.8585 1080.02 22.3639C1077.33 19.9454 1073.17 18.736 1067.37 18.736V24.736ZM1077.47 30.808C1077.47 32.1019 1076.73 33.8405 1074.32 35.9382C1071.93 38.0145 1068.24 40.1319 1063.26 42.1366C1053.31 46.1358 1038.82 49.4407 1020.98 51.2961L1021.6 57.2639C1039.76 55.3753 1054.85 51.9842 1065.5 47.7034C1070.81 45.5681 1075.17 43.1495 1078.25 40.4647C1081.31 37.8014 1083.47 34.5541 1083.47 30.808H1077.47ZM1024.16 55.1227C1026.49 47.1868 1033.22 39.5586 1041.68 33.8535C1050.14 28.1541 1059.78 24.736 1067.37 24.736V18.736C1058.24 18.736 1047.44 22.7338 1038.33 28.8785C1029.22 35.0174 1021.27 43.6612 1018.41 53.4373L1024.16 55.1227ZM1036.12 75.568C1038.12 75.568 1039.12 75.8681 1039.49 76.0534C1039.87 76.2381 1039.17 76.0122 1039.17 75.016H1045.17C1045.17 72.8678 1043.67 71.4179 1042.14 70.6666C1040.61 69.9159 1038.58 69.568 1036.12 69.568V75.568ZM1039.17 75.016C1039.17 74.7134 1039.26 74.409 1039.42 74.1694C1039.57 73.9493 1039.7 73.9006 1039.63 73.9402C1039.42 74.0493 1038.64 74.32 1036.84 74.32V80.32C1039.06 80.32 1040.95 80.0147 1042.4 79.2598C1043.98 78.4339 1045.17 76.953 1045.17 75.016H1039.17ZM1036.84 74.32C1031.88 74.32 1028.68 73.0232 1026.66 71.1101L1022.53 75.4659C1025.99 78.7368 1030.85 80.32 1036.84 80.32V74.32ZM1024.91 76.2721C1029.04 75.8442 1032.81 75.568 1036.12 75.568V69.568C1032.51 69.568 1028.51 69.8677 1024.29 70.3039L1024.91 76.2721ZM1255.54 124.984L1257.27 127.435L1257.28 127.426L1257.29 127.416L1255.54 124.984ZM1181.38 148.456L1181.4 145.456L1181.39 145.456H1181.38V148.456ZM1159.34 131.896H1156.34V131.928L1156.35 131.96L1159.34 131.896ZM1159.49 128.728L1162.47 129.1L1162.49 128.915V128.728H1159.49ZM1159.63 128.584V131.584H1160.4L1161.08 131.211L1159.63 128.584ZM1155.02 131.896H1152.02V131.934L1152.03 131.972L1155.02 131.896ZM1181.38 152.776L1181.39 149.776L1181.39 149.776H1181.38V152.776ZM1257.84 128.728L1259.47 131.25L1260.76 130.417L1260.84 128.882L1257.84 128.728ZM1160.35 123.256L1157.43 122.599L1155.92 129.316L1161.86 125.847L1160.35 123.256ZM1253.81 122.533C1232.31 137.704 1203.56 145.596 1181.4 145.456L1181.36 151.456C1204.7 151.604 1234.69 143.368 1257.27 127.435L1253.81 122.533ZM1181.38 145.456C1176 145.456 1171.23 144.703 1167.85 142.679C1164.73 140.807 1162.47 137.661 1162.34 131.832L1156.35 131.96C1156.51 139.667 1159.72 144.801 1164.77 147.825C1169.56 150.697 1175.66 151.456 1181.38 151.456V145.456ZM1162.34 131.896C1162.34 130.877 1162.35 130.043 1162.47 129.1L1156.51 128.356C1156.34 129.717 1156.34 130.899 1156.34 131.896H1162.34ZM1159.49 128.728C1162.49 128.728 1162.49 128.729 1162.49 128.731C1162.49 128.731 1162.49 128.733 1162.49 128.734C1162.49 128.736 1162.49 128.738 1162.49 128.74C1162.49 128.744 1162.49 128.748 1162.49 128.752C1162.49 128.76 1162.49 128.768 1162.49 128.776C1162.49 128.792 1162.49 128.809 1162.49 128.826C1162.49 128.861 1162.48 128.897 1162.48 128.936C1162.48 129.011 1162.47 129.1 1162.45 129.199C1162.42 129.382 1162.35 129.671 1162.19 129.998C1162.02 130.336 1161.72 130.765 1161.21 131.103C1160.69 131.453 1160.12 131.584 1159.63 131.584V125.584C1159.07 125.584 1158.45 125.733 1157.89 126.11C1157.34 126.475 1157.01 126.94 1156.82 127.314C1156.64 127.677 1156.57 128.002 1156.53 128.212C1156.51 128.324 1156.5 128.424 1156.5 128.508C1156.49 128.55 1156.49 128.59 1156.49 128.626C1156.49 128.645 1156.49 128.662 1156.49 128.679C1156.49 128.688 1156.49 128.696 1156.49 128.704C1156.49 128.708 1156.49 128.712 1156.49 128.716C1156.49 128.718 1156.49 128.72 1156.49 128.722C1156.49 128.723 1156.49 128.725 1156.49 128.725C1156.49 128.727 1156.49 128.728 1159.49 128.728ZM1161.08 131.211C1170.42 126.062 1181.94 118.046 1191.17 108.594C1200.3 99.2423 1207.7 87.9625 1207.7 76.312H1201.7C1201.7 85.5415 1195.71 95.3577 1186.88 104.402C1178.15 113.346 1167.13 121.026 1158.18 125.957L1161.08 131.211ZM1207.7 76.312C1207.7 72.936 1206.82 69.7673 1204.63 67.425C1202.41 65.0486 1199.26 63.952 1195.63 63.952V69.952C1198.05 69.952 1199.44 70.6554 1200.24 71.5189C1201.08 72.4167 1201.7 73.928 1201.7 76.312H1207.7ZM1195.63 63.952C1193.1 63.952 1190.58 64.8952 1188.23 66.2761C1185.86 67.6708 1183.46 69.6287 1181.11 71.9444C1176.4 76.5766 1171.63 82.8941 1167.37 89.8042C1163.11 96.727 1159.29 104.346 1156.54 111.636C1153.8 118.877 1152.02 126.009 1152.02 131.896H1158.02C1158.02 127.055 1159.52 120.705 1162.15 113.758C1164.76 106.859 1168.4 99.5829 1172.48 92.9518C1176.58 86.3079 1181.06 80.4124 1185.32 76.2201C1187.45 74.1235 1189.46 72.5163 1191.27 71.449C1193.11 70.3678 1194.56 69.952 1195.63 69.952V63.952ZM1152.03 131.972C1152.26 141.332 1155.96 147.54 1161.79 151.241C1167.39 154.795 1174.56 155.776 1181.38 155.776V149.776C1174.95 149.776 1169.16 148.813 1165 146.175C1161.08 143.684 1158.22 139.452 1158.02 131.82L1152.03 131.972ZM1181.36 155.776C1205.49 155.924 1235.58 146.639 1259.47 131.25L1256.22 126.206C1233.16 141.057 1204.2 149.916 1181.39 149.776L1181.36 155.776ZM1260.84 128.882C1260.92 127.311 1260.82 125.953 1260.45 124.834C1260.06 123.654 1259.27 122.482 1257.87 121.948C1256.6 121.462 1255.46 121.758 1254.9 121.964C1254.59 122.079 1254.34 122.209 1254.16 122.31C1254.07 122.363 1253.99 122.411 1253.93 122.452C1253.89 122.472 1253.87 122.491 1253.84 122.508C1253.83 122.516 1253.82 122.524 1253.81 122.531C1253.8 122.535 1253.8 122.539 1253.79 122.542C1253.79 122.544 1253.79 122.546 1253.79 122.547C1253.79 122.548 1253.78 122.549 1253.78 122.55C1253.78 122.551 1253.78 122.552 1255.54 124.984C1257.29 127.416 1257.29 127.417 1257.29 127.418C1257.29 127.419 1257.29 127.42 1257.29 127.421C1257.28 127.422 1257.28 127.424 1257.28 127.425C1257.28 127.428 1257.27 127.431 1257.27 127.434C1257.26 127.439 1257.25 127.445 1257.25 127.45C1257.23 127.46 1257.22 127.469 1257.2 127.477C1257.18 127.493 1257.16 127.507 1257.14 127.519C1257.1 127.54 1257.05 127.568 1256.97 127.595C1256.89 127.625 1256.38 127.804 1255.73 127.552C1254.94 127.252 1254.74 126.665 1254.75 126.713C1254.79 126.823 1254.91 127.337 1254.84 128.574L1260.84 128.882ZM1195.63 74.272C1196.62 74.272 1196.91 74.5455 1196.99 74.6312C1197.1 74.7606 1197.38 75.1898 1197.38 76.312H1203.38C1203.38 74.2662 1202.87 72.1754 1201.41 70.5768C1199.9 68.9344 1197.82 68.272 1195.63 68.272V74.272ZM1197.38 76.312C1197.38 84.1962 1192.38 92.6869 1184.68 100.735C1177.08 108.687 1167.31 115.723 1158.84 120.665L1161.86 125.847C1170.67 120.709 1180.92 113.345 1189.02 104.881C1197.02 96.5131 1203.38 86.5718 1203.38 76.312H1197.38ZM1163.28 123.913C1165.56 113.764 1171.36 101.101 1178.02 90.974C1181.34 85.9196 1184.8 81.6172 1188.03 78.6167C1191.4 75.4892 1194 74.272 1195.63 74.272V68.272C1191.58 68.272 1187.52 70.9068 1183.95 74.2188C1180.24 77.6578 1176.48 82.3824 1173 87.678C1166.05 98.2513 1159.9 111.58 1157.43 122.599L1163.28 123.913ZM1380.47 128.728L1382.1 131.25L1383.27 130.498L1383.45 129.119L1380.47 128.728ZM1378.17 124.984L1376.68 122.379L1376.62 122.413L1376.56 122.45L1378.17 124.984ZM1323.74 67.528L1326.42 68.8696L1326.59 68.5212L1326.67 68.1399L1323.74 67.528ZM1319.71 66.088L1318.53 63.3262L1317.45 63.7849L1316.97 64.8557L1319.71 66.088ZM1282.12 114.184L1285.1 113.87L1285.09 113.732L1285.06 113.596L1282.12 114.184ZM1286.44 113.32L1289.23 114.434L1289.58 113.551L1289.36 112.625L1286.44 113.32ZM1309.19 96.472L1312.08 97.2854L1306.59 94.9821L1309.19 96.472ZM1383.45 129.119C1383.65 127.564 1383.65 126.163 1383.29 124.972C1382.9 123.659 1382.03 122.519 1380.65 121.998C1379.46 121.547 1378.37 121.756 1377.82 121.911C1377.51 121.999 1377.25 122.102 1377.07 122.184C1376.97 122.227 1376.89 122.266 1376.83 122.299C1376.8 122.316 1376.77 122.331 1376.74 122.344C1376.73 122.351 1376.72 122.357 1376.71 122.363C1376.7 122.366 1376.7 122.369 1376.69 122.372C1376.69 122.373 1376.69 122.374 1376.69 122.376C1376.69 122.376 1376.68 122.377 1376.68 122.377C1376.68 122.378 1376.68 122.379 1378.17 124.984C1379.66 127.589 1379.66 127.59 1379.65 127.591C1379.65 127.591 1379.65 127.592 1379.65 127.592C1379.65 127.594 1379.65 127.595 1379.65 127.596C1379.64 127.598 1379.64 127.6 1379.63 127.602C1379.63 127.607 1379.62 127.611 1379.61 127.614C1379.6 127.621 1379.59 127.628 1379.58 127.633C1379.56 127.643 1379.54 127.651 1379.53 127.656C1379.51 127.666 1379.48 127.677 1379.44 127.688C1379.43 127.69 1379.06 127.809 1378.53 127.61C1377.82 127.341 1377.57 126.795 1377.54 126.697C1377.54 126.688 1377.57 126.798 1377.58 127.083C1377.59 127.364 1377.57 127.771 1377.5 128.337L1383.45 129.119ZM1376.56 122.45C1356.64 135.076 1337.77 138.256 1326.47 138.256V144.256C1338.79 144.256 1358.8 140.812 1379.78 127.518L1376.56 122.45ZM1326.47 138.256C1320.88 138.256 1317.47 136.755 1315.4 134.458C1313.27 132.101 1312.05 128.356 1312.05 122.824H1306.05C1306.05 129.1 1307.42 134.571 1310.94 138.478C1314.52 142.445 1319.83 144.256 1326.47 144.256V138.256ZM1312.05 122.824C1312.05 116.055 1314.15 105.512 1317.07 95.0079C1319.98 84.5447 1323.59 74.5281 1326.42 68.8696L1321.05 66.1864C1317.98 72.3359 1314.25 82.7673 1311.29 93.4C1308.34 103.992 1306.05 115.193 1306.05 122.824H1312.05ZM1323.74 67.528C1326.67 68.1399 1326.67 68.1381 1326.68 68.1364C1326.68 68.1358 1326.68 68.134 1326.68 68.1328C1326.68 68.1303 1326.68 68.1278 1326.68 68.1253C1326.68 68.1202 1326.68 68.1148 1326.68 68.1091C1326.68 68.0979 1326.69 68.0855 1326.69 68.0722C1326.69 68.0456 1326.7 68.0148 1326.7 67.9802C1326.72 67.9112 1326.73 67.8255 1326.74 67.7259C1326.76 67.5304 1326.78 67.2626 1326.77 66.9503C1326.76 66.3897 1326.66 65.3568 1325.99 64.3711C1325.21 63.226 1323.97 62.5658 1322.54 62.4693C1321.27 62.3836 1319.92 62.738 1318.53 63.3262L1320.88 68.8497C1321.87 68.43 1322.21 68.4604 1322.14 68.4557C1322.07 68.4513 1321.88 68.4246 1321.63 68.2884C1321.37 68.1481 1321.16 67.9479 1321.02 67.7329C1320.88 67.5323 1320.83 67.3573 1320.8 67.2615C1320.78 67.1663 1320.78 67.1053 1320.78 67.0887C1320.78 67.0689 1320.78 67.0553 1320.78 67.041C1320.78 67.032 1320.78 67.0186 1320.78 66.9992C1320.79 66.9894 1320.79 66.9777 1320.79 66.9641C1320.79 66.9572 1320.79 66.9498 1320.8 66.9418C1320.8 66.9379 1320.8 66.9337 1320.8 66.9294C1320.8 66.9273 1320.8 66.9251 1320.8 66.9229C1320.8 66.9218 1320.8 66.9201 1320.8 66.9195C1320.8 66.9178 1320.8 66.9161 1323.74 67.528ZM1316.97 64.8557C1308.17 84.3806 1297.96 102.395 1287.62 115.473C1282.44 122.014 1277.31 127.229 1272.39 130.785C1267.44 134.355 1262.93 136.096 1258.94 136.096V142.096C1264.66 142.096 1270.39 139.625 1275.9 135.649C1281.42 131.658 1286.95 125.992 1292.32 119.195C1303.08 105.597 1313.53 87.1074 1322.44 67.3203L1316.97 64.8557ZM1258.94 136.096C1258.82 136.096 1258.82 136.076 1258.89 136.108C1258.98 136.144 1259.06 136.208 1259.12 136.278C1259.17 136.34 1259.15 136.352 1259.12 136.253C1259.09 136.15 1259.06 135.953 1259.06 135.64H1253.06C1253.06 137.138 1253.4 138.768 1254.47 140.078C1255.62 141.478 1257.25 142.096 1258.94 142.096V136.096ZM1259.06 135.64C1259.06 132.005 1261.7 127.085 1266.05 122.873C1270.37 118.681 1275.53 116.032 1279.53 116.032V110.032C1273.3 110.032 1266.72 113.863 1261.87 118.563C1257.04 123.243 1253.06 129.627 1253.06 135.64H1259.06ZM1279.53 116.032C1279.79 116.032 1279.97 116.05 1280.08 116.069C1280.19 116.088 1280.19 116.1 1280.12 116.065C1280.04 116.029 1279.84 115.924 1279.64 115.693C1279.42 115.447 1279.25 115.127 1279.18 114.772L1285.06 113.596C1284.75 112.054 1283.67 111.096 1282.62 110.611C1281.63 110.161 1280.54 110.032 1279.53 110.032V116.032ZM1279.14 114.498C1279.27 115.755 1279.82 117.199 1281.22 118.062C1282.56 118.887 1283.99 118.75 1284.95 118.455C1286.78 117.89 1288.47 116.323 1289.23 114.434L1283.66 112.206C1283.63 112.282 1283.54 112.422 1283.39 112.561C1283.24 112.708 1283.14 112.735 1283.18 112.721C1283.2 112.714 1283.73 112.559 1284.37 112.952C1285.07 113.383 1285.12 113.981 1285.1 113.87L1279.14 114.498ZM1289.36 112.625C1288.86 110.535 1287.78 108.678 1285.92 107.404C1284.12 106.174 1281.9 105.712 1279.53 105.712V111.712C1281.19 111.712 1282.07 112.042 1282.54 112.36C1282.94 112.634 1283.3 113.081 1283.52 114.015L1289.36 112.625ZM1279.53 105.712C1272.42 105.712 1264.76 110.209 1259.06 115.76C1253.38 121.294 1248.74 128.757 1248.74 135.64H1254.74C1254.74 131.147 1258.02 125.146 1263.24 120.06C1268.45 114.991 1274.68 111.712 1279.53 111.712V105.712ZM1248.74 135.64C1248.74 138.498 1249.47 141.244 1251.32 143.309C1253.21 145.425 1255.9 146.416 1258.94 146.416V140.416C1257.22 140.416 1256.31 139.895 1255.79 139.311C1255.22 138.676 1254.74 137.534 1254.74 135.64H1248.74ZM1258.94 146.416C1268.71 146.416 1278 141.05 1286.65 132.562C1295.34 124.041 1303.74 112.038 1311.8 97.9619L1306.59 94.9821C1298.66 108.842 1290.57 120.311 1282.45 128.278C1274.29 136.278 1266.44 140.416 1258.94 140.416V146.416ZM1306.31 95.6586C1303.39 106.006 1301.73 115.233 1301.73 122.824H1307.73C1307.73 116.015 1309.24 107.386 1312.08 97.2854L1306.31 95.6586ZM1301.73 122.824C1301.73 130.528 1303.38 137.092 1307.61 141.729C1311.88 146.421 1318.27 148.576 1326.47 148.576V142.576C1319.27 142.576 1314.79 140.699 1312.04 137.687C1309.25 134.62 1307.73 129.808 1307.73 122.824H1301.73ZM1326.47 148.576C1339.34 148.576 1360.51 145.146 1382.1 131.25L1378.85 126.206C1358.38 139.382 1338.38 142.576 1326.47 142.576V148.576ZM1494.6 124.984L1496.31 127.449L1496.33 127.433L1496.36 127.416L1494.6 124.984ZM1420.01 132.616H1417.01V132.693L1417.01 132.77L1420.01 132.616ZM1427.64 115.912L1430.06 117.68L1430.6 116.946L1430.64 116.037L1427.64 115.912ZM1424.76 112.024L1424.07 109.104L1424.06 109.106L1424.05 109.108L1424.76 112.024ZM1405.18 112.456L1403.28 110.128L1399.28 113.382L1404.09 115.252L1405.18 112.456ZM1398.55 112.024L1400.29 114.465L1402.55 112.855L1401.12 110.481L1398.55 112.024ZM1378.54 124.84L1377.14 122.183L1375.87 122.851L1375.59 124.265L1378.54 124.84ZM1380.7 128.584L1379.24 125.962L1379.15 126.013L1379.06 126.071L1380.7 128.584ZM1401.58 115.336L1403.16 112.792L1401.49 111.744L1399.86 112.872L1401.58 115.336ZM1420.58 117.64L1423.1 119.266L1426.63 113.808L1420.19 114.666L1420.58 117.64ZM1415.69 132.76H1412.69V132.814L1412.69 132.867L1415.69 132.76ZM1496.9 128.728L1498.53 131.249L1499.82 130.416L1499.9 128.882L1496.9 128.728ZM1402.3 109.144H1399.3V115.549L1404.22 111.449L1402.3 109.144ZM1492.89 122.519C1470.47 138.074 1453.4 139.696 1441.32 139.696V145.696C1454.3 145.696 1472.65 143.862 1496.31 127.449L1492.89 122.519ZM1441.32 139.696C1433.44 139.696 1428.79 138.588 1426.18 137.139C1423.81 135.826 1423.09 134.242 1423 132.462L1417.01 132.77C1417.21 136.606 1419.08 140.062 1423.27 142.385C1427.21 144.572 1433.07 145.696 1441.32 145.696V139.696ZM1423.01 132.616C1423.01 127.435 1426.03 123.204 1430.06 117.68L1425.22 114.144C1421.47 119.276 1417.01 125.125 1417.01 132.616H1423.01ZM1430.64 116.037C1430.67 115.111 1430.67 114.207 1430.57 113.391C1430.47 112.605 1430.25 111.611 1429.62 110.726C1428.91 109.713 1427.88 109.135 1426.77 108.945C1425.79 108.779 1424.84 108.923 1424.07 109.104L1425.45 114.944C1425.65 114.896 1425.78 114.879 1425.84 114.874C1425.91 114.868 1425.87 114.879 1425.76 114.86C1425.64 114.84 1425.44 114.786 1425.23 114.653C1425 114.517 1424.83 114.346 1424.72 114.186C1424.61 114.037 1424.58 113.931 1424.58 113.927C1424.58 113.924 1424.6 113.985 1424.62 114.14C1424.66 114.467 1424.68 114.985 1424.64 115.787L1430.64 116.037ZM1424.05 109.108C1419.31 110.259 1416.16 110.752 1414.54 110.752V116.752C1416.94 116.752 1420.71 116.093 1425.47 114.94L1424.05 109.108ZM1414.54 110.752C1411.71 110.752 1408.3 110.453 1406.26 109.66L1404.09 115.252C1407.23 116.475 1411.6 116.752 1414.54 116.752V110.752ZM1407.07 114.784C1408.27 113.805 1409.55 112.661 1410.51 111.182C1411.51 109.622 1412.06 107.831 1412.06 105.688H1406.06C1406.06 106.713 1405.82 107.37 1405.46 107.934C1405.04 108.579 1404.38 109.235 1403.28 110.128L1407.07 114.784ZM1412.06 105.688C1412.06 103.962 1411.6 102.039 1410.12 100.561C1408.64 99.0792 1406.61 98.512 1404.46 98.512V104.512C1405.03 104.512 1405.39 104.588 1405.6 104.66C1405.8 104.727 1405.87 104.791 1405.88 104.803C1405.89 104.816 1405.93 104.855 1405.97 104.974C1406.02 105.105 1406.06 105.334 1406.06 105.688H1412.06ZM1404.46 98.512C1401.43 98.512 1399 100.152 1397.44 102.182C1395.88 104.201 1394.98 106.826 1394.98 109.432H1400.98C1400.98 108.15 1401.44 106.815 1402.19 105.846C1402.93 104.888 1403.74 104.512 1404.46 104.512V98.512ZM1394.98 109.432C1394.98 110.683 1395.14 112.178 1395.98 113.567L1401.12 110.481C1401.09 110.43 1400.98 110.197 1400.98 109.432H1394.98ZM1396.81 109.583C1391.78 113.175 1382.99 119.118 1377.14 122.183L1379.93 127.497C1386.17 124.226 1395.24 118.073 1400.29 114.465L1396.81 109.583ZM1375.59 124.265C1375.27 125.893 1375.17 127.362 1375.47 128.606C1375.8 130.028 1376.73 131.34 1378.35 131.808C1379.63 132.179 1380.76 131.822 1381.25 131.636C1381.55 131.523 1381.8 131.401 1381.98 131.307C1382.07 131.259 1382.14 131.215 1382.2 131.18C1382.23 131.162 1382.26 131.146 1382.28 131.132C1382.29 131.125 1382.3 131.118 1382.31 131.113C1382.31 131.11 1382.32 131.107 1382.32 131.104C1382.32 131.103 1382.33 131.102 1382.33 131.1C1382.33 131.1 1382.33 131.099 1382.33 131.099C1382.33 131.098 1382.33 131.097 1380.7 128.584C1379.06 126.071 1379.06 126.07 1379.06 126.069C1379.06 126.069 1379.06 126.068 1379.06 126.068C1379.06 126.067 1379.06 126.066 1379.07 126.065C1379.07 126.062 1379.07 126.06 1379.08 126.058C1379.08 126.055 1379.09 126.051 1379.09 126.048C1379.1 126.042 1379.11 126.038 1379.12 126.034C1379.13 126.027 1379.13 126.024 1379.13 126.024C1379.13 126.023 1379.13 126.024 1379.13 126.024C1379.13 126.025 1379.13 126.024 1379.14 126.022C1379.14 126.021 1379.2 125.997 1379.32 125.982C1379.43 125.967 1379.69 125.949 1380.02 126.044C1380.38 126.15 1380.73 126.366 1381 126.673C1381.24 126.957 1381.3 127.196 1381.31 127.225C1381.31 127.249 1381.28 127.134 1381.29 126.813C1381.31 126.498 1381.36 126.044 1381.48 125.415L1375.59 124.265ZM1382.15 131.206C1388.76 127.536 1398.07 121.423 1403.29 117.8L1399.86 112.872C1394.71 116.449 1385.59 122.432 1379.24 125.962L1382.15 131.206ZM1399.99 117.88C1402.17 119.245 1404.82 120.02 1407.31 120.467C1409.83 120.92 1412.39 121.072 1414.54 121.072V115.072C1412.65 115.072 1410.46 114.936 1408.37 114.561C1406.25 114.18 1404.44 113.587 1403.16 112.792L1399.99 117.88ZM1414.54 121.072C1416.26 121.072 1418.7 120.918 1420.98 120.614L1420.19 114.666C1418.15 114.938 1415.98 115.072 1414.54 115.072V121.072ZM1418.06 116.014C1414.97 120.806 1412.69 126.55 1412.69 132.76H1418.69C1418.69 128.026 1420.44 123.402 1423.1 119.266L1418.06 116.014ZM1412.69 132.867C1412.86 137.723 1414.8 142.262 1419.69 145.429C1424.35 148.451 1431.38 150.016 1441.32 150.016V144.016C1431.82 144.016 1426.18 142.485 1422.95 140.395C1419.95 138.45 1418.8 135.861 1418.69 132.653L1412.69 132.867ZM1441.32 150.016C1455.24 150.016 1473.24 147.571 1498.53 131.249L1495.28 126.207C1471.03 141.853 1454.18 144.016 1441.32 144.016V150.016ZM1499.9 128.882C1499.98 127.311 1499.88 125.953 1499.51 124.834C1499.12 123.654 1498.33 122.482 1496.93 121.948C1495.66 121.462 1494.52 121.758 1493.96 121.964C1493.65 122.079 1493.4 122.209 1493.22 122.31C1493.13 122.363 1493.05 122.411 1492.99 122.452C1492.96 122.472 1492.93 122.491 1492.91 122.508C1492.89 122.516 1492.88 122.524 1492.87 122.531C1492.87 122.535 1492.86 122.539 1492.86 122.542C1492.85 122.544 1492.85 122.546 1492.85 122.547C1492.85 122.548 1492.85 122.549 1492.85 122.55C1492.84 122.551 1492.84 122.552 1494.6 124.984C1496.36 127.416 1496.35 127.417 1496.35 127.418C1496.35 127.419 1496.35 127.42 1496.35 127.421C1496.35 127.422 1496.34 127.424 1496.34 127.425C1496.34 127.428 1496.33 127.431 1496.33 127.434C1496.32 127.439 1496.32 127.445 1496.31 127.45C1496.29 127.46 1496.28 127.469 1496.27 127.477C1496.24 127.493 1496.22 127.507 1496.2 127.519C1496.16 127.54 1496.11 127.568 1496.04 127.595C1495.95 127.625 1495.45 127.804 1494.79 127.552C1494 127.252 1493.8 126.665 1493.82 126.713C1493.85 126.823 1493.97 127.337 1493.91 128.574L1499.9 128.882ZM1404.46 108.832C1403.55 108.832 1402.9 108.41 1402.53 108.043C1402.16 107.676 1401.74 107.024 1401.74 106.12H1407.74C1407.74 105.072 1407.25 104.276 1406.77 103.801C1406.3 103.326 1405.5 102.832 1404.46 102.832V108.832ZM1401.74 106.12C1401.74 105.855 1401.79 105.658 1401.83 105.55C1401.85 105.495 1401.87 105.454 1401.88 105.43C1401.89 105.406 1401.9 105.393 1401.9 105.392C1401.9 105.391 1401.89 105.398 1401.88 105.414C1401.87 105.43 1401.86 105.452 1401.83 105.479C1401.79 105.536 1401.73 105.608 1401.65 105.693C1401.3 106.069 1400.84 106.449 1400.37 106.839L1404.22 111.449C1404.61 111.119 1405.38 110.491 1406.04 109.787C1406.37 109.431 1406.75 108.974 1407.07 108.441C1407.36 107.938 1407.74 107.126 1407.74 106.12H1401.74ZM1405.3 109.144C1405.3 108.915 1405.32 108.719 1405.35 108.57C1405.39 108.415 1405.43 108.354 1405.42 108.361C1405.42 108.37 1405.34 108.495 1405.14 108.622C1404.93 108.763 1404.68 108.832 1404.46 108.832V102.832C1402.42 102.832 1401.01 104.027 1400.25 105.319C1399.54 106.524 1399.3 107.923 1399.3 109.144H1405.3ZM1590.45 124.84L1589.17 122.126L1589.05 122.181L1588.94 122.246L1590.45 124.84ZM1493.54 139.672H1490.54V139.715L1490.54 139.758L1493.54 139.672ZM1496.85 128.728L1497.8 125.882L1495.53 125.126L1494.29 127.168L1496.85 128.728ZM1489.22 139.672H1486.22V139.7L1486.22 139.729L1489.22 139.672ZM1592.46 128.728L1593.97 131.324L1595.32 130.541L1595.45 128.984L1592.46 128.728ZM1499.73 124.984L1497.49 122.984L1494.32 126.531L1498.89 127.864L1499.73 124.984ZM1588.94 122.246C1571.36 132.453 1540.35 145.168 1508.51 145.168V151.168C1541.76 151.168 1573.82 137.963 1591.95 127.434L1588.94 122.246ZM1508.51 145.168C1503.26 145.168 1500.23 144.322 1498.58 143.276C1497.15 142.372 1496.58 141.219 1496.53 139.586L1490.54 139.758C1490.63 143.165 1492.08 146.26 1495.37 148.344C1498.43 150.286 1502.82 151.168 1508.51 151.168V145.168ZM1496.54 139.672C1496.54 136.454 1497.61 133.244 1499.41 130.288L1494.29 127.168C1492.05 130.836 1490.54 135.114 1490.54 139.672H1496.54ZM1495.9 131.574C1500.53 133.117 1505.46 133.888 1510.1 133.888V127.888C1506.09 127.888 1501.81 127.219 1497.8 125.882L1495.9 131.574ZM1510.1 133.888C1513.59 133.888 1518.36 132.876 1522.35 130.594C1526.37 128.293 1530.09 124.369 1530.09 118.504H1524.09C1524.09 121.423 1522.33 123.691 1519.37 125.386C1516.37 127.1 1512.65 127.888 1510.1 127.888V133.888ZM1530.09 118.504C1530.09 115.882 1529.11 113.28 1527 111.355C1524.9 109.44 1521.96 108.448 1518.45 108.448V114.448C1520.84 114.448 1522.22 115.112 1522.96 115.789C1523.69 116.456 1524.09 117.382 1524.09 118.504H1530.09ZM1518.45 108.448C1510.68 108.448 1502.67 112.249 1496.66 117.858C1490.63 123.473 1486.22 131.273 1486.22 139.672H1492.22C1492.22 133.383 1495.57 127.071 1500.75 122.246C1505.93 117.415 1512.54 114.448 1518.45 114.448V108.448ZM1486.22 139.729C1486.3 144.279 1487.94 148.447 1491.9 151.359C1495.7 154.153 1501.24 155.488 1508.51 155.488V149.488C1501.82 149.488 1497.78 148.231 1495.46 146.525C1493.3 144.937 1492.27 142.697 1492.22 139.615L1486.22 139.729ZM1508.51 155.488C1542.77 155.488 1575.54 141.998 1593.97 131.324L1590.96 126.132C1573.1 136.482 1541.36 149.488 1508.51 149.488V155.488ZM1595.45 128.984C1595.68 126.377 1595.36 123.67 1593.19 122.336C1592.14 121.693 1591.08 121.679 1590.43 121.764C1590.1 121.808 1589.82 121.883 1589.62 121.949C1589.51 121.983 1589.42 122.017 1589.35 122.047C1589.31 122.062 1589.28 122.076 1589.25 122.09C1589.23 122.096 1589.22 122.102 1589.21 122.108C1589.2 122.111 1589.19 122.114 1589.19 122.117C1589.19 122.119 1589.18 122.12 1589.18 122.121C1589.18 122.122 1589.18 122.123 1589.17 122.124C1589.17 122.125 1589.17 122.126 1590.45 124.84C1591.73 127.554 1591.72 127.555 1591.72 127.556C1591.72 127.557 1591.72 127.558 1591.72 127.558C1591.71 127.56 1591.71 127.561 1591.71 127.562C1591.7 127.565 1591.7 127.567 1591.69 127.57C1591.68 127.575 1591.67 127.58 1591.66 127.584C1591.64 127.593 1591.62 127.602 1591.6 127.61C1591.56 127.625 1591.52 127.639 1591.49 127.651C1591.42 127.674 1591.32 127.699 1591.21 127.713C1591.01 127.74 1590.54 127.753 1590.05 127.452C1589.52 127.129 1589.42 126.728 1589.44 126.806C1589.48 126.928 1589.57 127.403 1589.47 128.472L1595.45 128.984ZM1518.45 118.768C1519.58 118.768 1519.97 119.016 1519.99 119.033C1519.99 119.035 1519.98 119.022 1519.95 118.991C1519.92 118.959 1519.89 118.914 1519.86 118.855C1519.79 118.73 1519.77 118.602 1519.77 118.504H1525.77C1525.77 116.79 1524.96 115.21 1523.49 114.159C1522.11 113.168 1520.34 112.768 1518.45 112.768V118.768ZM1519.77 118.504C1519.77 119.632 1518.99 120.855 1516.8 121.966C1514.68 123.045 1511.98 123.568 1510.1 123.568V129.568C1512.82 129.568 1516.46 128.867 1519.52 127.318C1522.51 125.801 1525.77 122.992 1525.77 118.504H1519.77ZM1510.1 123.568C1506.97 123.568 1503.8 123.048 1500.57 122.104L1498.89 127.864C1502.56 128.936 1506.31 129.568 1510.1 129.568V123.568ZM1501.96 126.984C1506.42 122.001 1512.86 118.768 1518.45 118.768V112.768C1510.79 112.768 1502.82 117.023 1497.49 122.984L1501.96 126.984ZM1715.16 128.728L1716.78 131.25L1717.95 130.498L1718.14 129.119L1715.16 128.728ZM1712.86 124.984L1711.37 122.379L1711.31 122.413L1711.25 122.45L1712.86 124.984ZM1658.42 67.528L1661.11 68.8696L1661.28 68.5212L1661.36 68.1399L1658.42 67.528ZM1654.39 66.088L1653.22 63.3262L1652.14 63.7849L1651.66 64.8557L1654.39 66.088ZM1616.81 114.184L1619.79 113.87L1619.78 113.732L1619.75 113.596L1616.81 114.184ZM1621.13 113.32L1623.91 114.434L1624.27 113.551L1624.05 112.625L1621.13 113.32ZM1643.88 96.472L1646.77 97.2854L1641.28 94.9821L1643.88 96.472ZM1718.14 129.119C1718.34 127.564 1718.34 126.163 1717.98 124.972C1717.58 123.659 1716.72 122.519 1715.34 121.998C1714.15 121.547 1713.06 121.756 1712.51 121.911C1712.2 121.999 1711.94 122.102 1711.75 122.184C1711.66 122.227 1711.58 122.266 1711.52 122.299C1711.48 122.316 1711.46 122.331 1711.43 122.344C1711.42 122.351 1711.41 122.357 1711.4 122.363C1711.39 122.366 1711.39 122.369 1711.38 122.372C1711.38 122.373 1711.38 122.374 1711.38 122.376C1711.37 122.376 1711.37 122.377 1711.37 122.377C1711.37 122.378 1711.37 122.379 1712.86 124.984C1714.35 127.589 1714.34 127.59 1714.34 127.591C1714.34 127.591 1714.34 127.592 1714.34 127.592C1714.34 127.594 1714.33 127.595 1714.33 127.596C1714.33 127.598 1714.32 127.6 1714.32 127.602C1714.31 127.607 1714.31 127.611 1714.3 127.614C1714.29 127.621 1714.27 127.628 1714.26 127.633C1714.24 127.643 1714.23 127.651 1714.22 127.656C1714.19 127.666 1714.17 127.677 1714.13 127.688C1714.12 127.69 1713.74 127.809 1713.22 127.61C1712.51 127.341 1712.26 126.795 1712.23 126.697C1712.23 126.688 1712.26 126.798 1712.27 127.083C1712.28 127.364 1712.26 127.771 1712.19 128.337L1718.14 129.119ZM1711.25 122.45C1691.33 135.076 1672.46 138.256 1661.16 138.256V144.256C1673.48 144.256 1693.49 140.812 1714.46 127.518L1711.25 122.45ZM1661.16 138.256C1655.57 138.256 1652.16 136.755 1650.09 134.458C1647.96 132.101 1646.74 128.356 1646.74 122.824H1640.74C1640.74 129.1 1642.11 134.571 1645.63 138.478C1649.21 142.445 1654.51 144.256 1661.16 144.256V138.256ZM1646.74 122.824C1646.74 116.055 1648.84 105.512 1651.76 95.0079C1654.67 84.5447 1658.28 74.5281 1661.11 68.8696L1655.74 66.1864C1652.67 72.3359 1648.93 82.7673 1645.98 93.4C1643.03 103.992 1640.74 115.193 1640.74 122.824H1646.74ZM1658.42 67.528C1661.36 68.1399 1661.36 68.1381 1661.36 68.1364C1661.36 68.1358 1661.36 68.134 1661.36 68.1328C1661.36 68.1303 1661.36 68.1278 1661.36 68.1253C1661.37 68.1202 1661.37 68.1148 1661.37 68.1091C1661.37 68.0979 1661.37 68.0855 1661.38 68.0722C1661.38 68.0456 1661.39 68.0148 1661.39 67.9802C1661.4 67.9112 1661.42 67.8255 1661.43 67.7259C1661.45 67.5304 1661.47 67.2626 1661.46 66.9503C1661.45 66.3897 1661.34 65.3568 1660.68 64.3711C1659.9 63.226 1658.66 62.5658 1657.23 62.4693C1655.96 62.3836 1654.61 62.738 1653.22 63.3262L1655.56 68.8497C1656.55 68.43 1656.9 68.4604 1656.83 68.4557C1656.76 68.4513 1656.56 68.4246 1656.31 68.2884C1656.06 68.1481 1655.85 67.9479 1655.71 67.7329C1655.57 67.5323 1655.51 67.3573 1655.49 67.2615C1655.47 67.1663 1655.46 67.1053 1655.46 67.0887C1655.46 67.0689 1655.46 67.0553 1655.47 67.041C1655.47 67.032 1655.47 67.0186 1655.47 66.9992C1655.47 66.9894 1655.48 66.9777 1655.48 66.9641C1655.48 66.9572 1655.48 66.9498 1655.48 66.9418C1655.48 66.9379 1655.48 66.9337 1655.49 66.9294C1655.49 66.9273 1655.49 66.9251 1655.49 66.9229C1655.49 66.9218 1655.49 66.9201 1655.49 66.9195C1655.49 66.9178 1655.49 66.9161 1658.42 67.528ZM1651.66 64.8557C1642.86 84.3806 1632.65 102.395 1622.3 115.473C1617.13 122.014 1612 127.229 1607.07 130.785C1602.13 134.355 1597.62 136.096 1593.62 136.096V142.096C1599.35 142.096 1605.08 139.625 1610.59 135.649C1616.11 131.658 1621.63 125.992 1627.01 119.195C1637.76 105.597 1648.21 87.1074 1657.13 67.3203L1651.66 64.8557ZM1593.62 136.096C1593.5 136.096 1593.51 136.076 1593.58 136.108C1593.66 136.144 1593.75 136.208 1593.8 136.278C1593.86 136.34 1593.84 136.352 1593.81 136.253C1593.78 136.15 1593.74 135.953 1593.74 135.64H1587.74C1587.74 137.138 1588.09 138.768 1589.16 140.078C1590.31 141.478 1591.94 142.096 1593.62 142.096V136.096ZM1593.74 135.64C1593.74 132.005 1596.39 127.085 1600.73 122.873C1605.06 118.681 1610.22 116.032 1614.22 116.032V110.032C1607.99 110.032 1601.41 113.863 1596.56 118.563C1591.73 123.243 1587.74 129.627 1587.74 135.64H1593.74ZM1614.22 116.032C1614.48 116.032 1614.66 116.05 1614.77 116.069C1614.88 116.088 1614.88 116.1 1614.8 116.065C1614.72 116.029 1614.53 115.924 1614.32 115.693C1614.1 115.447 1613.94 115.127 1613.87 114.772L1619.75 113.596C1619.44 112.054 1618.36 111.096 1617.3 110.611C1616.32 110.161 1615.23 110.032 1614.22 110.032V116.032ZM1613.83 114.498C1613.96 115.755 1614.51 117.199 1615.91 118.062C1617.25 118.887 1618.68 118.75 1619.64 118.455C1621.47 117.89 1623.16 116.323 1623.91 114.434L1618.34 112.206C1618.31 112.282 1618.23 112.422 1618.08 112.561C1617.92 112.708 1617.82 112.735 1617.87 112.721C1617.89 112.714 1618.42 112.559 1619.06 112.952C1619.76 113.383 1619.8 113.981 1619.79 113.87L1613.83 114.498ZM1624.05 112.625C1623.55 110.535 1622.47 108.678 1620.61 107.404C1618.8 106.174 1616.59 105.712 1614.22 105.712V111.712C1615.87 111.712 1616.76 112.042 1617.22 112.36C1617.63 112.634 1617.99 113.081 1618.21 114.015L1624.05 112.625ZM1614.22 105.712C1607.11 105.712 1599.45 110.209 1593.75 115.76C1588.06 121.294 1583.42 128.757 1583.42 135.64H1589.42C1589.42 131.147 1592.71 125.146 1597.93 120.06C1603.14 114.991 1609.37 111.712 1614.22 111.712V105.712ZM1583.42 135.64C1583.42 138.498 1584.16 141.244 1586.01 143.309C1587.9 145.425 1590.59 146.416 1593.62 146.416V140.416C1591.91 140.416 1591 139.895 1590.48 139.311C1589.91 138.676 1589.42 137.534 1589.42 135.64H1583.42ZM1593.62 146.416C1603.4 146.416 1612.68 141.05 1621.34 132.562C1630.03 124.041 1638.43 112.038 1646.48 97.9619L1641.28 94.9821C1633.35 108.842 1625.26 120.311 1617.14 128.278C1608.98 136.278 1601.13 140.416 1593.62 140.416V146.416ZM1640.99 95.6586C1638.08 106.006 1636.42 115.233 1636.42 122.824H1642.42C1642.42 116.015 1643.92 107.386 1646.77 97.2854L1640.99 95.6586ZM1636.42 122.824C1636.42 130.528 1638.07 137.092 1642.29 141.729C1646.57 146.421 1652.96 148.576 1661.16 148.576V142.576C1653.96 142.576 1649.47 140.699 1646.73 137.687C1643.93 134.62 1642.42 129.808 1642.42 122.824H1636.42ZM1661.16 148.576C1674.03 148.576 1695.2 145.146 1716.78 131.25L1713.54 126.206C1693.07 139.382 1673.06 142.576 1661.16 142.576V148.576Z" fill="white"/>
</g>
<defs>
<filter id="filter0_d" x="0.304016" y="0.303986" width="1721.97" height="200.912" filterUnits="userSpaceOnUse" color-interpolation-filters="sRGB">
<feFlood flood-opacity="0" result="BackgroundImageFix"/>
<feColorMatrix in="SourceAlpha" type="matrix" values="0 0 0 0 0 0 0 0 0 0 0 0 0 0 0 0 0 0 127 0"/>
<feOffset dy="4"/>
<feGaussianBlur stdDeviation="2"/>
<feColorMatrix type="matrix" values="0 0 0 0 0 0 0 0 0 0 0 0 0 0 0 0 0 0 0.25 0"/>
<feBlend mode="normal" in2="BackgroundImageFix" result="effect1_dropShadow"/>
<feBlend mode="normal" in="SourceGraphic" in2="effect1_dropShadow" result="shape"/>
</filter>
</defs>
</svg>
