<svg width="342" height="74" viewBox="0 0 342 74" fill="none" xmlns="http://www.w3.org/2000/svg">
<g filter="url(#filter0_d)">
<path d="M107.06 50.1C88.7 62.82 55.94 66.42 38.9 66.42C21.38 66.42 13.04 61.8 13.04 52.08C13.04 39.48 34.52 31.08 49.46 28.92C50.78 30.9 53.12 32.1 56.78 32.1C59.78 32.1 60.8 30.78 60.8 29.34C60.8 27.96 59.66 26.52 56.48 26.52C54.68 26.52 52.7 26.7 50.48 26.94C49.94 25.56 49.82 24 49.94 22.5C66.26 20.82 76.76 15.96 76.76 10.92C76.76 8.22 75.5 5.34 69.5 5.34C61.76 5.34 50.48 12.48 48.38 20.88C44.96 21.18 41.24 21.3 37.34 21.3C20.54 21.3 5.12 14.64 4.76 2.4C4.76 2.4 4.64 0.359994 2.96 2.4C3.32 15.84 19.64 23.1 37.34 23.1C41.12 23.1 44.72 22.98 48.08 22.68C48.08 24.9 48.26 26.16 48.62 27.24C33.08 29.7 11.24 38.7 11.24 52.08C11.24 63 20.18 68.22 38.9 68.22C56.12 68.22 89.36 64.02 107.96 51.66C107.96 49.56 107.06 50.1 107.06 50.1ZM69.5 7.14C74.06 7.14 74.96 9.06 74.96 10.92C74.96 15.12 65.3 19.14 50.3 20.7C52.46 13.32 62.54 7.14 69.5 7.14ZM56.48 28.32C58.34 28.32 59 28.86 59 29.34C59 29.82 58.46 30.3 56.78 30.3C54.5 30.3 52.82 29.7 51.68 28.62C53.42 28.44 55.04 28.32 56.48 28.32ZM147.905 50.16C138.725 56.64 126.485 60 117.005 59.94C112.385 59.94 107.945 58.68 107.825 53.04C107.825 52.62 107.825 52.2 107.885 51.72C107.885 51.72 107.885 51.66 107.945 51.66C115.565 47.46 126.725 38.58 126.725 29.88C126.725 27.48 125.465 25.98 122.945 25.98C116.945 25.98 106.025 44.1 106.025 53.04C106.205 60.12 111.485 61.74 117.005 61.74C126.785 61.8 139.085 58.02 148.865 51.72C148.985 49.38 147.905 50.16 147.905 50.16ZM122.945 27.78C124.265 27.78 124.925 28.56 124.925 29.88C124.925 37.44 115.445 45.24 108.245 49.44C110.225 40.62 118.205 27.78 122.945 27.78ZM199.962 51.72C200.262 49.44 199.002 50.16 199.002 50.16C190.482 55.56 182.382 56.94 177.462 56.94C172.362 56.94 170.202 54.18 170.202 49.26C170.202 43.26 173.862 31.14 176.322 26.22C176.322 26.22 176.622 24.78 174.642 25.62C167.262 42 157.422 56.04 149.322 56.04C148.542 56.04 148.122 55.5 148.122 54.6C148.122 50.58 153.642 45.18 157.902 45.18C158.562 45.18 158.922 45.36 158.982 45.66C159.102 46.8 160.422 46.2 160.782 45.3C160.482 44.04 159.582 43.38 157.902 43.38C152.922 43.38 146.322 49.86 146.322 54.6C146.322 56.58 147.342 57.84 149.322 57.84C156.522 57.84 163.602 49.92 170.262 38.28C169.062 42.54 168.402 46.26 168.402 49.26C168.402 55.38 171.042 58.74 177.462 58.74C182.622 58.74 191.202 57.36 199.962 51.72ZM247.514 50.16C237.914 56.82 230.534 57.54 225.314 57.54C218.594 57.54 216.554 55.68 216.434 53.34C216.434 50.7 217.994 48.6 219.614 46.38C219.674 44.94 219.434 44.52 218.414 44.76C216.434 45.24 214.994 45.48 214.154 45.48C212.954 45.48 211.334 45.36 210.254 44.94C211.214 44.16 211.874 43.44 211.874 42.12C211.874 41.1 211.334 40.38 209.954 40.38C208.394 40.38 207.254 42.06 207.254 43.68C207.254 44.1 207.314 44.46 207.494 44.76C205.394 46.26 201.674 48.78 199.154 50.1C198.674 52.56 200.054 51.66 200.054 51.66C202.754 50.16 206.594 47.64 208.754 46.14C210.194 47.04 212.474 47.28 214.154 47.28C214.814 47.28 215.774 47.22 216.674 47.1C215.474 48.96 214.634 51.12 214.634 53.4C214.754 56.76 217.214 59.34 225.314 59.34C230.894 59.34 238.154 58.38 248.474 51.72C248.594 49.38 247.514 50.16 247.514 50.16ZM209.954 42.18C210.014 42.18 210.074 42.24 210.074 42.3C210.074 42.72 209.414 43.26 209.054 43.56C209.054 42.84 209.354 42.18 209.954 42.18ZM287.451 50.1C280.011 54.42 266.871 59.82 253.311 59.82C248.751 59.82 247.131 58.38 247.071 56.28C247.071 54.66 247.611 53.1 248.451 51.72C250.251 52.32 252.171 52.62 253.971 52.62C256.491 52.62 261.051 51.12 261.051 47.46C261.051 45.9 259.911 44.52 257.451 44.52C251.751 44.52 245.271 50.16 245.271 56.28C245.331 59.46 247.491 61.62 253.311 61.62C267.291 61.62 280.731 56.1 288.291 51.72C288.471 49.62 287.451 50.1 287.451 50.1ZM257.451 46.32C258.711 46.32 259.251 46.86 259.251 47.46C259.251 49.8 255.891 50.82 253.971 50.82C252.531 50.82 251.091 50.58 249.651 50.16C251.691 47.88 254.691 46.32 257.451 46.32ZM339.415 51.72C339.715 49.44 338.455 50.16 338.455 50.16C329.935 55.56 321.835 56.94 316.915 56.94C311.815 56.94 309.655 54.18 309.655 49.26C309.655 43.26 313.315 31.14 315.775 26.22C315.775 26.22 316.075 24.78 314.095 25.62C306.715 42 296.875 56.04 288.775 56.04C287.995 56.04 287.575 55.5 287.575 54.6C287.575 50.58 293.095 45.18 297.355 45.18C298.015 45.18 298.375 45.36 298.435 45.66C298.555 46.8 299.875 46.2 300.235 45.3C299.935 44.04 299.035 43.38 297.355 43.38C292.375 43.38 285.775 49.86 285.775 54.6C285.775 56.58 286.795 57.84 288.775 57.84C295.975 57.84 303.055 49.92 309.715 38.28C308.515 42.54 307.855 46.26 307.855 49.26C307.855 55.38 310.495 58.74 316.915 58.74C322.075 58.74 330.655 57.36 339.415 51.72Z" fill="white"/>
<path d="M107.06 50.1L106.546 49.2425L106.517 49.2594L106.491 49.278L107.06 50.1ZM49.46 28.92L50.2921 28.3653L49.9418 27.8399L49.3169 27.9303L49.46 28.92ZM50.48 26.94L49.5488 27.3044L49.8274 28.0164L50.5875 27.9342L50.48 26.94ZM49.94 22.5L49.8376 21.5053L49.0096 21.5905L48.9432 22.4203L49.94 22.5ZM48.38 20.88L48.4674 21.8762L49.1773 21.8139L49.3501 21.1225L48.38 20.88ZM4.76 2.4L5.75957 2.3706L5.75914 2.35593L5.75827 2.34127L4.76 2.4ZM2.96 2.4L2.18807 1.76429L1.95035 2.05295L1.96036 2.42677L2.96 2.4ZM48.08 22.68H49.08V21.5867L47.9911 21.684L48.08 22.68ZM48.62 27.24L48.7764 28.2277L49.9418 28.0432L49.5687 26.9238L48.62 27.24ZM107.96 51.66L108.513 52.4929L108.96 52.1961V51.66H107.96ZM50.3 20.7L49.3403 20.4191L48.9218 21.8487L50.4034 21.6946L50.3 20.7ZM51.68 28.62L51.5771 27.6253L49.4124 27.8492L50.9923 29.346L51.68 28.62ZM106.491 49.278C97.4774 55.5224 84.8555 59.569 72.2914 62.0489C59.7459 64.5252 47.3612 65.42 38.9 65.42V67.42C47.4788 67.42 59.9941 66.5148 72.6786 64.0111C85.3445 61.511 98.2826 57.3976 107.629 50.922L106.491 49.278ZM38.9 65.42C30.1919 65.42 23.9345 64.2655 19.8849 62.0204C17.8774 60.9075 16.4303 59.5366 15.4795 57.9154C14.5285 56.2938 14.04 54.3636 14.04 52.08H12.04C12.04 54.6564 12.594 56.9487 13.7543 58.9271C14.9147 60.9059 16.6476 62.5125 18.9151 63.7696C23.4155 66.2645 30.0881 67.42 38.9 67.42V65.42ZM14.04 52.08C14.04 46.3795 18.9324 41.3842 26.1261 37.463C33.239 33.5859 42.2254 30.9764 49.6031 29.9097L49.3169 27.9303C41.7546 29.0236 32.531 31.6941 25.1689 35.707C17.8876 39.6758 12.04 45.1804 12.04 52.08H14.04ZM48.628 29.4747C50.1851 31.8104 52.891 33.1 56.78 33.1V31.1C53.349 31.1 51.3749 29.9896 50.2921 28.3653L48.628 29.4747ZM56.78 33.1C58.409 33.1 59.6715 32.7437 60.5442 32.0372C61.4457 31.3075 61.8 30.3108 61.8 29.34H59.8C59.8 29.8092 59.6443 30.1925 59.2858 30.4828C58.8985 30.7963 58.151 31.1 56.78 31.1V33.1ZM61.8 29.34C61.8 28.357 61.3846 27.3551 60.4476 26.6241C59.5324 25.91 58.2077 25.52 56.48 25.52V27.52C57.9323 27.52 58.7677 27.85 59.2174 28.2009C59.6454 28.5349 59.8 28.943 59.8 29.34H61.8ZM56.48 25.52C54.6214 25.52 52.5945 25.7056 50.3725 25.9458L50.5875 27.9342C52.8055 27.6944 54.7386 27.52 56.48 27.52V25.52ZM51.4112 26.5756C50.9435 25.3801 50.8245 23.9832 50.9368 22.5797L48.9432 22.4203C48.8155 24.0168 48.9366 25.7399 49.5488 27.3044L51.4112 26.5756ZM50.0424 23.4947C58.2653 22.6483 65.0812 20.9961 69.8731 18.8851C72.2662 17.8309 74.2031 16.6413 75.5572 15.3405C76.9095 14.0413 77.76 12.5493 77.76 10.92H75.76C75.76 11.8107 75.298 12.8162 74.1716 13.8982C73.0469 14.9787 71.3388 16.054 69.0669 17.0549C64.5288 19.0539 57.9347 20.6717 49.8376 21.5053L50.0424 23.4947ZM77.76 10.92C77.76 9.42874 77.4121 7.726 76.0846 6.4079C74.7608 5.09345 72.6425 4.34 69.5 4.34V6.34C72.3575 6.34 73.8692 7.02655 74.6754 7.8271C75.4779 8.624 75.76 9.71126 75.76 10.92H77.76ZM69.5 4.34C65.3643 4.34 60.4121 6.22839 56.2515 9.14077C52.0933 12.0515 48.5402 16.1162 47.4099 20.6375L49.3501 21.1225C50.3198 17.2438 53.4567 13.5385 57.3985 10.7792C61.3379 8.02161 65.8957 6.34 69.5 6.34V4.34ZM48.2926 19.8838C44.9104 20.1805 41.2212 20.3 37.34 20.3V22.3C41.2588 22.3 45.0096 22.1795 48.4674 21.8762L48.2926 19.8838ZM37.34 20.3C29.0541 20.3 21.1719 18.6549 15.355 15.5573C9.54334 12.4626 5.92533 8.00666 5.75957 2.3706L3.76043 2.4294C3.95467 9.03333 8.22666 14.0274 14.415 17.3227C20.5981 20.6151 28.8259 22.3 37.34 22.3V20.3ZM4.76 2.4C5.75827 2.34127 5.75825 2.34084 5.75822 2.34039C5.75821 2.34023 5.75819 2.33978 5.75817 2.33946C5.75813 2.33882 5.75809 2.33814 5.75804 2.33744C5.75795 2.33602 5.75785 2.33447 5.75774 2.33279C5.75752 2.32942 5.75725 2.32552 5.75693 2.32111C5.75628 2.31231 5.75542 2.30143 5.75428 2.28869C5.75202 2.26328 5.74862 2.23002 5.74363 2.19063C5.7338 2.11303 5.71702 2.00564 5.68842 1.88408C5.64018 1.67908 5.52367 1.27419 5.2182 0.949631C5.04886 0.769709 4.80646 0.599286 4.4861 0.527627C4.16662 0.456164 3.8583 0.502756 3.5896 0.606572C3.09528 0.797561 2.6376 1.21843 2.18807 1.76429L3.73193 3.0357C3.91619 2.81196 4.06064 2.66692 4.16734 2.57623C4.27681 2.48318 4.32341 2.46714 4.3104 2.47217C4.2892 2.48036 4.19088 2.51101 4.04952 2.47939C3.90729 2.44758 3.81114 2.37278 3.7618 2.32036C3.69633 2.2508 3.71482 2.22842 3.74158 2.34216C3.75048 2.37997 3.7562 2.41603 3.75949 2.44202C3.76106 2.45442 3.76189 2.463 3.7622 2.46648C3.76235 2.46818 3.76237 2.46851 3.76228 2.4673C3.76223 2.46669 3.76216 2.46569 3.76207 2.46427C3.76202 2.46355 3.76197 2.46274 3.76191 2.46182C3.76188 2.46135 3.76185 2.46087 3.76182 2.46035C3.76181 2.46009 3.76178 2.45968 3.76178 2.45955C3.76175 2.45914 3.76173 2.45872 4.76 2.4ZM1.96036 2.42677C2.15287 9.614 6.62975 15.0618 13.1646 18.6657C19.6885 22.2635 28.3713 24.1 37.34 24.1V22.1C28.6087 22.1 20.2815 20.3065 14.1304 16.9143C7.99025 13.5282 4.12713 8.626 3.95964 2.37322L1.96036 2.42677ZM37.34 24.1C41.1398 24.1 44.7709 23.9794 48.1689 23.676L47.9911 21.684C44.6691 21.9806 41.1002 22.1 37.34 22.1V24.1ZM47.08 22.68C47.08 24.9505 47.2631 26.3315 47.6713 27.5562L49.5687 26.9238C49.2569 25.9885 49.08 24.8495 49.08 22.68H47.08ZM48.4636 26.2523C40.6007 27.497 31.1351 30.3946 23.6064 34.6968C16.1454 38.9601 10.24 44.8127 10.24 52.08H12.24C12.24 45.9673 17.2546 40.6299 24.5986 36.4332C31.8749 32.2754 41.0993 29.443 48.7764 28.2277L48.4636 26.2523ZM10.24 52.08C10.24 54.9486 10.8281 57.4966 12.0562 59.6962C13.2856 61.8981 15.1258 63.6963 17.546 65.1087C22.352 67.9135 29.4829 69.22 38.9 69.22V67.22C29.5971 67.22 22.898 65.9165 18.554 63.3813C16.3992 62.1237 14.8344 60.5694 13.8025 58.7213C12.7694 56.8709 12.24 54.6714 12.24 52.08H10.24ZM38.9 69.22C47.5771 69.22 60.2587 68.1632 73.1114 65.555C85.947 62.9503 99.0549 58.7783 108.513 52.4929L107.407 50.8271C98.2651 56.9017 85.453 61.0097 72.7136 63.595C59.9913 66.1768 47.4429 67.22 38.9 67.22V69.22ZM108.96 51.66C108.96 51.0757 108.899 50.5936 108.765 50.2043C108.628 49.8074 108.39 49.4417 108.003 49.2225C107.616 49.0032 107.236 49.0189 106.994 49.07C106.873 49.0956 106.773 49.1322 106.701 49.1633C106.664 49.1792 106.633 49.1946 106.607 49.208C106.594 49.2148 106.583 49.2211 106.572 49.2269C106.567 49.2298 106.562 49.2325 106.558 49.2351C106.556 49.2364 106.554 49.2377 106.551 49.2389C106.55 49.2396 106.549 49.2402 106.548 49.2408C106.548 49.241 106.547 49.2415 106.547 49.2416C106.546 49.2421 106.546 49.2425 107.06 50.1C107.574 50.9575 107.574 50.9579 107.573 50.9584C107.573 50.9585 107.572 50.9589 107.572 50.9592C107.571 50.9598 107.57 50.9603 107.569 50.9609C107.567 50.962 107.565 50.963 107.563 50.9641C107.56 50.9662 107.556 50.9682 107.553 50.9701C107.546 50.974 107.539 50.9776 107.533 50.9809C107.52 50.9874 107.508 50.9932 107.496 50.9985C107.474 51.0083 107.444 51.0191 107.407 51.0269C107.334 51.0424 107.179 51.0543 107.017 50.9625C106.855 50.8708 106.842 50.7639 106.874 50.8563C106.909 50.9564 106.96 51.1943 106.96 51.66H108.96ZM69.5 8.14C71.6681 8.14 72.7411 8.60087 73.2726 9.07719C73.7758 9.52815 73.96 10.145 73.96 10.92H75.96C75.96 9.83498 75.6942 8.56184 74.6074 7.58781C73.5489 6.63913 71.8919 6.14 69.5 6.14V8.14ZM73.96 10.92C73.96 11.5613 73.5915 12.3486 72.5599 13.2462C71.5364 14.1367 69.9728 15.0315 67.8819 15.8722C63.7086 17.5503 57.6434 18.9309 50.1966 19.7054L50.4034 21.6946C57.9566 20.9091 64.2214 19.4997 68.6281 17.7278C70.8272 16.8435 72.6161 15.8483 73.8726 14.755C75.121 13.6689 75.96 12.3787 75.96 10.92H73.96ZM51.2597 20.9809C52.25 17.5976 55.1062 14.3769 58.659 11.9817C62.2089 9.58838 66.2766 8.14 69.5 8.14V6.14C65.7634 6.14 61.3111 7.78161 57.541 10.3233C53.7738 12.8631 50.51 16.4224 49.3403 20.4191L51.2597 20.9809ZM56.48 29.32C57.3335 29.32 57.7917 29.447 57.9971 29.5478C58.2021 29.6484 58 29.6241 58 29.34H60C60 28.5759 59.4679 28.0416 58.8779 27.7522C58.2883 27.463 57.4865 27.32 56.48 27.32V29.32ZM58 29.34C58 29.2631 58.0245 29.1857 58.0637 29.1283C58.0985 29.0774 58.1173 29.0822 58.0574 29.1134C57.9188 29.1858 57.5504 29.3 56.78 29.3V31.3C57.6896 31.3 58.4312 31.1742 58.9826 30.8866C59.5792 30.5753 60 30.0337 60 29.34H58ZM56.78 29.3C54.6719 29.3 53.2689 28.7477 52.3677 27.894L50.9923 29.346C52.3711 30.6523 54.3281 31.3 56.78 31.3V29.3ZM51.7829 29.6147C53.5095 29.4361 55.0903 29.32 56.48 29.32V27.32C54.9897 27.32 53.3305 27.4439 51.5771 27.6253L51.7829 29.6147ZM147.905 50.16L148.481 50.977L148.49 50.9707L147.905 50.16ZM117.005 59.94L117.011 58.94H117.005V59.94ZM107.825 53.04H106.825V53.0506L106.825 53.0613L107.825 53.04ZM107.885 51.72L108.877 51.844L108.885 51.7823V51.72H107.885ZM107.945 51.66V52.66H108.202L108.427 52.5358L107.945 51.66ZM106.025 53.04H105.025V53.0527L105.025 53.0654L106.025 53.04ZM117.005 61.74L117.011 60.74H117.005V61.74ZM148.865 51.72L149.406 52.5607L149.837 52.2831L149.863 51.7712L148.865 51.72ZM108.245 49.44L107.269 49.221L106.766 51.4601L108.748 50.3038L108.245 49.44ZM147.328 49.343C138.328 55.6959 126.294 58.9988 117.011 58.94L116.998 60.94C126.675 61.0012 139.121 57.5841 148.481 50.977L147.328 49.343ZM117.005 58.94C114.751 58.94 112.708 58.626 111.241 57.7472C109.859 56.9192 108.878 55.5256 108.824 53.0187L106.825 53.0613C106.891 56.1944 108.19 58.2508 110.213 59.4628C112.151 60.624 114.638 60.94 117.005 60.94V58.94ZM108.825 53.04C108.825 52.6162 108.826 52.2543 108.877 51.844L106.892 51.596C106.824 52.1457 106.825 52.6238 106.825 53.04H108.825ZM107.885 51.72C108.885 51.72 108.885 51.7205 108.885 51.721C108.885 51.7211 108.885 51.7216 108.885 51.722C108.885 51.7226 108.885 51.7233 108.885 51.7239C108.885 51.7252 108.885 51.7266 108.885 51.7279C108.884 51.7306 108.884 51.7332 108.884 51.736C108.884 51.7414 108.884 51.7469 108.884 51.7526C108.884 51.764 108.883 51.776 108.882 51.7887C108.88 51.8136 108.877 51.8427 108.872 51.875C108.862 51.9349 108.84 52.03 108.786 52.1372C108.731 52.2483 108.632 52.3899 108.465 52.5014C108.291 52.6171 108.105 52.66 107.945 52.66V50.66C107.755 50.66 107.546 50.7104 107.355 50.8373C107.171 50.9601 107.061 51.1167 106.998 51.2428C106.936 51.365 106.911 51.4751 106.899 51.5462C106.893 51.5842 106.889 51.6179 106.887 51.6462C106.886 51.6605 106.886 51.6738 106.885 51.686C106.885 51.6921 106.885 51.698 106.885 51.7037C106.885 51.7065 106.885 51.7093 106.885 51.712C106.885 51.7134 106.885 51.7147 106.885 51.7161C106.885 51.7167 106.885 51.7174 106.885 51.718C106.885 51.7184 106.885 51.7189 106.885 51.719C106.885 51.7195 106.885 51.72 107.885 51.72ZM108.427 52.5358C112.303 50.3994 117.082 47.0733 120.907 43.1562C124.7 39.2724 127.725 34.6335 127.725 29.88H125.725C125.725 33.8265 123.169 37.9776 119.477 41.7588C115.817 45.5067 111.206 48.7206 107.462 50.7842L108.427 52.5358ZM127.725 29.88C127.725 28.5147 127.365 27.2634 126.511 26.3477C125.645 25.4205 124.406 24.98 122.945 24.98V26.98C124.003 26.98 124.654 27.2895 125.048 27.7123C125.454 28.1466 125.725 28.8453 125.725 29.88H127.725ZM122.945 24.98C121.951 24.98 120.946 25.351 119.988 25.9139C119.023 26.4814 118.039 27.2826 117.068 28.2383C115.126 30.1501 113.151 32.7648 111.383 35.6329C109.613 38.5053 108.031 41.6654 106.889 44.6867C105.753 47.6915 105.025 50.6307 105.025 53.04H107.025C107.025 50.9793 107.661 48.301 108.76 45.3939C109.853 42.5034 111.376 39.4572 113.086 36.6821C114.799 33.9027 116.678 31.4287 118.471 29.6636C119.368 28.7809 120.222 28.0966 121.002 27.6382C121.789 27.1752 122.438 26.98 122.945 26.98V24.98ZM105.025 53.0654C105.122 56.8935 106.626 59.3978 108.976 60.8893C111.249 62.332 114.18 62.74 117.005 62.74V60.74C114.309 60.74 111.84 60.338 110.048 59.2007C108.333 58.1122 107.107 56.2665 107.024 53.0146L105.025 53.0654ZM116.998 62.74C126.999 62.8013 139.487 58.9504 149.406 52.5607L148.323 50.8793C138.682 57.0896 126.57 60.7987 117.011 60.74L116.998 62.74ZM149.863 51.7712C149.896 51.1307 149.855 50.6 149.715 50.176C149.568 49.7314 149.278 49.3164 148.787 49.1284C148.337 48.9567 147.933 49.0601 147.726 49.1362C147.612 49.1781 147.519 49.2257 147.454 49.263C147.421 49.2821 147.393 49.2997 147.37 49.3143C147.359 49.3216 147.349 49.3283 147.341 49.3342C147.336 49.3371 147.332 49.3399 147.329 49.3424C147.327 49.3436 147.325 49.3449 147.324 49.346C147.323 49.3466 147.322 49.3472 147.321 49.3477C147.321 49.348 147.32 49.3484 147.32 49.3485C147.32 49.3489 147.319 49.3493 147.905 50.16C148.49 50.9707 148.489 50.9711 148.489 50.9715C148.489 50.9716 148.488 50.972 148.488 50.9722C148.487 50.9727 148.486 50.9732 148.486 50.9737C148.484 50.9747 148.483 50.9756 148.482 50.9765C148.479 50.9783 148.477 50.98 148.475 50.9815C148.47 50.9845 148.466 50.9871 148.463 50.9893C148.456 50.9936 148.451 50.9968 148.447 50.9991C148.441 51.0029 148.431 51.0078 148.417 51.0132C148.409 51.0161 148.267 51.0708 148.072 50.9966C147.836 50.9061 147.793 50.7348 147.815 50.8022C147.844 50.89 147.893 51.1393 147.866 51.6688L149.863 51.7712ZM122.945 28.78C123.405 28.78 123.6 28.9102 123.692 29.0107C123.798 29.1259 123.925 29.3739 123.925 29.88H125.925C125.925 29.0661 125.721 28.2641 125.167 27.6593C124.599 27.0398 123.804 26.78 122.945 26.78V28.78ZM123.925 29.88C123.925 33.2641 121.781 36.8623 118.562 40.2289C115.373 43.5636 111.285 46.509 107.741 48.5762L108.748 50.3038C112.405 48.171 116.656 45.1164 120.007 41.6111C123.328 38.1377 125.925 34.0559 125.925 29.88H123.925ZM109.22 49.659C110.178 45.3939 112.609 40.0899 115.395 35.8518C116.786 33.7358 118.24 31.9255 119.607 30.6571C121.019 29.3462 122.162 28.78 122.945 28.78V26.78C121.357 26.78 119.725 27.8188 118.246 29.1911C116.722 30.6057 115.168 32.5567 113.724 34.7532C110.84 39.1401 108.291 44.6661 107.269 49.221L109.22 49.659ZM199.962 51.72L200.503 52.5608L200.893 52.3099L200.953 51.8505L199.962 51.72ZM199.002 50.16L198.505 49.2918L198.486 49.3031L198.466 49.3154L199.002 50.16ZM176.322 26.22L177.216 26.6672L177.274 26.5511L177.301 26.424L176.322 26.22ZM174.642 25.62L174.251 24.6994L173.891 24.8523L173.73 25.2092L174.642 25.62ZM158.982 45.66L159.976 45.5553L159.971 45.5093L159.962 45.4639L158.982 45.66ZM160.782 45.3L161.71 45.6714L161.828 45.3769L161.754 45.0684L160.782 45.3ZM170.262 38.28L171.224 38.5511L169.394 37.7834L170.262 38.28ZM200.953 51.8505C201.036 51.2182 201.03 50.6745 200.896 50.227C200.749 49.7385 200.434 49.3337 199.948 49.1497C199.523 48.9887 199.13 49.0623 198.923 49.1204C198.808 49.1527 198.713 49.1909 198.645 49.2215C198.61 49.2371 198.581 49.2516 198.558 49.2635C198.546 49.2695 198.536 49.275 198.527 49.2797C198.523 49.2821 198.519 49.2843 198.515 49.2863C198.513 49.2873 198.512 49.2883 198.51 49.2892C198.509 49.2896 198.508 49.2901 198.508 49.2905C198.507 49.2907 198.507 49.291 198.507 49.2911C198.506 49.2914 198.505 49.2918 199.002 50.16C199.498 51.0282 199.497 51.0285 199.497 51.0288C199.496 51.0289 199.496 51.0292 199.496 51.0294C199.495 51.0298 199.494 51.0302 199.494 51.0306C199.492 51.0313 199.491 51.032 199.49 51.0327C199.487 51.034 199.485 51.0352 199.483 51.0363C199.479 51.0385 199.476 51.0401 199.474 51.0414C199.469 51.0439 199.466 51.0451 199.465 51.0455C199.465 51.0456 199.466 51.0454 199.464 51.0458C199.464 51.0459 199.447 51.051 199.415 51.0519C199.382 51.053 199.319 51.0499 199.24 51.0203C199.031 50.9413 198.975 50.7839 198.98 50.8017C198.998 50.8605 199.037 51.0818 198.97 51.5895L200.953 51.8505ZM198.466 49.3154C190.122 54.6039 182.212 55.94 177.462 55.94V57.94C182.552 57.94 190.841 56.5161 199.537 51.0046L198.466 49.3154ZM177.462 55.94C175.087 55.94 173.588 55.3016 172.662 54.2751C171.717 53.2285 171.202 51.596 171.202 49.26H169.202C169.202 51.844 169.766 54.0515 171.177 55.6149C172.605 57.1984 174.736 57.94 177.462 57.94V55.94ZM171.202 49.26C171.202 46.4036 172.084 41.9835 173.302 37.603C174.517 33.2362 176.027 29.0454 177.216 26.6672L175.427 25.7728C174.156 28.3146 172.606 32.6438 171.376 37.067C170.149 41.4765 169.202 46.1164 169.202 49.26H171.202ZM176.322 26.22C177.301 26.424 177.301 26.4234 177.301 26.4228C177.301 26.4226 177.301 26.422 177.301 26.4216C177.301 26.4208 177.301 26.4199 177.302 26.419C177.302 26.4173 177.302 26.4155 177.303 26.4135C177.303 26.4096 177.304 26.4053 177.305 26.4006C177.307 26.3912 177.309 26.3801 177.311 26.3675C177.315 26.3425 177.32 26.3109 177.324 26.2739C177.332 26.2012 177.34 26.1014 177.337 25.9851C177.332 25.7738 177.292 25.3988 177.052 25.0447C176.777 24.6375 176.334 24.3972 175.807 24.3616C175.333 24.3297 174.812 24.4613 174.251 24.6994L175.032 26.5406C175.461 26.3587 175.645 26.3553 175.672 26.3571C175.675 26.3573 175.63 26.3543 175.563 26.3176C175.493 26.2795 175.436 26.2242 175.396 26.1653C175.329 26.0662 175.337 25.9987 175.338 26.0312C175.338 26.0368 175.337 26.0428 175.337 26.0456C175.337 26.0464 175.337 26.0449 175.338 26.0405C175.338 26.0383 175.339 26.0352 175.34 26.0312C175.34 26.0292 175.34 26.0269 175.341 26.0244C175.341 26.0231 175.341 26.0218 175.342 26.0204C175.342 26.0197 175.342 26.019 175.342 26.0183C175.342 26.0179 175.342 26.0174 175.342 26.0172C175.342 26.0166 175.343 26.016 176.322 26.22ZM173.73 25.2092C170.06 33.3555 165.794 40.8812 161.467 46.3522C159.303 49.0884 157.148 51.2799 155.072 52.7796C152.989 54.284 151.058 55.04 149.322 55.04V57.04C151.635 57.04 153.972 56.041 156.243 54.401C158.52 52.7564 160.805 50.4141 163.036 47.5928C167.499 41.9488 171.844 34.2645 175.553 26.0308L173.73 25.2092ZM149.322 55.04C149.242 55.04 149.208 55.0265 149.203 55.0242C149.201 55.0233 149.204 55.0255 149.203 55.0243C149.196 55.0153 149.122 54.9107 149.122 54.6H147.122C147.122 55.1893 147.257 55.8047 147.655 56.2907C148.077 56.8068 148.682 57.04 149.322 57.04V55.04ZM149.122 54.6C149.122 52.9864 150.278 50.8754 152.11 49.1008C153.935 47.3331 156.142 46.18 157.902 46.18V44.18C155.401 44.18 152.718 45.7269 150.718 47.6642C148.725 49.5946 147.122 52.1936 147.122 54.6H149.122ZM157.902 46.18C158.023 46.18 158.112 46.1884 158.174 46.1988C158.237 46.2095 158.257 46.22 158.25 46.2166C158.242 46.2128 158.191 46.188 158.133 46.1228C158.07 46.0524 158.022 45.9592 158.001 45.8561L159.962 45.4639C159.853 44.9201 159.472 44.5767 159.083 44.3984C158.72 44.232 158.304 44.18 157.902 44.18V46.18ZM157.987 45.7647C158.037 46.2408 158.242 46.7572 158.739 47.0629C159.215 47.356 159.728 47.3108 160.086 47.2008C160.776 46.9884 161.422 46.3909 161.71 45.6714L159.853 44.9286C159.825 44.9991 159.767 45.0868 159.682 45.1662C159.594 45.2482 159.521 45.2821 159.497 45.2892C159.465 45.2992 159.603 45.2465 159.787 45.3596C159.991 45.4853 159.986 45.6492 159.976 45.5553L157.987 45.7647ZM161.754 45.0684C161.558 44.2457 161.139 43.5306 160.423 43.0415C159.728 42.567 158.861 42.38 157.902 42.38V44.38C158.622 44.38 159.046 44.523 159.295 44.6934C159.524 44.8494 159.705 45.0943 159.809 45.5316L161.754 45.0684ZM157.902 42.38C155.035 42.38 151.902 44.2031 149.546 46.496C147.198 48.7828 145.322 51.8318 145.322 54.6H147.322C147.322 52.6282 148.746 50.0672 150.942 47.929C153.132 45.7969 155.788 44.38 157.902 44.38V42.38ZM145.322 54.6C145.322 55.7506 145.618 56.8281 146.333 57.6287C147.064 58.4468 148.11 58.84 149.322 58.84V56.84C148.553 56.84 148.099 56.6032 147.825 56.2963C147.535 55.9719 147.322 55.4294 147.322 54.6H145.322ZM149.322 58.84C153.3 58.84 157.109 56.6553 160.694 53.139C164.291 49.6118 167.779 44.6326 171.13 38.7766L169.394 37.7834C166.084 43.5674 162.702 48.3682 159.294 51.711C155.874 55.0647 152.543 56.84 149.322 56.84V58.84ZM169.299 38.0089C168.087 42.3101 167.402 46.1297 167.402 49.26H169.402C169.402 46.3903 170.036 42.7699 171.224 38.5511L169.299 38.0089ZM167.402 49.26C167.402 52.4399 168.084 55.1021 169.785 56.9685C171.503 58.8536 174.085 59.74 177.462 59.74V57.74C174.418 57.74 172.471 56.9464 171.263 55.6215C170.039 54.2779 169.402 52.2001 169.402 49.26H167.402ZM177.462 59.74C182.782 59.74 191.557 58.3207 200.503 52.5608L199.42 50.8792C190.846 56.3993 182.461 57.74 177.462 57.74V59.74ZM247.514 50.16L248.084 50.9816L248.092 50.9762L248.099 50.9707L247.514 50.16ZM216.434 53.34H215.434V53.3656L215.435 53.3912L216.434 53.34ZM219.614 46.38L220.422 46.9695L220.6 46.7246L220.613 46.4216L219.614 46.38ZM218.414 44.76L218.185 43.7866L218.178 43.7881L218.414 44.76ZM210.254 44.94L209.623 44.1639L208.288 45.2486L209.891 45.872L210.254 44.94ZM207.494 44.76L208.075 45.5737L208.826 45.0371L208.351 44.2455L207.494 44.76ZM199.154 50.1L198.69 49.2142L198.264 49.437L198.172 49.9085L199.154 50.1ZM200.054 51.66L199.568 50.7858L199.537 50.803L199.508 50.8224L200.054 51.66ZM208.754 46.14L209.284 45.292L208.725 44.9426L208.184 45.3186L208.754 46.14ZM216.674 47.1L217.514 47.6421L218.688 45.8226L216.542 46.1088L216.674 47.1ZM214.634 53.4H213.634V53.4179L213.635 53.4357L214.634 53.4ZM248.474 51.72L249.016 52.5602L249.446 52.2826L249.473 51.7712L248.474 51.72ZM209.054 43.56H208.054V45.695L209.694 44.3282L209.054 43.56ZM246.944 49.3384C237.55 55.8552 230.383 56.54 225.314 56.54V58.54C230.685 58.54 238.278 57.7848 248.084 50.9816L246.944 49.3384ZM225.314 56.54C222.014 56.54 220.028 56.0778 218.884 55.4431C217.823 54.854 217.475 54.1161 217.433 53.2888L215.435 53.3912C215.513 54.9039 216.245 56.266 217.914 57.1919C219.5 58.0722 221.894 58.54 225.314 58.54V56.54ZM217.434 53.34C217.434 51.085 218.754 49.2546 220.422 46.9695L218.806 45.7905C217.234 47.9454 215.434 50.3149 215.434 53.34H217.434ZM220.613 46.4216C220.629 46.0409 220.628 45.6803 220.587 45.3606C220.548 45.0513 220.462 44.6839 220.236 44.3633C219.979 44 219.612 43.7924 219.208 43.7236C218.851 43.6626 218.492 43.7142 218.185 43.7866L218.643 45.7334C218.845 45.6858 218.9 45.6999 218.872 45.6952C218.849 45.6912 218.798 45.6784 218.738 45.6418C218.676 45.6042 218.631 45.5574 218.602 45.5167C218.556 45.4511 218.582 45.4437 218.603 45.6106C218.623 45.7672 218.629 45.9991 218.615 46.3384L220.613 46.4216ZM218.178 43.7881C216.2 44.2677 214.863 44.48 214.154 44.48V46.48C215.125 46.48 216.667 46.2123 218.65 45.7319L218.178 43.7881ZM214.154 44.48C212.972 44.48 211.512 44.3562 210.616 44.008L209.891 45.872C211.156 46.3638 212.936 46.48 214.154 46.48V44.48ZM210.884 45.7161C211.382 45.3117 211.89 44.8552 212.265 44.274C212.657 43.6653 212.874 42.9663 212.874 42.12H210.874C210.874 42.5936 210.761 42.9147 210.583 43.191C210.388 43.4948 210.086 43.7883 209.623 44.1639L210.884 45.7161ZM212.874 42.12C212.874 41.4425 212.693 40.7148 212.139 40.1604C211.583 39.6051 210.81 39.38 209.954 39.38V41.38C210.478 41.38 210.665 41.5149 210.724 41.5746C210.785 41.6352 210.874 41.7775 210.874 42.12H212.874ZM209.954 39.38C208.788 39.38 207.845 40.0105 207.227 40.8119C206.612 41.6095 206.254 42.6492 206.254 43.68H208.254C208.254 43.0908 208.466 42.4805 208.811 42.0331C209.153 41.5895 209.559 41.38 209.954 41.38V39.38ZM206.254 43.68C206.254 44.1811 206.322 44.7512 206.636 45.2745L208.351 44.2455C208.305 44.1688 208.254 44.0189 208.254 43.68H206.254ZM206.913 43.9463C204.816 45.4438 201.144 47.9286 198.69 49.2142L199.618 50.9858C202.204 49.6314 205.972 47.0762 208.075 45.5737L206.913 43.9463ZM198.172 49.9085C198.043 50.5739 198.008 51.1446 198.119 51.6118C198.243 52.138 198.579 52.5991 199.146 52.7631C199.602 52.895 200.01 52.7688 200.198 52.6979C200.311 52.6556 200.404 52.6097 200.469 52.5744C200.503 52.5564 200.531 52.5402 200.553 52.5271C200.564 52.5206 200.573 52.5147 200.581 52.5098C200.585 52.5073 200.589 52.505 200.592 52.503C200.593 52.502 200.595 52.501 200.596 52.5001C200.597 52.4997 200.598 52.4992 200.598 52.4988C200.599 52.4986 200.599 52.4983 200.599 52.4982C200.6 52.4979 200.6 52.4976 200.054 51.66C199.508 50.8224 199.508 50.8221 199.509 50.8218C199.509 50.8217 199.509 50.8214 199.509 50.8213C199.51 50.8209 199.51 50.8205 199.511 50.8202C199.512 50.8195 199.513 50.8189 199.514 50.8183C199.516 50.8171 199.517 50.8161 199.519 50.8152C199.521 50.8136 199.523 50.8125 199.524 50.8119C199.526 50.8108 199.525 50.8115 199.522 50.8133C199.514 50.8176 199.503 50.8228 199.493 50.8265C199.437 50.8474 199.531 50.7925 199.702 50.8419C199.809 50.873 199.913 50.9371 199.989 51.026C200.058 51.1071 200.069 51.1677 200.065 51.1514C200.052 51.0954 200.025 50.8561 200.135 50.2915L198.172 49.9085ZM200.54 52.5342C203.282 51.0106 207.153 48.4691 209.324 46.9614L208.184 45.3186C206.035 46.8109 202.226 49.3094 199.568 50.7858L200.54 52.5342ZM208.224 46.988C209.096 47.5331 210.166 47.8483 211.187 48.0317C212.22 48.2173 213.271 48.28 214.154 48.28V46.28C213.357 46.28 212.428 46.2227 211.541 46.0633C210.642 45.9017 209.852 45.6469 209.284 45.292L208.224 46.988ZM214.154 48.28C214.861 48.28 215.866 48.2166 216.806 48.0912L216.542 46.1088C215.682 46.2234 214.766 46.28 214.154 46.28V48.28ZM215.834 46.5579C214.563 48.5274 213.634 50.8739 213.634 53.4H215.634C215.634 51.3661 216.385 49.3926 217.514 47.6421L215.834 46.5579ZM213.635 53.4357C213.704 55.3902 214.481 57.2002 216.437 58.4691C218.319 59.6893 221.19 60.34 225.314 60.34V58.34C221.337 58.34 218.929 57.7007 217.525 56.7909C216.197 55.9298 215.683 54.7698 215.633 53.3643L213.635 53.4357ZM225.314 60.34C231.07 60.34 238.521 59.3331 249.016 52.5602L247.932 50.8798C237.787 57.4269 230.718 58.34 225.314 58.34V60.34ZM249.473 51.7712C249.505 51.1307 249.464 50.6 249.324 50.176C249.178 49.7314 248.888 49.3164 248.396 49.1284C247.947 48.9567 247.542 49.0601 247.335 49.1362C247.222 49.1781 247.129 49.2257 247.064 49.263C247.03 49.2821 247.002 49.2997 246.98 49.3143C246.968 49.3216 246.958 49.3283 246.95 49.3342C246.946 49.3371 246.942 49.3399 246.938 49.3424C246.936 49.3436 246.935 49.3449 246.933 49.346C246.932 49.3466 246.931 49.3472 246.931 49.3477C246.93 49.348 246.93 49.3484 246.93 49.3485C246.929 49.3489 246.928 49.3493 247.514 50.16C248.099 50.9707 248.099 50.9711 248.098 50.9715C248.098 50.9716 248.098 50.972 248.097 50.9722C248.097 50.9727 248.096 50.9732 248.095 50.9737C248.094 50.9747 248.093 50.9756 248.091 50.9765C248.089 50.9783 248.086 50.98 248.084 50.9815C248.08 50.9845 248.076 50.9871 248.072 50.9893C248.066 50.9936 248.061 50.9968 248.057 50.9991C248.05 51.0029 248.041 51.0078 248.026 51.0132C248.018 51.0161 247.876 51.0708 247.682 50.9966C247.445 50.9061 247.403 50.7348 247.425 50.8022C247.454 50.89 247.502 51.1393 247.475 51.6688L249.473 51.7712ZM209.954 43.18C209.659 43.18 209.447 43.0425 209.329 42.9246C209.211 42.8068 209.074 42.5952 209.074 42.3H211.074C211.074 41.9448 210.906 41.6732 210.744 41.5104C210.581 41.3475 210.309 41.18 209.954 41.18V43.18ZM209.074 42.3C209.074 42.1536 209.126 42.0855 209.104 42.1236C209.087 42.152 209.046 42.2088 208.968 42.2927C208.809 42.4631 208.606 42.6318 208.414 42.7918L209.694 44.3282C209.862 44.1882 210.169 43.9369 210.43 43.6573C210.562 43.5162 210.708 43.3405 210.826 43.1401C210.939 42.9495 211.074 42.6564 211.074 42.3H209.074ZM210.054 43.56C210.054 43.4477 210.066 43.3472 210.085 43.2647C210.104 43.1806 210.127 43.13 210.141 43.107C210.154 43.0846 210.148 43.1052 210.105 43.1328C210.055 43.1651 209.997 43.18 209.954 43.18V41.18C209.217 41.18 208.7 41.6115 208.417 42.093C208.151 42.5457 208.054 43.0809 208.054 43.56H210.054ZM287.451 50.1L287.025 49.1952L286.986 49.2135L286.949 49.2352L287.451 50.1ZM247.071 56.28H246.071V56.2943L246.071 56.3086L247.071 56.28ZM248.451 51.72L248.767 50.7713L248.011 50.5193L247.597 51.2001L248.451 51.72ZM245.271 56.28H244.271V56.2894L244.271 56.2989L245.271 56.28ZM288.291 51.72L288.792 52.5853L289.243 52.3242L289.287 51.8054L288.291 51.72ZM249.651 50.16L248.906 49.4932L247.848 50.6757L249.371 51.12L249.651 50.16ZM286.949 49.2352C279.601 53.5016 266.636 58.82 253.311 58.82V60.82C267.106 60.82 280.421 55.3384 287.953 50.9648L286.949 49.2352ZM253.311 58.82C251.105 58.82 249.785 58.4659 249.039 57.9928C248.366 57.5669 248.092 57.0056 248.071 56.2514L246.071 56.3086C246.11 57.6544 246.675 58.8631 247.968 59.6822C249.187 60.4541 250.957 60.82 253.311 60.82V58.82ZM248.071 56.28C248.071 54.8835 248.537 53.5015 249.305 52.2399L247.597 51.2001C246.685 52.6985 246.071 54.4365 246.071 56.28H248.071ZM248.135 52.6687C250.038 53.3031 252.065 53.62 253.971 53.62V51.62C252.277 51.62 250.464 51.3369 248.767 50.7713L248.135 52.6687ZM253.971 53.62C255.388 53.62 257.332 53.2076 258.953 52.2805C260.584 51.3471 262.051 49.7809 262.051 47.46H260.051C260.051 48.7991 259.238 49.8129 257.959 50.5445C256.67 51.2824 255.074 51.62 253.971 51.62V53.62ZM262.051 47.46C262.051 46.4301 261.67 45.4156 260.847 44.6659C260.028 43.9196 258.867 43.52 257.451 43.52V45.52C258.495 45.52 259.134 45.8104 259.5 46.1441C259.862 46.4744 260.051 46.9299 260.051 47.46H262.051ZM257.451 43.52C254.291 43.52 251.013 45.0691 248.541 47.3736C246.068 49.6803 244.271 52.8683 244.271 56.28H246.271C246.271 53.5717 247.714 50.8797 249.905 48.8364C252.099 46.7909 254.911 45.52 257.451 45.52V43.52ZM244.271 56.2989C244.306 58.1338 244.964 59.79 246.539 60.9482C248.06 62.0671 250.305 62.62 253.311 62.62V60.62C250.497 60.62 248.752 60.0929 247.723 59.3368C246.748 58.62 246.296 57.6062 246.271 56.2611L244.271 56.2989ZM253.311 62.62C267.525 62.62 281.139 57.0192 288.792 52.5853L287.79 50.8547C280.323 55.1808 267.057 60.62 253.311 60.62V62.62ZM289.287 51.8054C289.38 50.7265 289.233 49.7431 288.461 49.2699C288.088 49.0411 287.713 49.0354 287.477 49.0663C287.357 49.0821 287.256 49.1092 287.183 49.1332C287.146 49.1454 287.114 49.1575 287.087 49.168C287.074 49.1734 287.063 49.1784 287.052 49.1829C287.047 49.1852 287.042 49.1874 287.038 49.1894C287.035 49.1904 287.033 49.1914 287.031 49.1924C287.03 49.1929 287.029 49.1933 287.028 49.1938C287.028 49.194 287.027 49.1944 287.027 49.1945C287.026 49.1948 287.025 49.1952 287.451 50.1C287.877 51.0048 287.876 51.0052 287.875 51.0055C287.875 51.0056 287.874 51.0059 287.874 51.0061C287.873 51.0066 287.872 51.007 287.871 51.0074C287.869 51.0083 287.867 51.0091 287.866 51.0099C287.862 51.0115 287.859 51.013 287.856 51.0145C287.849 51.0173 287.843 51.0199 287.837 51.0222C287.826 51.0268 287.816 51.0306 287.806 51.0338C287.788 51.0397 287.765 51.0457 287.738 51.0493C287.687 51.0559 287.557 51.0614 287.416 50.9751C287.264 50.8818 287.252 50.7753 287.273 50.8514C287.298 50.9422 287.334 51.1735 287.295 51.6346L289.287 51.8054ZM257.451 47.32C257.953 47.32 258.174 47.4296 258.24 47.4773C258.269 47.4983 258.268 47.5054 258.26 47.4907C258.252 47.476 258.251 47.4627 258.251 47.46H260.251C260.251 46.8288 259.953 46.2452 259.407 45.8527C258.888 45.4804 258.209 45.32 257.451 45.32V47.32ZM258.251 47.46C258.251 48.0701 257.825 48.6458 256.879 49.1256C255.954 49.5946 254.791 49.82 253.971 49.82V51.82C255.071 51.82 256.548 51.5354 257.783 50.9094C258.997 50.2942 260.251 49.1899 260.251 47.46H258.251ZM253.971 49.82C252.643 49.82 251.298 49.5986 249.931 49.2L249.371 51.12C250.884 51.5614 252.419 51.82 253.971 51.82V49.82ZM250.396 50.8268C252.291 48.7095 255.035 47.32 257.451 47.32V45.32C254.346 45.32 251.091 47.0505 248.906 49.4932L250.396 50.8268ZM339.415 51.72L339.956 52.5608L340.346 52.3099L340.406 51.8505L339.415 51.72ZM338.455 50.16L337.959 49.2918L337.939 49.3031L337.919 49.3154L338.455 50.16ZM315.775 26.22L316.669 26.6672L316.727 26.5511L316.754 26.424L315.775 26.22ZM314.095 25.62L313.704 24.6994L313.344 24.8523L313.183 25.2092L314.095 25.62ZM298.435 45.66L299.429 45.5553L299.424 45.5093L299.415 45.4639L298.435 45.66ZM300.235 45.3L301.163 45.6714L301.281 45.3769L301.207 45.0684L300.235 45.3ZM309.715 38.28L310.677 38.5511L308.847 37.7834L309.715 38.28ZM340.406 51.8505C340.489 51.2182 340.483 50.6745 340.349 50.227C340.203 49.7385 339.887 49.3337 339.401 49.1497C338.976 48.9887 338.583 49.0623 338.376 49.1204C338.261 49.1527 338.166 49.1909 338.098 49.2215C338.063 49.2371 338.034 49.2516 338.011 49.2635C337.999 49.2695 337.989 49.275 337.98 49.2797C337.976 49.2821 337.972 49.2843 337.968 49.2863C337.966 49.2873 337.965 49.2883 337.963 49.2892C337.962 49.2896 337.962 49.2901 337.961 49.2905C337.96 49.2907 337.96 49.291 337.96 49.2911C337.959 49.2914 337.959 49.2918 338.455 50.16C338.951 51.0282 338.95 51.0285 338.95 51.0288C338.95 51.0289 338.949 51.0292 338.949 51.0294C338.948 51.0298 338.947 51.0302 338.947 51.0306C338.945 51.0313 338.944 51.032 338.943 51.0327C338.941 51.034 338.938 51.0352 338.936 51.0363C338.932 51.0385 338.929 51.0401 338.927 51.0414C338.922 51.0439 338.919 51.0451 338.918 51.0455C338.918 51.0456 338.919 51.0454 338.917 51.0458C338.917 51.0459 338.9 51.051 338.868 51.0519C338.835 51.053 338.772 51.0499 338.693 51.0203C338.485 50.9413 338.428 50.7839 338.433 50.8017C338.451 50.8605 338.49 51.0818 338.423 51.5895L340.406 51.8505ZM337.919 49.3154C329.575 54.6039 321.665 55.94 316.915 55.94V57.94C322.005 57.94 330.294 56.5161 338.99 51.0046L337.919 49.3154ZM316.915 55.94C314.54 55.94 313.041 55.3016 312.115 54.2751C311.17 53.2285 310.655 51.596 310.655 49.26H308.655C308.655 51.844 309.219 54.0515 310.63 55.6149C312.059 57.1984 314.189 57.94 316.915 57.94V55.94ZM310.655 49.26C310.655 46.4036 311.537 41.9835 312.756 37.603C313.97 33.2362 315.48 29.0454 316.669 26.6672L314.88 25.7728C313.609 28.3146 312.059 32.6438 310.829 37.067C309.602 41.4765 308.655 46.1164 308.655 49.26H310.655ZM315.775 26.22C316.754 26.424 316.754 26.4234 316.754 26.4228C316.754 26.4226 316.754 26.422 316.754 26.4216C316.754 26.4208 316.755 26.4199 316.755 26.419C316.755 26.4173 316.755 26.4155 316.756 26.4135C316.757 26.4096 316.757 26.4053 316.758 26.4006C316.76 26.3912 316.762 26.3801 316.764 26.3675C316.768 26.3425 316.773 26.3109 316.777 26.2739C316.786 26.2012 316.793 26.1014 316.79 25.9851C316.785 25.7738 316.745 25.3988 316.505 25.0447C316.23 24.6375 315.787 24.3972 315.26 24.3616C314.786 24.3297 314.265 24.4613 313.704 24.6994L314.485 26.5406C314.914 26.3587 315.099 26.3553 315.125 26.3571C315.128 26.3573 315.083 26.3543 315.016 26.3176C314.946 26.2795 314.889 26.2242 314.849 26.1653C314.782 26.0662 314.79 25.9987 314.791 26.0312C314.791 26.0368 314.791 26.0428 314.79 26.0456C314.79 26.0464 314.79 26.0449 314.791 26.0405C314.791 26.0383 314.792 26.0352 314.793 26.0312C314.793 26.0292 314.794 26.0269 314.794 26.0244C314.794 26.0231 314.795 26.0218 314.795 26.0204C314.795 26.0197 314.795 26.019 314.795 26.0183C314.795 26.0179 314.795 26.0174 314.795 26.0172C314.796 26.0166 314.796 26.016 315.775 26.22ZM313.183 25.2092C309.513 33.3555 305.247 40.8812 300.92 46.3522C298.756 49.0884 296.601 51.2799 294.525 52.7796C292.442 54.284 290.511 55.04 288.775 55.04V57.04C291.088 57.04 293.425 56.041 295.696 54.401C297.973 52.7564 300.258 50.4141 302.489 47.5928C306.952 41.9488 311.297 34.2645 315.006 26.0308L313.183 25.2092ZM288.775 55.04C288.695 55.04 288.661 55.0265 288.656 55.0242C288.654 55.0233 288.657 55.0255 288.656 55.0243C288.649 55.0153 288.575 54.9107 288.575 54.6H286.575C286.575 55.1893 286.711 55.8047 287.108 56.2907C287.53 56.8068 288.135 57.04 288.775 57.04V55.04ZM288.575 54.6C288.575 52.9864 289.731 50.8754 291.563 49.1008C293.388 47.3331 295.596 46.18 297.355 46.18V44.18C294.854 44.18 292.172 45.7269 290.171 47.6642C288.178 49.5946 286.575 52.1936 286.575 54.6H288.575ZM297.355 46.18C297.476 46.18 297.565 46.1884 297.627 46.1988C297.69 46.2095 297.71 46.22 297.703 46.2166C297.695 46.2128 297.644 46.188 297.586 46.1228C297.523 46.0524 297.475 45.9592 297.454 45.8561L299.415 45.4639C299.307 44.9201 298.925 44.5767 298.536 44.3984C298.173 44.232 297.757 44.18 297.355 44.18V46.18ZM297.44 45.7647C297.49 46.2408 297.695 46.7572 298.192 47.0629C298.668 47.356 299.181 47.3108 299.539 47.2008C300.229 46.9884 300.875 46.3909 301.163 45.6714L299.306 44.9286C299.278 44.9991 299.22 45.0868 299.135 45.1662C299.047 45.2482 298.974 45.2821 298.951 45.2892C298.918 45.2992 299.056 45.2465 299.24 45.3596C299.444 45.4853 299.439 45.6492 299.429 45.5553L297.44 45.7647ZM301.207 45.0684C301.012 44.2457 300.592 43.5306 299.876 43.0415C299.181 42.567 298.314 42.38 297.355 42.38V44.38C298.075 44.38 298.499 44.523 298.748 44.6934C298.977 44.8494 299.158 45.0943 299.262 45.5316L301.207 45.0684ZM297.355 42.38C294.488 42.38 291.355 44.2031 289 46.496C286.651 48.7828 284.775 51.8318 284.775 54.6H286.775C286.775 52.6282 288.199 50.0672 290.395 47.929C292.585 45.7969 295.241 44.38 297.355 44.38V42.38ZM284.775 54.6C284.775 55.7506 285.071 56.8281 285.786 57.6287C286.517 58.4468 287.564 58.84 288.775 58.84V56.84C288.006 56.84 287.552 56.6032 287.278 56.2963C286.988 55.9719 286.775 55.4294 286.775 54.6H284.775ZM288.775 58.84C292.753 58.84 296.562 56.6553 300.147 53.139C303.744 49.6118 307.232 44.6326 310.583 38.7766L308.847 37.7834C305.537 43.5674 302.156 48.3682 298.747 51.711C295.327 55.0647 291.996 56.84 288.775 56.84V58.84ZM308.752 38.0089C307.541 42.3101 306.855 46.1297 306.855 49.26H308.855C308.855 46.3903 309.489 42.7699 310.677 38.5511L308.752 38.0089ZM306.855 49.26C306.855 52.4399 307.537 55.1021 309.238 56.9685C310.956 58.8536 313.539 59.74 316.915 59.74V57.74C313.871 57.74 311.924 56.9464 310.716 55.6215C309.492 54.2779 308.855 52.2001 308.855 49.26H306.855ZM316.915 59.74C322.235 59.74 331.01 58.3207 339.956 52.5608L338.873 50.8792C330.3 56.3993 321.914 57.74 316.915 57.74V59.74Z" fill="white"/>
</g>
<defs>
<filter id="filter0_d" x="0.950317" y="0.493286" width="340.511" height="72.7267" filterUnits="userSpaceOnUse" color-interpolation-filters="sRGB">
<feFlood flood-opacity="0" result="BackgroundImageFix"/>
<feColorMatrix in="SourceAlpha" type="matrix" values="0 0 0 0 0 0 0 0 0 0 0 0 0 0 0 0 0 0 127 0"/>
<feOffset dy="3"/>
<feGaussianBlur stdDeviation="0.5"/>
<feColorMatrix type="matrix" values="0 0 0 0 0 0 0 0 0 0 0 0 0 0 0 0 0 0 0.35 0"/>
<feBlend mode="normal" in2="BackgroundImageFix" result="effect1_dropShadow"/>
<feBlend mode="normal" in="SourceGraphic" in2="effect1_dropShadow" result="shape"/>
</filter>
</defs>
</svg>
