<svg width="341" height="85" viewBox="0 0 341 85" fill="none" xmlns="http://www.w3.org/2000/svg">
<g filter="url(#filter0_d)">
<path d="M129.42 75.2C129.42 75.2 130.92 73.76 128.34 73.76C125.28 76.16 121.92 77.54 116.58 77.54C107.94 77.54 100.86 71.9 95.22 63.74C107.22 37.46 129.6 2.9 147.66 3.26C154.02 3.38 156.42 7.09999 157.32 10.82C159.42 12.2 159.12 10.46 159.12 10.46C158.04 6.14 154.98 1.7 147.66 1.45999C128.76 1.45999 106.26 35.72 94.08 61.94C83.94 46.1 78.6 22.22 77.1 10.04C76.98 9.8 76.92 8.6 75.42 9.32C59.76 43.82 38.28 68.3 19.62 68.3C7.44 68.3 4.26 61.7 4.26 55.4C4.26 52.34 4.98 49.34 5.82 47.18C5.82 47.18 6.3 45.26 4.14 46.58C3.24 48.92 2.46 52.16 2.46 55.4C2.46 62.54 6 70.1 19.62 70.1C38.4 70.1 59.76 46.58 75.66 13.1C78.84 34.28 91.2 79.34 116.58 79.34C122.46 79.34 126.12 77.84 129.42 75.2ZM132.131 48.44C130.271 53.18 126.011 58.04 123.071 58.04C122.291 58.04 121.871 57.5 121.871 56.6C121.871 52.58 129.371 45.44 133.991 45.44C134.651 45.44 135.011 45.62 135.071 45.92C135.251 47.12 136.691 45.98 136.871 45.56C136.571 44.3 135.671 43.64 133.991 43.64C129.371 43.64 120.071 51.86 120.071 56.6C120.071 58.76 121.091 59.84 123.071 59.84C125.891 59.84 129.611 56.54 132.071 52.58C132.491 56.72 134.471 62.36 142.511 62.36C147.671 62.36 157.691 60.98 168.671 53.66C168.671 53.66 168.671 51.44 167.651 52.16C157.571 59.3 147.431 60.56 142.511 60.56C132.011 60.56 133.931 48.68 133.931 48.68C134.051 47.18 132.131 48.44 132.131 48.44ZM209.512 53.72C209.512 53.72 209.692 51.5 208.552 52.16C199.972 58.28 190.672 60.2 182.632 60.2C180.952 60.2 179.452 60.02 178.192 59.66C181.852 57.62 184.612 54.02 184.612 48.74C184.612 46.76 183.052 43.88 179.992 43.88C174.592 43.88 171.652 49.94 171.652 54.14C171.592 56.3 172.372 58.1 173.812 59.42C172.732 59.66 171.652 59.78 170.572 59.78C168.592 59.78 167.812 58.58 167.812 57.14C167.812 55.88 168.292 54.5 169.012 53.3C169.012 53.3 168.592 50.9 167.452 52.34C166.612 53.78 166.012 55.52 166.012 57.14C166.012 59.54 167.272 61.58 170.572 61.58C172.312 61.58 174.112 61.28 175.792 60.74C177.592 61.58 179.872 62 182.632 62C190.972 62 200.272 59.72 209.512 53.72ZM182.812 48.74C182.812 53.84 179.812 57.14 176.032 58.7C174.292 57.68 173.392 56.06 173.452 54.14C173.452 50.66 175.792 45.68 179.992 45.68C181.852 45.68 182.812 47.48 182.812 48.74ZM301.47 52.16C290.79 59.66 278.13 62.12 269.67 62.12C259.11 62.12 259.17 56.84 259.23 52.64C259.23 49.28 259.29 46.52 255.57 46.52C248.61 46.52 240.09 54.44 234.39 54.44C233.37 54.44 233.13 53.66 233.13 52.7C233.37 49.94 234.57 44.72 230.31 44.72C225.57 44.72 213.81 52.16 208.77 56.42C209.01 55.28 209.37 54.32 209.97 53.3C209.97 53.3 209.49 50.78 208.35 52.46C207.21 54.68 206.79 56.42 206.55 59.12C207.45 60.74 208.35 59.24 208.35 59.24C211.35 55.82 225.27 46.52 230.31 46.52C232.59 46.52 231.33 51.56 231.33 52.7C231.33 54.74 231.93 56.24 234.39 56.24C240.57 56.24 248.97 48.32 255.57 48.32C257.49 48.32 257.43 50.24 257.43 52.64C257.37 57.68 257.31 63.92 269.67 63.92C278.31 63.92 291.81 60.74 302.43 53.72C302.55 51.32 301.47 52.16 301.47 52.16ZM338.54 53.72C338.54 53.72 338.78 51.5 337.58 52.16C329.42 57.8 319.22 59.96 311.18 59.96C305.3 59.96 302.42 58.22 302.54 54.56C302.54 53.84 302.66 53.18 302.84 52.52C303.32 51.56 302.06 51.44 301.04 52.46C300.86 53.24 300.74 53.78 300.74 54.56C300.62 59.42 304.1 61.76 311.18 61.76C319.52 61.76 330.08 59.12 338.54 53.72ZM302.06 42.74C305.06 42.74 306.56 39.98 303.14 39.98C302.9 40.94 300.32 42.62 302.06 42.74Z" fill="#c0679a"/>
<path d="M129.42 75.2L130.045 75.9809L130.08 75.9527L130.113 75.9214L129.42 75.2ZM128.34 73.76V72.76H127.995L127.723 72.9731L128.34 73.76ZM95.22 63.74L94.3103 63.3246L94.0744 63.8413L94.3974 64.3086L95.22 63.74ZM147.66 3.26L147.64 4.2598L147.641 4.25982L147.66 3.26ZM157.32 10.82L156.348 11.0551L156.441 11.4389L156.771 11.6557L157.32 10.82ZM159.12 10.46L160.105 10.2901L160.099 10.2535L160.09 10.2175L159.12 10.46ZM147.66 1.45999L147.693 0.460532L147.676 0.459995H147.66V1.45999ZM94.08 61.94L93.2378 62.4791L94.2197 64.013L94.9869 62.3613L94.08 61.94ZM77.1 10.04L78.0925 9.91777L78.0715 9.74682L77.9944 9.59277L77.1 10.04ZM75.42 9.32L74.9873 8.41847L74.6596 8.57574L74.5094 8.90667L75.42 9.32ZM5.82 47.18L6.752 47.5424L6.77485 47.4837L6.79014 47.4225L5.82 47.18ZM4.14 46.58L3.61855 45.7267L3.32863 45.9039L3.20665 46.221L4.14 46.58ZM75.66 13.1L76.6489 12.9515L76.1624 9.71108L74.7567 12.671L75.66 13.1ZM129.42 75.2C130.113 75.9214 130.113 75.9211 130.113 75.9208C130.113 75.9207 130.114 75.9204 130.114 75.9201C130.114 75.9197 130.115 75.9193 130.115 75.9188C130.116 75.9178 130.117 75.9167 130.119 75.9156C130.121 75.9132 130.124 75.9105 130.127 75.9074C130.133 75.9013 130.141 75.8936 130.15 75.8845C130.168 75.8663 130.191 75.8421 130.218 75.8127C130.271 75.7546 130.342 75.6721 130.417 75.5714C130.545 75.3986 130.774 75.055 130.837 74.6243C130.871 74.3886 130.86 74.0985 130.727 73.8042C130.592 73.5062 130.37 73.2844 130.116 73.1304C129.653 72.849 129.034 72.76 128.34 72.76V74.76C128.936 74.76 129.097 74.851 129.078 74.8396C129.047 74.8206 128.962 74.7563 128.904 74.627C128.847 74.5015 128.85 74.3914 128.858 74.3357C128.868 74.265 128.884 74.2814 128.811 74.3786C128.786 74.4129 128.76 74.4429 128.741 74.4636C128.732 74.4735 128.726 74.4803 128.723 74.4832C128.721 74.4846 128.721 74.485 128.722 74.4843C128.722 74.4839 128.723 74.4833 128.724 74.4823C128.724 74.4819 128.725 74.4813 128.725 74.4807C128.726 74.4804 128.726 74.4801 128.726 74.4797C128.727 74.4795 128.727 74.4793 128.727 74.4792C128.727 74.4789 128.727 74.4786 129.42 75.2ZM127.723 72.9731C124.843 75.2319 121.701 76.54 116.58 76.54V78.54C122.139 78.54 125.717 77.0881 128.957 74.5469L127.723 72.9731ZM116.58 76.54C108.424 76.54 101.607 71.2214 96.0426 63.1714L94.3974 64.3086C100.113 72.5786 107.456 78.54 116.58 78.54V76.54ZM96.1297 64.1554C102.107 51.0658 110.663 35.9295 119.953 24.1286C124.599 18.2269 129.403 13.1924 134.133 9.66401C138.875 6.12593 143.442 4.17613 147.64 4.2598L147.68 2.2602C142.848 2.16387 137.845 4.39906 132.937 8.06099C128.015 11.7326 123.088 16.9131 118.382 22.8914C108.967 34.8505 100.333 50.1342 94.3103 63.3246L96.1297 64.1554ZM147.641 4.25982C150.615 4.31593 152.555 5.20516 153.854 6.42033C155.171 7.65215 155.926 9.309 156.348 11.0551L158.292 10.5848C157.814 8.61099 156.919 6.54784 155.221 4.95967C153.505 3.35484 151.065 2.32407 147.679 2.26018L147.641 4.25982ZM156.771 11.6557C157.342 12.0311 157.874 12.2816 158.372 12.3393C158.952 12.4064 159.489 12.2044 159.821 11.7387C160.087 11.3662 160.127 10.9511 160.134 10.7434C160.138 10.6218 160.132 10.5167 160.125 10.4411C160.121 10.4026 160.117 10.37 160.114 10.3447C160.112 10.332 160.11 10.321 160.109 10.3118C160.108 10.3073 160.108 10.3032 160.107 10.2995C160.107 10.2977 160.106 10.296 160.106 10.2945C160.106 10.2937 160.106 10.2929 160.106 10.2922C160.106 10.2918 160.106 10.2913 160.106 10.2911C160.106 10.2906 160.105 10.2901 159.12 10.46C158.135 10.6299 158.134 10.6294 158.134 10.6289C158.134 10.6288 158.134 10.6283 158.134 10.628C158.134 10.6274 158.134 10.6268 158.134 10.6262C158.134 10.625 158.134 10.624 158.133 10.623C158.133 10.621 158.133 10.6194 158.133 10.6181C158.132 10.6154 158.132 10.614 158.132 10.6137C158.132 10.6132 158.132 10.6167 158.133 10.6231C158.134 10.6372 158.135 10.6572 158.135 10.6772C158.132 10.7526 158.115 10.6863 158.194 10.5763C158.246 10.5037 158.328 10.43 158.436 10.3863C158.537 10.3449 158.606 10.353 158.602 10.3526C158.566 10.3484 158.348 10.2989 157.869 9.98429L156.771 11.6557ZM160.09 10.2175C159.518 7.9275 158.406 5.54395 156.409 3.69613C154.398 1.83435 151.565 0.587484 147.693 0.460532L147.627 2.45946C151.075 2.57251 153.432 3.66564 155.051 5.16387C156.684 6.67605 157.642 8.67249 158.15 10.7025L160.09 10.2175ZM147.66 0.459995C142.637 0.459995 137.481 2.73091 132.438 6.41532C127.384 10.107 122.357 15.2809 117.57 21.2414C107.996 33.1639 99.2864 48.3586 93.1731 61.5187L94.9869 62.3613C101.054 49.3014 109.684 34.2561 119.13 22.4936C123.853 16.6116 128.756 11.5817 133.617 8.03029C138.489 4.47158 143.233 2.45999 147.66 2.45999V0.459995ZM94.9222 61.4009C84.901 45.7464 79.5855 22.0406 78.0925 9.91777L76.1075 10.1622C77.6145 22.3994 82.979 46.4536 93.2378 62.4791L94.9222 61.4009ZM77.9944 9.59277C78.0267 9.65741 78.0366 9.70402 78.014 9.62744C78.0018 9.58615 77.9759 9.49524 77.9445 9.40286C77.8827 9.22112 77.7635 8.91879 77.5185 8.64848C77.2474 8.34936 76.8595 8.13117 76.3669 8.09735C75.9128 8.06616 75.4491 8.1968 74.9873 8.41847L75.8527 10.2215C76.1409 10.0832 76.2472 10.0938 76.2299 10.0926C76.2152 10.0916 76.1783 10.0857 76.1324 10.0628C76.0875 10.0404 76.0554 10.0124 76.0365 9.99152C76.0091 9.96121 76.0211 9.95888 76.0511 10.0471C76.0656 10.0898 76.0759 10.1263 76.0958 10.1938C76.1043 10.2224 76.1166 10.2637 76.1309 10.3058C76.144 10.3445 76.1683 10.4126 76.2056 10.4872L77.9944 9.59277ZM74.5094 8.90667C66.7094 26.0905 57.4782 40.7361 47.9113 51.0681C38.3134 61.4335 28.5275 67.3 19.62 67.3V69.3C29.3725 69.3 39.6566 62.9265 49.3788 52.4269C59.1318 41.8939 68.4706 27.0495 76.3306 9.73332L74.5094 8.90667ZM19.62 67.3C13.7064 67.3 10.1679 65.7013 8.09722 63.5235C6.01647 61.335 5.26 58.3964 5.26 55.4H3.26C3.26 58.7036 4.09353 62.215 6.64778 64.9015C9.21215 67.5987 13.3536 69.3 19.62 69.3V67.3ZM5.26 55.4C5.26 52.4836 5.94926 49.6067 6.752 47.5424L4.888 46.8176C4.01074 49.0733 3.26 52.1964 3.26 55.4H5.26ZM5.82 47.18C6.79014 47.4225 6.79025 47.4221 6.79036 47.4217C6.7904 47.4215 6.79051 47.4211 6.79059 47.4207C6.79075 47.4201 6.79091 47.4194 6.79108 47.4187C6.79143 47.4174 6.7918 47.4158 6.7922 47.4142C6.79299 47.4109 6.7939 47.4071 6.79491 47.4028C6.79692 47.3942 6.79933 47.3837 6.80202 47.3713C6.80739 47.3466 6.81399 47.3143 6.82086 47.2757C6.83441 47.1998 6.85009 47.0939 6.85877 46.971C6.87359 46.7611 6.88106 46.3503 6.69286 45.9551C6.58948 45.738 6.41814 45.5078 6.14846 45.3403C5.87806 45.1723 5.5789 45.1109 5.29202 45.1171C4.76351 45.1286 4.20235 45.3699 3.61855 45.7267L4.66145 47.4333C5.15765 47.1301 5.34649 47.1164 5.33548 47.1166C5.30735 47.1172 5.20881 47.1111 5.0931 47.0392C4.97811 46.9678 4.91552 46.8745 4.88714 46.8149C4.84894 46.7347 4.87141 46.7214 4.86373 46.8302C4.86115 46.8667 4.85621 46.9006 4.85195 46.9244C4.84992 46.9358 4.84831 46.9435 4.84771 46.9462C4.84741 46.9476 4.84739 46.9477 4.84771 46.9463C4.84788 46.9456 4.84813 46.9445 4.84848 46.943C4.84866 46.9423 4.84886 46.9415 4.84909 46.9406C4.8492 46.9401 4.84933 46.9396 4.84945 46.9391C4.84952 46.9388 4.84962 46.9384 4.84965 46.9383C4.84975 46.9379 4.84986 46.9375 5.82 47.18ZM3.20665 46.221C2.27159 48.6522 1.46 52.0145 1.46 55.4H3.46C3.46 52.3055 4.20841 49.1878 5.07335 46.939L3.20665 46.221ZM1.46 55.4C1.46 59.1191 2.38117 63.077 5.2002 66.1085C8.0329 69.1547 12.6268 71.1 19.62 71.1V69.1C12.9932 69.1 9.0071 67.2653 6.6648 64.7465C4.30883 62.213 3.46 58.8209 3.46 55.4H1.46ZM19.62 71.1C29.4165 71.1 39.6971 64.9846 49.4409 54.848C59.2115 44.6835 68.5822 30.3344 76.5633 13.529L74.7567 12.671C66.8378 29.3455 57.5785 43.4965 47.9991 53.462C38.3929 63.4554 28.6035 69.1 19.62 69.1V71.1ZM74.6711 13.2485C76.27 23.8981 80.176 40.5627 86.893 54.5943C90.2513 61.6097 94.3381 68.0219 99.2362 72.6922C104.145 77.3725 109.911 80.34 116.58 80.34V78.34C110.559 78.34 105.263 75.675 100.616 71.2447C95.9594 66.8044 91.9987 60.6278 88.697 53.7307C82.094 39.9373 78.23 23.4819 76.6489 12.9515L74.6711 13.2485ZM116.58 80.34C122.676 80.34 126.559 78.7697 130.045 75.9809L128.795 74.4191C125.681 76.9103 122.244 78.34 116.58 78.34V80.34ZM132.131 48.44L131.583 47.604L131.317 47.7785L131.2 48.0747L132.131 48.44ZM135.071 45.92L136.06 45.7717L136.057 45.7477L136.052 45.7239L135.071 45.92ZM136.871 45.56L137.79 45.9539L137.921 45.65L137.844 45.3284L136.871 45.56ZM132.071 52.58L133.066 52.4791L132.77 49.5601L131.222 52.0523L132.071 52.58ZM168.671 53.66L169.226 54.492L169.671 54.1952V53.66H168.671ZM167.651 52.16L167.075 51.343L167.073 51.344L167.651 52.16ZM133.931 48.68L134.918 48.8395L134.925 48.7998L134.928 48.7597L133.931 48.68ZM131.2 48.0747C130.317 50.3257 128.855 52.6206 127.271 54.34C126.48 55.1986 125.68 55.89 124.933 56.3602C124.174 56.838 123.544 57.04 123.071 57.04V59.04C124.069 59.04 125.074 58.6345 125.998 58.053C126.935 57.4637 127.868 56.6439 128.742 55.695C130.488 53.7994 132.085 51.2943 133.062 48.8053L131.2 48.0747ZM123.071 57.04C122.992 57.04 122.958 57.0265 122.953 57.0242C122.951 57.0233 122.954 57.0255 122.953 57.0243C122.945 57.0153 122.871 56.9107 122.871 56.6H120.871C120.871 57.1893 121.007 57.8047 121.405 58.2907C121.827 58.8068 122.432 59.04 123.071 59.04V57.04ZM122.871 56.6C122.871 55.8718 123.226 54.8645 123.962 53.6921C124.683 52.5442 125.705 51.3403 126.881 50.2438C128.056 49.1478 129.358 48.1831 130.624 47.4979C131.906 46.8041 133.071 46.44 133.991 46.44V44.44C132.602 44.44 131.096 44.9684 129.672 45.739C128.233 46.5182 126.794 47.5897 125.517 48.7812C124.24 49.9722 123.098 51.3071 122.268 52.6285C121.454 53.9255 120.871 55.3182 120.871 56.6H122.871ZM133.991 46.44C134.112 46.44 134.202 46.4484 134.263 46.4588C134.326 46.4695 134.347 46.48 134.34 46.4766C134.331 46.4728 134.281 46.448 134.223 46.3828C134.16 46.3124 134.111 46.2192 134.091 46.1161L136.052 45.7239C135.943 45.1801 135.562 44.8367 135.173 44.6584C134.81 44.492 134.393 44.44 133.991 44.44V46.44ZM134.082 46.0683C134.159 46.5822 134.436 47.1571 135.082 47.3761C135.614 47.5565 136.114 47.3834 136.391 47.255C136.706 47.1093 136.991 46.9015 137.209 46.7046C137.399 46.5337 137.657 46.2647 137.79 45.9539L135.952 45.1661C135.983 45.0935 136.008 45.073 135.978 45.1088C135.957 45.1342 135.921 45.1734 135.869 45.2197C135.761 45.3173 135.641 45.3982 135.551 45.44C135.508 45.4602 135.495 45.4598 135.513 45.457C135.53 45.4542 135.611 45.4437 135.724 45.482C135.852 45.5254 135.955 45.6093 136.017 45.6998C136.07 45.7768 136.067 45.8198 136.06 45.7717L134.082 46.0683ZM137.844 45.3284C137.648 44.5057 137.229 43.7906 136.512 43.3015C135.817 42.827 134.951 42.64 133.991 42.64V44.64C134.712 44.64 135.135 44.783 135.385 44.9534C135.614 45.1094 135.794 45.3543 135.898 45.7916L137.844 45.3284ZM133.991 42.64C132.582 42.64 130.955 43.2507 129.382 44.1241C127.782 45.0125 126.124 46.2366 124.625 47.6037C123.127 48.97 121.761 50.5042 120.761 52.0263C119.778 53.5217 119.071 55.1239 119.071 56.6H121.071C121.071 55.7061 121.527 54.5033 122.432 53.1243C123.321 51.7721 124.568 50.3625 125.973 49.0813C127.376 47.8009 128.91 46.6738 130.353 45.8727C131.822 45.0568 133.09 44.64 133.991 44.64V42.64ZM119.071 56.6C119.071 57.8205 119.358 58.9178 120.097 59.7112C120.847 60.5179 121.904 60.84 123.071 60.84V58.84C122.259 58.84 121.815 58.6221 121.561 58.3488C121.294 58.0622 121.071 57.5395 121.071 56.6H119.071ZM123.071 60.84C124.832 60.84 126.694 59.8352 128.345 58.4644C130.029 57.0667 131.642 55.1663 132.921 53.1077L131.222 52.0523C130.041 53.9537 128.564 55.6833 127.067 56.9256C125.539 58.1948 124.13 58.84 123.071 58.84V60.84ZM131.076 52.6809C131.295 54.8391 131.929 57.5064 133.655 59.6498C135.42 61.8406 138.226 63.36 142.511 63.36V61.36C138.756 61.36 136.553 60.0594 135.213 58.3952C133.834 56.6836 133.267 54.4609 133.066 52.4791L131.076 52.6809ZM142.511 63.36C147.836 63.36 158.057 61.9381 169.226 54.492L168.117 52.8279C157.326 60.0219 147.506 61.36 142.511 61.36V63.36ZM168.671 53.66C169.671 53.66 169.671 53.6598 169.671 53.6595C169.671 53.6594 169.671 53.6592 169.671 53.659C169.671 53.6586 169.671 53.6582 169.671 53.6578C169.671 53.6569 169.671 53.6559 169.671 53.6547C169.671 53.6524 169.671 53.6496 169.671 53.6462C169.671 53.6395 169.671 53.6306 169.671 53.6198C169.671 53.5981 169.67 53.5686 169.669 53.5324C169.666 53.4604 169.662 53.3605 169.652 53.2437C169.634 53.0186 169.595 52.6939 169.508 52.3756C169.436 52.1116 169.269 51.6098 168.838 51.2887C168.585 51.0998 168.262 50.9912 167.904 51.0212C167.573 51.0491 167.293 51.1889 167.075 51.343L168.228 52.977C168.265 52.9511 168.208 53.0028 168.072 53.0142C167.909 53.0279 167.754 52.9746 167.643 52.8925C167.554 52.8261 167.528 52.7666 167.537 52.7828C167.543 52.7942 167.559 52.832 167.579 52.9044C167.62 53.0511 167.645 53.2364 167.659 53.4051C167.665 53.4851 167.668 53.553 167.67 53.5996C167.671 53.6227 167.671 53.6402 167.671 53.6507C167.671 53.656 167.671 53.6595 167.671 53.6611C167.671 53.6619 167.671 53.6622 167.671 53.662C167.671 53.662 167.671 53.6617 167.671 53.6614C167.671 53.6612 167.671 53.661 167.671 53.6608C167.671 53.6607 167.671 53.6605 167.671 53.6604C167.671 53.6602 167.671 53.66 168.671 53.66ZM167.073 51.344C157.206 58.3333 147.285 59.56 142.511 59.56V61.56C147.577 61.56 157.937 60.2667 168.229 52.976L167.073 51.344ZM142.511 59.56C140.087 59.56 138.481 58.8798 137.393 57.9452C136.29 56.9982 135.628 55.7105 135.247 54.3501C134.865 52.9886 134.78 51.607 134.795 50.5506C134.803 50.0259 134.835 49.5901 134.864 49.2885C134.879 49.1379 134.893 49.0213 134.904 48.9444C134.909 48.906 134.913 48.8776 134.915 48.8599C134.917 48.851 134.918 48.8448 134.918 48.8414C134.918 48.8397 134.919 48.8387 134.919 48.8384C134.919 48.8382 134.919 48.8382 134.919 48.8384C134.919 48.8385 134.919 48.8388 134.919 48.8388C134.919 48.8392 134.918 48.8395 133.931 48.68C132.944 48.5205 132.944 48.5209 132.944 48.5214C132.944 48.5217 132.944 48.5222 132.944 48.5227C132.944 48.5236 132.943 48.5247 132.943 48.526C132.943 48.5285 132.942 48.5318 132.942 48.5358C132.94 48.5438 132.939 48.5547 132.937 48.5683C132.933 48.5955 132.927 48.6338 132.921 48.6824C132.908 48.7796 132.891 48.9182 132.874 49.0925C132.84 49.4405 132.804 49.9328 132.795 50.5219C132.779 51.693 132.87 53.2814 133.321 54.8899C133.772 56.4995 134.599 58.1818 136.089 59.4623C137.594 60.7552 139.686 61.56 142.511 61.56V59.56ZM134.928 48.7597C134.971 48.2177 134.853 47.5146 134.195 47.1405C133.664 46.8385 133.091 46.9567 132.812 47.0331C132.477 47.125 132.166 47.2741 131.96 47.3836C131.852 47.4409 131.762 47.4935 131.697 47.5325C131.665 47.5521 131.638 47.5685 131.619 47.5807C131.609 47.5868 131.601 47.5919 131.595 47.5958C131.592 47.5978 131.59 47.5994 131.587 47.6008C131.586 47.6015 131.585 47.6021 131.585 47.6026C131.584 47.6029 131.584 47.6031 131.584 47.6033C131.583 47.6034 131.583 47.6036 131.583 47.6037C131.583 47.6038 131.583 47.604 132.131 48.44C132.68 49.276 132.68 49.2762 132.68 49.2763C132.679 49.2763 132.679 49.2765 132.679 49.2765C132.679 49.2767 132.679 49.2768 132.679 49.2769C132.678 49.2772 132.678 49.2773 132.678 49.2774C132.678 49.2776 132.678 49.2774 132.678 49.2771C132.68 49.2763 132.682 49.2745 132.687 49.2717C132.695 49.2662 132.71 49.257 132.73 49.2451C132.77 49.221 132.829 49.1869 132.899 49.1496C133.049 49.0697 133.211 48.9975 133.341 48.9619C133.404 48.9445 133.429 48.9448 133.42 48.9449C133.412 48.9449 133.322 48.945 133.206 48.8789C133.071 48.8019 132.988 48.6853 132.952 48.5909C132.925 48.5178 132.942 48.503 132.934 48.6003L134.928 48.7597ZM209.512 53.72L210.056 54.5587L210.469 54.2909L210.508 53.8008L209.512 53.72ZM208.552 52.16L208.051 51.2946L208.009 51.3183L207.971 51.3459L208.552 52.16ZM178.192 59.66L177.705 58.7865L175.6 59.9596L177.917 60.6215L178.192 59.66ZM171.652 54.14L172.651 54.1678L172.652 54.1539V54.14H171.652ZM173.812 59.42L174.028 60.3962L175.902 59.9798L174.487 58.6828L173.812 59.42ZM169.012 53.3L169.869 53.8145L170.061 53.4948L169.997 53.1276L169.012 53.3ZM167.452 52.34L166.668 51.7193L166.624 51.7749L166.588 51.8361L167.452 52.34ZM175.792 60.74L176.214 59.8338L175.859 59.6679L175.486 59.788L175.792 60.74ZM176.032 58.7L175.526 59.5627L175.954 59.8138L176.413 59.6244L176.032 58.7ZM173.452 54.14L174.451 54.1712L174.452 54.1556V54.14H173.452ZM209.512 53.72C210.508 53.8008 210.508 53.8006 210.508 53.8003C210.508 53.8002 210.508 53.8 210.508 53.7998C210.508 53.7994 210.508 53.799 210.508 53.7985C210.509 53.7976 210.509 53.7965 210.509 53.7954C210.509 53.793 210.509 53.7901 210.509 53.7866C210.51 53.7797 210.511 53.7707 210.511 53.7597C210.513 53.7378 210.514 53.7078 210.516 53.6712C210.519 53.5983 210.522 53.4972 210.522 53.3787C210.521 53.1509 210.506 52.8195 210.438 52.4904C210.381 52.2141 210.241 51.6933 209.809 51.3459C209.559 51.1453 209.244 51.0296 208.897 51.0378C208.572 51.0455 208.286 51.1585 208.051 51.2946L209.053 53.0254C209.103 52.9965 209.059 53.0345 208.944 53.0373C208.804 53.0406 208.662 52.99 208.556 52.9047C208.469 52.8344 208.443 52.7714 208.448 52.7823C208.452 52.7895 208.465 52.824 208.48 52.8946C208.509 53.038 208.521 53.2204 208.522 53.3882C208.522 53.4675 208.52 53.5346 208.518 53.5806C208.517 53.6034 208.516 53.6205 208.515 53.6308C208.515 53.6359 208.515 53.6392 208.515 53.6407C208.515 53.6414 208.515 53.6417 208.515 53.6414C208.515 53.6413 208.515 53.6411 208.515 53.6407C208.515 53.6405 208.515 53.6403 208.515 53.64C208.515 53.6399 208.515 53.6397 208.515 53.6396C208.515 53.6394 208.515 53.6392 209.512 53.72ZM207.971 51.3459C199.597 57.3187 190.514 59.2 182.632 59.2V61.2C190.829 61.2 200.346 59.2413 209.132 52.9741L207.971 51.3459ZM182.632 59.2C181.018 59.2 179.615 59.0266 178.466 58.6985L177.917 60.6215C179.289 61.0134 180.885 61.2 182.632 61.2V59.2ZM178.678 60.5335C182.61 58.3422 185.612 54.4317 185.612 48.74H183.612C183.612 53.6083 181.093 56.8978 177.705 58.7865L178.678 60.5335ZM185.612 48.74C185.612 47.5188 185.142 46.0847 184.231 44.9435C183.299 43.7773 181.872 42.88 179.992 42.88V44.88C181.171 44.88 182.054 45.4227 182.668 46.1915C183.301 46.9853 183.612 47.9812 183.612 48.74H185.612ZM179.992 42.88C176.87 42.88 174.51 44.6437 172.974 46.8664C171.448 49.0749 170.652 51.8385 170.652 54.14H172.652C172.652 52.2415 173.326 49.8751 174.619 48.0036C175.903 46.1463 177.714 44.88 179.992 44.88V42.88ZM170.652 54.1122C170.584 56.5518 171.475 58.6344 173.136 60.1572L174.487 58.6828C173.269 57.5656 172.599 56.0482 172.651 54.1678L170.652 54.1122ZM173.595 58.4438C172.584 58.6684 171.577 58.78 170.572 58.78V60.78C171.726 60.78 172.879 60.6516 174.028 60.3962L173.595 58.4438ZM170.572 58.78C169.79 58.78 169.394 58.5498 169.184 58.3222C168.96 58.0791 168.812 57.6903 168.812 57.14H166.812C166.812 58.0297 167.053 58.9609 167.714 59.6778C168.389 60.4102 169.373 60.78 170.572 60.78V58.78ZM168.812 57.14C168.812 56.1139 169.211 54.9115 169.869 53.8145L168.154 52.7855C167.372 54.0885 166.812 55.6461 166.812 57.14H168.812ZM169.012 53.3C169.997 53.1276 169.997 53.1273 169.996 53.127C169.996 53.1269 169.996 53.1266 169.996 53.1264C169.996 53.126 169.996 53.1255 169.996 53.125C169.996 53.124 169.996 53.1228 169.996 53.1215C169.995 53.1188 169.994 53.1156 169.994 53.1118C169.992 53.1042 169.99 53.0943 169.988 53.0823C169.983 53.0583 169.977 53.0258 169.968 52.9864C169.951 52.9081 169.926 52.8 169.89 52.6757C169.824 52.4411 169.708 52.0909 169.521 51.7723C169.362 51.5025 168.982 50.967 168.288 50.8888C167.555 50.8062 167.012 51.2839 166.668 51.7193L168.236 52.9607C168.333 52.8381 168.377 52.8154 168.36 52.8258C168.331 52.8431 168.223 52.8941 168.064 52.8762C167.912 52.8591 167.818 52.7904 167.787 52.7632C167.761 52.7403 167.769 52.7386 167.798 52.7877C167.857 52.8891 167.918 53.0489 167.966 53.2193C167.988 53.2975 168.004 53.3657 168.014 53.4129C168.019 53.4364 168.023 53.454 168.025 53.4645C168.026 53.4698 168.027 53.4732 168.027 53.4745C168.027 53.4752 168.027 53.4754 168.027 53.4751C168.027 53.4749 168.027 53.4746 168.027 53.4741C168.027 53.4739 168.027 53.4736 168.027 53.4734C168.027 53.4732 168.027 53.473 168.027 53.4729C168.027 53.4726 168.027 53.4724 169.012 53.3ZM166.588 51.8361C165.687 53.3801 165.012 55.2938 165.012 57.14H167.012C167.012 55.7462 167.536 54.1799 168.315 52.8439L166.588 51.8361ZM165.012 57.14C165.012 58.502 165.369 59.8801 166.31 60.9282C167.269 61.9959 168.707 62.58 170.572 62.58V60.58C169.136 60.58 168.294 60.1441 167.798 59.5918C167.284 59.0199 167.012 58.178 167.012 57.14H165.012ZM170.572 62.58C172.423 62.58 174.326 62.2615 176.098 61.692L175.486 59.788C173.897 60.2985 172.2 60.58 170.572 60.58V62.58ZM175.369 61.6462C177.342 62.5671 179.779 63 182.632 63V61C179.964 61 177.841 60.5929 176.214 59.8338L175.369 61.6462ZM182.632 63C191.159 63 200.649 60.667 210.056 54.5587L208.967 52.8813C199.894 58.773 190.784 61 182.632 61V63ZM181.812 48.74C181.812 53.3641 179.126 56.3411 175.65 57.7756L176.413 59.6244C180.497 57.9389 183.812 54.3159 183.812 48.74H181.812ZM176.537 57.8373C175.102 56.996 174.403 55.7127 174.451 54.1712L172.452 54.1088C172.38 56.4073 173.481 58.364 175.526 59.5627L176.537 57.8373ZM174.452 54.14C174.452 52.5928 174.981 50.6701 175.981 49.1563C176.976 47.6504 178.337 46.68 179.992 46.68V44.68C177.446 44.68 175.537 46.1996 174.312 48.0537C173.092 49.8999 172.452 52.2072 172.452 54.14H174.452ZM179.992 46.68C180.56 46.68 180.992 46.9424 181.31 47.3514C181.647 47.7845 181.812 48.3337 181.812 48.74H183.812C183.812 47.8863 183.497 46.9055 182.888 46.1236C182.262 45.3176 181.283 44.68 179.992 44.68V46.68ZM301.47 52.16L302.045 52.9784L302.065 52.9643L302.084 52.9494L301.47 52.16ZM259.23 52.64L260.23 52.6543L260.23 52.6471V52.64H259.23ZM233.13 52.7L232.134 52.6134L232.13 52.6566V52.7H233.13ZM208.77 56.42L207.791 56.214L207.192 59.0635L209.416 57.1837L208.77 56.42ZM209.97 53.3L210.832 53.807L211.023 53.4826L210.952 53.1129L209.97 53.3ZM208.35 52.46L207.523 51.8985L207.488 51.949L207.46 52.0032L208.35 52.46ZM206.55 59.12L205.554 59.0315L205.527 59.3373L205.676 59.6056L206.55 59.12ZM208.35 59.24L207.598 58.5806L207.539 58.6483L207.493 58.7255L208.35 59.24ZM257.43 52.64L258.43 52.6519V52.64H257.43ZM302.43 53.72L302.981 54.5542L303.403 54.2752L303.429 53.7699L302.43 53.72ZM300.895 51.3416C290.42 58.6978 277.974 61.12 269.67 61.12V63.12C278.286 63.12 291.16 60.6222 302.045 52.9784L300.895 51.3416ZM269.67 61.12C264.521 61.12 262.307 59.8317 261.285 58.3798C260.206 56.8453 260.199 54.8244 260.23 52.6543L258.23 52.6257C258.201 54.6556 258.134 57.3747 259.65 59.5302C261.223 61.7683 264.259 63.12 269.67 63.12V61.12ZM260.23 52.64C260.23 51.8138 260.234 50.9698 260.179 50.1946C260.123 49.4208 260.004 48.6407 259.722 47.9443C259.431 47.2271 258.962 46.5894 258.227 46.1468C257.506 45.7135 256.617 45.52 255.57 45.52V47.52C256.383 47.52 256.881 47.6715 257.196 47.8607C257.495 48.0406 257.709 48.3029 257.868 48.6957C258.036 49.1093 258.134 49.6492 258.184 50.3379C258.233 51.0252 258.23 51.7862 258.23 52.64H260.23ZM255.57 45.52C253.65 45.52 251.678 46.0638 249.756 46.8283C247.831 47.594 245.891 48.6091 244.037 49.5976C242.163 50.5969 240.39 51.5628 238.727 52.2853C237.055 53.0118 235.606 53.44 234.39 53.44V55.44C236.024 55.44 237.778 54.8782 239.524 54.1197C241.279 53.3572 243.139 52.3431 244.978 51.3624C246.837 50.3709 248.687 49.406 250.496 48.6867C252.307 47.9662 254.01 47.52 255.57 47.52V45.52ZM234.39 53.44C234.263 53.44 234.225 53.4161 234.232 53.4199C234.244 53.4266 234.247 53.436 234.237 53.4185C234.221 53.3919 234.191 53.3257 234.167 53.1953C234.143 53.0661 234.13 52.9022 234.13 52.7H232.13C232.13 53.223 232.187 53.8858 232.518 54.4415C232.908 55.0963 233.573 55.44 234.39 55.44V53.44ZM234.126 52.7866C234.155 52.4593 234.198 52.092 234.246 51.6805C234.293 51.2748 234.344 50.8325 234.386 50.3792C234.467 49.4801 234.514 48.4848 234.4 47.5532C234.287 46.6296 234.002 45.6562 233.322 44.9071C232.612 44.1238 231.596 43.72 230.31 43.72V45.72C231.154 45.72 231.585 45.9687 231.841 46.2504C232.127 46.5663 232.326 47.0704 232.415 47.7968C232.503 48.5152 232.472 49.3423 232.394 50.1983C232.355 50.6225 232.307 51.0408 232.259 51.4488C232.212 51.8511 232.165 52.2506 232.134 52.6134L234.126 52.7866ZM230.31 43.72C228.918 43.72 227.141 44.2517 225.271 45.0249C223.37 45.811 221.258 46.8962 219.154 48.1055C214.951 50.5214 210.699 53.4799 208.124 55.6563L209.416 57.1837C211.881 55.1001 216.029 52.2086 220.151 49.8395C222.209 48.6563 224.241 47.6153 226.036 46.8732C227.861 46.1183 229.332 45.72 230.31 45.72V43.72ZM209.749 56.626C209.967 55.5861 210.29 54.7286 210.832 53.807L209.108 52.793C208.45 53.9114 208.053 54.9739 207.791 56.214L209.749 56.626ZM209.97 53.3C210.952 53.1129 210.952 53.1126 210.952 53.1123C210.952 53.1122 210.952 53.1119 210.952 53.1117C210.952 53.1113 210.952 53.1108 210.952 53.1103C210.952 53.1092 210.951 53.108 210.951 53.1067C210.951 53.104 210.95 53.1007 210.949 53.0968C210.948 53.089 210.946 53.0788 210.943 53.0664C210.938 53.0416 210.93 53.008 210.921 52.9672C210.902 52.8861 210.874 52.7742 210.835 52.6459C210.763 52.4052 210.637 52.0426 210.435 51.72C210.267 51.4506 209.84 50.8825 209.084 50.8825C208.346 50.8825 207.841 51.4289 207.523 51.8985L209.177 53.0215C209.228 52.9465 209.27 52.8945 209.301 52.8598C209.332 52.8249 209.348 52.8127 209.348 52.8131C209.345 52.8151 209.252 52.8825 209.084 52.8825C208.913 52.8825 208.795 52.8126 208.747 52.7748C208.708 52.7441 208.71 52.7328 208.74 52.78C208.8 52.8774 208.866 53.0398 208.919 53.2191C208.944 53.3008 208.962 53.3726 208.973 53.4228C208.979 53.4476 208.983 53.4665 208.986 53.4778C208.987 53.4835 208.988 53.4872 208.988 53.4889C208.988 53.4897 208.988 53.49 208.988 53.4897C208.988 53.4895 208.988 53.4892 208.988 53.4888C208.988 53.4886 208.988 53.4884 208.988 53.4881C208.988 53.4879 208.988 53.4877 208.988 53.4876C208.988 53.4874 208.988 53.4871 209.97 53.3ZM207.46 52.0032C206.248 54.3642 205.802 56.2362 205.554 59.0315L207.546 59.2085C207.778 56.6038 208.172 54.9958 209.24 52.9168L207.46 52.0032ZM205.676 59.6056C205.956 60.11 206.325 60.5379 206.829 60.7464C207.375 60.9721 207.883 60.8619 208.243 60.6779C208.577 60.507 208.817 60.2605 208.956 60.0983C209.03 60.0111 209.089 59.9321 209.13 59.8729C209.151 59.843 209.168 59.8174 209.181 59.7974C209.187 59.7874 209.193 59.7787 209.197 59.7715C209.199 59.7679 209.201 59.7647 209.203 59.7618C209.204 59.7604 209.205 59.7591 209.205 59.7579C209.206 59.7573 209.206 59.7567 209.207 59.7561C209.207 59.7558 209.207 59.7554 209.207 59.7553C209.207 59.7549 209.207 59.7545 208.35 59.24C207.493 58.7255 207.493 58.7251 207.493 58.7248C207.493 58.7246 207.493 58.7243 207.493 58.724C207.494 58.7236 207.494 58.7231 207.494 58.7227C207.495 58.7218 207.495 58.721 207.496 58.7203C207.496 58.7189 207.497 58.7178 207.498 58.717C207.499 58.7154 207.499 58.7149 207.499 58.7155C207.498 58.7167 207.495 58.7217 207.489 58.7297C207.478 58.7462 207.459 58.7717 207.435 58.7998C207.41 58.8285 207.386 58.8538 207.363 58.8735C207.339 58.8939 207.328 58.8991 207.332 58.8971C207.355 58.8856 207.469 58.8467 207.593 58.898C207.675 58.9321 207.594 58.94 207.424 58.6344L205.676 59.6056ZM209.102 59.8994C209.779 59.1275 211.14 57.9568 212.938 56.61C214.717 55.2766 216.87 53.8108 219.088 52.4498C221.308 51.0875 223.575 49.841 225.584 48.9388C227.635 48.0178 229.28 47.52 230.31 47.52V45.52C228.82 45.52 226.835 46.1847 224.765 47.1143C222.653 48.0627 220.307 49.355 218.042 50.7452C215.775 52.1367 213.57 53.6371 211.739 55.0094C209.925 56.3682 208.421 57.6425 207.598 58.5806L209.102 59.8994ZM230.31 47.52C230.36 47.52 230.384 47.5267 230.392 47.5291C230.399 47.5313 230.4 47.5326 230.402 47.5341C230.407 47.5379 230.452 47.5748 230.507 47.707C230.628 47.999 230.69 48.4926 230.675 49.1611C230.661 49.8042 230.582 50.4951 230.5 51.1242C230.425 51.6935 230.33 52.3292 230.33 52.7H232.33C232.33 52.5008 232.392 52.079 232.483 51.3827C232.566 50.7461 232.659 49.9633 232.675 49.2039C232.69 48.4699 232.64 47.6322 232.356 46.9436C232.208 46.5855 231.977 46.2197 231.615 45.9434C231.24 45.6578 230.792 45.52 230.31 45.52V47.52ZM230.33 52.7C230.33 53.7767 230.479 54.9291 231.128 55.8226C231.828 56.7866 232.945 57.24 234.39 57.24V55.24C233.375 55.24 232.962 54.9434 232.747 54.6474C232.481 54.2809 232.33 53.6633 232.33 52.7H230.33ZM234.39 57.24C236.133 57.24 237.962 56.6856 239.767 55.9238C241.578 55.1596 243.458 54.145 245.295 53.1616C247.151 52.1676 248.968 51.2026 250.724 50.4828C252.485 49.7615 254.108 49.32 255.57 49.32V47.32C253.732 47.32 251.83 47.8685 249.966 48.6322C248.099 49.3974 246.192 50.4124 244.35 51.3984C242.489 52.395 240.698 53.3604 238.99 54.0812C237.276 54.8044 235.737 55.24 234.39 55.24V57.24ZM255.57 49.32C255.878 49.32 255.991 49.3934 256.035 49.4297C256.091 49.4755 256.18 49.5833 256.259 49.8572C256.435 50.4663 256.43 51.3668 256.43 52.64H258.43C258.43 51.5132 258.455 50.2537 258.181 49.3028C258.035 48.7967 257.779 48.2745 257.306 47.8853C256.821 47.4866 256.222 47.32 255.57 47.32V49.32ZM256.43 52.6281C256.401 55.0768 256.335 58.2425 258.071 60.7408C259.869 63.3264 263.355 64.92 269.67 64.92V62.92C263.625 62.92 260.961 61.3936 259.714 59.5992C258.405 57.7175 258.399 55.2432 258.43 52.6519L256.43 52.6281ZM269.67 64.92C278.491 64.92 292.186 61.6903 302.981 54.5542L301.879 52.8858C291.434 59.7897 278.129 62.92 269.67 62.92V64.92ZM303.429 53.7699C303.461 53.1173 303.42 52.58 303.281 52.1537C303.136 51.7083 302.842 51.2784 302.328 51.097C301.863 50.9331 301.453 51.0599 301.253 51.1427C301.141 51.1892 301.05 51.2406 300.987 51.2802C300.954 51.3005 300.927 51.3191 300.905 51.3344C300.894 51.342 300.885 51.349 300.877 51.3551C300.872 51.3581 300.869 51.361 300.865 51.3636C300.864 51.3648 300.862 51.3661 300.86 51.3673C300.86 51.3679 300.859 51.3684 300.858 51.369C300.858 51.3693 300.857 51.3697 300.857 51.3698C300.857 51.3702 300.856 51.3706 301.47 52.16C302.084 52.9494 302.083 52.9497 302.083 52.9501C302.083 52.9503 302.082 52.9507 302.082 52.9509C302.081 52.9514 302.081 52.9519 302.08 52.9524C302.079 52.9534 302.077 52.9543 302.076 52.9553C302.074 52.9571 302.072 52.9587 302.07 52.9602C302.066 52.9633 302.062 52.9658 302.059 52.968C302.053 52.9721 302.049 52.975 302.046 52.977C302.041 52.98 302.033 52.9845 302.02 52.9898C302.02 52.9901 301.872 53.0569 301.662 52.983C301.403 52.8916 301.356 52.7017 301.38 52.7738C301.41 52.865 301.459 53.1227 301.431 53.6701L303.429 53.7699ZM338.54 53.72L339.078 54.5629L339.482 54.3047L339.534 53.8275L338.54 53.72ZM337.58 52.16L337.098 51.2838L337.053 51.3084L337.011 51.3374L337.58 52.16ZM302.54 54.56L303.539 54.5928L303.54 54.5764V54.56H302.54ZM302.84 52.52L301.945 52.0728L301.901 52.1614L301.875 52.2569L302.84 52.52ZM301.04 52.46L300.333 51.7529L300.13 51.9557L300.065 52.2351L301.04 52.46ZM300.74 54.56L301.739 54.5847L301.74 54.5723V54.56H300.74ZM302.06 42.74L301.991 43.7376L302.025 43.74H302.06V42.74ZM303.14 39.98V38.98H302.359L302.17 39.7375L303.14 39.98ZM338.54 53.72C339.534 53.8275 339.534 53.8272 339.534 53.827C339.534 53.8269 339.534 53.8266 339.534 53.8264C339.534 53.826 339.534 53.8256 339.534 53.8251C339.534 53.8242 339.534 53.8231 339.534 53.8219C339.535 53.8195 339.535 53.8165 339.535 53.813C339.536 53.806 339.537 53.7969 339.538 53.7858C339.54 53.7637 339.543 53.7336 339.545 53.6967C339.55 53.6234 339.556 53.5217 339.558 53.4024C339.563 53.1736 339.556 52.8389 339.492 52.5054C339.438 52.2242 339.302 51.6922 338.855 51.34C338.272 50.8803 337.591 51.0125 337.098 51.2838L338.062 53.0362C338.122 53.0031 338.09 53.035 337.988 53.0373C337.863 53.0401 337.726 52.9964 337.617 52.9106C337.57 52.8738 337.54 52.8384 337.524 52.8152C337.507 52.7924 337.501 52.778 337.501 52.7778C337.5 52.7773 337.504 52.7854 337.51 52.8042C337.515 52.8227 337.521 52.8477 337.527 52.8796C337.554 53.0186 337.562 53.1977 337.559 53.3645C337.557 53.443 337.553 53.5096 337.55 53.5551C337.549 53.5776 337.547 53.5946 337.546 53.6046C337.546 53.6096 337.545 53.6129 337.545 53.6143C337.545 53.615 337.545 53.6152 337.545 53.6149C337.545 53.6147 337.545 53.6145 337.545 53.6141C337.545 53.6139 337.545 53.6137 337.545 53.6134C337.545 53.6133 337.545 53.613 337.545 53.613C337.545 53.6128 337.545 53.6125 338.54 53.72ZM337.011 51.3374C329.058 56.8344 319.071 58.96 311.18 58.96V60.96C319.369 60.96 329.781 58.7655 338.148 52.9826L337.011 51.3374ZM311.18 58.96C308.301 58.96 306.338 58.5274 305.136 57.7825C304.027 57.0951 303.49 56.0977 303.539 54.5928L301.54 54.5272C301.47 56.6823 302.312 58.3849 304.083 59.4825C305.761 60.5226 308.178 60.96 311.18 60.96V58.96ZM303.54 54.56C303.54 53.9551 303.64 53.387 303.804 52.7831L301.875 52.2569C301.68 52.973 301.54 53.7249 301.54 54.56H303.54ZM303.734 52.9672C303.918 52.5989 304.07 52.0464 303.795 51.5073C303.507 50.9434 302.95 50.7721 302.561 50.7492C301.801 50.7045 300.968 51.1175 300.333 51.7529L301.747 53.1671C301.924 52.9904 302.097 52.8769 302.238 52.8121C302.388 52.7426 302.46 52.7468 302.443 52.7458C302.436 52.7454 302.169 52.7204 302.014 52.4171C301.872 52.1386 302.001 51.9611 301.945 52.0728L303.734 52.9672ZM300.065 52.2351C299.884 53.0196 299.74 53.6564 299.74 54.56H301.74C301.74 53.9036 301.835 53.4604 302.014 52.6849L300.065 52.2351ZM299.74 54.5353C299.673 57.2454 300.63 59.3927 302.694 60.8074C304.681 62.169 307.564 62.76 311.18 62.76V60.76C307.715 60.76 305.318 60.181 303.825 59.1576C302.409 58.1873 301.686 56.7346 301.739 54.5847L299.74 54.5353ZM311.18 62.76C319.697 62.76 330.446 60.0725 339.078 54.5629L338.002 52.8771C329.713 58.1675 319.342 60.76 311.18 60.76V62.76ZM302.06 43.74C302.961 43.74 303.773 43.5331 304.428 43.2002C305.063 42.8774 305.628 42.3939 305.913 41.7834C306.06 41.4688 306.144 41.0921 306.079 40.6924C306.012 40.2819 305.801 39.929 305.497 39.6612C304.93 39.1608 304.08 38.98 303.14 38.98V40.98C303.504 40.98 303.764 41.0172 303.938 41.0642C304.025 41.0874 304.084 41.1114 304.123 41.1305C304.161 41.1496 304.175 41.162 304.174 41.1613C304.164 41.1523 304.119 41.1012 304.105 41.0142C304.093 40.9379 304.115 40.9062 304.101 40.9366C304.064 41.0161 303.905 41.2226 303.522 41.4173C303.159 41.6019 302.658 41.74 302.06 41.74V43.74ZM302.17 39.7375C302.174 39.7214 302.125 39.8417 301.861 40.1544C301.749 40.2874 301.625 40.4243 301.489 40.5756C301.359 40.7211 301.215 40.8815 301.086 41.0389C300.958 41.1932 300.82 41.374 300.709 41.5646C300.61 41.7345 300.462 42.0295 300.461 42.3882C300.458 42.8464 300.692 43.2418 301.069 43.4759C301.371 43.6635 301.716 43.7187 301.991 43.7376L302.128 41.7424C301.969 41.7313 302.013 41.7078 302.124 41.7768C302.31 41.8923 302.462 42.1292 302.461 42.3981C302.46 42.5674 302.396 42.6421 302.438 42.5696C302.468 42.5178 302.527 42.4343 302.629 42.3111C302.728 42.191 302.844 42.0608 302.978 41.9114C303.107 41.7679 303.253 41.6057 303.389 41.4443C303.622 41.1683 303.986 40.7186 304.11 40.2225L302.17 39.7375Z" fill="white"/>
</g>
<defs>
<filter id="filter0_d" x="0.459961" y="0.459991" width="340.099" height="83.88" filterUnits="userSpaceOnUse" color-interpolation-filters="sRGB">
<feFlood flood-opacity="0" result="BackgroundImageFix"/>
<feColorMatrix in="SourceAlpha" type="matrix" values="0 0 0 0 0 0 0 0 0 0 0 0 0 0 0 0 0 0 127 0"/>
<feOffset dy="3"/>
<feGaussianBlur stdDeviation="0.5"/>
<feColorMatrix type="matrix" values="0 0 0 0 0 0 0 0 0 0 0 0 0 0 0 0 0 0 0.35 0"/>
<feBlend mode="normal" in2="BackgroundImageFix" result="effect1_dropShadow"/>
<feBlend mode="normal" in="SourceGraphic" in2="effect1_dropShadow" result="shape"/>
</filter>
</defs>
</svg>
