<svg width="344" height="82" viewBox="0 0 344 82" fill="none" xmlns="http://www.w3.org/2000/svg">
<g filter="url(#filter0_d)">
<path d="M73.175 47C73.175 47 73.8 46.4 72.725 46.4C71.45 47.4 70.05 47.975 67.825 47.975C64.225 47.975 61.275 45.625 58.925 42.225C63.925 31.275 73.25 16.875 80.775 17.025C83.425 17.075 84.425 18.625 84.8 20.175C85.675 20.75 85.55 20.025 85.55 20.025C85.1 18.225 83.825 16.375 80.775 16.275C72.9 16.275 63.525 30.55 58.45 41.475C54.225 34.875 52 24.925 51.375 19.85C51.325 19.75 51.3 19.25 50.675 19.55C44.15 33.925 35.2 44.125 27.425 44.125C22.35 44.125 21.025 41.375 21.025 38.75C21.025 37.475 21.325 36.225 21.675 35.325C21.675 35.325 21.875 34.525 20.975 35.075C20.6 36.05 20.275 37.4 20.275 38.75C20.275 41.725 21.75 44.875 27.425 44.875C35.25 44.875 44.15 35.075 50.775 21.125C52.1 29.95 57.25 48.725 67.825 48.725C70.275 48.725 71.8 48.1 73.175 47ZM74.3047 35.85C73.5297 37.825 71.7547 39.85 70.5297 39.85C70.2047 39.85 70.0297 39.625 70.0297 39.25C70.0297 37.575 73.1547 34.6 75.0797 34.6C75.3547 34.6 75.5047 34.675 75.5297 34.8C75.6047 35.3 76.2047 34.825 76.2797 34.65C76.1547 34.125 75.7797 33.85 75.0797 33.85C73.1547 33.85 69.2797 37.275 69.2797 39.25C69.2797 40.15 69.7047 40.6 70.5297 40.6C71.7047 40.6 73.2547 39.225 74.2797 37.575C74.4547 39.3 75.2797 41.65 78.6297 41.65C80.7797 41.65 84.9547 41.075 89.5297 38.025C89.5297 38.025 89.5297 37.1 89.1047 37.4C84.9047 40.375 80.6797 40.9 78.6297 40.9C74.2547 40.9 75.0547 35.95 75.0547 35.95C75.1047 35.325 74.3047 35.85 74.3047 35.85ZM106.546 38.05C106.546 38.05 106.621 37.125 106.146 37.4C102.571 39.95 98.6965 40.75 95.3465 40.75C94.6465 40.75 94.0215 40.675 93.4965 40.525C95.0215 39.675 96.1715 38.175 96.1715 35.975C96.1715 35.15 95.5215 33.95 94.2465 33.95C91.9965 33.95 90.7715 36.475 90.7715 38.225C90.7465 39.125 91.0715 39.875 91.6715 40.425C91.2215 40.525 90.7715 40.575 90.3215 40.575C89.4965 40.575 89.1715 40.075 89.1715 39.475C89.1715 38.95 89.3715 38.375 89.6715 37.875C89.6715 37.875 89.4965 36.875 89.0215 37.475C88.6715 38.075 88.4215 38.8 88.4215 39.475C88.4215 40.475 88.9465 41.325 90.3215 41.325C91.0465 41.325 91.7965 41.2 92.4965 40.975C93.2465 41.325 94.1965 41.5 95.3465 41.5C98.8215 41.5 102.696 40.55 106.546 38.05ZM95.4215 35.975C95.4215 38.1 94.1715 39.475 92.5965 40.125C91.8715 39.7 91.4965 39.025 91.5215 38.225C91.5215 36.775 92.4965 34.7 94.2465 34.7C95.0215 34.7 95.4215 35.45 95.4215 35.975ZM144.863 37.4C140.413 40.525 135.138 41.55 131.613 41.55C127.213 41.55 127.238 39.35 127.263 37.6C127.263 36.2 127.288 35.05 125.738 35.05C122.838 35.05 119.288 38.35 116.913 38.35C116.488 38.35 116.388 38.025 116.388 37.625C116.488 36.475 116.988 34.3 115.213 34.3C113.238 34.3 108.338 37.4 106.238 39.175C106.338 38.7 106.488 38.3 106.738 37.875C106.738 37.875 106.538 36.825 106.063 37.525C105.587 38.45 105.412 39.175 105.312 40.3C105.687 40.975 106.063 40.35 106.063 40.35C107.313 38.925 113.113 35.05 115.213 35.05C116.163 35.05 115.638 37.15 115.638 37.625C115.638 38.475 115.888 39.1 116.913 39.1C119.488 39.1 122.988 35.8 125.738 35.8C126.538 35.8 126.513 36.6 126.513 37.6C126.488 39.7 126.463 42.3 131.613 42.3C135.212 42.3 140.838 40.975 145.263 38.05C145.313 37.05 144.863 37.4 144.863 37.4ZM160.308 38.05C160.308 38.05 160.408 37.125 159.908 37.4C156.508 39.75 152.258 40.65 148.908 40.65C146.458 40.65 145.258 39.925 145.308 38.4C145.308 38.1 145.358 37.825 145.433 37.55C145.633 37.15 145.108 37.1 144.683 37.525C144.608 37.85 144.558 38.075 144.558 38.4C144.508 40.425 145.958 41.4 148.908 41.4C152.383 41.4 156.783 40.3 160.308 38.05ZM145.108 33.475C146.358 33.475 146.983 32.325 145.558 32.325C145.458 32.725 144.383 33.425 145.108 33.475ZM219.963 37.375C212.313 42.675 198.663 44.175 191.563 44.175C184.263 44.175 180.788 42.25 180.788 38.2C180.788 32.95 189.738 29.45 195.963 28.55C196.513 29.375 197.488 29.875 199.013 29.875C200.263 29.875 200.688 29.325 200.688 28.725C200.688 28.15 200.213 27.55 198.888 27.55C198.138 27.55 197.313 27.625 196.388 27.725C196.163 27.15 196.113 26.5 196.163 25.875C202.963 25.175 207.338 23.15 207.338 21.05C207.338 19.925 206.813 18.725 204.313 18.725C201.088 18.725 196.388 21.7 195.513 25.2C194.088 25.325 192.538 25.375 190.913 25.375C183.913 25.375 177.488 22.6 177.338 17.5C177.338 17.5 177.288 16.65 176.588 17.5C176.738 23.1 183.538 26.125 190.913 26.125C192.488 26.125 193.988 26.075 195.388 25.95C195.388 26.875 195.463 27.4 195.613 27.85C189.138 28.875 180.038 32.625 180.038 38.2C180.038 42.75 183.763 44.925 191.563 44.925C198.738 44.925 212.588 43.175 220.338 38.025C220.338 37.15 219.963 37.375 219.963 37.375ZM204.313 19.475C206.213 19.475 206.588 20.275 206.588 21.05C206.588 22.8 202.563 24.475 196.313 25.125C197.213 22.05 201.413 19.475 204.313 19.475ZM198.888 28.3C199.663 28.3 199.938 28.525 199.938 28.725C199.938 28.925 199.713 29.125 199.013 29.125C198.063 29.125 197.363 28.875 196.888 28.425C197.613 28.35 198.288 28.3 198.888 28.3ZM236.982 37.4C233.157 40.1 228.057 41.5 224.107 41.475C222.182 41.475 220.332 40.95 220.282 38.6C220.282 38.425 220.282 38.25 220.307 38.05C220.307 38.05 220.307 38.025 220.332 38.025C223.507 36.275 228.157 32.575 228.157 28.95C228.157 27.95 227.632 27.325 226.582 27.325C224.082 27.325 219.532 34.875 219.532 38.6C219.607 41.55 221.807 42.225 224.107 42.225C228.182 42.25 233.307 40.675 237.382 38.05C237.432 37.075 236.982 37.4 236.982 37.4ZM226.582 28.075C227.132 28.075 227.407 28.4 227.407 28.95C227.407 32.1 223.457 35.35 220.457 37.1C221.282 33.425 224.607 28.075 226.582 28.075ZM258.672 38.05C258.797 37.1 258.272 37.4 258.272 37.4C254.722 39.65 251.347 40.225 249.297 40.225C247.172 40.225 246.272 39.075 246.272 37.025C246.272 34.525 247.797 29.475 248.822 27.425C248.822 27.425 248.947 26.825 248.122 27.175C245.047 34 240.947 39.85 237.572 39.85C237.247 39.85 237.072 39.625 237.072 39.25C237.072 37.575 239.372 35.325 241.147 35.325C241.422 35.325 241.572 35.4 241.597 35.525C241.647 36 242.197 35.75 242.347 35.375C242.222 34.85 241.847 34.575 241.147 34.575C239.072 34.575 236.322 37.275 236.322 39.25C236.322 40.075 236.747 40.6 237.572 40.6C240.572 40.6 243.522 37.3 246.297 32.45C245.797 34.225 245.522 35.775 245.522 37.025C245.522 39.575 246.622 40.975 249.297 40.975C251.447 40.975 255.022 40.4 258.672 38.05ZM278.486 37.4C274.486 40.175 271.411 40.475 269.236 40.475C266.436 40.475 265.586 39.7 265.536 38.725C265.536 37.625 266.186 36.75 266.861 35.825C266.886 35.225 266.786 35.05 266.361 35.15C265.536 35.35 264.936 35.45 264.586 35.45C264.086 35.45 263.411 35.4 262.961 35.225C263.361 34.9 263.636 34.6 263.636 34.05C263.636 33.625 263.411 33.325 262.836 33.325C262.186 33.325 261.711 34.025 261.711 34.7C261.711 34.875 261.736 35.025 261.811 35.15C260.936 35.775 259.386 36.825 258.336 37.375C258.136 38.4 258.711 38.025 258.711 38.025C259.836 37.4 261.436 36.35 262.336 35.725C262.936 36.1 263.886 36.2 264.586 36.2C264.861 36.2 265.261 36.175 265.636 36.125C265.136 36.9 264.786 37.8 264.786 38.75C264.836 40.15 265.861 41.225 269.236 41.225C271.561 41.225 274.586 40.825 278.886 38.05C278.936 37.075 278.486 37.4 278.486 37.4ZM262.836 34.075C262.861 34.075 262.886 34.1 262.886 34.125C262.886 34.3 262.611 34.525 262.461 34.65C262.461 34.35 262.586 34.075 262.836 34.075ZM295.126 37.375C292.026 39.175 286.551 41.425 280.901 41.425C279.001 41.425 278.326 40.825 278.301 39.95C278.301 39.275 278.526 38.625 278.876 38.05C279.626 38.3 280.426 38.425 281.176 38.425C282.226 38.425 284.126 37.8 284.126 36.275C284.126 35.625 283.651 35.05 282.626 35.05C280.251 35.05 277.551 37.4 277.551 39.95C277.576 41.275 278.476 42.175 280.901 42.175C286.726 42.175 292.326 39.875 295.476 38.05C295.551 37.175 295.126 37.375 295.126 37.375ZM282.626 35.8C283.151 35.8 283.376 36.025 283.376 36.275C283.376 37.25 281.976 37.675 281.176 37.675C280.576 37.675 279.976 37.575 279.376 37.4C280.226 36.45 281.476 35.8 282.626 35.8ZM316.778 38.05C316.903 37.1 316.378 37.4 316.378 37.4C312.828 39.65 309.453 40.225 307.403 40.225C305.278 40.225 304.378 39.075 304.378 37.025C304.378 34.525 305.903 29.475 306.928 27.425C306.928 27.425 307.053 26.825 306.228 27.175C303.153 34 299.053 39.85 295.678 39.85C295.353 39.85 295.178 39.625 295.178 39.25C295.178 37.575 297.478 35.325 299.253 35.325C299.528 35.325 299.678 35.4 299.703 35.525C299.753 36 300.303 35.75 300.453 35.375C300.328 34.85 299.953 34.575 299.253 34.575C297.178 34.575 294.428 37.275 294.428 39.25C294.428 40.075 294.853 40.6 295.678 40.6C298.678 40.6 301.628 37.3 304.403 32.45C303.903 34.225 303.628 35.775 303.628 37.025C303.628 39.575 304.728 40.975 307.403 40.975C309.553 40.975 313.128 40.4 316.778 38.05Z" fill="white"/>
<path d="M73.175 47L73.7997 47.7809L73.835 47.7527L73.8675 47.7214L73.175 47ZM72.725 46.4V45.4H72.3796L72.1079 45.6131L72.725 46.4ZM58.925 42.225L58.0153 41.8096L57.7794 42.3263L58.1024 42.7936L58.925 42.225ZM80.775 17.025L80.7551 18.0248L80.7561 18.0248L80.775 17.025ZM84.8 20.175L83.828 20.4102L83.9209 20.7939L84.2508 21.0107L84.8 20.175ZM85.55 20.025L86.5355 19.8551L86.5292 19.8185L86.5201 19.7825L85.55 20.025ZM80.775 16.275L80.8078 15.2755L80.7914 15.275H80.775V16.275ZM58.45 41.475L57.6078 42.0141L58.5897 43.548L59.3569 41.8963L58.45 41.475ZM51.375 19.85L52.3675 19.7278L52.3465 19.5568L52.2694 19.4028L51.375 19.85ZM50.675 19.55L50.2423 18.6485L49.9146 18.8057L49.7644 19.1367L50.675 19.55ZM21.675 35.325L22.607 35.6874L22.6299 35.6287L22.6451 35.5675L21.675 35.325ZM20.975 35.075L20.4536 34.2217L20.1636 34.3989L20.0417 34.716L20.975 35.075ZM50.775 21.125L51.7639 20.9765L51.2774 17.7361L49.8717 20.696L50.775 21.125ZM73.175 47C73.8675 47.7214 73.8678 47.7211 73.8682 47.7208C73.8683 47.7207 73.8686 47.7204 73.8688 47.7202C73.8692 47.7198 73.8696 47.7194 73.8701 47.7189C73.871 47.7181 73.8719 47.7171 73.8729 47.7162C73.8749 47.7143 73.8771 47.7121 73.8794 47.7099C73.884 47.7053 73.8893 47.6999 73.8953 47.6939C73.9071 47.6819 73.9216 47.6667 73.938 47.6487C73.9701 47.6137 74.013 47.564 74.0585 47.5027C74.1284 47.4086 74.2952 47.17 74.3427 46.8443C74.3694 46.6611 74.3619 46.4235 74.2512 46.1784C74.139 45.9297 73.9567 45.7537 73.7681 45.6391C73.4346 45.4365 73.0432 45.4 72.725 45.4V47.4C72.8164 47.4 72.8583 47.4067 72.8651 47.408C72.8753 47.4099 72.8161 47.4009 72.7296 47.3484C72.6335 47.29 72.5089 47.1797 72.4284 47.0013C72.3495 46.8265 72.3478 46.6639 72.3636 46.5557C72.3784 46.4545 72.4096 46.3867 72.4231 46.36C72.4382 46.3302 72.4504 46.3135 72.4532 46.3098C72.4569 46.3048 72.4594 46.302 72.4615 46.2997C72.4629 46.2982 72.465 46.2959 72.4682 46.2926C72.4699 46.291 72.4718 46.289 72.4742 46.2867C72.4753 46.2855 72.4766 46.2843 72.478 46.283C72.4787 46.2823 72.4794 46.2816 72.4801 46.2809C72.4805 46.2805 72.4809 46.2801 72.4813 46.2798C72.4815 46.2796 72.4818 46.2793 72.4819 46.2792C72.4822 46.2789 72.4825 46.2786 73.175 47ZM72.1079 45.6131C71.013 46.4719 69.8314 46.975 67.825 46.975V48.975C70.2686 48.975 71.887 48.3281 73.3421 47.1869L72.1079 45.6131ZM67.825 46.975C64.7091 46.975 62.0216 44.9464 59.7476 41.6564L58.1024 42.7936C60.5284 46.3036 63.7409 48.975 67.825 48.975V46.975ZM59.8347 42.6404C62.3116 37.2158 65.8542 30.952 69.6889 26.0811C71.6071 23.6444 73.5728 21.5893 75.4874 20.1609C77.415 18.7228 79.1912 17.9936 80.7551 18.0248L80.7949 16.0252C78.5963 15.9814 76.385 16.9959 74.2915 18.5579C72.185 20.1294 70.096 22.3306 68.1174 24.8439C64.1583 29.873 60.5384 36.2842 58.0153 41.8096L59.8347 42.6404ZM80.7561 18.0248C81.8749 18.0459 82.5377 18.3752 82.9575 18.7678C83.3952 19.1772 83.6681 19.749 83.828 20.4102L85.772 19.9398C85.5569 19.051 85.1423 18.0728 84.3237 17.3072C83.4873 16.5248 82.3251 16.0541 80.7939 16.0252L80.7561 18.0248ZM84.2508 21.0107C84.5158 21.1848 84.8289 21.3479 85.1713 21.3875C85.5949 21.4366 86.0389 21.2859 86.3169 20.8969C86.5283 20.6009 86.5512 20.2875 86.5553 20.1624C86.558 20.0821 86.554 20.0134 86.5495 19.964C86.5472 19.9386 86.5446 19.9165 86.5421 19.8985C86.5409 19.8894 86.5397 19.8812 86.5385 19.874C86.538 19.8703 86.5374 19.867 86.5369 19.8638C86.5367 19.8622 86.5364 19.8607 86.5362 19.8593C86.5361 19.8585 86.5359 19.8578 86.5358 19.8571C86.5358 19.8568 86.5357 19.8563 86.5356 19.8561C86.5355 19.8556 86.5355 19.8551 85.55 20.025C84.5645 20.1949 84.5645 20.1944 84.5644 20.1939C84.5643 20.1938 84.5643 20.1933 84.5642 20.1929C84.5641 20.1923 84.564 20.1916 84.5639 20.191C84.5637 20.1897 84.5635 20.1885 84.5633 20.1872C84.5629 20.1848 84.5625 20.1824 84.5621 20.1802C84.5614 20.1757 84.5608 20.1715 84.5603 20.1675C84.5592 20.1598 84.5584 20.1527 84.5578 20.146C84.5567 20.134 84.5557 20.1175 84.5564 20.0962C84.5571 20.0767 84.5596 20.0364 84.573 19.9826C84.586 19.9302 84.6163 19.8367 84.6894 19.7344C84.7686 19.6235 84.8878 19.5179 85.0449 19.454C85.1962 19.3924 85.3267 19.3921 85.4014 19.4008C85.4716 19.4089 85.5031 19.4257 85.4849 19.4178C85.4688 19.4107 85.425 19.3891 85.3492 19.3393L84.2508 21.0107ZM86.5201 19.7825C86.2627 18.7525 85.7544 17.6465 84.8168 16.7786C83.8642 15.8969 82.5447 15.3325 80.8078 15.2755L80.7422 17.2745C82.0553 17.3175 82.8983 17.7281 83.4582 18.2464C84.0332 18.7785 84.3874 19.4975 84.5799 20.2675L86.5201 19.7825ZM80.775 15.275C78.5086 15.275 76.2399 16.2968 74.0882 17.8687C71.9266 19.4478 69.7956 21.6456 67.7828 24.152C63.756 29.1664 60.1038 35.5411 57.5431 41.0537L59.3569 41.8963C61.8712 36.4839 65.444 30.2586 69.3422 25.4043C71.292 22.9763 73.2984 20.9225 75.268 19.4837C77.2476 18.0375 79.1039 17.275 80.775 17.275V15.275ZM59.2922 40.9359C55.186 34.5214 52.9855 24.7456 52.3675 19.7278L50.3825 19.9722C51.0145 25.1044 53.264 35.2286 57.6078 42.0141L59.2922 40.9359ZM52.2694 19.4028C52.3105 19.4849 52.3285 19.5578 52.3153 19.5129C52.3124 19.5033 52.2972 19.4496 52.2791 19.3966C52.2441 19.2936 52.1631 19.0788 51.9816 18.8785C51.774 18.6494 51.4747 18.4837 51.1095 18.4586C50.7828 18.4362 50.4853 18.5318 50.2423 18.6485L51.1077 20.4515C51.1772 20.4182 51.1172 20.4638 50.9725 20.4539C50.8941 20.4485 50.8032 20.4273 50.7113 20.3814C50.6203 20.336 50.5503 20.2774 50.4996 20.2215C50.4509 20.1678 50.4224 20.1192 50.4074 20.09C50.3925 20.0611 50.386 20.0416 50.3857 20.0409C50.3854 20.04 50.386 20.0416 50.3879 20.0479C50.3909 20.058 50.3914 20.0598 50.3971 20.0793C50.4009 20.092 50.4088 20.1188 50.4188 20.1482C50.4276 20.1742 50.4476 20.2313 50.4806 20.2972L52.2694 19.4028ZM49.7644 19.1367C46.5319 26.258 42.7169 32.3024 38.785 36.5487C34.8221 40.8285 30.89 43.125 27.425 43.125V45.125C31.735 45.125 36.1654 42.3215 40.2525 37.9075C44.3706 33.4601 48.2931 27.217 51.5856 19.9633L49.7644 19.1367ZM27.425 43.125C25.0639 43.125 23.7654 42.4888 23.0466 41.7328C22.3177 40.9662 22.025 39.9089 22.025 38.75H20.025C20.025 40.2161 20.3948 41.8463 21.5972 43.1109C22.8096 44.3862 24.7111 45.125 27.425 45.125V43.125ZM22.025 38.75C22.025 37.6186 22.2943 36.4917 22.607 35.6874L20.743 34.9626C20.3557 35.9583 20.025 37.3314 20.025 38.75H22.025ZM21.675 35.325C22.6451 35.5675 22.6452 35.5671 22.6454 35.5667C22.6454 35.5665 22.6455 35.5661 22.6456 35.5658C22.6457 35.5652 22.6459 35.5646 22.646 35.5639C22.6463 35.5627 22.6467 35.5614 22.647 35.56C22.6477 35.5572 22.6484 35.5542 22.6491 35.551C22.6507 35.5445 22.6524 35.537 22.6542 35.5287C22.6578 35.512 22.662 35.4913 22.6663 35.4673C22.6746 35.4205 22.6843 35.3554 22.6897 35.279C22.698 35.162 22.7098 34.8672 22.5654 34.5638C22.4839 34.3927 22.3442 34.2025 22.1197 34.063C21.8944 33.923 21.6537 33.8777 21.4423 33.8823C21.0648 33.8905 20.7224 34.0574 20.4536 34.2217L21.4964 35.9283C21.5728 35.8816 21.612 35.8652 21.6198 35.8622C21.6305 35.8581 21.5802 35.8797 21.4858 35.8818C21.3822 35.884 21.2251 35.8618 21.0643 35.7618C20.9042 35.6624 20.8099 35.5292 20.7596 35.4237C20.713 35.3257 20.7007 35.2459 20.6968 35.2105C20.6926 35.1719 20.6941 35.1465 20.6947 35.1382C20.6954 35.1282 20.6964 35.1213 20.6974 35.1161C20.6979 35.1129 20.6987 35.1089 20.6999 35.1036C20.7004 35.101 20.7011 35.0979 20.7019 35.0945C20.7024 35.0927 20.7028 35.0908 20.7033 35.0888C20.7035 35.0879 20.7038 35.0868 20.704 35.0858C20.7042 35.0852 20.7043 35.0847 20.7044 35.0841C20.7045 35.0839 20.7046 35.0834 20.7046 35.0833C20.7048 35.0829 20.7049 35.0825 21.675 35.325ZM20.0417 34.716C19.6316 35.7822 19.275 37.2545 19.275 38.75H21.275C21.275 37.5455 21.5684 36.3178 21.9083 35.434L20.0417 34.716ZM19.275 38.75C19.275 40.3866 19.6799 42.2008 20.9896 43.6091C22.3129 45.0322 24.4043 45.875 27.425 45.875V43.875C24.7707 43.875 23.2871 43.1428 22.4542 42.2471C21.6076 41.3367 21.275 40.0884 21.275 38.75H19.275ZM27.425 45.875C31.744 45.875 36.1708 43.1896 40.2709 38.9243C44.3978 34.631 48.3347 28.5944 51.6783 21.554L49.8717 20.696C46.5903 27.6055 42.7647 33.444 38.8291 37.5382C34.8667 41.6604 30.931 43.875 27.425 43.875V45.875ZM49.7861 21.2735C50.4575 25.7456 52.0973 32.7502 54.9293 38.6662C56.3451 41.6237 58.0846 44.3642 60.1959 46.3773C62.3176 48.4003 64.8574 49.725 67.825 49.725V47.725C65.5051 47.725 63.4355 46.7028 61.576 44.9298C59.706 43.1467 58.0924 40.6419 56.7332 37.8026C54.0152 32.1248 52.4175 25.3294 51.7639 20.9765L49.7861 21.2735ZM67.825 49.725C70.4906 49.725 72.2387 49.0297 73.7997 47.7809L72.5503 46.2191C71.3614 47.1703 70.0594 47.725 67.825 47.725V49.725ZM74.3047 35.85L73.756 35.014L73.49 35.1885L73.3738 35.4847L74.3047 35.85ZM75.5297 34.8L76.5186 34.6517L76.515 34.6277L76.5103 34.6039L75.5297 34.8ZM76.2797 34.65L77.1988 35.0439L77.3291 34.74L77.2525 34.4184L76.2797 34.65ZM74.2797 37.575L75.2746 37.4741L74.9785 34.5551L73.4302 37.0473L74.2797 37.575ZM89.5297 38.025L90.0844 38.8571L90.5297 38.5602V38.025H89.5297ZM89.1047 37.4L88.528 36.583L88.5267 36.584L89.1047 37.4ZM75.0547 35.95L76.0419 36.1095L76.0483 36.0698L76.0515 36.0297L75.0547 35.95ZM73.3738 35.4847C73.033 36.3532 72.463 37.2481 71.8504 37.9131C71.5452 38.2445 71.2509 38.4952 70.9948 38.6563C70.7265 38.8251 70.5735 38.85 70.5297 38.85V40.85C71.0984 40.85 71.6266 40.6217 72.0599 40.3491C72.5053 40.0689 72.933 39.6899 73.3214 39.2681C74.0964 38.4269 74.8014 37.3218 75.2356 36.2153L73.3738 35.4847ZM70.5297 38.85C70.564 38.85 70.6307 38.8561 70.7125 38.8916C70.7975 38.9285 70.8737 38.9864 70.9318 39.0574C71.0426 39.1928 71.0297 39.2982 71.0297 39.25H69.0297C69.0297 39.5768 69.1043 39.9822 69.3839 40.3239C69.688 40.6956 70.1178 40.85 70.5297 40.85V38.85ZM71.0297 39.25C71.0297 39.1081 71.111 38.8007 71.3949 38.3486C71.6635 37.9209 72.0546 37.4575 72.5149 37.0282C72.9747 36.5993 73.4777 36.2285 73.9545 35.9705C74.4472 35.7038 74.8331 35.6 75.0797 35.6V33.6C74.3637 33.6 73.6372 33.8681 73.0025 34.2116C72.352 34.5636 71.7128 35.0413 71.1507 35.5656C70.5892 36.0894 70.0787 36.6838 69.7012 37.285C69.339 37.8618 69.0297 38.5544 69.0297 39.25H71.0297ZM75.0797 35.6C75.145 35.6 75.0899 35.6117 74.9818 35.5622C74.9211 35.5344 74.8287 35.4801 74.7401 35.3804C74.6469 35.2755 74.5785 35.1429 74.5491 34.9961L76.5103 34.6039C76.419 34.1476 76.099 33.8742 75.8151 33.7441C75.557 33.6258 75.2894 33.6 75.0797 33.6V35.6ZM74.5408 34.9483C74.5916 35.2872 74.796 35.7724 75.3468 35.9591C75.7837 36.1073 76.1655 35.9593 76.3248 35.8856C76.5214 35.7946 76.6883 35.671 76.8113 35.56C76.9056 35.4749 77.0919 35.2934 77.1988 35.0439L75.3605 34.2561C75.4048 34.1529 75.454 34.0952 75.4577 34.0908C75.47 34.0759 75.4753 34.0717 75.4715 34.0751C75.4586 34.0868 75.4568 34.0835 75.4846 34.0707C75.5 34.0635 75.5468 34.0432 75.6205 34.0312C75.6938 34.0194 75.8285 34.0106 75.9891 34.0651C76.1645 34.1245 76.309 34.239 76.4044 34.3778C76.4906 34.5031 76.5127 34.6123 76.5186 34.6517L74.5408 34.9483ZM77.2525 34.4184C77.1441 33.9632 76.8999 33.5281 76.4591 33.2272C76.0395 32.9408 75.5493 32.85 75.0797 32.85V34.85C75.3101 34.85 75.3574 34.8967 75.3316 34.8791C75.3169 34.8691 75.3031 34.8543 75.2953 34.8421C75.2892 34.8325 75.2971 34.8406 75.3069 34.8816L77.2525 34.4184ZM75.0797 32.85C74.3445 32.85 73.5616 33.1611 72.876 33.5417C72.1633 33.9373 71.4361 34.4757 70.7839 35.0706C70.1326 35.6647 69.5286 36.3403 69.0794 37.024C68.6478 37.681 68.2797 38.4652 68.2797 39.25H70.2797C70.2797 39.0473 70.3959 38.6627 70.751 38.1221C71.0886 37.6082 71.5737 37.0572 72.1317 36.5482C72.6889 36.04 73.2914 35.5986 73.8467 35.2903C74.429 34.9671 74.8524 34.85 75.0797 34.85V32.85ZM68.2797 39.25C68.2797 39.8405 68.418 40.4653 68.8632 40.9437C69.3208 41.4354 69.9399 41.6 70.5297 41.6V39.6C70.4118 39.6 70.3497 39.5837 70.3258 39.575C70.3071 39.5683 70.315 39.568 70.3274 39.5813C70.3539 39.6097 70.2797 39.5595 70.2797 39.25H68.2797ZM70.5297 41.6C71.4682 41.6 72.3761 41.0764 73.0997 40.4757C73.8558 39.848 74.5678 39.0063 75.1291 38.1027L73.4302 37.0473C72.9666 37.7937 72.3911 38.4645 71.8222 38.9368C71.2208 39.4361 70.7662 39.6 70.5297 39.6V41.6ZM73.2848 37.6759C73.3812 38.6266 73.6645 39.8677 74.4853 40.8867C75.3443 41.9531 76.6895 42.65 78.6297 42.65V40.65C77.2199 40.65 76.4776 40.1719 76.0429 39.6321C75.5698 39.0448 75.3531 38.2484 75.2746 37.4741L73.2848 37.6759ZM78.6297 42.65C80.9449 42.65 85.3202 42.0331 90.0844 38.8571L88.975 37.1929C84.5891 40.1169 80.6144 40.65 78.6297 40.65V42.65ZM89.5297 38.025C90.5297 38.025 90.5297 38.0248 90.5297 38.0245C90.5297 38.0245 90.5297 38.0242 90.5297 38.0241C90.5297 38.0237 90.5297 38.0234 90.5297 38.023C90.5297 38.0223 90.5297 38.0215 90.5297 38.0207C90.5297 38.019 90.5297 38.0171 90.5296 38.0149C90.5296 38.0106 90.5296 38.0053 90.5295 37.9992C90.5293 37.987 90.5289 37.9711 90.5283 37.9523C90.527 37.9148 90.5246 37.8639 90.5198 37.8045C90.5109 37.6942 90.4911 37.5183 90.441 37.3356C90.4058 37.2073 90.2951 36.8279 89.9479 36.5692C89.7362 36.4115 89.4618 36.319 89.1612 36.3442C88.8867 36.3673 88.6719 36.4814 88.528 36.583L89.6814 38.217C89.6437 38.2436 89.5219 38.321 89.3287 38.3372C89.2289 38.3456 89.1221 38.3363 89.0156 38.3045C88.91 38.2729 88.8222 38.2246 88.7529 38.173C88.6852 38.1225 88.6373 38.0706 88.6053 38.0298C88.5733 37.9892 88.5527 37.954 88.5404 37.9305C88.5279 37.9067 88.5207 37.8887 88.5172 37.8792C88.5153 37.8742 88.514 37.8704 88.5133 37.8681C88.5125 37.8657 88.5122 37.8645 88.5122 37.8644C88.5121 37.8644 88.5124 37.8652 88.5128 37.8669C88.5132 37.8686 88.5137 37.8711 88.5144 37.8742C88.5157 37.8807 88.5172 37.889 88.5187 37.8991C88.5219 37.9198 88.5244 37.9429 88.5263 37.9658C88.5281 37.9884 88.529 38.0074 88.5294 38.0194C88.5296 38.0253 88.5297 38.029 88.5297 38.0302C88.5297 38.0307 88.5297 38.0306 88.5297 38.0298C88.5297 38.0294 88.5297 38.0288 88.5297 38.028C88.5297 38.0276 88.5297 38.0271 88.5297 38.0266C88.5297 38.0264 88.5297 38.0261 88.5297 38.0259C88.5297 38.0257 88.5297 38.0255 88.5297 38.0254C88.5297 38.0252 88.5297 38.025 89.5297 38.025ZM88.5267 36.584C84.5393 39.4083 80.5335 39.9 78.6297 39.9V41.9C80.8259 41.9 85.2701 41.3417 89.6827 38.216L88.5267 36.584ZM78.6297 39.9C77.7365 39.9 77.2087 39.6529 76.877 39.368C76.5309 39.0707 76.303 38.6493 76.1645 38.1551C76.0256 37.6599 75.9921 37.1445 75.9979 36.7377C76.0008 36.5379 76.013 36.3728 76.024 36.2607C76.0295 36.2048 76.0347 36.1627 76.0382 36.1366C76.0399 36.1236 76.0412 36.1146 76.0418 36.11C76.0422 36.1077 76.0424 36.1065 76.0424 36.1064C76.0424 36.1063 76.0424 36.1066 76.0423 36.1071C76.0422 36.1074 76.0422 36.1077 76.0421 36.1081C76.0421 36.1083 76.042 36.1087 76.042 36.1088C76.0419 36.1091 76.0419 36.1095 75.0547 35.95C74.0675 35.7905 74.0674 35.7909 74.0674 35.7913C74.0673 35.7915 74.0672 35.792 74.0672 35.7923C74.0671 35.7931 74.067 35.7938 74.0668 35.7947C74.0665 35.7964 74.0662 35.7985 74.0659 35.8008C74.0651 35.8055 74.0643 35.8114 74.0632 35.8184C74.0611 35.8325 74.0585 35.8513 74.0554 35.8746C74.0493 35.921 74.0415 35.9852 74.0337 36.0647C74.0181 36.2233 74.0019 36.4449 73.9981 36.7091C73.9907 37.2305 74.0306 37.9526 74.2387 38.6949C74.447 39.4382 74.8395 40.2543 75.5738 40.8851C76.3226 41.5283 77.3353 41.9 78.6297 41.9V39.9ZM76.0515 36.0297C76.0774 35.7064 76.0154 35.1214 75.4531 34.8015C75.0175 34.5537 74.5771 34.662 74.434 34.7012C74.2344 34.7559 74.0616 34.8405 73.9595 34.8947C73.9036 34.9245 73.8566 34.9518 73.8225 34.9724C73.8053 34.9828 73.7908 34.9917 73.7797 34.9987C73.7741 35.0023 73.7693 35.0053 73.7654 35.0079C73.7634 35.0092 73.7616 35.0103 73.7601 35.0113C73.7593 35.0118 73.7586 35.0123 73.7579 35.0127C73.7575 35.013 73.7572 35.0132 73.7569 35.0134C73.7568 35.0135 73.7565 35.0136 73.7565 35.0137C73.7562 35.0138 73.756 35.014 74.3047 35.85C74.8533 36.686 74.8531 36.6862 74.8529 36.6863C74.8529 36.6864 74.8527 36.6865 74.8525 36.6866C74.8523 36.6868 74.852 36.6869 74.8518 36.6871C74.8513 36.6874 74.8509 36.6877 74.8505 36.6879C74.8497 36.6884 74.8491 36.6888 74.8486 36.6891C74.8477 36.6897 74.8474 36.6899 74.8476 36.6898C74.8482 36.6894 74.8509 36.6877 74.8554 36.685C74.8648 36.6793 74.88 36.6705 74.8983 36.6607C74.917 36.6508 74.9349 36.6421 74.9502 36.6355C74.9666 36.6285 74.9707 36.6279 74.9629 36.63C74.9587 36.6312 74.9156 36.6433 74.8449 36.6437C74.7752 36.6441 74.628 36.6331 74.4641 36.5399C74.3802 36.4921 74.302 36.4282 74.2361 36.3492C74.1709 36.271 74.1279 36.1903 74.1008 36.1182C74.0494 35.9814 74.0569 35.8824 74.0579 35.8703L76.0515 36.0297ZM106.546 38.05L107.091 38.8887L107.503 38.6209L107.543 38.1308L106.546 38.05ZM106.146 37.4L105.645 36.5346L105.604 36.5583L105.566 36.5859L106.146 37.4ZM93.4965 40.525L93.0096 39.6515L90.905 40.8246L93.2218 41.4865L93.4965 40.525ZM90.7715 38.225L91.7711 38.2528L91.7715 38.2389V38.225H90.7715ZM91.6715 40.425L91.8884 41.4012L93.7621 40.9848L92.3472 39.6878L91.6715 40.425ZM89.6715 37.875L90.529 38.3895L90.7208 38.0698L90.6565 37.7026L89.6715 37.875ZM89.0215 37.475L88.2374 36.8543L88.1934 36.9099L88.1577 36.9711L89.0215 37.475ZM92.4965 40.975L92.9194 40.0688L92.5639 39.9029L92.1905 40.023L92.4965 40.975ZM92.5965 40.125L92.0908 40.9877L92.5191 41.2388L92.978 41.0494L92.5965 40.125ZM91.5215 38.225L92.521 38.2562L92.5215 38.2406V38.225H91.5215ZM106.546 38.05C107.543 38.1308 107.543 38.1306 107.543 38.1303C107.543 38.1302 107.543 38.13 107.543 38.1298C107.543 38.1295 107.543 38.1291 107.543 38.1287C107.543 38.128 107.544 38.1272 107.544 38.1263C107.544 38.1245 107.544 38.1225 107.544 38.1203C107.544 38.1159 107.545 38.1104 107.545 38.1041C107.546 38.0916 107.547 38.0754 107.548 38.0561C107.549 38.0179 107.551 37.9659 107.551 37.905C107.55 37.7926 107.543 37.611 107.504 37.4198C107.475 37.2813 107.384 36.8863 107.036 36.6062C106.828 36.4392 106.563 36.3425 106.276 36.3493C106.013 36.3555 105.797 36.4466 105.645 36.5346L106.648 38.2654C106.614 38.2846 106.5 38.3445 106.324 38.3487C106.232 38.3509 106.133 38.3376 106.034 38.3032C105.934 38.269 105.85 38.2193 105.783 38.1649C105.654 38.061 105.595 37.9498 105.574 37.9035C105.561 37.8767 105.554 37.8561 105.551 37.8444C105.547 37.8324 105.546 37.8253 105.545 37.824C105.545 37.8226 105.547 37.8315 105.548 37.8517C105.55 37.8708 105.551 37.8925 105.551 37.9145C105.551 37.9361 105.55 37.9542 105.55 37.9655C105.55 37.971 105.549 37.9744 105.549 37.9752C105.549 37.9756 105.549 37.9754 105.549 37.9744C105.549 37.9739 105.549 37.9732 105.55 37.9724C105.55 37.9719 105.55 37.9715 105.55 37.9709C105.55 37.9707 105.55 37.9704 105.55 37.9701C105.55 37.9699 105.55 37.9697 105.55 37.9696C105.55 37.9694 105.55 37.9692 106.546 38.05ZM105.566 36.5859C102.197 38.9887 98.5387 39.75 95.3465 39.75V41.75C98.8543 41.75 102.946 40.9113 106.727 38.2141L105.566 36.5859ZM95.3465 39.75C94.7128 39.75 94.1845 39.6816 93.7712 39.5635L93.2218 41.4865C93.8585 41.6684 94.5802 41.75 95.3465 41.75V39.75ZM93.9833 41.3985C95.7798 40.3972 97.1715 38.5867 97.1715 35.975H95.1715C95.1715 37.7633 94.2631 38.9528 93.0096 39.6515L93.9833 41.3985ZM97.1715 35.975C97.1715 35.3313 96.9291 34.6059 96.4686 34.0292C95.988 33.4273 95.2346 32.95 94.2465 32.95V34.95C94.5333 34.95 94.7425 35.0727 94.9057 35.2771C95.0889 35.5066 95.1715 35.7937 95.1715 35.975H97.1715ZM94.2465 32.95C92.6995 32.95 91.5564 33.8299 90.8426 34.8627C90.1387 35.8811 89.7715 37.1485 89.7715 38.225H91.7715C91.7715 37.5515 92.0168 36.6814 92.4879 35.9998C92.949 35.3326 93.5435 34.95 94.2465 34.95V32.95ZM89.7719 38.1972C89.7391 39.3768 90.1745 40.4094 90.9958 41.1622L92.3472 39.6878C91.9684 39.3406 91.7539 38.8732 91.7711 38.2528L89.7719 38.1972ZM91.4546 39.4488C91.074 39.5334 90.6968 39.575 90.3215 39.575V41.575C90.8462 41.575 91.3689 41.5166 91.8884 41.4012L91.4546 39.4488ZM90.3215 39.575C90.2153 39.575 90.165 39.5589 90.1522 39.554C90.143 39.5504 90.1558 39.5542 90.1724 39.5722C90.2064 39.6091 90.1715 39.6053 90.1715 39.475H88.1715C88.1715 39.9447 88.2991 40.4909 88.7019 40.9278C89.1189 41.3802 89.7007 41.575 90.3215 41.575V39.575ZM90.1715 39.475C90.1715 39.1839 90.2908 38.7865 90.529 38.3895L88.814 37.3605C88.4522 37.9635 88.1715 38.7161 88.1715 39.475H90.1715ZM89.6715 37.875C90.6565 37.7026 90.6565 37.7023 90.6564 37.7021C90.6564 37.702 90.6564 37.7017 90.6563 37.7015C90.6562 37.7011 90.6562 37.7007 90.6561 37.7003C90.6559 37.6994 90.6558 37.6985 90.6556 37.6975C90.6552 37.6955 90.6548 37.6933 90.6544 37.6908C90.6535 37.6858 90.6523 37.6797 90.651 37.6728C90.6483 37.6589 90.6446 37.641 90.64 37.6199C90.6309 37.5782 90.6175 37.5216 90.5991 37.4563C90.5662 37.3398 90.5017 37.1384 90.3861 36.9423C90.2994 36.795 90.0129 36.3557 89.4354 36.2907C88.8189 36.2212 88.4159 36.6289 88.2374 36.8543L89.8055 38.0957C89.8194 38.0781 89.7872 38.1254 89.6994 38.1779C89.6524 38.2061 89.5855 38.2381 89.4996 38.2595C89.4119 38.2813 89.314 38.2896 89.2115 38.2781C89.0011 38.2544 88.8549 38.1583 88.777 38.0901C88.7041 38.0262 88.6703 37.9699 88.6631 37.9577C88.6535 37.9415 88.6532 37.9376 88.6585 37.9513C88.6632 37.9634 88.6688 37.9801 88.6744 37.9999C88.6798 38.0191 88.6837 38.0358 88.686 38.0465C88.6872 38.0516 88.6878 38.0546 88.6878 38.0551C88.6879 38.0553 88.6878 38.0548 88.6876 38.0535C88.6874 38.0529 88.6873 38.0521 88.6871 38.0511C88.687 38.0506 88.6869 38.05 88.6868 38.0494C88.6868 38.0491 88.6867 38.0488 88.6866 38.0484C88.6866 38.0483 88.6866 38.048 88.6865 38.0479C88.6865 38.0476 88.6865 38.0474 89.6715 37.875ZM88.1577 36.9711C87.747 37.6751 87.4215 38.5738 87.4215 39.475H89.4215C89.4215 39.0262 89.5959 38.4749 89.8853 37.9789L88.1577 36.9711ZM87.4215 39.475C87.4215 40.137 87.5949 40.8676 88.1119 41.4432C88.6464 42.0384 89.4193 42.325 90.3215 42.325V40.325C89.8486 40.325 89.6715 40.1866 89.5998 40.1068C89.5105 40.0074 89.4215 39.813 89.4215 39.475H87.4215ZM90.3215 42.325C91.1576 42.325 92.0108 42.1815 92.8025 41.927L92.1905 40.023C91.5822 40.2185 90.9353 40.325 90.3215 40.325V42.325ZM92.0736 41.8812C92.9971 42.3121 94.1037 42.5 95.3465 42.5V40.5C94.2892 40.5 93.4959 40.3379 92.9194 40.0688L92.0736 41.8812ZM95.3465 42.5C99.0092 42.5 103.074 41.497 107.091 38.8887L106.002 37.2113C102.319 39.603 98.6337 40.5 95.3465 40.5V42.5ZM94.4215 35.975C94.4215 37.6241 93.4859 38.6761 92.215 39.2006L92.978 41.0494C94.8571 40.2739 96.4215 38.5759 96.4215 35.975H94.4215ZM93.1022 39.2623C92.682 39.016 92.5078 38.6777 92.521 38.2562L90.522 38.1938C90.4851 39.3723 91.061 40.384 92.0908 40.9877L93.1022 39.2623ZM92.5215 38.225C92.5215 37.6928 92.7094 37.0038 93.0621 36.47C93.4095 35.9441 93.8172 35.7 94.2465 35.7V33.7C92.9258 33.7 91.9709 34.4934 91.3934 35.3675C90.8211 36.2337 90.5215 37.3072 90.5215 38.225H92.5215ZM94.2465 35.7C94.2729 35.7 94.2812 35.705 94.2846 35.7068C94.2919 35.7107 94.3107 35.723 94.3353 35.7546C94.3605 35.7871 94.3845 35.8308 94.4013 35.8797C94.4187 35.9302 94.4215 35.9656 94.4215 35.975H96.4215C96.4215 35.4888 96.2465 34.9543 95.914 34.5267C95.5628 34.0751 94.9956 33.7 94.2465 33.7V35.7ZM144.863 37.4L145.437 38.2184L145.457 38.2043L145.476 38.1894L144.863 37.4ZM127.263 37.6L128.262 37.6143L128.263 37.6071V37.6H127.263ZM116.388 37.625L115.391 37.5384L115.388 37.5816V37.625H116.388ZM106.238 39.175L105.259 38.969L104.659 41.8185L106.883 39.9387L106.238 39.175ZM106.738 37.875L107.599 38.382L107.79 38.0576L107.72 37.6879L106.738 37.875ZM106.063 37.525L105.235 36.9635L105.201 37.014L105.173 37.0682L106.063 37.525ZM105.312 40.3L104.316 40.2115L104.289 40.5173L104.438 40.7856L105.312 40.3ZM106.063 40.35L105.311 39.6906L105.251 39.7583L105.205 39.8355L106.063 40.35ZM126.513 37.6L127.513 37.6119V37.6H126.513ZM145.263 38.05L145.814 38.8842L146.236 38.6052L146.261 38.0999L145.263 38.05ZM144.288 36.5816C140.043 39.5628 134.981 40.55 131.613 40.55V42.55C135.294 42.55 140.782 41.4872 145.437 38.2184L144.288 36.5816ZM131.613 40.55C129.544 40.55 128.86 40.0317 128.596 39.656C128.274 39.1978 128.249 38.5594 128.262 37.6143L126.263 37.5857C126.251 38.3906 126.201 39.7272 126.96 40.8065C127.777 41.9683 129.281 42.55 131.613 42.55V40.55ZM128.263 37.6C128.263 37.2638 128.265 36.888 128.24 36.5393C128.215 36.1921 128.159 35.7969 128.008 35.4243C127.848 35.0308 127.579 34.6556 127.145 34.3946C126.727 34.1429 126.242 34.05 125.738 34.05V36.05C126.008 36.05 126.102 36.1009 126.114 36.1085C126.12 36.1119 126.121 36.1132 126.123 36.1156C126.126 36.1197 126.138 36.1361 126.155 36.1757C126.191 36.2655 126.226 36.4204 126.245 36.6825C126.263 36.9433 126.263 37.2362 126.263 37.6H128.263ZM125.738 34.05C124.833 34.05 123.933 34.3051 123.1 34.6364C122.263 34.969 121.428 35.4066 120.658 35.8176C119.867 36.2394 119.153 36.6278 118.487 36.9172C117.812 37.2106 117.297 37.35 116.913 37.35V39.35C117.715 39.35 118.535 39.0769 119.284 38.7516C120.042 38.4222 120.843 37.9856 121.599 37.5824C122.375 37.1684 123.119 36.781 123.839 36.4948C124.561 36.2074 125.192 36.05 125.738 36.05V34.05ZM116.913 37.35C116.934 37.35 117.016 37.3545 117.12 37.4098C117.23 37.4679 117.306 37.5516 117.35 37.626C117.389 37.6912 117.395 37.7344 117.393 37.7254C117.392 37.7177 117.388 37.6872 117.388 37.625H115.388C115.388 37.868 115.41 38.2771 115.631 38.649C115.912 39.1201 116.393 39.35 116.913 39.35V37.35ZM117.384 37.7116C117.395 37.5856 117.411 37.4419 117.432 37.2678C117.451 37.0994 117.474 36.9081 117.492 36.7108C117.527 36.3236 117.551 35.8598 117.496 35.4094C117.441 34.9671 117.297 34.4247 116.9 33.9861C116.471 33.5135 115.877 33.3 115.213 33.3V35.3C115.333 35.3 115.391 35.3184 115.409 35.3256C115.418 35.3292 115.421 35.3313 115.42 35.3306C115.418 35.3298 115.418 35.329 115.418 35.3295C115.423 35.3347 115.48 35.4079 115.511 35.6531C115.54 35.8902 115.531 36.1858 115.5 36.5299C115.485 36.6982 115.465 36.8654 115.445 37.0361C115.426 37.2011 115.405 37.3769 115.391 37.5384L117.384 37.7116ZM115.213 33.3C114.512 33.3 113.682 33.5605 112.89 33.888C112.067 34.2283 111.163 34.6934 110.274 35.2049C108.498 36.2252 106.697 37.4774 105.592 38.4113L106.883 39.9387C107.878 39.0976 109.577 37.9123 111.27 36.9389C112.115 36.4534 112.938 36.0326 113.654 35.7362C114.402 35.427 114.926 35.3 115.213 35.3V33.3ZM107.216 39.381C107.295 39.0061 107.407 38.7086 107.599 38.382L105.876 37.368C105.568 37.8914 105.38 38.3939 105.259 38.969L107.216 39.381ZM106.738 37.875C107.72 37.6879 107.72 37.6876 107.72 37.6873C107.72 37.6872 107.72 37.687 107.72 37.6868C107.72 37.6864 107.719 37.686 107.719 37.6855C107.719 37.6847 107.719 37.6837 107.719 37.6828C107.718 37.6808 107.718 37.6785 107.718 37.676C107.716 37.6709 107.715 37.6648 107.714 37.6576C107.711 37.6434 107.707 37.6251 107.702 37.6035C107.692 37.5607 107.677 37.5023 107.657 37.4353C107.622 37.3171 107.551 37.1076 107.426 36.9075C107.334 36.7606 107.005 36.2844 106.368 36.2844C105.75 36.2844 105.387 36.7389 105.235 36.9635L106.89 38.0865C106.913 38.0527 106.896 38.0878 106.829 38.1384C106.755 38.194 106.596 38.2844 106.368 38.2844C106.259 38.2844 106.157 38.2628 106.068 38.2284C105.982 38.1949 105.915 38.1522 105.868 38.1154C105.78 38.0465 105.739 37.9815 105.73 37.9675C105.718 37.9486 105.717 37.9429 105.723 37.9572C105.728 37.9696 105.734 37.9872 105.741 38.0084C105.747 38.029 105.751 38.0471 105.754 38.059C105.756 38.0647 105.756 38.0683 105.757 38.0691C105.757 38.0695 105.757 38.0692 105.756 38.0681C105.756 38.0675 105.756 38.0667 105.756 38.0657C105.756 38.0652 105.756 38.0647 105.756 38.0641C105.755 38.0638 105.755 38.0635 105.755 38.0631C105.755 38.063 105.755 38.0627 105.755 38.0626C105.755 38.0624 105.755 38.0621 106.738 37.875ZM105.173 37.0682C104.626 38.1342 104.425 38.9912 104.316 40.2115L106.309 40.3885C106.4 39.3588 106.549 38.7658 106.952 37.9818L105.173 37.0682ZM104.438 40.7856C104.587 41.0538 104.825 41.3592 105.206 41.5167C105.629 41.6916 106.022 41.6022 106.283 41.4686C106.519 41.348 106.678 41.1813 106.759 41.0864C106.804 41.0328 106.84 40.9842 106.866 40.9471C106.879 40.9283 106.89 40.9116 106.899 40.8978C106.904 40.8909 106.908 40.8846 106.911 40.879C106.913 40.8762 106.914 40.8736 106.916 40.8712C106.917 40.87 106.917 40.8688 106.918 40.8677C106.918 40.8672 106.919 40.8666 106.919 40.8661C106.919 40.8658 106.919 40.8654 106.92 40.8653C106.92 40.8649 106.92 40.8645 106.063 40.35C105.205 39.8355 105.205 39.8351 105.205 39.8347C105.206 39.8346 105.206 39.8342 105.206 39.834C105.206 39.8335 105.207 39.833 105.207 39.8325C105.207 39.8315 105.208 39.8306 105.209 39.8297C105.21 39.8279 105.211 39.8262 105.212 39.8245C105.214 39.8213 105.216 39.8184 105.217 39.8159C105.22 39.8109 105.223 39.807 105.225 39.804C105.229 39.7984 105.233 39.7934 105.237 39.7878C105.242 39.7829 105.252 39.7715 105.269 39.7565C105.286 39.7422 105.32 39.7149 105.373 39.6877C105.427 39.66 105.513 39.6267 105.624 39.6166C105.741 39.6059 105.861 39.6235 105.97 39.6684C106.175 39.7533 106.225 39.8837 106.187 39.8144L104.438 40.7856ZM106.814 41.0094C107.054 40.7363 107.579 40.2787 108.324 39.721C109.05 39.1768 109.932 38.5761 110.842 38.0179C111.753 37.4584 112.675 36.9524 113.482 36.59C114.331 36.2087 114.918 36.05 115.213 36.05V34.05C114.457 34.05 113.531 34.3757 112.663 34.7655C111.753 35.1741 110.753 35.726 109.796 36.3133C108.836 36.902 107.903 37.5373 107.125 38.1204C106.364 38.69 105.696 39.2512 105.311 39.6906L106.814 41.0094ZM115.213 36.05C115.134 36.05 115.012 36.0237 114.897 35.9365C114.795 35.8586 114.76 35.778 114.755 35.7673C114.752 35.7581 114.763 35.7824 114.771 35.8576C114.78 35.9293 114.784 36.0227 114.781 36.138C114.776 36.372 114.747 36.6331 114.713 36.893C114.698 37.0121 114.679 37.1495 114.666 37.2574C114.653 37.3575 114.638 37.4977 114.638 37.625H116.638C116.638 37.6335 116.638 37.6042 116.651 37.4986C116.663 37.4007 116.677 37.2962 116.696 37.1515C116.731 36.8841 116.774 36.5311 116.781 36.1808C116.788 35.8558 116.77 35.4065 116.604 35.0038C116.515 34.7888 116.365 34.5404 116.11 34.3458C115.842 34.1419 115.528 34.05 115.213 34.05V36.05ZM114.638 37.625C114.638 38.1067 114.699 38.7428 115.081 39.2688C115.515 39.8653 116.185 40.1 116.913 40.1V38.1C116.755 38.1 116.688 38.0755 116.675 38.07C116.672 38.0686 116.688 38.0779 116.7 38.0937C116.705 38.1012 116.687 38.0802 116.669 37.9978C116.65 37.9139 116.638 37.7932 116.638 37.625H114.638ZM116.913 40.1C117.754 40.1 118.601 39.8344 119.38 39.5057C120.164 39.1746 120.973 38.7375 121.731 38.3316C122.509 37.9151 123.24 37.5276 123.94 37.241C124.643 36.9528 125.238 36.8 125.738 36.8V34.8C124.862 34.8 123.988 35.0597 123.181 35.3903C122.371 35.7224 121.55 36.1599 120.787 36.5684C120.005 36.9875 119.284 37.3754 118.602 37.663C117.915 37.9531 117.359 38.1 116.913 38.1V40.1ZM125.738 36.8C125.765 36.8 125.671 36.8034 125.561 36.7129C125.462 36.6318 125.451 36.5558 125.464 36.6022C125.479 36.6531 125.496 36.7556 125.505 36.9439C125.514 37.1298 125.513 37.337 125.513 37.6H127.513C127.513 37.1732 127.529 36.5437 127.386 36.0478C127.305 35.7692 127.15 35.4307 126.831 35.1684C126.501 34.8966 126.11 34.8 125.738 34.8V36.8ZM125.513 37.5881C125.501 38.5668 125.452 40.0875 126.301 41.3083C127.21 42.6164 128.903 43.3 131.613 43.3V41.3C129.172 41.3 128.302 40.6836 127.943 40.1667C127.523 39.5625 127.499 38.7332 127.512 37.6119L125.513 37.5881ZM131.613 43.3C135.394 43.3 141.213 41.9253 145.814 38.8842L144.711 37.2158C140.462 40.0247 135.031 41.3 131.613 41.3V43.3ZM146.261 38.0999C146.276 37.7973 146.262 37.4919 146.172 37.2165C146.076 36.9221 145.854 36.5622 145.414 36.407C145.024 36.2693 144.69 36.3787 144.549 36.4373C144.465 36.4719 144.399 36.5096 144.352 36.5385C144.328 36.5535 144.308 36.5675 144.291 36.5795C144.282 36.5856 144.274 36.5912 144.267 36.5964C144.264 36.599 144.26 36.6015 144.257 36.6039C144.256 36.6051 144.254 36.6062 144.253 36.6074C144.252 36.6079 144.251 36.6085 144.251 36.609C144.25 36.6093 144.25 36.6097 144.25 36.6098C144.249 36.6102 144.249 36.6106 144.863 37.4C145.476 38.1894 145.476 38.1898 145.475 38.1901C145.475 38.1903 145.475 38.1907 145.474 38.1909C145.474 38.1915 145.473 38.192 145.472 38.1925C145.471 38.1935 145.47 38.1946 145.468 38.1956C145.466 38.1976 145.463 38.1996 145.46 38.2016C145.455 38.2055 145.45 38.2094 145.444 38.2131C145.434 38.2205 145.423 38.2279 145.411 38.2353C145.389 38.249 145.357 38.2672 145.315 38.2845C145.257 38.3088 145.032 38.3932 144.748 38.293C144.415 38.1753 144.296 37.9154 144.27 37.8366C144.251 37.7769 144.274 37.8027 144.264 38.0001L146.261 38.0999ZM160.308 38.05L160.846 38.8929L161.251 38.6347L161.302 38.1575L160.308 38.05ZM159.908 37.4L159.426 36.5238L159.382 36.5484L159.34 36.5774L159.908 37.4ZM145.308 38.4L146.308 38.4328L146.308 38.4164V38.4H145.308ZM145.433 37.55L144.539 37.1028L144.494 37.1914L144.468 37.2869L145.433 37.55ZM144.683 37.525L143.976 36.8179L143.773 37.0207L143.709 37.3001L144.683 37.525ZM144.558 38.4L145.558 38.4247L145.558 38.4123V38.4H144.558ZM145.108 33.475L145.039 34.4726L145.074 34.475H145.108V33.475ZM145.558 32.325V31.325H144.777L144.588 32.0825L145.558 32.325ZM160.308 38.05C161.302 38.1575 161.302 38.1572 161.302 38.157C161.302 38.1569 161.303 38.1566 161.303 38.1565C161.303 38.1561 161.303 38.1557 161.303 38.1553C161.303 38.1546 161.303 38.1537 161.303 38.1528C161.303 38.151 161.303 38.149 161.304 38.1467C161.304 38.1422 161.305 38.1367 161.305 38.1303C161.306 38.1175 161.308 38.1011 161.309 38.0816C161.312 38.0429 161.315 37.9903 161.316 37.9287C161.318 37.8153 161.315 37.6304 161.278 37.4348C161.251 37.2914 161.162 36.8852 160.801 36.6003C160.303 36.2078 159.745 36.3488 159.426 36.5238L160.39 38.2762C160.363 38.2912 160.257 38.345 160.092 38.3487C160.006 38.3507 159.911 38.3387 159.813 38.3061C159.716 38.2736 159.632 38.2255 159.562 38.1708C159.429 38.0655 159.368 37.9505 159.344 37.899C159.32 37.8449 159.313 37.8096 159.313 37.809C159.313 37.8052 159.314 37.8121 159.315 37.8311C159.316 37.8489 159.317 37.8695 159.316 37.8908C159.316 37.9117 159.315 37.9291 159.314 37.94C159.314 37.9452 159.313 37.9484 159.313 37.9491C159.313 37.9494 159.313 37.949 159.313 37.948C159.313 37.9474 159.314 37.9467 159.314 37.9458C159.314 37.9454 159.314 37.9449 159.314 37.9443C159.314 37.944 159.314 37.9438 159.314 37.9435C159.314 37.9433 159.314 37.9431 159.314 37.943C159.314 37.9428 159.314 37.9425 160.308 38.05ZM159.34 36.5774C156.146 38.7844 152.109 39.65 148.908 39.65V41.65C152.407 41.65 156.87 40.7155 160.477 38.2226L159.34 36.5774ZM148.908 39.65C147.745 39.65 147.059 39.4711 146.698 39.2469C146.428 39.0801 146.293 38.8702 146.308 38.4328L144.309 38.3672C144.273 39.4548 144.713 40.3699 145.644 40.9469C146.482 41.4664 147.621 41.65 148.908 41.65V39.65ZM146.308 38.4C146.308 38.2151 146.338 38.032 146.398 37.8131L144.468 37.2869C144.378 37.618 144.308 37.9849 144.308 38.4H146.308ZM146.328 37.9972C146.442 37.7689 146.587 37.3258 146.351 36.8627C146.101 36.3748 145.629 36.2462 145.351 36.2299C144.814 36.1983 144.314 36.48 143.976 36.8179L145.39 38.2321C145.418 38.2041 145.434 38.1978 145.427 38.2014C145.422 38.2034 145.407 38.2101 145.379 38.2163C145.353 38.2222 145.303 38.2305 145.234 38.2264C145.115 38.2194 144.763 38.1518 144.57 37.7725C144.389 37.4179 144.525 37.1311 144.539 37.1028L146.328 37.9972ZM143.709 37.3001C143.633 37.6296 143.558 37.9514 143.558 38.4H145.558C145.558 38.1986 145.584 38.0704 145.658 37.7499L143.709 37.3001ZM143.559 38.3753C143.527 39.6679 143.994 40.7652 145.043 41.4842C146.015 42.1503 147.358 42.4 148.908 42.4V40.4C147.508 40.4 146.652 40.1622 146.174 39.8345C145.773 39.5598 145.54 39.1571 145.558 38.4247L143.559 38.3753ZM148.908 42.4C152.56 42.4 157.15 41.2525 160.846 38.8929L159.77 37.2071C156.417 39.3475 152.206 40.4 148.908 40.4V42.4ZM145.108 34.475C145.572 34.475 146.001 34.3687 146.359 34.1868C146.697 34.0149 147.051 33.7327 147.242 33.3234C147.342 33.1094 147.408 32.8334 147.359 32.5279C147.307 32.2118 147.144 31.947 146.926 31.7546C146.53 31.4052 146 31.325 145.558 31.325V33.325C145.673 33.325 145.728 33.337 145.739 33.3401C145.753 33.3438 145.689 33.3299 145.603 33.2547C145.508 33.1702 145.414 33.0312 145.385 32.8498C145.357 32.6791 145.398 32.5469 145.43 32.4766C145.487 32.3548 145.539 32.3601 145.453 32.4039C145.387 32.4375 145.269 32.475 145.108 32.475V34.475ZM144.588 32.0825C144.627 31.9264 144.699 31.8804 144.58 32.0214C144.54 32.0686 144.495 32.1183 144.436 32.1835C144.383 32.243 144.315 32.3187 144.252 32.3952C144.192 32.4685 144.111 32.5722 144.041 32.6921C143.983 32.7913 143.86 33.022 143.859 33.3255C143.857 33.7285 144.066 34.0777 144.388 34.2772C144.634 34.4302 144.891 34.4624 145.039 34.4726L145.177 32.4774C145.144 32.4751 145.276 32.4745 145.443 32.5781C145.54 32.6384 145.655 32.7384 145.742 32.8915C145.83 33.0465 145.859 33.2044 145.859 33.3354C145.858 33.4583 145.831 33.551 145.814 33.6012C145.795 33.6528 145.777 33.6859 145.77 33.6971C145.759 33.716 145.761 33.7096 145.795 33.6673C145.828 33.6282 145.868 33.5828 145.925 33.5194C145.977 33.4618 146.044 33.3869 146.108 33.3114C146.171 33.2365 146.248 33.1407 146.318 33.0338C146.382 32.9353 146.477 32.7729 146.528 32.5675L144.588 32.0825ZM219.963 37.375L219.449 36.5175L219.421 36.5344L219.394 36.553L219.963 37.375ZM195.963 28.55L196.796 27.9953L196.445 27.4699L195.82 27.5603L195.963 28.55ZM196.388 27.725L195.457 28.0894L195.736 28.8014L196.496 28.7192L196.388 27.725ZM196.163 25.875L196.061 24.8803L195.233 24.9655L195.167 25.7953L196.163 25.875ZM195.513 25.2L195.601 26.1962L196.311 26.1339L196.484 25.4425L195.513 25.2ZM177.338 17.5L178.338 17.4706L178.338 17.4559L178.337 17.4413L177.338 17.5ZM176.588 17.5L175.817 16.8643L175.579 17.153L175.589 17.5268L176.588 17.5ZM195.388 25.95H196.388V24.8567L195.3 24.954L195.388 25.95ZM195.613 27.85L195.77 28.8377L196.935 28.6532L196.562 27.5338L195.613 27.85ZM220.338 38.025L220.892 38.8579L221.338 38.5611V38.025H220.338ZM196.313 25.125L195.354 24.8441L194.935 26.2737L196.417 26.1196L196.313 25.125ZM196.888 28.425L196.786 27.4303L194.621 27.6542L196.201 29.151L196.888 28.425ZM219.394 36.553C215.736 39.0874 210.569 40.754 205.364 41.7814C200.177 42.8052 195.055 43.175 191.563 43.175V45.175C195.172 45.175 200.425 44.7948 205.751 43.7436C211.058 42.696 216.541 40.9626 220.533 38.197L219.394 36.553ZM191.563 43.175C187.965 43.175 185.479 42.6942 183.923 41.8317C183.163 41.41 182.643 40.9075 182.308 40.3363C181.973 39.7648 181.788 39.0661 181.788 38.2H179.788C179.788 39.3589 180.038 40.4196 180.583 41.3481C181.128 42.2769 181.933 43.015 182.954 43.5808C184.96 44.6933 187.862 45.175 191.563 45.175V43.175ZM181.788 38.2C181.788 36.1745 183.548 34.2417 186.52 32.6218C189.411 31.0459 193.086 29.9764 196.107 29.5397L195.82 27.5603C192.616 28.0236 188.703 29.1541 185.563 30.8657C182.504 32.5333 179.788 34.9755 179.788 38.2H181.788ZM195.131 29.1047C195.919 30.2854 197.26 30.875 199.013 30.875V28.875C197.717 28.875 197.108 28.4646 196.796 27.9953L195.131 29.1047ZM199.013 30.875C199.767 30.875 200.444 30.7112 200.949 30.3022C201.483 29.87 201.688 29.2758 201.688 28.725H199.688C199.688 28.7573 199.683 28.765 199.686 28.7575C199.691 28.7466 199.697 28.7423 199.691 28.7478C199.671 28.7638 199.509 28.875 199.013 28.875V30.875ZM201.688 28.725C201.688 28.1445 201.439 27.5539 200.9 27.1335C200.383 26.73 199.689 26.55 198.888 26.55V28.55C199.413 28.55 199.619 28.67 199.67 28.7103C199.694 28.7288 199.694 28.7363 199.691 28.7285C199.688 28.7224 199.688 28.7197 199.688 28.725H201.688ZM198.888 26.55C198.08 26.55 197.208 26.6306 196.281 26.7308L196.496 28.7192C197.419 28.6194 198.197 28.55 198.888 28.55V26.55ZM197.32 27.3606C197.167 26.9701 197.118 26.4832 197.16 25.9547L195.167 25.7953C195.109 26.5168 195.16 27.3299 195.457 28.0894L197.32 27.3606ZM196.266 26.8697C199.729 26.5133 202.633 25.8148 204.704 24.9026C205.737 24.4478 206.61 23.9188 207.241 23.3126C207.871 22.7079 208.338 21.9443 208.338 21.05H206.338C206.338 21.2057 206.259 21.4827 205.856 21.8703C205.454 22.2562 204.809 22.6709 203.898 23.0724C202.081 23.8727 199.398 24.5367 196.061 24.8803L196.266 26.8697ZM208.338 21.05C208.338 20.3462 208.174 19.4573 207.468 18.756C206.766 18.0584 205.706 17.725 204.313 17.725V19.725C205.421 19.725 205.874 19.9915 206.059 20.1752C206.24 20.3552 206.338 20.6288 206.338 21.05H208.338ZM204.313 17.725C202.435 17.725 200.257 18.5721 198.459 19.8308C196.663 21.0878 195.061 22.8862 194.543 24.9575L196.484 25.4425C196.841 24.0138 198.026 22.5747 199.606 21.4692C201.183 20.3654 202.967 19.725 204.313 19.725V17.725ZM195.426 24.2038C194.039 24.3255 192.52 24.375 190.913 24.375V26.375C192.557 26.375 194.138 26.3245 195.601 26.1962L195.426 24.2038ZM190.913 24.375C187.528 24.375 184.344 23.7011 182.027 22.4673C179.716 21.2364 178.399 19.5367 178.338 17.4706L176.339 17.5294C176.428 20.5633 178.399 22.8011 181.087 24.2327C183.77 25.6614 187.299 26.375 190.913 26.375V24.375ZM177.338 17.5C178.337 17.4413 178.337 17.4408 178.337 17.4404C178.337 17.4403 178.337 17.4398 178.337 17.4395C178.337 17.4389 178.337 17.4383 178.337 17.4377C178.336 17.4364 178.336 17.435 178.336 17.4336C178.336 17.4308 178.336 17.4278 178.336 17.4245C178.335 17.4179 178.335 17.4103 178.334 17.4018C178.332 17.3848 178.33 17.3637 178.327 17.3394C178.321 17.2921 178.311 17.2265 178.293 17.1514C178.267 17.0394 178.19 16.7461 177.954 16.4959C177.82 16.3531 177.62 16.2106 177.352 16.1506C177.084 16.0907 176.837 16.1327 176.641 16.2086C176.291 16.3438 176.021 16.6159 175.817 16.8643L177.36 18.1357C177.422 18.0607 177.458 18.0272 177.469 18.0179C177.483 18.0062 177.447 18.0413 177.361 18.0742C177.268 18.1103 177.108 18.1456 176.915 18.1023C176.721 18.0589 176.582 17.9562 176.498 17.8666C176.42 17.7841 176.383 17.7085 176.369 17.6763C176.354 17.6407 176.348 17.6164 176.346 17.6095C176.344 17.6008 176.343 17.5951 176.343 17.5908C176.343 17.5881 176.342 17.5845 176.342 17.5796C176.341 17.577 176.341 17.5741 176.341 17.5707C176.341 17.569 176.341 17.5671 176.341 17.5651C176.341 17.5641 176.34 17.5631 176.34 17.562C176.34 17.5615 176.34 17.561 176.34 17.5604C176.34 17.5601 176.34 17.5597 176.34 17.5596C176.34 17.5591 176.34 17.5587 177.338 17.5ZM175.589 17.5268C175.676 20.794 177.721 23.2231 180.559 24.7882C183.386 26.3472 187.107 27.125 190.913 27.125V25.125C187.345 25.125 183.979 24.3903 181.525 23.0368C179.081 21.6894 177.651 19.806 177.588 17.4732L175.589 17.5268ZM190.913 27.125C192.508 27.125 194.039 27.0744 195.477 26.946L195.3 24.954C193.938 25.0756 192.469 25.125 190.913 25.125V27.125ZM194.388 25.95C194.388 26.9255 194.467 27.5715 194.665 28.1662L196.562 27.5338C196.46 27.2285 196.388 26.8245 196.388 25.95H194.388ZM195.457 26.8623C192.127 27.3895 188.112 28.6159 184.902 30.4505C181.759 32.2464 179.038 34.8352 179.038 38.2H181.038C181.038 35.9898 182.868 33.9161 185.894 32.187C188.852 30.4966 192.625 29.3355 195.77 28.8377L195.457 26.8623ZM179.038 38.2C179.038 39.4761 179.301 40.6394 179.869 41.6578C180.439 42.6784 181.286 43.4988 182.372 44.1324C184.509 45.3797 187.606 45.925 191.563 45.925V43.925C187.721 43.925 185.055 43.3828 183.38 42.4051C182.56 41.9262 181.988 41.3498 181.616 40.6828C181.242 40.0137 181.038 39.1989 181.038 38.2H179.038ZM191.563 45.925C195.218 45.925 200.541 45.4807 205.934 44.3863C211.311 43.2953 216.858 41.5383 220.892 38.8579L219.785 37.1921C216.069 39.6617 210.816 41.3547 205.536 42.4262C200.273 43.4943 195.084 43.925 191.563 43.925V45.925ZM221.338 38.025C221.338 37.747 221.31 37.4748 221.225 37.2283C221.138 36.9741 220.965 36.6839 220.644 36.5019C220.323 36.3198 220.008 36.3343 219.816 36.3751C219.719 36.3955 219.64 36.4246 219.582 36.4495C219.552 36.4623 219.527 36.4749 219.505 36.4863C219.494 36.492 219.484 36.4975 219.474 36.5028C219.47 36.5054 219.465 36.5079 219.461 36.5104C219.459 36.5116 219.457 36.5128 219.455 36.514C219.454 36.5146 219.453 36.5152 219.452 36.5158C219.451 36.5161 219.451 36.5165 219.45 36.5166C219.45 36.5171 219.449 36.5175 219.963 37.375C220.478 38.2325 220.477 38.2329 220.477 38.2334C220.476 38.2335 220.476 38.2339 220.475 38.2342C220.474 38.2348 220.473 38.2354 220.472 38.2359C220.47 38.2371 220.468 38.2382 220.466 38.2393C220.463 38.2416 220.459 38.2438 220.455 38.246C220.447 38.2504 220.439 38.2548 220.431 38.2591C220.414 38.2676 220.396 38.2763 220.377 38.2846C220.34 38.3006 220.29 38.319 220.229 38.3319C220.106 38.3578 219.886 38.3708 219.658 38.2419C219.43 38.113 219.352 37.9306 219.335 37.8803C219.32 37.8377 219.338 37.8655 219.338 38.025H221.338ZM204.313 20.475C205.152 20.475 205.428 20.6559 205.496 20.7166C205.535 20.7519 205.588 20.8175 205.588 21.05H207.588C207.588 20.5075 207.454 19.7856 206.831 19.2272C206.236 18.6941 205.375 18.475 204.313 18.475V20.475ZM205.588 21.05C205.588 21.0788 205.572 21.2602 205.206 21.5792C204.847 21.8911 204.261 22.2346 203.422 22.5722C201.751 23.244 199.282 23.8109 196.21 24.1304L196.417 26.1196C199.595 25.7891 202.264 25.1935 204.168 24.4278C205.116 24.0467 205.927 23.6027 206.518 23.088C207.102 22.5805 207.588 21.8962 207.588 21.05H205.588ZM197.273 25.4059C197.633 24.1751 198.705 22.9319 200.122 21.976C201.537 21.0221 203.12 20.475 204.313 20.475V18.475C202.607 18.475 200.64 19.2154 199.004 20.3177C197.372 21.4181 195.894 22.9999 195.354 24.8441L197.273 25.4059ZM198.888 29.3C199.199 29.3 199.29 29.3483 199.264 29.3353C199.245 29.3263 199.169 29.2853 199.091 29.1842C199.007 29.0757 198.938 28.9163 198.938 28.725H200.938C200.938 28.1009 200.503 27.7154 200.145 27.5397C199.787 27.3642 199.353 27.3 198.888 27.3V29.3ZM198.938 28.725C198.938 28.5781 198.983 28.4307 199.067 28.3077C199.146 28.1912 199.235 28.1347 199.276 28.1134C199.315 28.0931 199.322 28.098 199.273 28.107C199.226 28.1156 199.143 28.125 199.013 28.125V30.125C199.433 30.125 199.851 30.0692 200.201 29.8866C200.596 29.6803 200.938 29.2787 200.938 28.725H198.938ZM199.013 28.125C198.235 28.125 197.812 27.9227 197.576 27.699L196.201 29.151C196.915 29.8273 197.892 30.125 199.013 30.125V28.125ZM196.991 29.4197C197.703 29.3461 198.339 29.3 198.888 29.3V27.3C198.238 27.3 197.524 27.3539 196.786 27.4303L196.991 29.4197ZM236.982 37.4L237.559 38.217L237.568 38.2107L236.982 37.4ZM224.107 41.475L224.113 40.475H224.107V41.475ZM220.282 38.6H219.282V38.6106L219.282 38.6213L220.282 38.6ZM220.307 38.05L221.299 38.174L221.307 38.1123V38.05H220.307ZM220.332 38.025V39.025H220.589L220.815 38.9008L220.332 38.025ZM219.532 38.6H218.532V38.6127L218.532 38.6254L219.532 38.6ZM224.107 42.225L224.113 41.225H224.107V42.225ZM237.382 38.05L237.924 38.8907L238.354 38.6131L238.381 38.1012L237.382 38.05ZM220.457 37.1L219.481 36.881L218.979 39.1201L220.961 37.9638L220.457 37.1ZM236.405 36.583C232.76 39.1559 227.867 40.4988 224.113 40.475L224.101 42.475C228.247 42.5012 233.554 41.0441 237.559 38.217L236.405 36.583ZM224.107 40.475C223.201 40.475 222.479 40.3448 222.005 40.0609C221.616 39.8279 221.3 39.4406 221.282 38.5787L219.282 38.6213C219.314 40.1094 219.948 41.1596 220.977 41.7766C221.922 42.3427 223.088 42.475 224.107 42.475V40.475ZM221.282 38.6C221.282 38.4212 221.283 38.3043 221.299 38.174L219.315 37.926C219.281 38.1957 219.282 38.4288 219.282 38.6H221.282ZM220.307 38.05C221.307 38.05 221.307 38.0505 221.307 38.051C221.307 38.0511 221.307 38.0516 221.307 38.052C221.307 38.0526 221.307 38.0533 221.307 38.0539C221.307 38.0553 221.307 38.0566 221.307 38.0579C221.307 38.0606 221.307 38.0633 221.307 38.0661C221.307 38.0716 221.307 38.0772 221.306 38.083C221.306 38.0946 221.305 38.1071 221.305 38.1202C221.303 38.1461 221.299 38.1765 221.294 38.2105C221.283 38.2736 221.26 38.3731 221.205 38.4847C221.147 38.6002 221.044 38.7461 220.872 38.861C220.694 38.9799 220.501 39.025 220.332 39.025V37.025C220.151 37.025 219.948 37.0732 219.763 37.1969C219.584 37.3164 219.477 37.4685 219.416 37.5903C219.357 37.7081 219.332 37.8139 219.321 37.8817C219.315 37.918 219.312 37.9504 219.31 37.9777C219.309 37.9915 219.308 38.0044 219.308 38.0164C219.307 38.0224 219.307 38.0282 219.307 38.0338C219.307 38.0366 219.307 38.0393 219.307 38.042C219.307 38.0434 219.307 38.0447 219.307 38.0461C219.307 38.0467 219.307 38.0474 219.307 38.048C219.307 38.0484 219.307 38.0489 219.307 38.049C219.307 38.0495 219.307 38.05 220.307 38.05ZM220.815 38.9008C222.468 37.9894 224.509 36.5708 226.151 34.8893C227.76 33.2412 229.157 31.166 229.157 28.95H227.157C227.157 30.359 226.229 31.9463 224.72 33.492C223.243 35.0042 221.371 36.3106 219.849 37.1492L220.815 38.9008ZM229.157 28.95C229.157 28.2847 228.982 27.6022 228.494 27.0802C227.996 26.5468 227.308 26.325 226.582 26.325V28.325C226.906 28.325 227.005 28.4157 227.032 28.4448C227.07 28.4853 227.157 28.6153 227.157 28.95H229.157ZM226.582 26.325C226.026 26.325 225.503 26.5309 225.055 26.7945C224.598 27.0628 224.15 27.4307 223.724 27.8503C222.872 28.6896 222.021 29.8201 221.268 31.041C220.513 32.2662 219.837 33.6162 219.347 34.9132C218.863 36.1937 218.532 37.4944 218.532 38.6H220.532C220.532 37.8431 220.77 36.8032 221.217 35.6204C221.658 34.4541 222.276 33.2182 222.971 32.0902C223.669 30.958 224.424 29.9682 225.127 29.2755C225.479 28.929 225.797 28.678 226.068 28.5188C226.347 28.3551 226.513 28.325 226.582 28.325V26.325ZM218.532 38.6254C218.577 40.3885 219.285 41.624 220.449 42.3631C221.537 43.0533 222.893 43.225 224.107 43.225V41.225C223.021 41.225 222.127 41.0592 221.521 40.6744C220.992 40.3385 220.562 39.7615 220.532 38.5746L218.532 38.6254ZM224.101 43.225C228.397 43.2513 233.709 41.6054 237.924 38.8907L236.84 37.2093C232.905 39.7446 227.967 41.2487 224.113 41.225L224.101 43.225ZM238.381 38.1012C238.396 37.8019 238.381 37.4988 238.29 37.224C238.193 36.9288 237.975 36.5848 237.558 36.4253C237.183 36.282 236.855 36.3712 236.706 36.426C236.621 36.4572 236.553 36.4924 236.505 36.5199C236.48 36.5341 236.458 36.5475 236.441 36.5591C236.432 36.5649 236.424 36.5704 236.416 36.5754C236.413 36.578 236.409 36.5804 236.406 36.5827C236.404 36.5839 236.403 36.585 236.401 36.5861C236.4 36.5867 236.399 36.5872 236.399 36.5877C236.398 36.588 236.398 36.5884 236.398 36.5885C236.397 36.5889 236.397 36.5893 236.982 37.4C237.568 38.2107 237.567 38.2111 237.566 38.2115C237.566 38.2116 237.566 38.212 237.565 38.2122C237.565 38.2128 237.564 38.2133 237.563 38.2138C237.562 38.2148 237.56 38.2158 237.559 38.2168C237.556 38.2188 237.553 38.2208 237.55 38.2228C237.545 38.2266 237.539 38.2304 237.533 38.2341C237.522 38.2414 237.51 38.2488 237.498 38.256C237.474 38.2695 237.44 38.2869 237.397 38.3029C237.331 38.3272 237.112 38.3962 236.844 38.2934C236.533 38.1746 236.418 37.9322 236.391 37.8502C236.371 37.7887 236.393 37.8106 236.383 37.9988L238.381 38.1012ZM226.582 29.075C226.623 29.075 226.619 29.0811 226.589 29.0695C226.554 29.0564 226.506 29.0286 226.464 28.982C226.377 28.8871 226.407 28.8289 226.407 28.95H228.407C228.407 28.5211 228.3 28.0254 227.938 27.6305C227.563 27.2211 227.057 27.075 226.582 27.075V29.075ZM226.407 28.95C226.407 30.1291 225.646 31.4873 224.334 32.8589C223.053 34.1986 221.397 35.394 219.953 36.2362L220.961 37.9638C222.517 37.056 224.336 35.7514 225.78 34.2411C227.193 32.7627 228.407 30.9209 228.407 28.95H226.407ZM221.433 37.319C221.813 35.6264 222.792 33.4812 223.924 31.7587C224.488 30.9005 225.064 30.1872 225.588 29.7014C226.157 29.1731 226.491 29.075 226.582 29.075V27.075C225.686 27.075 224.863 27.6456 224.228 28.2354C223.546 28.8674 222.87 29.7214 222.253 30.6601C221.023 32.5313 219.926 34.8986 219.481 36.881L221.433 37.319ZM258.672 38.05L259.214 38.8908L259.603 38.6399L259.664 38.1805L258.672 38.05ZM258.272 37.4L257.776 36.5318L257.756 36.5431L257.737 36.5554L258.272 37.4ZM248.822 27.425L249.717 27.8722L249.775 27.7561L249.801 27.629L248.822 27.425ZM248.122 27.175L247.732 26.2544L247.372 26.4073L247.211 26.7642L248.122 27.175ZM241.597 35.525L242.592 35.4203L242.587 35.3743L242.578 35.3289L241.597 35.525ZM242.347 35.375L243.276 35.7464L243.394 35.4519L243.32 35.1434L242.347 35.375ZM246.297 32.45L247.26 32.7211L245.429 31.9534L246.297 32.45ZM259.664 38.1805C259.703 37.8807 259.71 37.5602 259.621 37.2603C259.518 36.9195 259.279 36.5868 258.873 36.4335C258.529 36.3031 258.223 36.3657 258.082 36.4053C258 36.4282 257.933 36.4553 257.885 36.477C257.86 36.4881 257.838 36.4987 257.82 36.5079C257.811 36.5125 257.803 36.5169 257.796 36.5209C257.792 36.5229 257.789 36.5248 257.785 36.5266C257.784 36.5275 257.782 36.5284 257.781 36.5292C257.78 36.5297 257.779 36.5301 257.778 36.5305C257.778 36.5307 257.778 36.531 257.777 36.5311C257.777 36.5315 257.776 36.5318 258.272 37.4C258.769 38.2682 258.768 38.2685 258.768 38.2689C258.767 38.269 258.767 38.2693 258.766 38.2695C258.766 38.2699 258.765 38.2703 258.764 38.2707C258.763 38.2714 258.762 38.2722 258.76 38.273C258.757 38.2745 258.755 38.276 258.752 38.2775C258.747 38.2804 258.741 38.2832 258.736 38.2858C258.726 38.2911 258.716 38.2961 258.705 38.3009C258.685 38.31 258.658 38.321 258.623 38.3307C258.577 38.3437 258.394 38.3906 258.165 38.304C258.04 38.2567 257.928 38.1784 257.841 38.0771C257.758 37.9803 257.721 37.8883 257.705 37.835C257.678 37.7461 257.704 37.7443 257.681 37.9195L259.664 38.1805ZM257.737 36.5554C254.363 38.6939 251.178 39.225 249.297 39.225V41.225C251.517 41.225 255.082 40.6061 258.808 38.2446L257.737 36.5554ZM249.297 39.225C248.411 39.225 247.97 38.9891 247.731 38.7238C247.473 38.4385 247.272 37.926 247.272 37.025H245.272C245.272 38.174 245.522 39.2615 246.246 40.0637C246.988 40.8859 248.059 41.225 249.297 41.225V39.225ZM247.272 37.025C247.272 35.9186 247.621 34.141 248.127 32.3242C248.628 30.5212 249.245 28.8154 249.717 27.8722L247.928 26.9778C247.375 28.0846 246.717 29.9288 246.2 31.7883C245.686 33.634 245.272 35.6314 245.272 37.025H247.272ZM248.822 27.425C249.801 27.629 249.802 27.6284 249.802 27.6278C249.802 27.6276 249.802 27.627 249.802 27.6266C249.802 27.6258 249.802 27.625 249.802 27.6242C249.803 27.6226 249.803 27.6209 249.803 27.6191C249.804 27.6156 249.805 27.6119 249.806 27.608C249.807 27.6001 249.809 27.5914 249.81 27.5818C249.813 27.5628 249.817 27.54 249.82 27.5141C249.826 27.4634 249.831 27.3944 249.829 27.3136C249.826 27.1735 249.799 26.8882 249.61 26.6084C249.385 26.2756 249.028 26.0944 248.647 26.0687C248.319 26.0466 248.004 26.1388 247.732 26.2544L248.513 28.0956C248.653 28.0362 248.632 28.0722 248.513 28.0641C248.443 28.0594 248.339 28.0392 248.226 27.9772C248.11 27.9138 248.019 27.8252 247.954 27.7291C247.836 27.5556 247.83 27.3984 247.829 27.3598C247.829 27.3298 247.831 27.305 247.833 27.2857C247.834 27.2755 247.835 27.2653 247.837 27.2549C247.838 27.2496 247.839 27.2442 247.84 27.2386C247.841 27.2358 247.841 27.2329 247.842 27.23C247.842 27.2286 247.842 27.2271 247.843 27.2256C247.843 27.2248 247.843 27.2241 247.843 27.2233C247.843 27.223 247.843 27.2224 247.843 27.2222C247.843 27.2216 247.843 27.221 248.822 27.425ZM247.211 26.7642C245.693 30.133 243.938 33.2225 242.176 35.4516C241.294 36.5668 240.434 37.436 239.627 38.0186C238.814 38.6059 238.128 38.85 237.572 38.85V40.85C238.704 40.85 239.797 40.3628 240.798 39.64C241.805 38.9125 242.795 37.8926 243.744 36.6922C245.644 34.29 247.477 31.042 249.034 27.5858L247.211 26.7642ZM237.572 38.85C237.607 38.85 237.674 38.8561 237.755 38.8916C237.84 38.9285 237.916 38.9864 237.975 39.0574C238.085 39.1928 238.072 39.2982 238.072 39.25H236.072C236.072 39.5768 236.147 39.9822 236.427 40.3239C236.731 40.6956 237.161 40.85 237.572 40.85V38.85ZM238.072 39.25C238.072 38.8089 238.424 38.0716 239.14 37.3777C239.849 36.6906 240.631 36.325 241.147 36.325V34.325C239.889 34.325 238.633 35.0844 237.749 35.9411C236.871 36.7909 236.072 38.0161 236.072 39.25H238.072ZM241.147 36.325C241.213 36.325 241.158 36.3367 241.05 36.2872C240.989 36.2594 240.896 36.2051 240.808 36.1054C240.715 36.0005 240.646 35.8679 240.617 35.7211L242.578 35.3289C242.487 34.8726 242.167 34.5992 241.883 34.4691C241.625 34.3508 241.357 34.325 241.147 34.325V36.325ZM240.603 35.6297C240.636 35.9396 240.779 36.3531 241.191 36.6063C241.581 36.8469 241.985 36.7996 242.229 36.7245C242.692 36.5822 243.093 36.2034 243.276 35.7464L241.419 35.0036C241.443 34.9429 241.473 34.9103 241.491 34.8934C241.506 34.8792 241.55 34.8408 241.641 34.813C241.722 34.7879 241.97 34.7375 242.239 34.903C242.528 35.0813 242.584 35.3479 242.592 35.4203L240.603 35.6297ZM243.32 35.1434C243.212 34.6882 242.968 34.2531 242.527 33.9522C242.107 33.6658 241.617 33.575 241.147 33.575V35.575C241.378 35.575 241.425 35.6217 241.399 35.6041C241.385 35.5941 241.371 35.5793 241.363 35.5671C241.357 35.5575 241.365 35.5656 241.375 35.6066L243.32 35.1434ZM241.147 33.575C239.733 33.575 238.289 34.4531 237.259 35.4554C236.236 36.4516 235.322 37.8643 235.322 39.25H237.322C237.322 38.6607 237.784 37.7359 238.654 36.8884C239.519 36.0469 240.487 35.575 241.147 35.575V33.575ZM235.322 39.25C235.322 39.8231 235.47 40.4281 235.892 40.9006C236.33 41.3906 236.939 41.6 237.572 41.6V39.6C237.472 39.6 237.419 39.584 237.399 39.5761C237.389 39.5722 237.385 39.5694 237.385 39.569C237.384 39.5687 237.384 39.5687 237.384 39.5682C237.383 39.5675 237.38 39.5637 237.375 39.5547C237.37 39.5454 237.362 39.5295 237.354 39.5049C237.338 39.4547 237.322 39.3722 237.322 39.25H235.322ZM237.572 41.6C239.451 41.6 241.177 40.5703 242.72 39.0577C244.273 37.5343 245.757 35.4076 247.165 32.9466L245.429 31.9534C244.063 34.3424 242.685 36.2907 241.319 37.6298C239.943 38.9797 238.694 39.6 237.572 39.6V41.6ZM245.335 32.1789C244.823 33.9951 244.522 35.6447 244.522 37.025H246.522C246.522 35.9053 246.772 34.4549 247.26 32.7211L245.335 32.1789ZM244.522 37.025C244.522 38.4199 244.82 39.6996 245.668 40.6298C246.532 41.5786 247.794 41.975 249.297 41.975V39.975C248.126 39.975 247.5 39.6714 247.146 39.2827C246.775 38.8754 246.522 38.1801 246.522 37.025H244.522ZM249.297 41.975C251.608 41.975 255.378 41.3607 259.214 38.8908L258.131 37.2092C254.667 39.4393 251.287 39.975 249.297 39.975V41.975ZM278.486 37.4L279.056 38.2216L279.064 38.2162L279.071 38.2107L278.486 37.4ZM265.536 38.725H264.536V38.7506L264.537 38.7762L265.536 38.725ZM266.861 35.825L267.669 36.4145L267.847 36.1696L267.86 35.8666L266.861 35.825ZM266.361 35.15L266.132 34.1766L266.125 34.1781L266.361 35.15ZM262.961 35.225L262.33 34.4489L260.995 35.5336L262.598 36.157L262.961 35.225ZM261.811 35.15L262.392 35.9637L263.143 35.4271L262.668 34.6355L261.811 35.15ZM258.336 37.375L257.872 36.4892L257.446 36.712L257.354 37.1835L258.336 37.375ZM258.711 38.025L258.225 37.1508L258.194 37.168L258.165 37.1874L258.711 38.025ZM262.336 35.725L262.866 34.877L262.307 34.5276L261.766 34.9036L262.336 35.725ZM265.636 36.125L266.476 36.6671L267.65 34.8476L265.504 35.1338L265.636 36.125ZM264.786 38.75H263.786V38.7679L263.787 38.7857L264.786 38.75ZM278.886 38.05L279.428 38.8902L279.858 38.6126L279.885 38.1012L278.886 38.05ZM262.461 34.65H261.461V36.785L263.101 35.4182L262.461 34.65ZM277.916 36.5784C274.122 39.2102 271.26 39.475 269.236 39.475V41.475C271.562 41.475 274.85 41.1398 279.056 38.2216L277.916 36.5784ZM269.236 39.475C267.896 39.475 267.187 39.284 266.84 39.0912C266.575 38.944 266.542 38.8186 266.535 38.6738L264.537 38.7762C264.58 39.6064 264.997 40.356 265.869 40.84C266.66 41.2785 267.776 41.475 269.236 41.475V39.475ZM266.536 38.725C266.536 38.0101 266.946 37.4046 267.669 36.4145L266.053 35.2355C265.426 36.0954 264.536 37.2399 264.536 38.725H266.536ZM267.86 35.8666C267.867 35.6959 267.868 35.5081 267.845 35.3273C267.824 35.1569 267.77 34.8945 267.597 34.6483C267.393 34.3594 267.097 34.1955 266.79 34.1431C266.529 34.0986 266.291 34.1392 266.132 34.1766L266.59 36.1234C266.644 36.1108 266.578 36.1358 266.454 36.1147C266.382 36.1025 266.29 36.0747 266.193 36.0158C266.094 35.9559 266.018 35.8796 265.963 35.8017C265.864 35.6617 265.857 35.5493 265.861 35.5773C265.863 35.595 265.867 35.6541 265.862 35.7834L267.86 35.8666ZM266.125 34.1781C265.302 34.3777 264.805 34.45 264.586 34.45V36.45C265.067 36.45 265.769 36.3223 266.597 36.1219L266.125 34.1781ZM264.586 34.45C264.104 34.45 263.589 34.3962 263.323 34.293L262.598 36.157C263.233 36.4038 264.068 36.45 264.586 36.45V34.45ZM263.592 36.0011C263.809 35.8242 264.081 35.5864 264.289 35.2634C264.515 34.9128 264.636 34.5114 264.636 34.05H262.636C262.636 34.1027 262.63 34.1301 262.626 34.1416C262.623 34.1524 262.619 34.1636 262.608 34.1804C262.578 34.2261 262.513 34.3008 262.33 34.4489L263.592 36.0011ZM264.636 34.05C264.636 33.67 264.534 33.196 264.159 32.821C263.783 32.4451 263.289 32.325 262.836 32.325V34.325C262.958 34.325 262.864 34.3549 262.744 34.2352C262.626 34.1165 262.636 34.005 262.636 34.05H264.636ZM262.836 32.325C262.125 32.325 261.576 32.7105 261.238 33.1487C260.903 33.5832 260.711 34.1417 260.711 34.7H262.711C262.711 34.5833 262.757 34.4543 262.822 34.37C262.884 34.2895 262.896 34.325 262.836 34.325V32.325ZM260.711 34.7C260.711 34.9561 260.744 35.3162 260.953 35.6645L262.668 34.6355C262.698 34.6847 262.709 34.7247 262.712 34.7398C262.714 34.7517 262.711 34.7427 262.711 34.7H260.711ZM261.23 34.3363C260.358 34.9588 258.856 35.9736 257.872 36.4892L258.8 38.2608C259.916 37.6764 261.514 36.5912 262.392 35.9637L261.23 34.3363ZM257.354 37.1835C257.295 37.4901 257.263 37.8246 257.337 38.1392C257.425 38.5128 257.687 38.905 258.17 39.0449C258.543 39.1528 258.86 39.0474 258.977 39.0033C259.054 38.9744 259.116 38.9434 259.161 38.9197C259.183 38.9074 259.203 38.8961 259.219 38.8866C259.227 38.8818 259.234 38.8773 259.24 38.8733C259.244 38.8713 259.247 38.8694 259.249 38.8676C259.251 38.8667 259.252 38.8659 259.253 38.865C259.254 38.8646 259.255 38.8642 259.255 38.8638C259.256 38.8636 259.256 38.8633 259.256 38.8632C259.257 38.8629 259.257 38.8626 258.711 38.025C258.165 37.1874 258.165 37.1871 258.166 37.1868C258.166 37.1867 258.166 37.1864 258.166 37.1862C258.167 37.1859 258.168 37.1855 258.168 37.1851C258.169 37.1844 258.17 37.1836 258.172 37.1829C258.174 37.1815 258.176 37.1801 258.178 37.1788C258.182 37.1761 258.186 37.1737 258.19 37.1714C258.198 37.1668 258.205 37.1625 258.213 37.1586C258.226 37.1513 258.246 37.1416 258.272 37.1318C258.296 37.1228 258.343 37.1068 258.41 37.0981C258.475 37.0895 258.589 37.0841 258.726 37.1238C258.876 37.1669 259.019 37.2543 259.128 37.3825C259.23 37.5028 259.269 37.6188 259.283 37.6788C259.306 37.7754 259.277 37.7724 259.317 37.5665L257.354 37.1835ZM259.197 38.8992C260.364 38.2506 261.995 37.1791 262.906 36.5464L261.766 34.9036C260.877 35.5209 259.308 36.5494 258.225 37.1508L259.197 38.8992ZM261.806 36.573C262.258 36.8556 262.786 37.0045 263.247 37.0874C263.719 37.1723 264.193 37.2 264.586 37.2V35.2C264.279 35.2 263.928 35.1777 263.6 35.1189C263.261 35.058 263.014 34.9694 262.866 34.877L261.806 36.573ZM264.586 37.2C264.909 37.2 265.353 37.1716 265.768 37.1162L265.504 35.1338C265.169 35.1784 264.813 35.2 264.586 35.2V37.2ZM264.796 35.5829C264.225 36.4674 263.786 37.5539 263.786 38.75H265.786C265.786 38.0461 266.047 37.3326 266.476 36.6671L264.796 35.5829ZM263.787 38.7857C263.821 39.7602 264.221 40.704 265.22 41.3516C266.144 41.9505 267.475 42.225 269.236 42.225V40.225C267.622 40.225 266.753 39.962 266.308 39.6734C265.938 39.4335 265.8 39.1398 265.785 38.7143L263.787 38.7857ZM269.236 42.225C271.737 42.225 274.953 41.7781 279.428 38.8902L278.344 37.2098C274.219 39.8719 271.385 40.225 269.236 40.225V42.225ZM279.885 38.1012C279.9 37.8019 279.885 37.4988 279.794 37.224C279.697 36.9288 279.479 36.5848 279.062 36.4253C278.687 36.282 278.359 36.3712 278.21 36.426C278.125 36.4572 278.057 36.4924 278.009 36.5199C277.984 36.5341 277.962 36.5475 277.945 36.5591C277.936 36.5649 277.927 36.5704 277.92 36.5754C277.916 36.578 277.913 36.5804 277.91 36.5827C277.908 36.5839 277.906 36.585 277.905 36.5861C277.904 36.5867 277.903 36.5872 277.903 36.5877C277.902 36.588 277.902 36.5884 277.902 36.5885C277.901 36.5889 277.9 36.5893 278.486 37.4C279.071 38.2107 279.071 38.2111 279.07 38.2115C279.07 38.2116 279.07 38.212 279.069 38.2122C279.069 38.2128 279.068 38.2133 279.067 38.2138C279.066 38.2148 279.064 38.2158 279.063 38.2168C279.06 38.2188 279.057 38.2208 279.054 38.2228C279.049 38.2266 279.043 38.2304 279.037 38.2341C279.026 38.2414 279.014 38.2488 279.002 38.256C278.978 38.2695 278.944 38.2869 278.901 38.3029C278.835 38.3272 278.616 38.3962 278.348 38.2934C278.037 38.1746 277.922 37.9322 277.895 37.8502C277.875 37.7887 277.897 37.8106 277.887 37.9988L279.885 38.1012ZM262.836 35.075C262.523 35.075 262.294 34.9287 262.163 34.7977C262.032 34.6668 261.886 34.4377 261.886 34.125H263.886C263.886 33.7873 263.727 33.5332 263.577 33.3835C263.428 33.2338 263.174 33.075 262.836 33.075V35.075ZM261.886 34.125C261.886 34.0165 261.907 33.93 261.926 33.8729C261.946 33.8159 261.967 33.7761 261.979 33.755C262.002 33.7166 262.016 33.7057 261.999 33.7239C261.985 33.7388 261.962 33.7607 261.929 33.7904C261.895 33.8202 261.862 33.8476 261.821 33.8818L263.101 35.4182C263.164 35.3657 263.322 35.2369 263.461 35.0886C263.531 35.0131 263.623 34.9052 263.702 34.7715C263.775 34.6476 263.886 34.4202 263.886 34.125H261.886ZM263.461 34.65C263.461 34.6191 263.47 34.6656 263.417 34.757C263.386 34.809 263.325 34.8908 263.217 34.9611C263.102 35.0361 262.967 35.075 262.836 35.075V33.075C262.274 33.075 261.888 33.4102 261.693 33.743C261.514 34.0469 261.461 34.3809 261.461 34.65H263.461ZM295.126 37.375L294.701 36.4702L294.662 36.4885L294.624 36.5102L295.126 37.375ZM278.301 39.95H277.301V39.9643L277.302 39.9786L278.301 39.95ZM278.876 38.05L279.193 37.1013L278.437 36.8493L278.022 37.5301L278.876 38.05ZM277.551 39.95H276.551V39.9594L276.552 39.9689L277.551 39.95ZM295.476 38.05L295.978 38.9153L296.428 38.6542L296.473 38.1354L295.476 38.05ZM279.376 37.4L278.631 36.7332L277.573 37.9157L279.096 38.36L279.376 37.4ZM294.624 36.5102C291.616 38.2566 286.316 40.425 280.901 40.425V42.425C286.786 42.425 292.436 40.0934 295.629 38.2398L294.624 36.5102ZM280.901 40.425C280.025 40.425 279.607 40.2809 279.433 40.1709C279.334 40.1081 279.305 40.0631 279.301 39.9214L277.302 39.9786C277.323 40.7119 277.643 41.4044 278.363 41.8603C279.008 42.2691 279.878 42.425 280.901 42.425V40.425ZM279.301 39.95C279.301 39.4985 279.453 39.0265 279.731 38.5699L278.022 37.5301C277.6 38.2235 277.301 39.0515 277.301 39.95H279.301ZM278.56 38.9987C279.413 39.2831 280.32 39.425 281.176 39.425V37.425C280.533 37.425 279.839 37.3169 279.193 37.1013L278.56 38.9987ZM281.176 39.425C281.859 39.425 282.77 39.2313 283.542 38.7898C284.324 38.3421 285.126 37.5284 285.126 36.275H283.126C283.126 36.5466 282.978 36.8079 282.548 37.0539C282.108 37.3062 281.544 37.425 281.176 37.425V39.425ZM285.126 36.275C285.126 35.7001 284.911 35.1143 284.434 34.6797C283.961 34.2484 283.324 34.05 282.626 34.05V36.05C282.953 36.05 283.067 36.1391 283.087 36.1578C283.104 36.1732 283.126 36.1999 283.126 36.275H285.126ZM282.626 34.05C281.129 34.05 279.627 34.7766 278.516 35.8124C277.403 36.8503 276.551 38.3233 276.551 39.95H278.551C278.551 39.0267 279.05 38.0497 279.88 37.2751C280.713 36.4984 281.749 36.05 282.626 36.05V34.05ZM276.552 39.9689C276.569 40.8763 276.903 41.7538 277.734 42.365C278.512 42.9371 279.593 43.175 280.901 43.175V41.175C279.785 41.175 279.203 40.9629 278.919 40.7537C278.688 40.5837 278.559 40.3487 278.551 39.9311L276.552 39.9689ZM280.901 43.175C286.96 43.175 292.735 40.7942 295.978 38.9153L294.975 37.1847C291.918 38.9558 286.493 41.175 280.901 41.175V43.175ZM296.473 38.1354C296.513 37.669 296.489 36.9219 295.852 36.5318C295.547 36.3446 295.243 36.3421 295.061 36.3659C294.968 36.3782 294.89 36.3991 294.833 36.4178C294.804 36.4274 294.778 36.4371 294.756 36.4459C294.745 36.4503 294.735 36.4546 294.726 36.4587C294.721 36.4607 294.717 36.4627 294.713 36.4646C294.711 36.4656 294.708 36.4665 294.706 36.4674C294.705 36.4679 294.704 36.4684 294.703 36.4688C294.703 36.4691 294.702 36.4694 294.702 36.4695C294.701 36.4698 294.701 36.4702 295.126 37.375C295.552 38.2798 295.551 38.2802 295.551 38.2805C295.55 38.2806 295.55 38.2809 295.549 38.2812C295.548 38.2816 295.547 38.282 295.546 38.2825C295.545 38.2834 295.543 38.2842 295.541 38.2851C295.537 38.2868 295.533 38.2885 295.529 38.2902C295.522 38.2936 295.514 38.2969 295.506 38.3001C295.49 38.3064 295.474 38.3126 295.456 38.3184C295.422 38.3296 295.376 38.3417 295.322 38.3489C295.217 38.3626 295.015 38.3648 294.807 38.237C294.587 38.1021 294.51 37.9158 294.491 37.8458C294.475 37.7907 294.493 37.8097 294.48 37.9646L296.473 38.1354ZM282.626 36.8C282.761 36.8 282.719 36.8309 282.615 36.7561C282.559 36.7158 282.495 36.6507 282.446 36.5572C282.397 36.4638 282.376 36.3652 282.376 36.275H284.376C284.376 35.8188 284.157 35.4014 283.781 35.1314C283.434 34.8816 283.016 34.8 282.626 34.8V36.8ZM282.376 36.275C282.376 36.2758 282.376 36.2738 282.377 36.2701C282.378 36.2663 282.379 36.2628 282.38 36.2601C282.382 36.2542 282.381 36.2591 282.369 36.2745C282.339 36.3109 282.267 36.3765 282.124 36.4487C281.829 36.5983 281.437 36.675 281.176 36.675V38.675C281.716 38.675 282.424 38.5392 283.029 38.2326C283.612 37.9367 284.376 37.3224 284.376 36.275H282.376ZM281.176 36.675C280.688 36.675 280.183 36.5936 279.656 36.44L279.096 38.36C279.77 38.5564 280.465 38.675 281.176 38.675V36.675ZM280.122 38.0668C280.826 37.2795 281.821 36.8 282.626 36.8V34.8C281.132 34.8 279.627 35.6205 278.631 36.7332L280.122 38.0668ZM316.778 38.05L317.319 38.8908L317.709 38.6399L317.769 38.1805L316.778 38.05ZM316.378 37.4L315.882 36.5318L315.862 36.5431L315.843 36.5554L316.378 37.4ZM306.928 27.425L307.822 27.8722L307.88 27.7561L307.907 27.629L306.928 27.425ZM306.228 27.175L305.837 26.2544L305.477 26.4073L305.316 26.7642L306.228 27.175ZM299.703 35.525L300.697 35.4203L300.693 35.3743L300.684 35.3289L299.703 35.525ZM300.453 35.375L301.381 35.7464L301.499 35.4519L301.426 35.1434L300.453 35.375ZM304.403 32.45L305.365 32.7211L303.535 31.9534L304.403 32.45ZM317.769 38.1805C317.809 37.8807 317.816 37.5602 317.726 37.2603C317.624 36.9195 317.384 36.5868 316.979 36.4335C316.634 36.3031 316.328 36.3657 316.187 36.4053C316.106 36.4282 316.038 36.4553 315.99 36.477C315.965 36.4881 315.944 36.4987 315.926 36.5079C315.917 36.5125 315.909 36.5169 315.901 36.5209C315.898 36.5229 315.894 36.5248 315.891 36.5266C315.889 36.5275 315.888 36.5284 315.886 36.5292C315.885 36.5297 315.885 36.5301 315.884 36.5305C315.884 36.5307 315.883 36.531 315.883 36.5311C315.882 36.5315 315.882 36.5318 316.378 37.4C316.874 38.2682 316.874 38.2685 316.873 38.2689C316.873 38.269 316.872 38.2693 316.872 38.2695C316.871 38.2699 316.871 38.2703 316.87 38.2707C316.868 38.2714 316.867 38.2722 316.866 38.273C316.863 38.2745 316.86 38.276 316.858 38.2775C316.852 38.2804 316.847 38.2832 316.842 38.2858C316.832 38.2911 316.821 38.2961 316.81 38.3009C316.79 38.31 316.763 38.321 316.729 38.3307C316.682 38.3437 316.5 38.3906 316.271 38.304C316.146 38.2567 316.033 38.1784 315.947 38.0771C315.864 37.9803 315.826 37.8883 315.81 37.835C315.784 37.7461 315.81 37.7443 315.786 37.9195L317.769 38.1805ZM315.843 36.5554C312.469 38.6939 309.283 39.225 307.403 39.225V41.225C309.623 41.225 313.187 40.6061 316.913 38.2446L315.843 36.5554ZM307.403 39.225C306.516 39.225 306.075 38.9891 305.836 38.7238C305.579 38.4385 305.378 37.926 305.378 37.025H303.378C303.378 38.174 303.627 39.2615 304.351 40.0637C305.093 40.8859 306.165 41.225 307.403 41.225V39.225ZM305.378 37.025C305.378 35.9186 305.727 34.141 306.232 32.3242C306.733 30.5212 307.351 28.8154 307.822 27.8722L306.034 26.9778C305.48 28.0846 304.822 29.9288 304.305 31.7883C303.792 33.634 303.378 35.6314 303.378 37.025H305.378ZM306.928 27.425C307.907 27.629 307.907 27.6284 307.907 27.6278C307.907 27.6276 307.907 27.627 307.907 27.6266C307.908 27.6258 307.908 27.625 307.908 27.6242C307.908 27.6226 307.909 27.6209 307.909 27.6191C307.91 27.6156 307.91 27.6119 307.911 27.608C307.913 27.6001 307.914 27.5914 307.916 27.5818C307.919 27.5628 307.922 27.54 307.925 27.5141C307.931 27.4634 307.936 27.3944 307.934 27.3136C307.931 27.1735 307.905 26.8882 307.716 26.6084C307.49 26.2756 307.134 26.0944 306.753 26.0687C306.425 26.0466 306.11 26.1388 305.837 26.2544L306.618 28.0956C306.758 28.0362 306.737 28.0722 306.618 28.0641C306.548 28.0594 306.444 28.0392 306.331 27.9772C306.216 27.9138 306.124 27.8252 306.059 27.7291C305.942 27.5556 305.936 27.3984 305.935 27.3598C305.934 27.3298 305.936 27.305 305.938 27.2857C305.939 27.2755 305.941 27.2653 305.943 27.2549C305.943 27.2496 305.944 27.2442 305.945 27.2386C305.946 27.2358 305.947 27.2329 305.947 27.23C305.947 27.2286 305.948 27.2271 305.948 27.2256C305.948 27.2248 305.948 27.2241 305.948 27.2233C305.949 27.223 305.949 27.2224 305.949 27.2222C305.949 27.2216 305.949 27.221 306.928 27.425ZM305.316 26.7642C303.798 30.133 302.044 33.2225 300.281 35.4516C299.399 36.5668 298.539 37.436 297.732 38.0186C296.919 38.6059 296.233 38.85 295.678 38.85V40.85C296.81 40.85 297.902 40.3628 298.903 39.64C299.911 38.9125 300.901 37.8926 301.85 36.6922C303.749 34.29 305.582 31.042 307.14 27.5858L305.316 26.7642ZM295.678 38.85C295.712 38.85 295.779 38.8561 295.861 38.8916C295.946 38.9285 296.022 38.9864 296.08 39.0574C296.191 39.1928 296.178 39.2982 296.178 39.25H294.178C294.178 39.5768 294.253 39.9822 294.532 40.3239C294.836 40.6956 295.266 40.85 295.678 40.85V38.85ZM296.178 39.25C296.178 38.8089 296.529 38.0716 297.246 37.3777C297.955 36.6906 298.736 36.325 299.253 36.325V34.325C297.995 34.325 296.739 35.0844 295.854 35.9411C294.977 36.7909 294.178 38.0161 294.178 39.25H296.178ZM299.253 36.325C299.318 36.325 299.263 36.3367 299.155 36.2872C299.094 36.2594 299.002 36.2051 298.913 36.1054C298.82 36.0005 298.752 35.8679 298.722 35.7211L300.684 35.3289C300.592 34.8726 300.272 34.5992 299.988 34.4691C299.73 34.3508 299.463 34.325 299.253 34.325V36.325ZM298.708 35.6297C298.741 35.9396 298.884 36.3531 299.296 36.6063C299.687 36.8469 300.091 36.7996 300.335 36.7245C300.797 36.5822 301.199 36.2034 301.381 35.7464L299.524 35.0036C299.549 34.9429 299.578 34.9103 299.596 34.8934C299.611 34.8792 299.656 34.8408 299.746 34.813C299.828 34.7879 300.075 34.7375 300.344 34.903C300.634 35.0813 300.69 35.3479 300.697 35.4203L298.708 35.6297ZM301.426 35.1434C301.317 34.6882 301.073 34.2531 300.632 33.9522C300.213 33.6658 299.722 33.575 299.253 33.575V35.575C299.483 35.575 299.531 35.6217 299.505 35.6041C299.49 35.5941 299.476 35.5793 299.469 35.5671C299.462 35.5575 299.47 35.5656 299.48 35.6066L301.426 35.1434ZM299.253 33.575C297.839 33.575 296.394 34.4531 295.365 35.4554C294.341 36.4516 293.428 37.8643 293.428 39.25H295.428C295.428 38.6607 295.889 37.7359 296.76 36.8884C297.624 36.0469 298.592 35.575 299.253 35.575V33.575ZM293.428 39.25C293.428 39.8231 293.576 40.4281 293.998 40.9006C294.436 41.3906 295.044 41.6 295.678 41.6V39.6C295.577 39.6 295.525 39.584 295.505 39.5761C295.495 39.5722 295.491 39.5694 295.49 39.569C295.49 39.5687 295.49 39.5687 295.489 39.5682C295.489 39.5675 295.485 39.5637 295.48 39.5547C295.475 39.5454 295.468 39.5295 295.46 39.5049C295.444 39.4547 295.428 39.3722 295.428 39.25H293.428ZM295.678 41.6C297.556 41.6 299.283 40.5703 300.825 39.0577C302.378 37.5343 303.863 35.4076 305.271 32.9466L303.535 31.9534C302.168 34.3424 300.79 36.2907 299.425 37.6298C298.048 38.9797 296.8 39.6 295.678 39.6V41.6ZM303.44 32.1789C302.929 33.9951 302.628 35.6447 302.628 37.025H304.628C304.628 35.9053 304.877 34.4549 305.365 32.7211L303.44 32.1789ZM302.628 37.025C302.628 38.4199 302.926 39.6996 303.773 40.6298C304.638 41.5786 305.899 41.975 307.403 41.975V39.975C306.232 39.975 305.606 39.6714 305.251 39.2827C304.88 38.8754 304.628 38.1801 304.628 37.025H302.628ZM307.403 41.975C309.713 41.975 313.483 41.3607 317.319 38.8908L316.237 37.2092C312.773 39.4393 309.393 39.975 307.403 39.975V41.975Z" fill="white"/>
</g>
<g filter="url(#filter1_d)">
<path d="M94.2578 61.625L97.9766 70.9062L101.695 61.625H103.641V73H102.141V68.5703L102.281 63.7891L98.5469 73H97.3984L93.6719 63.8125L93.8203 68.5703V73H92.3203V61.625H94.2578ZM116.539 70.0312H111.773L110.703 73H109.156L113.5 61.625H114.812L119.164 73H117.625L116.539 70.0312ZM112.227 68.7969H116.094L114.156 63.4766L112.227 68.7969ZM127.555 67.7109L126.164 69.1562V73H124.664V61.625H126.164V67.25L131.219 61.625H133.031L128.555 66.6484L133.383 73H131.586L127.555 67.7109ZM145.094 67.7422H140.164V71.7734H145.891V73H138.664V61.625H145.812V62.8594H140.164V66.5156H145.094V67.7422ZM159.734 61.625V69.3594C159.729 70.4323 159.391 71.3099 158.719 71.9922C158.052 72.6745 157.146 73.0573 156 73.1406L155.602 73.1562C154.357 73.1562 153.365 72.8203 152.625 72.1484C151.885 71.4766 151.51 70.5521 151.5 69.375V61.625H152.984V69.3281C152.984 70.151 153.211 70.7917 153.664 71.25C154.117 71.7031 154.763 71.9297 155.602 71.9297C156.451 71.9297 157.099 71.7031 157.547 71.25C158 70.7969 158.227 70.1589 158.227 69.3359V61.625H159.734ZM167.57 68.5469V73H166.07V61.625H170.266C171.51 61.625 172.484 61.9427 173.188 62.5781C173.896 63.2135 174.25 64.0547 174.25 65.1016C174.25 66.2057 173.904 67.0573 173.211 67.6562C172.523 68.25 171.536 68.5469 170.25 68.5469H167.57ZM167.57 67.3203H170.266C171.068 67.3203 171.682 67.1328 172.109 66.7578C172.536 66.3776 172.75 65.8307 172.75 65.1172C172.75 64.4401 172.536 63.8984 172.109 63.4922C171.682 63.0859 171.096 62.875 170.352 62.8594H167.57V67.3203ZM190.383 70.0312H185.617L184.547 73H183L187.344 61.625H188.656L193.008 73H191.469L190.383 70.0312ZM186.07 68.7969H189.938L188 63.4766L186.07 68.7969ZM202.68 68.3984H200.008V73H198.5V61.625H202.266C203.547 61.625 204.531 61.9167 205.219 62.5C205.911 63.0833 206.258 63.9323 206.258 65.0469C206.258 65.7552 206.065 66.3724 205.68 66.8984C205.299 67.4245 204.768 67.8177 204.086 68.0781L206.758 72.9062V73H205.148L202.68 68.3984ZM200.008 67.1719H202.312C203.057 67.1719 203.648 66.9792 204.086 66.5938C204.529 66.2083 204.75 65.6927 204.75 65.0469C204.75 64.3438 204.539 63.8047 204.117 63.4297C203.701 63.0547 203.096 62.8646 202.305 62.8594H200.008V67.1719ZM219.883 62.8594H216.227V73H214.734V62.8594H211.086V61.625H219.883V62.8594ZM226.836 73H225.336V61.625H226.836V73ZM236.906 67.9297C235.62 67.5599 234.682 67.1068 234.094 66.5703C233.51 66.0286 233.219 65.362 233.219 64.5703C233.219 63.6745 233.576 62.9349 234.289 62.3516C235.008 61.763 235.94 61.4688 237.086 61.4688C237.867 61.4688 238.562 61.6198 239.172 61.9219C239.786 62.224 240.26 62.6406 240.594 63.1719C240.932 63.7031 241.102 64.2839 241.102 64.9141H239.594C239.594 64.2266 239.375 63.6875 238.938 63.2969C238.5 62.901 237.883 62.7031 237.086 62.7031C236.346 62.7031 235.768 62.8672 235.352 63.1953C234.94 63.5182 234.734 63.9688 234.734 64.5469C234.734 65.0104 234.93 65.4036 235.32 65.7266C235.716 66.0443 236.385 66.3359 237.328 66.6016C238.276 66.8672 239.016 67.1615 239.547 67.4844C240.083 67.8021 240.479 68.1745 240.734 68.6016C240.995 69.0286 241.125 69.5312 241.125 70.1094C241.125 71.0312 240.766 71.7708 240.047 72.3281C239.328 72.8802 238.367 73.1562 237.164 73.1562C236.383 73.1562 235.654 73.0078 234.977 72.7109C234.299 72.4089 233.776 71.9974 233.406 71.4766C233.042 70.9557 232.859 70.3646 232.859 69.7031H234.367C234.367 70.3906 234.62 70.9349 235.125 71.3359C235.635 71.7318 236.315 71.9297 237.164 71.9297C237.956 71.9297 238.562 71.7682 238.984 71.4453C239.406 71.1224 239.617 70.6823 239.617 70.125C239.617 69.5677 239.422 69.138 239.031 68.8359C238.641 68.5286 237.932 68.2266 236.906 67.9297ZM254.57 62.8594H250.914V73H249.422V62.8594H245.773V61.625H254.57V62.8594Z" fill="white"/>
</g>
<path d="M85 68L0 68" stroke="white" stroke-width="4"/>
<line x1="344" y1="2" y2="2" stroke="white" stroke-width="4"/>
<path d="M344 68L259.5 68" stroke="white" stroke-width="4"/>
<line x1="2" y1="-8.74228e-08" x2="2" y2="66" stroke="white" stroke-width="4"/>
<line x1="342" y1="4" x2="342" y2="70" stroke="white" stroke-width="4"/>
<defs>
<filter id="filter0_d" x="15.275" y="15.275" width="306.522" height="42.45" filterUnits="userSpaceOnUse" color-interpolation-filters="sRGB">
<feFlood flood-opacity="0" result="BackgroundImageFix"/>
<feColorMatrix in="SourceAlpha" type="matrix" values="0 0 0 0 0 0 0 0 0 0 0 0 0 0 0 0 0 0 127 0"/>
<feOffset dy="4"/>
<feGaussianBlur stdDeviation="2"/>
<feColorMatrix type="matrix" values="0 0 0 0 0 0 0 0 0 0 0 0 0 0 0 0 0 0 0.25 0"/>
<feBlend mode="normal" in2="BackgroundImageFix" result="effect1_dropShadow"/>
<feBlend mode="normal" in="SourceGraphic" in2="effect1_dropShadow" result="shape"/>
</filter>
<filter id="filter1_d" x="88.3203" y="61.4688" width="170.25" height="19.6875" filterUnits="userSpaceOnUse" color-interpolation-filters="sRGB">
<feFlood flood-opacity="0" result="BackgroundImageFix"/>
<feColorMatrix in="SourceAlpha" type="matrix" values="0 0 0 0 0 0 0 0 0 0 0 0 0 0 0 0 0 0 127 0"/>
<feOffset dy="4"/>
<feGaussianBlur stdDeviation="2"/>
<feColorMatrix type="matrix" values="0 0 0 0 0 0 0 0 0 0 0 0 0 0 0 0 0 0 0.25 0"/>
<feBlend mode="normal" in2="BackgroundImageFix" result="effect1_dropShadow"/>
<feBlend mode="normal" in="SourceGraphic" in2="effect1_dropShadow" result="shape"/>
</filter>
</defs>
</svg>
