<svg width="328" height="33" viewBox="0 0 328 33" fill="none" xmlns="http://www.w3.org/2000/svg">
<path d="M25.3228 0.703594H29.6594V32.3871H25.7336L4.41593 8.00645V32.3871H0.125V0.703594H3.8225L25.3228 25.2884V0.703594Z" fill="black"/>
<path d="M46.6861 0.522156H49.9043L64.1694 32.3871H59.4905L55.2452 22.9977H41.6877L37.6706 32.3871H32.9917L46.6861 0.522156ZM53.3736 18.9607L48.2382 7.48482L43.468 18.9607H53.3736Z" fill="black"/>
<path d="M81.4701 0.25C86.4001 0.25 90.5008 1.79978 93.7722 4.89934C97.0589 7.99889 98.7023 11.8847 98.7023 16.5567C98.7023 21.2287 97.0437 25.0994 93.7266 28.1687C90.4247 31.2229 86.2555 32.75 81.219 32.75C76.4107 32.75 72.4013 31.2229 69.1907 28.1687C65.9953 25.0994 64.3976 21.259 64.3976 16.6474C64.3976 11.9149 66.0105 7.99889 69.2363 4.89934C72.4622 1.79978 76.5401 0.25 81.4701 0.25ZM81.6527 4.55914C78.0008 4.55914 74.9956 5.69313 72.6371 7.9611C70.2939 10.2291 69.1222 13.1245 69.1222 16.6474C69.1222 20.0645 70.3015 22.907 72.66 25.175C75.0185 27.443 77.9704 28.5769 81.5157 28.5769C85.0763 28.5769 88.0434 27.4203 90.4171 25.1069C92.806 22.7936 94.0005 19.9133 94.0005 16.466C94.0005 13.1094 92.806 10.2895 90.4171 8.00645C88.0434 5.70825 85.1219 4.55914 81.6527 4.55914Z" fill="black"/>
<path d="M129.675 0.703594H133.92V32.3871H129.332V7.7343L119.518 19.9813H118.673L108.768 7.7343V32.3871H104.203V0.703594H108.494L119.107 13.7217L129.675 0.703594Z" fill="black"/>
<path d="M140.858 0.703594H145.423V32.3871H140.858V0.703594Z" fill="black"/>
<path d="M165.508 0.703594H183.585V4.74058H170.073V14.4021H183.129V18.4618H170.073V28.3048H184.019V32.3418H165.508V0.703594Z" fill="black"/>
<path d="M188.88 0.703594H193.445V28.2594H207.801V32.3871H188.88V0.703594Z" fill="black"/>
<path d="M211.841 32.3418V0.703594H222.591C226.928 0.703594 230.359 1.35375 232.885 2.65405C235.411 3.93923 237.419 5.83676 238.911 8.34665C240.402 10.8565 241.147 13.5932 241.147 16.5567C241.147 18.6735 240.737 20.6995 239.915 22.6349C239.093 24.5702 237.922 26.2712 236.4 27.7378C234.848 29.2498 233.045 30.3913 230.991 31.1624C229.789 31.6311 228.685 31.9487 227.681 32.115C226.677 32.2662 224.76 32.3418 221.93 32.3418H211.841ZM222.112 4.74058H216.406V28.3048H222.249C224.531 28.3048 226.304 28.1536 227.567 27.8512C228.83 27.5337 229.88 27.1406 230.717 26.6718C231.569 26.188 232.345 25.5983 233.045 24.9028C235.297 22.6349 236.423 19.7697 236.423 16.3072C236.423 12.9053 235.266 10.1308 232.954 7.98378C232.101 7.18243 231.12 6.52471 230.009 6.01064C228.914 5.49657 227.871 5.15637 226.882 4.99006C225.893 4.82374 224.303 4.74058 222.112 4.74058Z" fill="black"/>
<path d="M246.99 32.3871V0.703594H254.979C258.205 0.703594 260.761 1.49738 262.648 3.08496C264.55 4.67254 265.501 6.81955 265.501 9.52599C265.501 11.3706 265.037 12.9657 264.108 14.3114C263.18 15.6571 261.849 16.6625 260.114 17.3278C261.134 17.9931 262.13 18.9003 263.104 20.0494C264.078 21.1985 265.447 23.2018 267.213 26.0595C268.323 27.8587 269.213 29.212 269.883 30.1192L271.572 32.3871H266.14L264.748 30.3006C264.702 30.225 264.611 30.0965 264.474 29.915L263.583 28.6677L262.168 26.3543L260.639 23.8822C259.696 22.5819 258.828 21.5462 258.037 20.7751C257.261 20.004 256.554 19.4521 255.915 19.1195C255.291 18.7717 254.233 18.5979 252.742 18.5979H251.555V32.3871H246.99ZM252.925 4.55914H251.555V14.5609H253.29C255.603 14.5609 257.185 14.3643 258.037 13.9712C258.905 13.5781 259.574 12.9884 260.046 12.2022C260.533 11.4008 260.776 10.4937 260.776 9.48063C260.776 8.48273 260.51 7.5831 259.977 6.78175C259.445 5.96528 258.692 5.39073 257.718 5.05809C256.759 4.72546 255.161 4.55914 252.925 4.55914Z" fill="black"/>
<path d="M275.11 0.703594H293.186V4.74058H279.674V14.4021H292.73V18.4618H279.674V28.3048H293.62V32.3418H275.11V0.703594Z" fill="black"/>
<path d="M298.527 32.3418V0.703594H309.277C313.614 0.703594 317.045 1.35375 319.571 2.65405C322.097 3.93923 324.105 5.83676 325.597 8.34665C327.088 10.8565 327.833 13.5932 327.833 16.5567C327.833 18.6735 327.422 20.6995 326.601 22.6349C325.779 24.5702 324.608 26.2712 323.086 27.7378C321.534 29.2498 319.731 30.3913 317.677 31.1624C316.475 31.6311 315.371 31.9487 314.367 32.115C313.363 32.2662 311.446 32.3418 308.615 32.3418H298.527ZM308.798 4.74058H303.092V28.3048H308.935C311.217 28.3048 312.99 28.1536 314.253 27.8512C315.516 27.5337 316.566 27.1406 317.403 26.6718C318.255 26.188 319.031 25.5983 319.731 24.9028C321.983 22.6349 323.109 19.7697 323.109 16.3072C323.109 12.9053 321.952 10.1308 319.639 7.98378C318.787 7.18243 317.806 6.52471 316.695 6.01064C315.6 5.49657 314.557 5.15637 313.568 4.99006C312.579 4.82374 310.989 4.74058 308.798 4.74058Z" fill="black"/>
</svg>
